<svg width="484" height="71" viewBox="0 0 484 71" fill="none" xmlns="http://www.w3.org/2000/svg">
<path d="M149.166 13.3438L164.898 50.9902L180.689 13.3438H185.494V56H181.891V37.4258L182.184 18.3828L166.305 56H163.521L147.701 18.5293L147.994 37.3086V56H144.391V13.3438H149.166ZM224.489 13.3438V42.4648C224.47 45.3359 223.835 47.8359 222.585 49.9648C221.335 52.0938 219.568 53.7344 217.282 54.8867C215.017 56.0195 212.409 56.5859 209.46 56.5859C204.968 56.5859 201.364 55.3652 198.65 52.9238C195.954 50.4629 194.558 47.0645 194.46 42.7285V13.3438H198.034V42.2012C198.034 45.7949 199.06 48.5879 201.111 50.5801C203.161 52.5527 205.945 53.5391 209.46 53.5391C212.976 53.5391 215.749 52.543 217.78 50.5508C219.831 48.5586 220.857 45.7852 220.857 42.2305V13.3438H224.489ZM264.95 56H261.317V35.5508H236.942V56H233.338V13.3438H236.942V32.5039H261.317V13.3438H264.95V56ZM298.173 44.0469H278.808L274.414 56H270.634L286.777 13.3438H290.205L306.347 56H302.597L298.173 44.0469ZM279.921 40.9707H297.031L288.476 17.7383L279.921 40.9707ZM316.221 13.3438L331.954 50.9902L347.745 13.3438H352.55V56H348.946V37.4258L349.239 18.3828L333.36 56H330.577L314.757 18.5293L315.05 37.3086V56H311.446V13.3438H316.221ZM366.936 13.3438L382.668 50.9902L398.459 13.3438H403.264V56H399.66V37.4258L399.953 18.3828L384.074 56H381.291L365.471 18.5293L365.764 37.3086V56H362.16V13.3438H366.936ZM436.429 44.0469H417.064L412.669 56H408.89L425.032 13.3438H428.46L444.603 56H440.853L436.429 44.0469ZM418.177 40.9707H435.286L426.732 17.7383L418.177 40.9707ZM449.702 56V13.3438H461.625C465.121 13.3438 468.256 14.1445 471.03 15.7461C473.803 17.3281 475.961 19.6035 477.504 22.5723C479.067 25.541 479.848 28.9199 479.848 32.709V36.6348C479.848 40.4434 479.077 43.8223 477.534 46.7715C475.991 49.7207 473.813 51.9961 471 53.5977C468.207 55.1992 464.995 56 461.362 56H449.702ZM453.305 16.4199V52.9531H461.391C465.883 52.9531 469.487 51.4688 472.202 48.5C474.916 45.5117 476.274 41.4785 476.274 36.4004V32.6504C476.274 27.748 474.936 23.8223 472.26 20.873C469.584 17.9238 466.059 16.4395 461.684 16.4199H453.305Z" fill="#9A9FAB"/>
<path d="M28.4512 48.0312H14.3594L11.8984 56H0.912109L16.5566 13.3438H26.2246L41.9863 56H30.9414L28.4512 48.0312ZM16.8203 40.0918H25.9902L21.3906 25.2969L16.8203 40.0918ZM59.7707 40.9414H54.2043V56H43.9211V13.3438H60.7082C65.7668 13.3438 69.7219 14.4668 72.5734 16.7129C75.425 18.959 76.8508 22.1328 76.8508 26.2344C76.8508 29.2031 76.2453 31.6641 75.0344 33.6172C73.843 35.5703 71.968 37.1523 69.4094 38.3633L78.3156 55.5605V56H67.3L59.7707 40.9414ZM54.2043 33.002H60.7082C62.6613 33.002 64.1262 32.4941 65.1027 31.4785C66.0988 30.4434 66.5969 29.0078 66.5969 27.1719C66.5969 25.3359 66.0988 23.9004 65.1027 22.8652C64.1066 21.8105 62.6418 21.2832 60.7082 21.2832H54.2043V33.002ZM92.8187 56H82.5648V13.3438H92.8187V56ZM125.632 39.0078H109.05V56H98.7672V13.3438H127.302V21.2832H109.05V31.0977H125.632V39.0078Z" fill="#343F56"/>
<rect x="1" y="65" width="53" height="6" fill="#FF8C00"/>
</svg>
