<svg width="40" height="500" viewBox="0 0 40 500" fill="none" xmlns="http://www.w3.org/2000/svg">
<path d="M12 6.00001C12.0001 5.10553 11.7999 4.22239 11.4141 3.4154C11.0283 2.6084 10.4667 1.89804 9.77054 1.33643C9.76484 1.33079 9.75986 1.32467 9.7535 1.31951C9.74624 1.31408 9.73866 1.30907 9.73082 1.30451C8.84784 0.601251 7.78411 0.161806 6.66223 0.0368286C5.54035 -0.0881491 4.40598 0.106427 3.38988 0.598131C3.37595 0.603502 3.36255 0.610171 3.34986 0.618052C2.52584 1.02535 1.80601 1.61592 1.24556 2.34448C0.685111 3.07305 0.298914 3.92026 0.116575 4.82118C0.116275 4.82238 0.115735 4.82352 0.115495 4.82478C0.115255 4.82598 0.115435 4.82712 0.115195 4.82832C-0.105963 5.94044 -0.00735273 7.09246 0.399591 8.15081C0.806534 9.20916 1.50514 10.1305 2.4144 10.8079C2.42733 10.8207 2.44169 10.832 2.45718 10.8416C2.46084 10.8438 2.46474 10.8454 2.46846 10.8474C3.25405 11.4211 4.1675 11.7948 5.12988 11.9363C6.09226 12.0778 7.07462 11.9828 7.99207 11.6596C8.00486 11.6562 8.01734 11.6518 8.0294 11.6464C9.1912 11.2273 10.1957 10.4604 10.9061 9.45012C11.6166 8.43981 11.9985 7.23516 12 6.00007V6.00001ZM8.26441 11.0339C8.3912 10.3976 8.45517 9.75035 8.4554 9.10153C8.45503 8.26625 8.3486 7.43439 8.13866 6.62593C9.00277 6.37016 9.89921 6.24015 10.8004 6.23989C11.0377 6.23989 11.2767 6.24901 11.5134 6.26677C11.4631 7.28342 11.1331 8.26646 10.5598 9.10759C9.98656 9.94871 9.19226 10.6153 8.26441 11.0339ZM11.5155 5.7858C11.2779 5.76876 11.0383 5.75988 10.8004 5.75988C9.85479 5.76017 8.91415 5.89637 8.00731 6.16429C7.78768 5.45891 7.48877 4.78072 7.11631 4.1427C7.08727 4.09296 7.05673 4.0443 7.02679 3.9951C8.01177 3.43353 8.89244 2.70618 9.63002 1.84505C10.1964 2.33866 10.6558 2.94288 10.98 3.62057C11.3043 4.29826 11.4865 5.0351 11.5155 5.7858ZM9.25526 1.54499C8.55026 2.3651 7.70863 3.05699 6.76765 3.59004C6.03155 2.50479 5.08729 1.5765 3.98964 0.859012C4.8541 0.520742 5.78999 0.406257 6.71049 0.526176C7.631 0.646096 8.50632 0.996537 9.25526 1.54499ZM3.46668 1.09661C4.60662 1.78974 5.58634 2.71708 6.34099 3.81726C5.04265 4.46497 3.6113 4.80139 2.16036 4.79988C1.65131 4.79983 1.1431 4.7587 0.640676 4.67688C0.830764 3.91379 1.18107 3.19988 1.66832 2.58259C2.15556 1.96531 2.7686 1.45878 3.46668 1.09667V1.09661ZM0.479996 6.00007C0.479947 5.71476 0.501932 5.42987 0.545756 5.14794C1.07947 5.23579 1.61946 5.27994 2.16036 5.27994C3.70396 5.28172 5.22626 4.91967 6.60379 4.22316C6.63673 4.27692 6.67009 4.3305 6.70195 4.38498C7.05687 4.99301 7.34156 5.6394 7.55053 6.31171C6.97626 6.5117 6.42193 6.76492 5.89477 7.06807C4.53042 7.85575 3.37364 8.95752 2.52048 10.2819C1.88306 9.76511 1.36909 9.1125 1.01607 8.37172C0.663056 7.63093 0.479908 6.82067 0.479996 6.00007ZM2.90658 10.5697C3.71974 9.29734 4.82677 8.23906 6.13441 7.48399C6.62719 7.20066 7.14497 6.96322 7.68121 6.77467C7.87616 7.53496 7.975 8.3167 7.97539 9.10159C7.97534 9.8224 7.89243 10.5408 7.72831 11.2427C6.92671 11.5071 6.07511 11.5838 5.23914 11.4671C4.40317 11.3504 3.60515 11.0434 2.90658 10.5696V10.5697Z" fill="#9A9FAB"/>
<path d="M10.7059 12H1.29412C0.951016 12.0004 0.622078 12.1369 0.379468 12.3795C0.136858 12.6221 0.000389225 12.951 0 13.2941V19.8824C0.000389225 20.2255 0.136858 20.5544 0.379468 20.797C0.622078 21.0396 0.951016 21.1761 1.29412 21.1765H5.64706V22.3529H4.11765C4.02404 22.3529 3.93427 22.3901 3.86808 22.4563C3.80189 22.5225 3.76471 22.6123 3.76471 22.7059C3.76471 22.7995 3.80189 22.8893 3.86808 22.9555C3.93427 23.0216 4.02404 23.0588 4.11765 23.0588H7.88235C7.97596 23.0588 8.06573 23.0216 8.13192 22.9555C8.19811 22.8893 8.23529 22.7995 8.23529 22.7059C8.23529 22.6123 8.19811 22.5225 8.13192 22.4563C8.06573 22.3901 7.97596 22.3529 7.88235 22.3529H6.35294V21.1765H10.7059C11.049 21.1761 11.3779 21.0396 11.6205 20.797C11.8631 20.5544 11.9996 20.2255 12 19.8824V13.2941C11.9996 12.951 11.8631 12.6221 11.6205 12.3795C11.3779 12.1369 11.049 12.0004 10.7059 12ZM1.29412 12.7059H10.7059C10.8618 12.7061 11.0114 12.7681 11.1216 12.8784C11.2319 12.9886 11.2939 13.1382 11.2941 13.2941V18.1176H0.705882V13.2941C0.706054 13.1382 0.768083 12.9886 0.878362 12.8784C0.98864 12.7681 1.13816 12.7061 1.29412 12.7059ZM10.7059 20.4706H1.29412C1.13816 20.4704 0.98864 20.4084 0.878362 20.2981C0.768083 20.1878 0.706054 20.0383 0.705882 19.8824V18.8235H11.2941V19.8824C11.2939 20.0383 11.2319 20.1878 11.1216 20.2981C11.0114 20.4084 10.8618 20.4704 10.7059 20.4706Z" fill="#9A9FAB"/>
<path d="M11.6471 27.2908H8.64753L9.17076 24.4128C9.18653 24.3211 9.16546 24.2269 9.11215 24.1507C9.05883 24.0744 8.97757 24.0223 8.88605 24.0057C8.79453 23.9891 8.70013 24.0092 8.6234 24.0618C8.54667 24.1144 8.4938 24.1952 8.47629 24.2865L7.93 27.2908H4.88276L5.406 24.4128C5.42176 24.3211 5.4007 24.2269 5.34738 24.1507C5.29406 24.0744 5.21281 24.0223 5.12128 24.0057C5.02976 23.9891 4.93537 24.0092 4.85864 24.0618C4.7819 24.1144 4.72904 24.1952 4.71153 24.2865L4.16529 27.2908H1.03747C0.943865 27.2908 0.854093 27.328 0.787903 27.3942C0.721714 27.4604 0.684529 27.5501 0.684529 27.6438C0.684529 27.7374 0.721714 27.8271 0.787903 27.8933C0.854093 27.9595 0.943865 27.9967 1.03747 27.9967H4.037L3.48082 31.0555H0.352941C0.259335 31.0555 0.169563 31.0927 0.103374 31.1589C0.0371847 31.2251 0 31.3149 0 31.4085C0 31.5021 0.0371847 31.5918 0.103374 31.658C0.169563 31.7242 0.259335 31.7614 0.352941 31.7614H3.35247L2.82924 34.6395C2.8125 34.7316 2.83303 34.8265 2.88631 34.9035C2.93959 34.9804 3.02126 35.0331 3.11335 35.0498C3.13432 35.0536 3.15558 35.0556 3.17688 35.0556C3.25947 35.0554 3.33939 35.0264 3.40275 34.9734C3.46612 34.9204 3.50892 34.8469 3.52371 34.7657L4.07 31.7614H7.11724L6.594 34.6395C6.57726 34.7316 6.5978 34.8265 6.65108 34.9035C6.70436 34.9804 6.78603 35.0331 6.87812 35.0498C6.89908 35.0536 6.92034 35.0556 6.94165 35.0556C7.02423 35.0554 7.10415 35.0264 7.16752 34.9734C7.23088 34.9204 7.27368 34.8469 7.28847 34.7657L7.83471 31.7614H10.9626C11.0562 31.7614 11.146 31.7242 11.2122 31.658C11.2783 31.5918 11.3155 31.5021 11.3155 31.4085C11.3155 31.3149 11.2783 31.2251 11.2122 31.1589C11.146 31.0927 11.0562 31.0555 10.9626 31.0555H7.96306L8.51923 27.9967H11.6471C11.7407 27.9967 11.8304 27.9595 11.8966 27.8933C11.9628 27.8271 12 27.7374 12 27.6438C12 27.5501 11.9628 27.4604 11.8966 27.3942C11.8304 27.328 11.7407 27.2908 11.6471 27.2908ZM7.24553 31.0555H4.19829L4.75447 27.9967H7.80171L7.24553 31.0555Z" fill="#9A9FAB"/>
<path d="M2.94109 39.9802L0.781658 41.7796L2.94114 43.5791C3.00331 43.6309 3.04235 43.7053 3.04968 43.7859C3.057 43.8665 3.03202 43.9467 2.98021 44.0089C2.92841 44.071 2.85403 44.1101 2.77344 44.1174C2.69285 44.1247 2.61265 44.0997 2.55048 44.0479L0.109815 42.0141C0.0754448 41.9854 0.0477917 41.9496 0.0288144 41.9091C0.00983712 41.8686 0 41.8244 0 41.7796C0 41.7349 0.00983712 41.6907 0.0288144 41.6502C0.0477917 41.6097 0.0754448 41.5739 0.109815 41.5452L2.55048 39.5114C2.61265 39.4596 2.69284 39.4346 2.77343 39.4419C2.85402 39.4492 2.92839 39.4883 2.98019 39.5505C3.03199 39.6126 3.05697 39.6928 3.04963 39.7734C3.0423 39.854 3.00325 39.9284 2.94109 39.9802ZM11.8902 41.5452L9.44952 39.5114C9.41874 39.4857 9.38321 39.4664 9.34495 39.4545C9.3067 39.4425 9.26647 39.4383 9.22657 39.4419C9.18667 39.4455 9.14787 39.457 9.1124 39.4756C9.07692 39.4942 9.04546 39.5197 9.01981 39.5505C8.99416 39.5812 8.97483 39.6168 8.96292 39.655C8.951 39.6933 8.94674 39.7335 8.95037 39.7734C8.954 39.8133 8.96545 39.8521 8.98408 39.8876C9.0027 39.9231 9.02813 39.9545 9.05891 39.9802L11.2183 41.7796L9.05886 43.5791C8.9967 43.6309 8.95765 43.7053 8.95032 43.7859C8.943 43.8665 8.96798 43.9467 9.01979 44.0089C9.07159 44.071 9.14597 44.1101 9.22656 44.1174C9.30715 44.1247 9.38735 44.0997 9.44952 44.0479L11.8902 42.0141C11.9246 41.9854 11.9522 41.9496 11.9712 41.9091C11.9902 41.8686 12 41.8244 12 41.7796C12 41.7349 11.9902 41.6907 11.9712 41.6502C11.9522 41.6097 11.9246 41.5739 11.8902 41.5452ZM7.7314 37.0184C7.65535 36.9907 7.57144 36.9944 7.49811 37.0286C7.42478 37.0628 7.36805 37.1248 7.34038 37.2008L4.08616 46.1499C4.07247 46.1876 4.06632 46.2275 4.06808 46.2676C4.06984 46.3076 4.07946 46.3469 4.0964 46.3832C4.11334 46.4195 4.13727 46.4521 4.16682 46.4792C4.19636 46.5062 4.23095 46.5272 4.2686 46.5409C4.30626 46.5546 4.34624 46.5608 4.38627 46.559C4.4263 46.5572 4.46559 46.5476 4.5019 46.5307C4.5382 46.5137 4.57082 46.4898 4.59788 46.4603C4.62495 46.4307 4.64592 46.3961 4.65962 46.3585L7.91384 37.4094C7.92753 37.3717 7.93368 37.3317 7.93192 37.2917C7.93016 37.2517 7.92053 37.2124 7.90359 37.1761C7.88664 37.1398 7.86271 37.1071 7.83315 37.0801C7.8036 37.053 7.76901 37.0321 7.73135 37.0184H7.7314Z" fill="#9A9FAB"/>
<path d="M8.53846 48.9231V48.4615C8.53846 48.3391 8.48983 48.2217 8.40328 48.1352C8.31672 48.0486 8.19933 48 8.07692 48C7.95451 48 7.83712 48.0486 7.75057 48.1352C7.66401 48.2217 7.61538 48.3391 7.61538 48.4615V48.9231H3.92308C3.67826 48.9231 3.44347 49.0203 3.27036 49.1934C3.09725 49.3666 3 49.6013 3 49.8462V59.0769C3 59.3217 3.09725 59.5565 3.27036 59.7296C3.44347 59.9027 3.67826 60 3.92308 60H8.53846C8.78328 60 9.01806 59.9027 9.19117 59.7296C9.36428 59.5565 9.46154 59.3217 9.46154 59.0769V49.8462C9.46154 49.6013 9.36428 49.3666 9.19117 49.1934C9.01806 49.0203 8.78328 48.9231 8.53846 48.9231ZM4.84615 59.0769H3.92308V58.1538H4.84615V59.0769ZM4.84615 57.2308H3.92308V56.3077H4.84615V57.2308ZM4.84615 55.3846H3.92308V54.4615H4.84615V55.3846ZM6.69231 59.0769H5.76923V58.1538H6.69231V59.0769ZM6.69231 57.2308H5.76923V56.3077H6.69231V57.2308ZM6.69231 55.3846H5.76923V54.4615H6.69231V55.3846ZM8.53846 59.0769H7.61538V58.1538H8.53846V59.0769ZM8.53846 57.2308H7.61538V56.3077H8.53846V57.2308ZM8.53846 55.3846H7.61538V54.4615H8.53846V55.3846ZM8.53846 53.0769C8.53846 53.1993 8.48983 53.3167 8.40328 53.4033C8.31672 53.4898 8.19933 53.5385 8.07692 53.5385H4.38462C4.26221 53.5385 4.14481 53.4898 4.05826 53.4033C3.9717 53.3167 3.92308 53.1993 3.92308 53.0769V50.3077C3.92308 50.1853 3.9717 50.0679 4.05826 49.9813C4.14481 49.8948 4.26221 49.8462 4.38462 49.8462H8.07692C8.19933 49.8462 8.31672 49.8948 8.40328 49.9813C8.48983 50.0679 8.53846 50.1853 8.53846 50.3077V53.0769Z" fill="#9A9FAB"/>
<path d="M0 62.2C0 61.8817 0.126428 61.5765 0.351472 61.3515C0.576515 61.1264 0.88174 61 1.2 61H10.8C11.1183 61 11.4235 61.1264 11.6485 61.3515C11.8736 61.5765 12 61.8817 12 62.2V69.4C12 69.7183 11.8736 70.0235 11.6485 70.2485C11.4235 70.4736 11.1183 70.6 10.8 70.6H1.2C0.88174 70.6 0.576515 70.4736 0.351472 70.2485C0.126428 70.0235 0 69.7183 0 69.4V62.2ZM2.1114 62.2L6 65.6026L9.8886 62.2H2.112H2.1114ZM10.8 62.9974L6.3954 66.8518C6.28599 66.9477 6.14547 67.0005 6 67.0005C5.85453 67.0005 5.71401 66.9477 5.6046 66.8518L1.2 62.9974V69.4H10.8V62.9974Z" fill="#9A9FAB"/>
<path d="M11.7931 81.8623H3.10326V74.0001H11.7931C11.9074 74.0001 12.0001 74.0927 12.0001 74.207V81.6554C12 81.7697 11.9074 81.8623 11.7931 81.8623Z" fill="#73AF00"/>
<path d="M3.10353 81.8623H0.206911C0.0926507 81.8623 0 81.7696 0 81.6554V74.2069C0 74.0927 0.0926507 74 0.206911 74H3.10353V81.8623Z" fill="#F5F5F5"/>
<path d="M9.65767 79.0137C8.70533 79.8621 7.24746 79.7749 6.40081 78.8209C5.55577 77.8686 5.6413 76.4065 6.59361 75.5582C6.59501 75.557 6.59637 75.5558 6.59778 75.5545C6.62028 75.5348 6.59853 75.4988 6.57059 75.5097C5.63143 75.8754 4.96558 76.7889 4.96558 77.8585C4.96558 79.2518 6.09227 80.3802 7.48219 80.3802C8.44369 80.3802 9.27694 79.8391 9.70021 79.0449C9.71432 79.0184 9.68122 78.9926 9.65882 79.0126C9.65846 79.013 9.65804 79.0134 9.65767 79.0137Z" fill="#F5F5F5"/>
<path d="M8.43277 75.9762L8.76372 76.3474L9.22217 76.1545C9.28151 76.1295 9.33851 76.1945 9.30603 76.2501L9.05517 76.6796L9.38033 77.0559C9.42242 77.1047 9.37826 77.1789 9.31536 77.1652L8.82937 77.0594L8.57188 77.4849C8.53855 77.54 8.45426 77.521 8.44784 77.4569L8.39834 76.962L7.91406 76.8486C7.85137 76.8339 7.84342 76.7479 7.90239 76.722L8.35779 76.522L8.31598 76.0264C8.31056 75.9622 8.38995 75.9281 8.43277 75.9762Z" fill="#F5F5F5"/>
<path d="M12 88.6207H3.72412V86H11.7931C11.9073 86 12 86.0927 12 86.2069L12 88.6207Z" fill="#73AF00"/>
<path d="M11.7931 93.8621H3.72412V91.2414H12V93.6552C12 93.7695 11.9073 93.8621 11.7931 93.8621Z" fill="#464655"/>
<path d="M12.0001 88.6207H3.72432V91.2412H12.0001V88.6207Z" fill="#F5F5F5"/>
<path d="M3.72415 93.8621H0.206906C0.0926484 93.8621 0 93.7694 0 93.6552V86.2069C0 86.0926 0.0926484 86 0.206906 86H3.72415V93.8621Z" fill="#FF4B55"/>
<path d="M2.66665 109.333C2.66665 110.041 2.19332 110.651 1.33266 110.651C0.522663 110.651 0 110.076 0 109.368C0 108.641 0.506663 108 1.33332 108C2.15999 108 2.65065 108.607 2.66665 109.333ZM0 120V111.333H2.66665V120H0Z" fill="#9A9FAB"/>
<path d="M4.00004 114.296C4.00004 113.266 3.96604 112.405 3.93204 111.662H6.32802L6.44669 112.811H6.49736C6.83469 112.27 7.66135 111.477 9.04534 111.477C10.7333 111.477 12 112.607 12 115.039V120H9.33334V115.426C9.33334 114.363 8.92867 113.553 8.00001 113.553C7.29202 113.553 6.93735 114.126 6.75135 114.599C6.68336 114.768 6.66669 115.004 6.66669 115.241V120H4.00004V114.296Z" fill="#9A9FAB"/>
<path d="M4.99554 126.991C4.99554 127.508 4.62054 127.671 4.15982 127.671H2.95179V126.254H4.18393C4.68214 126.257 4.99554 126.463 4.99554 126.991V126.991ZM4.78929 124.787C4.78929 124.312 4.42232 124.2 4.01518 124.2H2.95446V125.4H4.09821C4.50268 125.4 4.78929 125.223 4.78929 124.787V124.787ZM8.33304 125.408C7.84286 125.408 7.51607 125.713 7.48393 126.204H9.15C9.10446 125.708 8.84732 125.408 8.33304 125.408ZM12 121.286V130.714C12 131.424 11.4241 132 10.7143 132H1.28571C0.575893 132 0 131.424 0 130.714V121.286C0 120.576 0.575893 120 1.28571 120H10.7143C11.4241 120 12 120.576 12 121.286ZM7.27768 124.098H9.36161V123.592H7.27768V124.098ZM6.12589 127.053C6.12589 126.407 5.82054 125.85 5.18839 125.671C5.64911 125.451 5.89018 125.196 5.89018 124.679C5.89018 123.656 5.12679 123.407 4.24554 123.407H1.82143V128.55H4.31518C5.25 128.545 6.12589 128.097 6.12589 127.053V127.053ZM10.1786 126.656C10.1786 125.555 9.53304 124.637 8.36786 124.637C7.23214 124.637 6.46339 125.488 6.46339 126.608C6.46339 127.768 7.19464 128.563 8.36786 128.563C9.25714 128.563 9.83304 128.164 10.1116 127.31H9.20893C9.10982 127.629 8.71071 127.795 8.4 127.795C7.8 127.795 7.48661 127.444 7.48661 126.849H10.1705C10.1732 126.788 10.1786 126.721 10.1786 126.656Z" fill="#9A9FAB"/>
<path d="M10.5468 133C10.2224 132.995 9.46888 133.105 8.21073 133.948C7.52502 133.776 6.79543 133.692 6.06459 133.692C5.26046 133.692 4.44783 133.794 3.69 134.002C1.88366 132.769 1.08636 133.022 1.08636 133.022C0.565848 134.323 0.8875 135.287 0.985263 135.527C0.373479 136.187 0 137.03 0 138.063C0 138.843 0.088791 139.543 0.305721 140.151C0.317752 140.198 0.313852 140.188 0.334122 140.228C0.381914 140.354 0.435052 140.476 0.494777 140.594C0.515242 140.637 0.53387 140.668 0.53387 140.668C1.14368 141.805 2.34581 142.539 4.48469 142.77L7.71963 142.773C10.0007 142.547 11.0952 141.811 11.5996 140.666L11.6317 140.592C11.6795 140.476 11.7211 140.356 11.8351 139.951C11.949 139.546 12 138.845 12 138.063C12 136.941 11.5788 136.044 10.8947 135.361C11.0142 134.975 11.1739 134.119 10.7353 133.022C10.7353 133.022 10.6738 133.002 10.5468 133L10.5468 133ZM7.99754 137.116C8.52426 137.115 8.97544 137.205 9.31418 137.561V137.561C9.73804 138.006 9.98609 138.543 9.98609 139.122C9.98609 141.826 8.2471 141.9 6.10216 141.9C3.95684 141.9 2.21822 141.525 2.21822 139.122C2.21822 138.547 2.46264 138.013 2.88128 137.57C3.57959 136.831 4.76133 137.222 6.10217 137.222C6.79044 137.222 7.43686 137.117 7.99756 137.116L7.99754 137.116ZM4.00212 137.912C3.55581 137.912 3.19399 138.516 3.19399 139.26C3.19399 140.005 3.55579 140.609 4.00212 140.609C4.44843 140.609 4.81025 140.005 4.81025 139.26C4.81025 138.516 4.44845 137.913 4.00212 137.912ZM8.33807 137.912C7.89176 137.912 7.52994 138.516 7.52994 139.26C7.52994 140.005 7.89174 140.609 8.33807 140.609C8.78438 140.609 9.1462 140.005 9.1462 139.26C9.1462 138.516 8.7844 137.913 8.33807 137.912Z" fill="#9A9FAB"/>
<path d="M0 101.693V101.677C0.150628 99.7458 0.853556 98.2976 2.07531 97.382C3.28033 96.4498 4.58577 96.0004 6.00837 96.0004C7.49791 95.9838 8.88703 96.4831 10.1255 97.4819C11.3808 98.464 12 99.9289 12 101.827V101.943C12 103.857 11.3808 105.289 10.1255 106.271C8.87029 107.27 7.48117 107.769 5.99163 107.769H5.92469C4.46862 107.753 3.12971 107.253 1.89121 106.254C0.65272 105.272 0.0167364 103.758 0 101.693ZM5.64017 99.0799V96.4498H5.23849C5.15481 96.5497 5.08787 96.6662 5.02092 96.7661C4.95397 96.866 4.88703 96.9659 4.82008 97.0824C4.75314 97.1823 4.66946 97.3154 4.61925 97.4153C4.5523 97.5152 4.50209 97.6151 4.45188 97.7316C4.35146 97.8981 4.26778 98.0645 4.20084 98.2143C4.11715 98.3642 4.05021 98.514 4 98.6471C4.10042 98.7137 4.21757 98.797 4.35146 98.8469C4.50209 98.8968 4.65272 98.9468 4.80335 98.9801C4.97071 99.0134 5.12134 99.03 5.25523 99.0466C5.40586 99.0633 5.53975 99.0799 5.64017 99.0799ZM6.3431 96.4498V99.0633C6.42678 99.0633 6.5272 99.0799 6.62761 99.0633C6.72803 99.0633 6.84519 99.0466 6.94561 99.03C7.12971 98.9967 7.34728 98.9468 7.51464 98.8968C7.69874 98.8302 7.86611 98.747 7.98326 98.6471C7.78243 98.1644 7.56485 97.7815 7.34728 97.4153C7.12971 97.0491 6.87866 96.7328 6.61088 96.4665V96.4498H6.3431ZM4.53556 96.5997V96.583C4.41841 96.633 4.30126 96.7162 4.16736 96.7661C4.05021 96.8161 3.89958 96.8826 3.78243 96.9492C3.54812 97.0658 3.31381 97.1989 3.0795 97.3487C2.86192 97.4986 2.64435 97.665 2.46025 97.8315C2.5272 97.8981 2.61088 97.9646 2.67782 98.0146C2.74477 98.0645 2.82845 98.1311 2.91213 98.1977C2.97908 98.231 3.06276 98.2809 3.14644 98.3475C3.23013 98.3974 3.33054 98.464 3.43096 98.5306C3.56485 98.231 3.69874 97.9147 3.86611 97.6317C4.03347 97.3321 4.21757 97.0491 4.40167 96.7994C4.41841 96.7661 4.43515 96.7328 4.46862 96.6995C4.48536 96.6829 4.50209 96.633 4.53556 96.5997ZM9.6569 97.8315V97.8148C9.23849 97.4986 8.87029 97.2322 8.50209 97.0658C8.13389 96.8993 7.76569 96.7328 7.43096 96.5997C7.69874 96.866 7.93305 97.1989 8.08368 97.5152C8.25105 97.8481 8.41841 98.1977 8.5523 98.5306C8.61925 98.4973 8.70293 98.464 8.80335 98.3974C8.88703 98.3475 9.00418 98.2976 9.1046 98.2476C9.20502 98.181 9.2887 98.1145 9.38912 98.0479C9.48954 97.9646 9.58996 97.8981 9.6569 97.8315ZM9.37238 101.544H11.2971C11.2971 100.928 11.1632 100.345 10.9121 99.7458C10.6778 99.1632 10.3431 98.6804 9.92469 98.2643V98.2476C9.841 98.3808 9.72385 98.4973 9.60669 98.5806C9.4728 98.6638 9.35565 98.7304 9.22176 98.797C9.13808 98.8469 9.05439 98.9135 8.97071 98.9468C8.88703 98.9967 8.76987 99.03 8.68619 99.0799C8.75314 99.2131 8.82008 99.3629 8.88703 99.4961C8.93724 99.6459 9.02092 99.8124 9.05439 99.9622C9.15481 100.229 9.22176 100.512 9.2887 100.794C9.33891 101.044 9.37238 101.311 9.37238 101.544ZM3.31381 99.0799V99.0633C3.17992 98.9967 3.02929 98.9468 2.91213 98.8802C2.79498 98.797 2.67782 98.7137 2.57741 98.6471C2.47699 98.5972 2.37657 98.5306 2.29289 98.464C2.2092 98.3974 2.14226 98.3309 2.07531 98.2643C1.64017 98.6804 1.32218 99.1465 1.12134 99.6958C0.903766 100.245 0.753138 100.861 0.686192 101.527H2.74477C2.74477 101.061 2.81172 100.611 2.92887 100.162C3.02929 99.6958 3.17992 99.3463 3.31381 99.0799ZM5.64017 101.527V99.6126C5.50628 99.6293 5.33891 99.6293 5.18828 99.6126C5.02092 99.596 4.85356 99.546 4.70293 99.4961C4.56904 99.4628 4.40167 99.4295 4.26778 99.3796C4.11715 99.3463 3.96653 99.2797 3.84937 99.2131C3.74895 99.3796 3.66527 99.5793 3.59833 99.7957C3.51464 99.9955 3.46444 100.212 3.41423 100.412C3.38075 100.611 3.36402 100.828 3.34728 101.011C3.33054 101.194 3.31381 101.377 3.31381 101.527H5.64017ZM6.3431 99.6459V101.527H8.82008C8.82008 101.427 8.82008 101.311 8.80335 101.177C8.76987 101.061 8.75314 100.911 8.7364 100.778C8.68619 100.578 8.63598 100.362 8.56904 100.162C8.50209 99.9788 8.43515 99.7957 8.35146 99.6459C8.31799 99.5627 8.28452 99.4628 8.25105 99.3962C8.20084 99.313 8.15063 99.263 8.11715 99.2131C7.93305 99.3463 7.68201 99.4295 7.38075 99.4961C7.09623 99.5627 6.76151 99.6293 6.46025 99.6459H6.3431ZM2.74477 102.076H0.686192C0.686192 102.359 0.736402 102.676 0.820084 103.058C0.903766 103.458 1.07113 103.824 1.25523 104.224C1.33891 104.423 1.43933 104.623 1.53975 104.823C1.6569 105.006 1.79079 105.206 1.92469 105.389C2.0251 105.322 2.12552 105.272 2.2092 105.222C2.30962 105.172 2.42678 105.106 2.5272 105.056C2.64435 105.006 2.76151 104.956 2.8954 104.889C3.01255 104.84 3.16318 104.773 3.31381 104.706C3.17992 104.29 3.02929 103.891 2.92887 103.441C2.81172 103.008 2.74477 102.576 2.74477 102.093V102.076ZM5.64017 104.024V102.076H3.31381C3.31381 102.209 3.33054 102.409 3.36402 102.609C3.38075 102.809 3.43096 103.025 3.46444 103.241C3.53138 103.475 3.58159 103.708 3.64854 103.907C3.71548 104.107 3.78243 104.274 3.84937 104.423C4.15063 104.307 4.45188 104.224 4.65272 104.174C4.87029 104.107 5.07113 104.057 5.27197 104.04H5.45607C5.52301 104.024 5.58996 104.024 5.64017 104.024ZM6.3431 102.076V104.007C6.46025 104.024 6.59414 104.04 6.72803 104.057C6.87866 104.074 7.06276 104.107 7.21339 104.14L7.46443 104.19C7.54812 104.224 7.64854 104.24 7.73222 104.257C7.83264 104.29 7.93305 104.307 8.03347 104.34C8.11715 104.373 8.20084 104.39 8.26778 104.423C8.48536 103.874 8.61925 103.425 8.70293 103.042C8.78661 102.676 8.82008 102.359 8.82008 102.093V102.076H6.3431ZM11.2971 102.093V102.076H9.37238V102.176C9.35565 102.492 9.30544 102.859 9.23849 103.241C9.17155 103.608 9.02092 104.04 8.82008 104.573C9.08787 104.706 9.33891 104.84 9.53975 104.973C9.74059 105.106 9.92469 105.256 10.0586 105.389C10.3431 105.106 10.5941 104.723 10.8117 104.224C11.0293 103.741 11.1799 103.241 11.2636 102.709C11.2803 102.609 11.2803 102.509 11.2971 102.409V102.093ZM5.64017 107.153V104.557C5.22176 104.623 4.87029 104.706 4.60251 104.773C4.33473 104.84 4.13389 104.906 4 104.973C4.10042 105.222 4.20084 105.439 4.30126 105.639C4.40167 105.822 4.51883 106.021 4.61925 106.188C4.65272 106.254 4.71967 106.321 4.76987 106.404C4.82008 106.471 4.85356 106.554 4.90377 106.621C4.95397 106.704 5.00418 106.804 5.05439 106.904C5.12134 106.987 5.17155 107.087 5.23849 107.153H5.64017ZM6.3431 107.153H6.72803C6.87866 107.037 7.02929 106.87 7.14644 106.687C7.28033 106.504 7.43096 106.288 7.53138 106.105C7.64854 105.888 7.76569 105.688 7.86611 105.489C7.96653 105.289 8.05021 105.106 8.11715 104.973C7.93305 104.906 7.68201 104.84 7.43096 104.773C7.17992 104.706 6.82845 104.64 6.3431 104.573V107.153ZM9.6569 105.788V105.772C9.62343 105.722 9.55649 105.655 9.50628 105.605C9.45607 105.555 9.37238 105.489 9.2887 105.439C9.22176 105.389 9.13808 105.339 9.03766 105.289C8.93724 105.239 8.80335 105.172 8.68619 105.106C8.61925 105.239 8.50209 105.472 8.33473 105.788C8.1841 106.105 7.91632 106.487 7.58159 106.904C8 106.837 8.3682 106.687 8.70293 106.487C9.07113 106.304 9.38912 106.055 9.6569 105.788ZM3.43096 105.256V105.239C3.31381 105.306 3.12971 105.389 2.94561 105.472C2.74477 105.555 2.5272 105.655 2.32636 105.788C2.44351 105.888 2.56067 105.988 2.66109 106.055C2.76151 106.138 2.87866 106.204 2.97908 106.271C3.16318 106.388 3.38075 106.504 3.59833 106.604C3.8159 106.704 4.08368 106.804 4.41841 106.904C4.30126 106.77 4.21757 106.604 4.13389 106.471C4.05021 106.338 3.94979 106.204 3.86611 106.071C3.78243 105.938 3.71548 105.788 3.64854 105.655C3.56485 105.522 3.49791 105.389 3.43096 105.256Z" fill="#9A9FAB"/>
<path d="M8.00065 152C9.10523 152 10.0007 151.105 10.0007 150C10.0007 148.896 9.10523 148 8.00065 148C6.89607 148 6.00063 148.896 6.00063 150C6.00063 151.105 6.89607 152 8.00065 152Z" fill="#19BCFE"/>
<path fill-rule="evenodd" clip-rule="evenodd" d="M4.00002 156C4.53046 156 5.03917 155.789 5.41424 155.414C5.78932 155.039 6.00004 154.53 6.00004 154V152H4.00002C3.46958 152 2.96087 152.211 2.58579 152.586C2.21072 152.961 2 153.47 2 154C2 154.53 2.21072 155.039 2.58579 155.414C2.96087 155.789 3.46958 156 4.00002 156V156Z" fill="#09CF83"/>
<path fill-rule="evenodd" clip-rule="evenodd" d="M4.00002 152H6.00004V148H4.00002C3.46958 148 2.96087 148.211 2.58579 148.586C2.21072 148.961 2 149.47 2 150C2 150.531 2.21072 151.039 2.58579 151.415C2.96087 151.79 3.46958 152 4.00002 152V152Z" fill="#A259FF"/>
<path fill-rule="evenodd" clip-rule="evenodd" d="M4.00002 148H6.00004V144H4.00002C3.46958 144 2.96087 144.211 2.58579 144.586C2.21072 144.961 2 145.47 2 146C2 146.53 2.21072 147.039 2.58579 147.414C2.96087 147.789 3.46958 148 4.00002 148V148Z" fill="#F24E1E"/>
<path fill-rule="evenodd" clip-rule="evenodd" d="M8.00065 148H6.00063V144H8.00065C8.53108 144 9.0398 144.211 9.41487 144.586C9.78995 144.961 10.0007 145.47 10.0007 146C10.0007 146.53 9.78995 147.039 9.41487 147.414C9.0398 147.789 8.53108 148 8.00065 148Z" fill="#FF7262"/>
<path d="M9.87494 156H2.12506C1.8459 156 1.56941 156.054 1.31143 156.161C1.05345 156.268 0.819045 156.424 0.621646 156.622C0.424248 156.819 0.26773 157.053 0.161058 157.311C0.0543866 157.569 -0.000343844 157.846 1.62534e-06 158.125V165.574C-0.000343844 165.853 0.0543866 166.129 0.161058 166.387C0.26773 166.645 0.424248 166.88 0.621646 167.077C0.819045 167.275 1.05345 167.431 1.31143 167.538C1.56941 167.644 1.8459 167.699 2.12506 167.699H9.87494C10.1541 167.699 10.4306 167.644 10.6886 167.538C10.9466 167.431 11.181 167.275 11.3784 167.077C11.5758 166.88 11.7323 166.645 11.8389 166.387C11.9456 166.129 12.0003 165.853 12 165.574V158.125C12.0003 157.846 11.9456 157.569 11.8389 157.311C11.7323 157.053 11.5758 156.819 11.3784 156.622C11.181 156.424 10.9466 156.268 10.6886 156.161C10.4306 156.054 10.1541 156 9.87494 156V156ZM11.4941 165.379C11.4955 165.617 11.4498 165.854 11.3595 166.074C11.2692 166.295 11.1363 166.496 10.9682 166.665C10.8001 166.834 10.6003 166.968 10.3802 167.06C10.1601 167.151 9.924 167.199 9.68557 167.199H2.3148C1.83376 167.198 1.37262 167.007 1.03248 166.666C0.69233 166.326 0.50093 165.865 0.500236 165.384V158.314C0.50093 157.833 0.69233 157.372 1.03248 157.032C1.37262 156.692 1.83376 156.501 2.3148 156.5H9.67957C10.1608 156.5 10.6223 156.691 10.9626 157.031C11.3028 157.372 11.494 157.833 11.4941 158.314V165.379ZM4.74435 161.474L6.14493 164.164C6.17043 164.205 6.15506 164.244 6.11531 164.244H5.24421C5.18984 164.244 5.16434 164.23 5.14071 164.179C4.82085 163.519 4.49424 162.859 4.16012 162.15H4.15075C3.84329 162.833 3.52615 163.511 3.1994 164.185C3.17653 164.224 3.15103 164.24 3.10978 164.24H2.28518C2.23456 164.24 2.23081 164.199 2.25631 164.169L3.62539 161.56L2.3013 158.92C2.26981 158.879 2.3013 158.849 2.33018 158.849H3.18965C3.24027 158.849 3.26015 158.859 3.27965 158.904C3.59874 159.569 3.91062 160.237 4.21524 160.909H4.22462C4.51561 160.249 4.83622 159.564 5.14446 158.91C5.16996 158.869 5.18534 158.843 5.23446 158.843H6.03881C6.07969 158.843 6.09544 158.875 6.07031 158.914L4.74435 161.474ZM6.39055 162.289C6.39055 161.125 7.16415 160.214 8.39449 160.214C8.49986 160.214 8.55461 160.214 8.65435 160.225V158.901C8.65435 158.869 8.67948 158.85 8.70498 158.85H9.49395C9.53483 158.85 9.54495 158.865 9.54495 158.889V163.48C9.54495 163.615 9.54495 163.785 9.57045 163.968C9.57045 164 9.56033 164.009 9.52958 164.025C9.12977 164.215 8.69276 164.314 8.25012 164.314C7.16415 164.32 6.39055 163.65 6.39055 162.289V162.289ZM8.65473 161.009C8.56238 160.974 8.46409 160.957 8.36524 160.959C7.73488 160.959 7.2954 161.445 7.2954 162.25C7.2954 163.17 7.74426 163.539 8.31087 163.539C8.42974 163.539 8.56098 163.525 8.65473 163.484V161.009Z" fill="#FF7262"/>
<path d="M0 168H12V180H0V168Z" fill="#FF0066"/>
<path d="M4.0834 171.862C4.46295 171.856 4.7667 171.545 4.76304 171.165C4.75934 170.786 4.44963 170.48 4.06999 170.482C3.69035 170.484 3.3836 170.792 3.38356 171.172C3.38387 171.263 3.40225 171.354 3.43766 171.438C3.47306 171.522 3.52478 171.598 3.58984 171.662C3.6549 171.727 3.732 171.777 3.81671 171.811C3.90142 171.846 3.99206 171.863 4.0834 171.862V171.862Z" fill="white"/>
<path d="M2.63233 175.554C2.59261 175.724 2.57186 175.898 2.57046 176.072C2.57046 176.679 2.89971 177.083 3.59955 177.083C4.17987 177.083 4.65073 176.738 4.98916 176.181L4.78226 177.012H5.93426L6.59332 174.372C6.75794 173.702 7.07665 173.355 7.56049 173.355C7.94111 173.355 8.17779 173.592 8.17779 173.983C8.17966 174.109 8.16232 174.234 8.12641 174.354L7.78704 175.568C7.7385 175.735 7.71427 175.908 7.71508 176.082C7.71508 176.658 8.05446 177.081 8.76433 177.081C9.37155 177.081 9.8554 176.69 10.1228 175.753L9.6701 175.578C9.44355 176.206 9.24822 176.319 9.0941 176.319C8.94002 176.319 8.85696 176.217 8.85696 176.011C8.86141 175.903 8.87865 175.795 8.90833 175.691L9.2381 174.508C9.31214 174.265 9.35031 174.012 9.3514 173.758C9.3514 172.873 8.81618 172.411 8.16771 172.411C7.56049 172.411 6.94324 172.959 6.63457 173.535L6.86065 172.5H5.10143L4.85426 173.412H5.67794L5.17108 175.44C4.77265 176.325 4.04116 176.34 3.94948 176.319C3.79873 176.285 3.70273 176.228 3.70273 176.031C3.70713 175.872 3.73132 175.713 3.77473 175.56L4.54657 172.498H2.59202L2.34532 173.41H3.15794L2.63233 175.554V175.554Z" fill="white"/>
<path d="M0.500052 180.5H11.4998V191.2H0.500052V180.5Z" fill="#0C0824"/>
<path d="M0.500143 180.5H11.4999V191.2H0.500143V180.5ZM0 191.7H12V180H0V191.7ZM8.09014 184.8C7.695 184.8 7.56 185 7.56 185.165C7.56 185.345 7.65 185.47 8.18014 185.745C8.96529 186.125 9.20871 186.49 9.20871 187.025C9.20871 187.825 8.59886 188.255 7.77386 188.255C7.41979 188.268 7.06788 188.195 6.74871 188.041C6.71357 188.026 6.70886 188.001 6.70886 187.961V187.225C6.70886 187.175 6.73371 187.16 6.76886 187.185C7.0686 187.378 7.41749 187.48 7.77386 187.48C8.169 187.48 8.334 187.315 8.334 187.09C8.334 186.91 8.21914 186.75 7.71386 186.49C7.00371 186.15 6.70886 185.804 6.70886 185.23C6.70886 184.585 7.21371 184.05 8.08886 184.05C8.39348 184.037 8.69767 184.085 8.98371 184.19C9.00019 184.201 9.01351 184.216 9.02233 184.233C9.03114 184.251 9.03512 184.27 9.03386 184.29V184.976C9.03386 185.016 9.009 185.041 8.95886 185.026C8.6945 184.874 8.39385 184.796 8.08886 184.801L8.09014 184.8ZM3.78986 185.395C3.90471 185.405 3.99471 185.405 4.19486 185.405C4.77986 185.405 5.32971 185.2 5.32971 184.405C5.32971 183.77 4.93457 183.45 4.26986 183.45C4.06971 183.45 3.87986 183.46 3.78986 183.465V185.395ZM2.89971 182.738C2.89971 182.703 2.96957 182.678 3.00986 182.678C3.43963 182.66 3.86973 182.652 4.29986 182.653C5.685 182.653 6.225 183.413 6.225 184.383C6.225 185.653 5.30486 186.198 4.17514 186.198C3.98529 186.198 3.92014 186.188 3.78514 186.188V188.108C3.78514 188.148 3.77014 188.168 3.72514 188.168H2.96014C2.92029 188.168 2.90014 188.153 2.90014 188.108V182.74L2.89971 182.738Z" fill="#31C5F0"/>
<path d="M2.61813 193.354L5.99998 193L9.38182 193.355L12 196.843L5.99998 203.772L0 196.843L2.61813 193.354Z" fill="#FDB300"/>
<path d="M2.43042 196.841L5.99998 203.772L0 196.841H2.43042Z" fill="#EA6C00"/>
<path d="M9.56953 196.841L5.99998 203.772L12 196.841H9.56953Z" fill="#EA6C00"/>
<path d="M2.43036 196.841H9.56947L5.99992 203.772L2.43036 196.841Z" fill="#FDAD00"/>
<path d="M5.99992 193L2.61807 193.354L2.43036 196.841L5.99992 193Z" fill="#FDD231"/>
<path d="M5.99998 193L9.38182 193.354L9.56953 196.841L5.99998 193Z" fill="#FDD231"/>
<path d="M12 196.841L9.3819 193.354L9.56961 196.841H12Z" fill="#FDAD00"/>
<path d="M0 196.841L2.61813 193.354L2.43042 196.841H0Z" fill="#FDAD00"/>
<path d="M5.99992 193L2.43036 196.841H9.56947L5.99992 193Z" fill="#FEEEB7"/>
<path d="M5.265 209.215C5.215 209.06 5.17 208.91 5.12 208.755C5.07 208.6 5.025 208.455 4.985 208.31C4.945 208.17 4.91 208.04 4.875 207.92H4.865C4.82 208.135 4.765 208.35 4.695 208.565C4.62 208.805 4.545 209.055 4.465 209.305C4.395 209.56 4.32 209.795 4.245 210.005H5.515C5.485 209.9 5.445 209.775 5.4 209.645C5.355 209.51 5.31 209.365 5.265 209.215V209.215ZM9.875 204H2.125C0.95 204 0 204.95 0 206.125V213.575C0 214.75 0.95 215.7 2.125 215.7H9.875C11.05 215.7 12 214.75 12 213.575V206.125C12 204.95 11.05 204 9.875 204ZM7.35 212.265H6.3045C6.27 212.27 6.235 212.245 6.225 212.21L5.815 211.02H3.955L3.575 212.195C3.565 212.24 3.525 212.27 3.48 212.266H2.54C2.485 212.266 2.47 212.235 2.485 212.176L4.095 207.54C4.11 207.49 4.125 207.435 4.145 207.375C4.165 207.27 4.175 207.16 4.175 207.05C4.17 207.025 4.19 207 4.215 206.995H5.51C5.55 206.995 5.57 207.01 5.575 207.035L7.4 212.185C7.415 212.24 7.4 212.265 7.35 212.265V212.265ZM9.05 212.19C9.05 212.245 9.0305 212.27 8.9855 212.27H8.005C7.955 212.27 7.93 212.24 7.93 212.19V208.34C7.93 208.29 7.9505 208.27 7.9955 208.27H8.9855C9.0305 208.27 9.05 208.295 9.05 208.34V212.19V212.19ZM8.9455 207.675C8.88645 207.735 8.81525 207.782 8.73669 207.812C8.65813 207.842 8.57401 207.855 8.49 207.85C8.325 207.855 8.165 207.79 8.0445 207.675C7.92995 207.55 7.86893 207.385 7.8745 207.215C7.8695 207.045 7.9345 206.885 8.054 206.77C8.175 206.655 8.335 206.595 8.5 206.595C8.6955 206.595 8.8445 206.655 8.955 206.77C9.065 206.89 9.125 207.05 9.12 207.215C9.125 207.385 9.065 207.55 8.9455 207.675V207.675Z" fill="#FF0066"/>
<path fill-rule="evenodd" clip-rule="evenodd" d="M11.7215 260.825L11.6678 260.964C10.7526 262.746 9.13064 263.84 6.81726 263.888C5.73579 263.91 4.70536 263.633 4.03222 263.331C2.57958 262.678 1.35768 261.468 0.690416 260.175C-0.266791 258.321 -0.439419 255.742 1.55089 253.816C1.58162 253.816 1.30945 254.234 1.34018 254.234L1.2854 254.412C-0.14881 258.902 4.26992 262.75 8.56532 262.31C9.59762 262.204 10.914 261.639 11.7215 260.825Z" fill="#21609B"/>
<path fill-rule="evenodd" clip-rule="evenodd" d="M9.1221 258.968C10.2028 258.975 11.3315 258.47 12 257.761C11.4152 259.246 9.72189 260.2 7.45127 259.896C5.54995 259.642 3.73882 257.729 3.5523 255.812C3.41588 254.417 3.90209 253.584 4.70337 252.574C4.42492 253.102 4.32084 253.509 4.29492 253.769C3.99055 256.787 6.70584 258.952 9.1221 258.968" fill="#21609B"/>
<path fill-rule="evenodd" clip-rule="evenodd" d="M11.8915 255.219C11.7236 255.605 10.7563 256.332 10.3292 256.423C8.63777 256.784 7.55457 255.982 6.98711 255.069C6.9028 254.933 6.74687 254.56 6.71895 254.466C6.49889 253.717 6.60003 252.586 7.25648 252C7.05873 252.557 7.02987 253.204 7.13395 253.625C7.19702 253.879 7.38915 254.323 7.58142 254.602C7.93122 255.111 8.15315 255.234 8.6025 255.505C8.80492 255.626 9.02204 255.724 9.11584 255.75C9.54193 255.876 10.4415 256.206 11.8917 255.219" fill="#21609B"/>
<path d="M0 228H12V240H0V228Z" fill="#F7DF1E"/>
<path d="M3.15517 238.028L4.07345 237.472C4.25064 237.786 4.41179 238.052 4.79837 238.052C5.16892 238.052 5.40259 237.907 5.40259 237.343V233.509H6.53026V237.359C6.53026 238.527 5.8456 239.059 4.8467 239.059C3.94459 239.059 3.42095 238.592 3.15512 238.028" fill="black"/>
<path d="M7.14293 237.907L8.06112 237.376C8.30285 237.77 8.61701 238.06 9.17276 238.06C9.64006 238.06 9.938 237.827 9.938 237.504C9.938 237.118 9.6319 236.981 9.11637 236.755L8.83451 236.634C8.0209 236.288 7.48123 235.853 7.48123 234.935C7.48123 234.089 8.12562 233.445 9.13254 233.445C9.84945 233.445 10.365 233.694 10.7355 234.347L9.85742 234.911C9.66406 234.564 9.45471 234.428 9.1325 234.428C8.80221 234.428 8.59278 234.637 8.59278 234.911C8.59278 235.249 8.80221 235.386 9.2855 235.596L9.5674 235.716C10.526 236.127 11.0657 236.546 11.0657 237.488C11.0657 238.503 10.2682 239.059 9.1969 239.059C8.14976 239.059 7.47312 238.56 7.14289 237.907" fill="black"/>
<path d="M1.963 226.8L1 216H11.5814L10.6171 226.799L6.28429 228L1.963 226.8Z" fill="#E44F26"/>
<path d="M6.29071 227.082L9.79214 226.111L10.6158 216.883H6.29071V227.082Z" fill="#F1662A"/>
<path d="M6.29064 220.889H4.53778L4.41693 219.532H6.29064V218.208H2.96921L3.00093 218.563L3.32621 222.213H6.29064V220.889V220.889Z" fill="#EBEBEB"/>
<path d="M6.29051 224.329L6.28451 224.331L4.80937 223.932L4.71509 222.876H3.38523L3.5708 224.955L6.28451 225.709L6.29051 225.707V224.329Z" fill="#EBEBEB"/>
<path d="M6.28608 220.889V222.213H7.91722L7.76379 223.932L6.28608 224.33V225.708L9.00194 224.955L9.02165 224.732L9.33279 221.244L9.36536 220.889H6.28608V220.889Z" fill="white"/>
<path d="M6.28608 218.208V219.532H9.48579L9.51236 219.235L9.57279 218.563L9.60451 218.208H6.28608V218.208Z" fill="white"/>
<path d="M6.28404 252L1.96295 250.8L1 240H11.581L10.6171 250.799L6.28404 252V252Z" fill="#264DE4"/>
<path d="M9.79177 250.111L10.6155 240.883H6.29047V251.082L9.79177 250.111V250.111Z" fill="#2965F1"/>
<path d="M3.20754 244.889L3.32624 246.213H6.29051V244.889H3.20754Z" fill="#EBEBEB"/>
<path d="M2.96897 242.208L3.08937 243.532H6.29051V242.208H2.96897V242.208Z" fill="#EBEBEB"/>
<path d="M6.2904 248.329L6.2846 248.331L4.80936 247.932L4.71505 246.876H3.38531L3.57088 248.956L6.28431 249.709L6.2904 249.707V248.329Z" fill="#EBEBEB"/>
<path d="M9.36498 244.889L9.60409 242.208H6.2859V243.532H8.15242L8.03188 244.889H6.2859V246.213H7.91704L7.76324 247.931L6.28586 248.33V249.708L9.00144 248.956L9.02134 248.732L9.33267 245.245L9.36498 244.889V244.889Z" fill="white"/>
<path d="M8.07114 267.019L5.56142 269.423L6.42539 270.185L7.2427 269.385L7.33393 269.385V273.977C7.33393 274.56 6.85217 275.029 6.25377 275.029H5.39552C4.79712 275.029 4.31537 274.56 4.31537 273.977V273.487H2.64659V274.097C2.64659 275.151 3.51757 276 4.59945 276H6.81666C7.89853 276 8.76951 275.151 8.76951 274.097V269.388L8.8341 269.388L9.78884 270.185L10.5396 269.423L8.07114 267.019V267.019Z" fill="#264DE4"/>
<path d="M3.46847 272.981L5.97819 270.577L5.11421 269.815L4.29691 270.615L4.20568 270.615V266.023C4.20568 265.44 4.68744 264.971 5.28583 264.971H6.14408C6.74248 264.971 7.22424 265.44 7.22424 266.023V266.513H8.89302V265.903C8.89302 264.849 8.02204 264 6.94016 264H4.72295C3.64107 264 2.7701 264.849 2.7701 265.903V270.612L2.70551 270.612L1.75076 269.815L1 270.577L3.46847 272.981V272.981Z" fill="#264DE4"/>
<path d="M12 280V284H11.2L10.4 281.6V284H9.60005V280H10.4L11.2 282.4V280H12Z" fill="#FF0066"/>
<path d="M8.13358 284H7.06679C6.89005 284 6.72057 283.93 6.59556 283.805C6.47055 283.68 6.40021 283.51 6.4 283.334V280.667C6.40011 280.49 6.47034 280.321 6.59528 280.196C6.72021 280.071 6.88965 280 7.06639 280H8.13318C8.30992 280 8.4794 280.07 8.60441 280.195C8.72942 280.32 8.79975 280.49 8.79997 280.666V283.333C8.79986 283.51 8.72963 283.679 8.60469 283.804C8.47975 283.929 8.31032 284 8.13358 284ZM7.19999 283.2H7.99998V280.8H7.19999V283.2Z" fill="#FF0066"/>
<path d="M4.93364 284H3.20007V283.2H4.80004V282.4H4.00006C3.78795 282.4 3.58459 282.315 3.43461 282.165C3.28463 282.015 3.20028 281.812 3.20007 281.6V280.666C3.20028 280.49 3.27056 280.32 3.39548 280.195C3.52041 280.07 3.68979 280 3.86646 280H5.60003V280.8H4.00006V281.6H4.80004C5.01215 281.6 5.21551 281.685 5.36549 281.835C5.51547 281.985 5.59982 282.188 5.60003 282.4V283.333C5.59993 283.51 5.5297 283.679 5.40476 283.804C5.27982 283.929 5.11038 284 4.93364 284V284Z" fill="#FF0066"/>
<path d="M1.73317 284H0.66679C0.490048 284 0.320569 283.93 0.195557 283.805C0.0705436 283.68 0.000211889 283.51 0 283.334V282.4H0.799988V283.2H1.59998V280H2.39996V283.334C2.39975 283.51 2.32942 283.68 2.20441 283.805C2.07939 283.93 1.90992 284 1.73317 284V284Z" fill="#FF0066"/>
<path d="M9.42858 296.143V291H8.57143V297H12V296.143H9.42858Z" fill="#21609B"/>
<path d="M6.85731 291L6.20588 293.143L6.00016 293.991L5.80301 293.143L5.14301 291H4.28585V297H5.14301V293.571L5.07443 292.714L5.32301 293.571L6.00016 295.556L6.67731 293.571L6.92589 292.714L6.85731 293.571V297H7.71447V291H6.85731V291Z" fill="#21609B"/>
<path d="M3.42861 291H2.57146L1.71431 293.571L0.857153 291H0L1.17859 294L0 297H0.857153L1.71431 294.429L2.57146 297H3.42861L2.25003 294L3.42861 291Z" fill="#21609B"/>
<path d="M0 322.453C0 323.307 0.692766 324 1.5473 324H10.4527C11.3073 324 12 323.307 12 322.453V313.547C12 312.693 11.3072 312 10.4527 312H1.54734C0.692672 312 0 312.693 0 313.547V322.453V322.453Z" fill="#563D7C"/>
<path d="M4.97604 317.308V315.609H6.47186C6.61436 315.609 6.75171 315.621 6.88399 315.644C7.01627 315.668 7.13332 315.71 7.23508 315.771C7.3368 315.833 7.41822 315.917 7.4793 316.026C7.54033 316.134 7.5709 316.274 7.5709 316.443C7.5709 316.748 7.4793 316.969 7.29611 317.105C7.11297 317.24 6.87893 317.308 6.59397 317.308H4.97604V317.308ZM3.3784 314.367V321.633H6.89927C7.22491 321.633 7.54207 321.592 7.85074 321.511C8.15941 321.429 8.43415 321.304 8.67499 321.134C8.91579 320.965 9.10746 320.746 9.24991 320.478C9.39241 320.21 9.46361 319.893 9.46361 319.526C9.46361 319.072 9.35336 318.683 9.13291 318.361C8.91241 318.039 8.57829 317.813 8.13054 317.685C8.45618 317.529 8.70213 317.328 8.86835 317.084C9.03452 316.84 9.11763 316.535 9.11763 316.168C9.11763 315.829 9.06166 315.544 8.94972 315.314C8.83779 315.083 8.68005 314.898 8.47652 314.759C8.27304 314.62 8.02882 314.52 7.74386 314.459C7.45896 314.398 7.14349 314.367 6.79751 314.367H3.3784V314.367ZM4.97604 320.391V318.397H6.71608C7.06207 318.397 7.34022 318.477 7.55055 318.636C7.76083 318.795 7.86602 319.062 7.86602 319.435C7.86602 319.625 7.83377 319.781 7.76932 319.903C7.70486 320.025 7.61838 320.122 7.50982 320.193C7.4013 320.264 7.27577 320.315 7.13332 320.346C6.99082 320.376 6.84161 320.391 6.68557 320.391H4.97604V320.391Z" fill="white"/>
<path fill-rule="evenodd" clip-rule="evenodd" d="M6 300C7.18669 300 8.34672 300.352 9.33342 301.011C10.3201 301.67 11.0891 302.608 11.5433 303.704C11.9974 304.8 12.1162 306.007 11.8847 307.171C11.6532 308.334 11.0818 309.404 10.2426 310.243C9.40352 311.082 8.33443 311.653 7.17054 311.885C6.00665 312.116 4.80026 311.997 3.7039 311.543C2.60754 311.089 1.67047 310.32 1.01118 309.333C0.351894 308.347 0 307.187 0 306C0 304.409 0.632141 302.883 1.75736 301.757C2.88258 300.632 4.4087 300 6 300V300Z" fill="#CC6699"/>
<path d="M9.76369 302.568C9.49198 301.503 7.72498 301.154 6.05269 301.746C5.0054 302.098 4.03779 302.653 3.20527 303.379C2.28427 304.241 2.13727 304.991 2.19769 305.304C2.41198 306.41 3.92612 307.132 4.54884 307.668V307.671C4.36541 307.762 3.02141 308.443 2.70598 309.137C2.37427 309.871 2.75869 310.397 3.01369 310.468C3.39655 310.56 3.79865 310.53 4.16358 310.382C4.52852 310.234 4.83798 309.976 5.04855 309.643C5.22257 309.373 5.33145 309.067 5.36656 308.748C5.40167 308.429 5.36205 308.106 5.25084 307.805C5.55078 307.729 5.86257 307.711 6.16926 307.752C7.22184 307.875 7.42841 308.532 7.38898 308.808C7.37043 308.905 7.33102 308.998 7.27341 309.08C7.2158 309.161 7.14135 309.229 7.05512 309.279C6.98141 309.325 6.95869 309.34 6.96512 309.375C6.97412 309.424 7.00798 309.422 7.07098 309.411C7.22915 309.362 7.36853 309.265 7.47074 309.134C7.57295 309.004 7.6332 308.845 7.64355 308.68C7.66884 308.037 7.05126 307.314 5.95755 307.333C5.63989 307.324 5.32291 307.367 5.01941 307.461C5.00422 307.444 4.98879 307.427 4.97312 307.41C4.29684 306.689 3.04712 306.178 3.09984 305.208C3.11912 304.856 3.24169 303.927 5.49984 302.801C7.35126 301.878 8.83326 302.133 9.08955 302.695C9.45555 303.499 8.29755 304.993 6.37498 305.208C6.16248 305.252 5.943 305.246 5.73281 305.193C5.52263 305.14 5.32714 305.04 5.16084 304.901C5.05969 304.789 5.04469 304.785 5.00698 304.805C4.94569 304.839 4.98469 304.938 5.00698 304.996C5.0806 305.128 5.17997 305.245 5.29926 305.339C5.41856 305.433 5.55538 305.502 5.70169 305.542C6.4576 305.706 7.24603 305.628 7.95512 305.319C9.12126 304.869 10.0307 303.616 9.76369 302.568V302.568ZM4.80769 307.998C4.89282 308.292 4.88849 308.604 4.79527 308.895C4.78527 308.925 4.77427 308.955 4.76227 308.985C4.75027 309.015 4.73727 309.043 4.72327 309.071C4.65114 309.218 4.55771 309.354 4.44598 309.475C4.09755 309.855 3.61027 309.999 3.40155 309.878C3.17612 309.747 3.28884 309.211 3.69298 308.784C4.00352 308.476 4.36154 308.221 4.75327 308.028L4.80769 307.998Z" fill="white"/>
<path d="M2.57147 327H0.857157C0.629825 327 0.411804 327.09 0.251055 327.251C0.0903073 327.412 0 327.63 0 327.857V333H0.857157V330.857H2.57147V333H3.42863V327.857C3.42863 327.63 3.33832 327.412 3.17757 327.251C3.01682 327.09 2.7988 327 2.57147 327ZM0.857157 330V327.857H2.57147V330H0.857157Z" fill="black"/>
<path d="M8.57138 327.857H9.85712V332.143H8.57138V333H12V332.143H10.7143V327.857H12V327H8.57138V327.857Z" fill="black"/>
<path d="M5.14299 333H4.28583V327H6.8573C7.08464 327 7.30266 327.09 7.46341 327.251C7.62415 327.412 7.71446 327.63 7.71446 327.857V330C7.71446 330.227 7.62415 330.445 7.46341 330.606C7.30266 330.767 7.08464 330.857 6.8573 330.857H5.14299V333ZM5.14299 330H6.8573V327.857H5.14299V330Z" fill="black"/>
<path d="M10.7346 339.412C11.1684 340.206 11.3952 341.096 11.394 342C11.3942 342.944 11.1466 343.871 10.676 344.69C10.2053 345.508 9.52808 346.188 8.712 346.663L10.3596 341.899C10.6674 341.13 10.77 340.514 10.77 339.968C10.7702 339.782 10.7584 339.596 10.7346 339.412V339.412ZM6.744 339.464C6.94977 339.454 7.15511 339.437 7.3596 339.412C7.6506 339.374 7.6164 338.947 7.326 338.962C7.326 338.962 6.4482 339.029 5.886 339.029C5.3538 339.029 4.461 338.954 4.461 338.954C4.1688 338.94 4.131 339.382 4.4244 339.397C4.4244 339.397 4.6938 339.428 4.9872 339.442L5.8266 341.745L4.6416 345.284L2.6772 339.45C3.0018 339.434 3.294 339.4 3.294 339.4C3.5862 339.362 3.552 338.935 3.261 338.952C3.261 338.952 2.388 339.021 1.824 339.021C1.7238 339.021 1.605 339.017 1.479 339.013C2.4558 337.575 4.1172 336.607 6 336.607C7.4046 336.607 8.6826 337.144 9.6426 338.023C9.6198 338.022 9.597 338.018 9.5724 338.018C9.0426 338.018 8.6664 338.48 8.6664 338.976C8.6664 339.421 8.9226 339.797 9.1962 340.241C9.402 340.601 9.6414 341.063 9.6414 341.729C9.6414 342.187 9.4644 342.727 9.2304 343.469L8.6928 345.261L6.7428 339.456L6.744 339.464V339.464ZM6 347.392C5.48417 347.392 4.97093 347.319 4.476 347.173L6.0942 342.47L7.752 347.014C7.7646 347.04 7.7772 347.065 7.791 347.088C7.21545 347.29 6.60991 347.393 6 347.393V347.392ZM0.606 342C0.605126 341.244 0.764206 340.496 1.0728 339.805L3.645 346.855C2.73388 346.412 1.96566 345.722 1.42824 344.864C0.890808 344.005 0.605865 343.013 0.606 342V342ZM6 336C2.6922 336 0 338.692 0 342C0 345.308 2.6922 348 6 348C9.3078 348 12 345.308 12 342C12 338.692 9.3078 336 6 336" fill="#21609B"/>
<path d="M9.28637 352.867C9.28637 354.867 7.68035 356.491 5.69816 356.491C3.71597 356.491 2.10999 354.867 2.10999 352.867C2.10999 350.866 3.716 349.243 5.69816 349.243C7.68038 349.243 9.2864 350.866 9.2864 352.867" fill="#D33833"/>
<path d="M2.25756 353.764C2.25756 353.764 1.99713 349.986 5.52456 349.878L5.2786 349.472L3.36584 350.106L2.81895 350.726L2.34149 351.63L2.06946 352.681L2.1505 353.384" fill="#EF3D3A"/>
<path d="M3.24139 350.395C2.61348 351.032 2.22281 351.91 2.22281 352.881C2.22281 353.853 2.61348 354.73 3.24139 355.367C3.87222 356.005 4.73746 356.396 5.69815 356.396C6.65887 356.396 7.52408 356.005 8.15491 355.367C8.78285 354.73 9.17349 353.853 9.17349 352.881C9.17349 351.91 8.78285 351.032 8.15491 350.395C7.52411 349.76 6.65887 349.366 5.69815 349.366C4.74034 349.366 3.87224 349.758 3.24139 350.395V350.395ZM3.08224 355.519C2.41382 354.844 2 353.91 2 352.881C2 351.852 2.41382 350.918 3.08224 350.241C3.75069 349.566 4.67668 349.146 5.69818 349.146C6.71965 349.146 7.64563 349.566 8.31408 350.241C8.9825 350.915 9.39633 351.849 9.39633 352.881C9.39633 353.91 8.9825 354.844 8.31408 355.519C7.64563 356.196 6.71965 356.613 5.69815 356.613C4.67668 356.613 3.75069 356.196 3.08224 355.519V355.519Z" fill="#231F20"/>
<path d="M7.20868 352.887L6.66176 352.967L5.92387 353.05L5.44641 353.061L4.98053 353.047L4.62459 352.938L4.30917 352.601L4.0632 351.913L4.00823 351.764L3.68125 351.655L3.49024 351.344L3.35425 350.898L3.50473 350.506L3.86067 350.384L4.14714 350.518L4.28312 350.815L4.44807 350.789L4.50304 350.721L4.44807 350.409L4.43361 350.018L4.51462 349.478L4.51173 349.169L4.76058 348.775L5.19753 348.463L5.96149 348.14L6.80935 348.263L7.54724 348.789L7.88871 349.329L8.1086 349.721L8.1636 350.692L7.99865 351.53L7.69769 352.273L7.41414 352.67" fill="#F0D6B7"/>
<path d="M6.74575 355.222L4.79249 355.302V355.625L4.95744 356.759L4.87639 356.853L3.51057 356.393L3.41509 356.23L3.27907 354.704L2.95787 353.79L2.88843 353.573L3.98225 352.83L4.32372 352.695L4.62466 353.061L4.88508 353.29L5.18605 353.384L5.32203 353.424L5.48698 354.127L5.61142 354.276L5.92682 354.167L5.7069 354.587L6.89332 355.142L6.74575 355.222" fill="#335061"/>
<path d="M3.5048 350.512L3.86074 350.389L4.14721 350.523L4.2832 350.821L4.44814 350.795L4.48868 350.632L4.40763 350.32L4.48865 349.577L4.41921 349.172L4.66517 348.889L5.19761 348.471L5.04712 348.269L4.29477 348.634L3.97937 348.877L3.80285 349.255L3.53084 349.62L3.44983 350.052L3.5048 350.512" fill="#6D6B6D"/>
<path d="M4.06604 349.243C4.06604 349.243 4.27147 348.743 5.0904 348.5C5.9093 348.257 5.13093 348.326 5.13093 348.326L4.24251 348.663L3.90109 349L3.75061 349.269L4.06604 349.243" fill="#DCD9D8"/>
<path d="M3.65528 350.418C3.65528 350.418 3.36878 349.472 4.46261 349.338L4.4221 349.175L3.66975 349.349L3.44983 350.052L3.5048 350.512L3.65528 350.418" fill="#DCD9D8"/>
<path d="M4.09216 351.672L4.27155 351.501C4.27155 351.501 4.35259 351.509 4.36705 351.604C4.38152 351.698 4.42203 352.55 5.00946 353.007C5.06443 353.05 4.57251 352.938 4.57251 352.938L4.13553 352.264" fill="#F7E4CD"/>
<path d="M6.60676 351.415C6.60676 351.415 6.63858 351.006 6.75144 351.038C6.8643 351.069 6.8643 351.181 6.8643 351.181C6.8643 351.181 6.59229 351.352 6.60676 351.415" fill="#F7E4CD"/>
<path d="M7.74107 349.918C7.74107 349.918 7.51535 349.963 7.49511 350.161C7.47484 350.358 7.74107 350.201 7.78158 350.186" fill="#F7E4CD"/>
<path d="M6.0888 349.932C6.0888 349.932 5.78784 349.972 5.78784 350.161C5.78784 350.349 6.12931 350.335 6.22479 350.255" fill="#F7E4CD"/>
<path d="M4.23111 350.809C4.23111 350.809 3.71317 350.498 3.6582 350.795C3.60323 351.092 3.48167 351.307 3.73921 351.618L3.56269 351.564L3.39777 351.147L3.34277 350.741L3.6582 350.418L4.01411 350.444L4.21956 350.606L4.23114 350.809" fill="#F7E4CD"/>
<path d="M4.47704 349.958C4.47704 349.958 4.7085 348.769 5.88337 348.54C6.84984 348.351 7.35914 348.58 7.55013 348.797C7.55013 348.797 6.68781 347.786 5.86888 348.094C5.04997 348.406 4.44808 348.972 4.46254 349.335C4.4857 349.958 4.47701 349.958 4.47701 349.958" fill="#F7E4CD"/>
<path d="M7.64564 348.932C7.64564 348.932 7.24923 348.917 7.23474 349.269C7.23474 349.269 7.23474 349.323 7.26081 349.378C7.26081 349.378 7.57621 349.026 7.7672 349.215" fill="#F7E4CD"/>
<path d="M5.91238 349.415C5.91238 349.415 5.84294 348.877 5.37994 349.189C5.07898 349.392 5.10791 349.675 5.16002 349.729C5.215 349.783 5.20053 349.892 5.24104 349.818C5.28155 349.743 5.26997 349.5 5.42045 349.432C5.56802 349.363 5.8169 349.289 5.91238 349.415" fill="#F7E4CD"/>
<path d="M4.62752 353.061L3.34265 353.627C3.34265 353.627 3.87511 355.719 3.60308 356.368L3.41212 356.299L3.39765 355.502L3.04171 353.993L2.89123 353.576L4.23102 352.684L4.62746 353.061" fill="#49728B"/>
<path d="M4.75764 354.219L4.93994 354.439V355.247H4.72294C4.72294 355.247 4.69689 354.682 4.69689 354.613C4.69689 354.544 4.72294 354.301 4.72294 354.301" fill="#49728B"/>
<path d="M4.76346 355.37L4.14709 355.396L4.32362 355.519L4.76054 355.588" fill="#49728B"/>
<path d="M6.86722 355.236L7.37358 355.222L7.49802 356.462L6.98005 356.531L6.86719 355.236" fill="#335061"/>
<path d="M7.00329 355.236L7.76722 355.196C7.76722 355.196 8.08265 354.413 8.08265 354.373C8.08265 354.333 8.35465 353.238 8.35465 353.238L7.73829 352.604L7.61385 352.495L7.28687 352.818V354.073L7.00329 355.236" fill="#335061"/>
<path d="M7.34465 355.142L6.86719 355.236L6.93666 355.613C7.11316 355.693 7.41412 355.479 7.41412 355.479" fill="#49728B"/>
<path d="M7.35913 352.778L8.31697 353.481L8.34301 353.158L7.61959 352.498L7.35916 352.778" fill="#49728B"/>
<path d="M5.23807 357.894L4.95449 356.759L4.8127 355.922L4.78955 355.302L6.07144 355.233H6.86722L6.79489 356.651L6.9193 357.745L6.90484 357.948L5.86599 358.028L5.23807 357.894" fill="white"/>
<path d="M6.69067 355.222C6.69067 355.222 6.62123 356.625 6.82669 357.625C6.82669 357.625 6.41578 357.882 5.81677 357.948L6.96559 357.908L7.10158 357.828L6.93666 355.616L6.89324 355.142" fill="#DCD9D8"/>
<path d="M7.51837 356.356L8.0508 356.208L9.06072 356.153L9.2112 355.693L8.93917 354.896L8.62377 354.856L8.18682 354.99L7.77011 355.193L7.5473 355.153L7.37366 355.222" fill="white"/>
<path d="M7.50964 356.085C7.50964 356.085 7.86558 355.922 7.92055 355.936L7.77007 355.193L7.94659 355.125C7.94659 355.125 8.07103 355.828 8.07103 355.908C8.07103 355.908 8.83496 355.948 8.9044 355.948C8.9044 355.948 9.06935 355.636 9.02884 355.313L9.17932 355.745L9.19378 355.988L8.97387 356.311L8.7279 356.365L8.317 356.351L8.18098 356.176L7.70352 356.245L7.55304 356.299" fill="#DCD9D8"/>
<path d="M6.97134 355.127L6.67038 354.373L6.35498 353.927C6.35498 353.927 6.42445 353.738 6.51993 353.738H6.83536L7.13632 353.847L7.11025 354.347L6.97134 355.127" fill="white"/>
<path d="M7.03222 354.87C7.03222 354.87 6.65024 354.142 6.65024 354.033C6.65024 354.033 6.71971 353.87 6.81519 353.91C6.91069 353.95 7.11615 354.059 7.11615 354.059V353.801L6.65024 353.707L6.33484 353.747L6.86727 354.993L6.97722 355.007" fill="#DCD9D8"/>
<path d="M5.35963 353.09L4.98057 353.05L4.62463 352.941V353.064L4.79824 353.253L5.34517 353.496" fill="white"/>
<path d="M4.74905 353.13C4.74905 353.13 5.1715 353.304 5.31044 353.264L5.32487 353.427L4.94292 353.347L4.71143 353.184L4.74905 353.13" fill="#DCD9D8"/>
<path d="M7.51832 353.784C7.28682 353.779 7.07556 353.75 6.89326 353.699C6.90484 353.624 6.88169 353.553 6.90195 353.498C6.95404 353.461 7.03794 353.461 7.11607 353.453C7.04952 353.421 6.95404 353.407 6.8788 353.427C6.87588 353.376 6.85276 353.344 6.83826 353.304C6.96851 353.258 7.27524 352.958 7.44885 353.055C7.53278 353.104 7.56752 353.373 7.57329 353.507C7.57906 353.616 7.56171 353.724 7.51832 353.784" fill="#D33833"/>
<path d="M7.51832 353.784C7.28682 353.779 7.07556 353.75 6.89326 353.699C6.90484 353.624 6.88169 353.553 6.90195 353.498C6.95404 353.461 7.03794 353.461 7.11607 353.453C7.04952 353.421 6.95404 353.407 6.8788 353.427C6.87588 353.376 6.85276 353.344 6.83826 353.304C6.96851 353.258 7.27524 352.958 7.44885 353.055C7.53278 353.104 7.56752 353.373 7.57329 353.507C7.57906 353.616 7.56171 353.724 7.51832 353.784V353.784Z" fill="black" stroke="#D33833" stroke-width="2"/>
<path d="M6.41002 353.41C6.41002 353.427 6.41002 353.444 6.4071 353.461C6.33478 353.507 6.219 353.507 6.13798 353.547C6.25376 353.553 6.34635 353.581 6.42737 353.618C6.42445 353.661 6.42445 353.707 6.4216 353.75C6.28847 353.839 6.16694 353.973 6.01069 354.059C5.93545 354.099 5.67791 354.202 5.59978 354.181C5.55635 354.17 5.55058 354.116 5.53323 354.064C5.49561 353.956 5.40879 353.779 5.4001 353.613C5.39141 353.404 5.36828 353.053 5.59686 353.096C5.78205 353.13 5.99619 353.213 6.13798 353.29C6.22769 353.341 6.27689 353.398 6.41002 353.41" fill="#D33833"/>
<path d="M6.41002 353.41C6.41002 353.427 6.41002 353.444 6.4071 353.461C6.33478 353.507 6.219 353.507 6.13798 353.547C6.25376 353.553 6.34635 353.581 6.42737 353.618C6.42445 353.661 6.42445 353.707 6.4216 353.75C6.28847 353.839 6.16694 353.973 6.01069 354.059C5.93545 354.099 5.67791 354.202 5.59978 354.181C5.55635 354.17 5.55058 354.116 5.53323 354.064C5.49561 353.956 5.40879 353.779 5.4001 353.613C5.39141 353.404 5.36828 353.053 5.59686 353.096C5.78205 353.13 5.99619 353.213 6.13798 353.29C6.22769 353.341 6.27689 353.398 6.41002 353.41V353.41Z" fill="black" stroke="#D33833" stroke-width="2"/>
<path d="M6.54027 353.658C6.52001 353.544 6.49685 353.513 6.50554 353.413C6.81516 353.21 6.87014 353.761 6.54024 353.658" fill="#D33833"/>
<path d="M6.54027 353.658C6.52001 353.544 6.49685 353.513 6.50554 353.413C6.81516 353.21 6.87014 353.761 6.54024 353.658H6.54027Z" fill="black" stroke="#D33833" stroke-width="2"/>
<path d="M6.9858 353.75C6.9858 353.75 6.89032 353.616 6.95976 353.576C7.02923 353.536 7.09578 353.576 7.13628 353.507C7.17682 353.438 7.13628 353.398 7.15075 353.318C7.16521 353.238 7.23176 353.224 7.30123 353.21C7.37067 353.195 7.56166 353.17 7.5877 353.235L7.50669 352.993L7.34174 352.938L6.82377 353.235L6.79773 353.384V353.681" fill="#EF3D3A"/>
<path d="M5.55052 354.196C5.53317 353.984 5.51582 353.776 5.49843 353.564C5.4695 353.25 5.57367 353.304 5.85145 353.304C5.89488 353.304 6.11188 353.353 6.12637 353.384C6.20162 353.536 6.00194 353.501 6.21316 353.616C6.38969 353.71 6.70512 353.559 6.63276 353.344C6.59223 353.296 6.42442 353.33 6.36365 353.298L6.04244 353.136C5.90646 353.067 5.59391 352.964 5.44924 353.061C5.08172 353.307 5.47239 353.924 5.6026 354.182" fill="#EF3D3A"/>
<path d="M5.91225 349.415C5.53896 349.329 5.35378 349.569 5.24092 349.818C5.13963 349.795 5.18014 349.658 5.20621 349.589C5.27273 349.409 5.54188 349.166 5.76177 349.2C5.85436 349.212 5.98169 349.297 5.91225 349.415" fill="#231F20"/>
<path d="M7.72667 349.832H7.74402C7.82795 350.003 7.90028 350.186 8.00737 350.341C7.93504 350.506 7.46913 350.649 7.47491 350.358C7.57619 350.315 7.74983 350.349 7.83953 350.292C7.78745 350.152 7.71509 350.032 7.72667 349.832" fill="#231F20"/>
<path d="M6.10042 349.838C6.18143 349.983 6.20745 350.135 6.32031 350.244C6.37242 350.292 6.47079 350.352 6.42162 350.489C6.41004 350.521 6.32611 350.592 6.27691 350.606C6.10042 350.658 5.68659 350.618 5.8255 350.398C5.97306 350.404 6.16986 350.492 6.27983 350.386C6.1959 350.255 6.04542 349.992 6.10042 349.838Z" fill="#231F20"/>
<path d="M7.6601 351.306C7.39387 351.475 7.09579 351.661 6.65598 351.618C6.56339 351.538 6.52577 351.358 6.61836 351.241C6.66464 351.321 6.63571 351.469 6.76884 351.492C7.01769 351.535 7.30705 351.341 7.48646 351.275C7.59641 351.089 7.4778 351.024 7.37652 350.903C7.17106 350.661 6.89906 350.358 6.90772 349.995C6.99165 349.935 6.99742 350.086 7.009 350.112C7.11606 350.358 7.38521 350.675 7.57905 350.886C7.62825 350.938 7.70638 350.989 7.71507 351.024C7.74111 351.121 7.64852 351.241 7.6601 351.306" fill="#231F20"/>
<path d="M4.13556 351.129C4.05166 351.081 4.03142 350.875 3.93302 350.869C3.79123 350.861 3.81727 351.138 3.81727 351.301C3.72179 351.215 3.70441 350.946 3.77388 350.809C3.69286 350.769 3.6581 350.852 3.61182 350.881C3.6726 350.466 4.22818 350.689 4.13559 351.129" fill="#231F20"/>
<path d="M7.82794 351.481C7.70351 351.715 7.52698 351.972 7.16238 351.981C7.15369 351.907 7.14792 351.789 7.16238 351.744C7.44308 351.715 7.61669 351.575 7.82794 351.481Z" fill="#231F20"/>
<path d="M6.08007 351.632C6.31157 351.752 6.73983 351.767 7.05815 351.758C7.0755 351.827 7.0755 351.912 7.0755 351.995C6.66751 352.013 6.18713 351.912 6.08007 351.632Z" fill="#231F20"/>
<path d="M6.03668 351.855C6.19871 352.255 6.75141 352.21 7.21729 352.198C7.19705 352.25 7.15362 352.312 7.09576 352.332C6.94528 352.392 6.53437 352.438 6.32603 352.33C6.19582 352.261 6.109 352.104 6.03668 352.012C6.00483 351.97 5.83122 351.858 6.03668 351.855" fill="#231F20"/>
<path d="M7.63981 354.059C7.45171 354.379 7.26944 354.707 7.04664 354.987C7.1392 354.716 7.17971 354.259 7.1942 353.91C7.39097 353.819 7.5588 353.93 7.63981 354.059" fill="#81B0C4"/>
<path d="M8.65554 355.207C8.44431 355.25 8.29672 355.453 8.08837 355.439C8.20412 355.282 8.40089 355.213 8.65554 355.207" fill="#231F20"/>
<path d="M8.74802 355.533C8.57441 355.55 8.37184 355.579 8.19824 355.565C8.28214 355.439 8.60045 355.485 8.74802 355.533Z" fill="#231F20"/>
<path d="M8.80895 355.816C8.61507 355.819 8.37488 355.816 8.1897 355.802C8.29964 355.685 8.68451 355.759 8.80895 355.816Z" fill="#231F20"/>
<path d="M7.27523 356.588C7.30416 356.828 7.39967 357.071 7.38809 357.334C7.281 357.368 7.22025 357.399 7.07555 357.399C7.06689 357.176 7.03504 356.834 7.04373 356.619C7.11317 356.625 7.21734 356.571 7.27523 356.588" fill="#DCD9D8"/>
<path d="M6.96276 353.044C6.86437 353.107 6.78335 353.184 6.68784 353.253C6.4795 353.264 6.36664 353.238 6.21619 353.121C6.21907 353.113 6.23354 353.115 6.23354 353.104C6.45635 353.201 6.73993 353.064 6.96276 353.044" fill="#F0D6B7"/>
<path d="M5.79944 354.539C5.86021 354.279 6.1004 354.141 6.31741 353.999C6.54021 354.279 6.67623 354.639 6.82671 354.987C6.47077 354.882 6.10906 354.713 5.79944 354.539" fill="#81B0C4"/>
<path d="M7.04382 356.622C7.03513 356.836 7.06406 357.176 7.07564 357.402C7.22034 357.402 7.28109 357.371 7.38818 357.336C7.39976 357.074 7.30425 356.831 7.27532 356.591C7.21743 356.571 7.11326 356.625 7.04382 356.622V356.622ZM4.80987 355.41C4.90537 356.271 5.04136 356.991 5.2931 357.754C5.8516 357.922 6.52294 357.937 7.01778 357.785C6.92807 357.357 6.96569 356.834 6.91361 356.373C6.87307 356.028 6.89334 355.682 6.83837 355.33C6.23935 355.207 5.39441 355.302 4.80987 355.41ZM6.98016 355.336C6.97435 355.705 6.99751 356.07 7.02647 356.439C7.17112 356.419 7.26663 356.405 7.39976 356.373C7.35633 356.019 7.36214 355.616 7.27243 355.302C7.17115 355.305 7.08141 355.302 6.98016 355.336V355.336ZM7.70646 355.276C7.63703 355.262 7.5589 355.276 7.49524 355.276C7.52705 355.576 7.59941 355.908 7.62545 356.225C7.72673 356.228 7.78171 356.179 7.86564 356.165C7.87141 355.888 7.84248 355.505 7.70646 355.276ZM8.80898 356.271C9.02312 356.219 9.15622 355.962 9.09545 355.696C9.05494 355.519 8.9855 355.182 8.90735 355.067C8.85237 354.985 8.699 354.873 8.57459 354.95C8.37491 355.076 8.02478 355.113 7.8801 355.265C7.95243 355.505 7.97558 355.83 8.00451 356.133C8.25339 356.148 8.55721 356.065 8.76558 356.153C8.62088 356.199 8.43569 356.199 8.31125 356.268C8.41542 356.316 8.65272 356.308 8.80898 356.271V356.271ZM6.8239 354.987C6.67342 354.639 6.53743 354.279 6.3146 353.999C6.09756 354.141 5.86029 354.279 5.79663 354.539C6.10914 354.713 6.47088 354.882 6.8239 354.987ZM7.19427 353.91C7.17981 354.259 7.1393 354.716 7.04671 354.987C7.26951 354.704 7.45184 354.379 7.63991 354.059C7.5589 353.93 7.39107 353.819 7.1943 353.91L7.19427 353.91ZM6.7747 353.764C6.69077 353.756 6.61845 353.861 6.50847 353.816C6.48243 353.844 6.45927 353.873 6.43323 353.901C6.67631 354.193 6.78917 354.604 6.97727 354.945C7.07855 354.616 7.06698 354.259 7.09013 353.901C6.95123 353.907 6.8731 353.773 6.7747 353.764V353.764ZM6.50559 353.413C6.49689 353.513 6.52005 353.544 6.54029 353.659C6.87018 353.761 6.81521 353.21 6.50559 353.413ZM6.13807 353.293C5.99628 353.216 5.78216 353.133 5.59695 353.098C5.36837 353.055 5.39149 353.407 5.40019 353.616C5.40888 353.781 5.49569 353.956 5.53332 354.067C5.55067 354.119 5.55644 354.173 5.59987 354.184C5.67799 354.201 5.93842 354.101 6.01077 354.061C6.16703 353.979 6.28855 353.844 6.42168 353.753C6.42457 353.71 6.42457 353.664 6.42746 353.621C6.34644 353.581 6.25674 353.556 6.13807 353.55C6.21623 353.51 6.33486 353.51 6.40719 353.464C6.40719 353.447 6.40719 353.43 6.41011 353.413C6.27698 353.398 6.22778 353.341 6.13807 353.293ZM4.77805 353.05C4.65941 353.17 5.1108 353.33 5.25262 353.338C5.25262 353.264 5.29601 353.193 5.28732 353.138C5.1166 353.11 4.8938 353.13 4.77805 353.05ZM6.2365 353.104C6.2365 353.116 6.222 353.113 6.21912 353.121C6.37248 353.238 6.48532 353.264 6.69077 353.253C6.78339 353.187 6.8673 353.107 6.96569 353.044C6.73997 353.064 6.45639 353.201 6.23647 353.104H6.2365ZM7.57336 353.504C7.56759 353.373 7.53283 353.101 7.44893 353.053C7.27532 352.953 6.96858 353.256 6.83837 353.301C6.85283 353.341 6.87599 353.373 6.87887 353.424C6.95703 353.404 7.04959 353.418 7.11614 353.45C7.03802 353.458 6.95411 353.458 6.90203 353.496C6.88465 353.55 6.9078 353.621 6.89334 353.696C7.07564 353.747 7.2869 353.773 7.51839 353.781C7.56179 353.724 7.57914 353.616 7.57336 353.504V353.504ZM4.57837 353.164C4.54075 353.138 4.28901 352.815 4.25428 352.83C3.79997 353.007 3.3746 353.313 2.99551 353.604C3.35722 354.373 3.50481 355.313 3.53086 356.219C3.94468 356.411 4.30925 356.688 4.87353 356.716C4.80698 356.262 4.74912 355.853 4.7115 355.425C4.56971 355.365 4.36714 355.427 4.23404 355.407C4.23404 355.25 4.43658 355.339 4.45393 355.233C4.46554 355.153 4.34107 355.147 4.3816 355.022C4.48578 355.059 4.54075 355.142 4.65072 355.173C4.75201 354.956 4.65072 354.57 4.66519 354.387C4.6681 354.353 4.68254 354.199 4.76067 354.224C4.83013 354.247 4.75778 354.639 4.76358 354.81C4.76936 354.97 4.74331 355.122 4.80987 355.222C5.3539 355.147 5.9066 355.102 6.49689 355.085C6.36668 355.03 6.21331 354.979 6.04548 354.884C5.95289 354.833 5.66642 354.727 5.64037 354.642C5.59695 354.504 5.75032 354.433 5.77636 354.316C5.50147 354.464 5.44938 354.173 5.38283 353.97C5.32494 353.784 5.29024 353.644 5.27578 353.538C5.03559 353.418 4.78094 353.307 4.57837 353.164V353.164ZM7.33318 352.867C7.71227 352.687 7.78171 353.544 7.63122 353.821C7.65438 353.904 7.73251 353.936 7.76435 354.01C7.5531 354.384 7.31874 354.733 7.10168 355.102C7.26085 355.002 7.49235 355.085 7.68042 355.01C7.74989 354.985 7.79909 354.827 7.85117 354.702C7.99582 354.359 8.1463 353.924 8.21288 353.599C8.22735 353.524 8.27074 353.361 8.25917 353.296C8.24181 353.176 8.07975 353.087 7.99582 353.015C7.84248 352.878 7.74697 352.761 7.58491 352.633C7.52417 352.727 7.38526 352.79 7.33318 352.867V352.867ZM3.71316 349.549C3.53374 349.746 3.57136 350.112 3.59163 350.375C3.91861 350.172 4.34979 350.392 4.34687 350.735C4.50313 350.732 4.40476 350.544 4.37583 350.421C4.28321 350.023 4.53209 349.595 4.38738 349.232C4.10671 349.255 3.8781 349.366 3.71316 349.549V349.549ZM5.00374 348.409C4.59575 348.523 4.07198 348.817 3.90415 349.18C4.03436 349.16 4.12406 349.097 4.25139 349.089C4.30059 349.086 4.36425 349.109 4.41922 349.095C4.52917 349.066 4.62468 348.82 4.70858 348.729C4.78963 348.64 4.88799 348.6 4.95457 348.52C4.99797 348.5 5.0616 348.5 5.06452 348.437C5.04717 348.417 5.0269 348.403 5.00374 348.409V348.409ZM7.13061 348.517C6.70527 348.28 5.98762 348.103 5.5362 348.326C5.17158 348.506 4.67968 348.803 4.51182 349.177C4.66807 349.54 4.46554 349.872 4.45104 350.241C4.44527 350.438 4.54366 350.606 4.55233 350.821C4.49735 350.909 4.33529 350.918 4.22246 350.912C4.18484 350.724 4.11829 350.512 3.9215 350.489C3.64372 350.458 3.43826 350.686 3.42669 350.924C3.41222 351.204 3.64372 351.667 3.97358 351.635C4.10091 351.624 4.13276 351.498 4.27163 351.498C4.34687 351.647 4.15591 351.692 4.13564 351.798C4.12984 351.827 4.15011 351.932 4.16457 351.984C4.22535 352.227 4.35845 352.544 4.48866 352.73C4.6565 352.967 4.9835 353.001 5.33652 353.024C5.40019 352.89 5.63168 352.901 5.78213 352.935C5.59987 352.864 5.43203 352.693 5.29313 352.541C5.13395 352.367 4.97192 352.181 4.96323 351.952C5.26708 352.367 5.51593 352.73 6.06575 352.913C6.48243 353.05 6.96858 352.85 7.28978 352.627C7.42288 352.535 7.50101 352.387 7.59652 352.255C7.94954 351.752 8.11449 351.038 8.07975 350.343C8.06529 350.058 8.06529 349.772 7.96689 349.58C7.86564 349.38 7.52128 349.197 7.31871 349.38C7.28109 349.183 7.48655 349.063 7.7267 349.135C7.55601 348.915 7.3766 348.654 7.13061 348.517V348.517ZM7.9235 354.979C8.25628 354.816 8.87553 354.542 9.08098 354.979C9.15914 355.142 9.24882 355.413 9.28644 355.582C9.34141 355.816 9.22566 356.313 8.9797 356.391C8.76267 356.459 8.51093 356.456 8.2505 356.405C8.21866 356.379 8.18684 356.336 8.1608 356.291C7.97561 356.285 7.79909 356.299 7.65438 356.376C7.66884 356.513 7.57625 356.533 7.48655 356.562C7.42288 356.816 7.61676 357.148 7.57048 357.376C7.53863 357.542 7.33318 357.568 7.18272 357.597C7.17692 357.688 7.1885 357.765 7.20008 357.842C7.16537 357.968 7.01197 358.04 6.86441 358.057C6.38118 358.114 5.64906 358.14 5.18607 357.974C5.05583 357.659 4.95457 357.279 4.84749 356.922C4.39607 356.971 4.02858 356.731 3.68423 356.571C3.56559 356.516 3.40064 356.485 3.35433 356.391C3.31094 356.299 3.32829 356.125 3.31671 355.962C3.29067 355.542 3.26463 355.136 3.15468 354.707C3.10548 354.513 3.01578 354.344 2.955 354.159C2.89714 353.987 2.79875 353.773 2.7727 353.601C2.73508 353.347 2.97816 353.333 3.13153 353.221C3.37171 353.05 3.55979 352.955 3.82021 352.801C3.89837 352.755 4.12984 352.641 4.15588 352.587C4.208 352.481 4.0662 352.332 4.02858 352.25C3.96781 352.118 3.93596 352.007 3.9273 351.878C3.71027 351.844 3.54243 351.715 3.44407 351.572C3.27909 351.332 3.16334 350.889 3.30805 350.555C3.31963 350.529 3.3746 350.475 3.38329 350.435C3.40064 350.355 3.35145 350.249 3.34856 350.163C3.33409 349.726 3.4238 349.349 3.72185 349.217C3.84337 348.74 4.2774 348.583 4.68546 348.346C4.83882 348.257 5.00666 348.2 5.18027 348.137C5.8024 347.911 6.76024 347.954 7.2782 348.34C7.49812 348.503 7.84826 348.849 7.9727 349.1C8.30545 349.76 8.27943 350.866 8.04794 351.672C8.01609 351.781 7.9727 351.938 7.90903 352.07C7.86564 352.161 7.72962 352.341 7.74409 352.421C7.76147 352.504 8.05663 352.724 8.12029 352.784C8.23315 352.893 8.45015 353.036 8.46751 353.173C8.48777 353.318 8.40387 353.518 8.36048 353.659C8.22154 354.127 8.08267 354.559 7.9235 354.979V354.979Z" fill="#231F20"/>
<path d="M5.70977 351.732C5.72712 351.709 5.82549 351.672 5.96439 351.738C5.96439 351.738 5.79944 351.764 5.81391 352.035L5.74447 352.021C5.74739 352.024 5.67503 351.778 5.70977 351.732Z" fill="#F7E4CD"/>
<path d="M6.90768 354.053C6.90768 354.093 6.87297 354.127 6.83244 354.127C6.79193 354.127 6.7572 354.093 6.7572 354.053C6.7572 354.013 6.79193 353.979 6.83244 353.979C6.87586 353.979 6.90768 354.013 6.90768 354.053Z" fill="#1D1919"/>
<path d="M6.98289 354.399C6.98289 354.439 6.94818 354.473 6.90764 354.473C6.86714 354.473 6.8324 354.439 6.8324 354.399C6.8324 354.359 6.86714 354.324 6.90764 354.324C6.95107 354.324 6.98289 354.356 6.98289 354.399Z" fill="#1D1919"/>
<path d="M3.04178 358.771C3.01862 358.774 2.99838 358.777 2.981 358.78C2.96365 358.783 2.9463 358.785 2.92314 358.791C2.8971 358.797 2.88261 358.808 2.87683 358.825C2.87106 358.843 2.86525 358.86 2.86525 358.883V359.58C2.86525 359.641 2.85141 359.702 2.82475 359.757C2.7987 359.811 2.76397 359.854 2.71769 359.891C2.67138 359.926 2.61929 359.954 2.56143 359.971C2.50354 359.989 2.44277 360 2.3791 360C2.26624 360 2.17657 359.974 2.1071 359.92C2.03766 359.866 2.00293 359.794 2.00293 359.7C2.00293 359.646 2.01739 359.6 2.04924 359.563C2.08106 359.526 2.12448 359.508 2.17945 359.508C2.23154 359.508 2.27205 359.523 2.30389 359.554C2.33571 359.586 2.35018 359.623 2.35018 359.666C2.35018 359.703 2.33571 359.74 2.30967 359.771C2.28362 359.803 2.25181 359.834 2.21707 359.86V359.871C2.22285 359.883 2.23443 359.894 2.25178 359.903C2.26916 359.911 2.2894 359.914 2.30678 359.914C2.37911 359.914 2.43699 359.889 2.4775 359.837C2.51804 359.786 2.53828 359.708 2.53828 359.606V358.891C2.53828 358.871 2.53536 358.851 2.52959 358.837C2.52381 358.823 2.50643 358.811 2.48039 358.8C2.46304 358.791 2.43988 358.785 2.41384 358.78C2.3878 358.774 2.36756 358.771 2.35018 358.768V358.7H3.03309V358.771H3.04178V358.771Z" fill="#231F20"/>
<path d="M4.11247 359.754C4.09223 359.788 4.06619 359.82 4.03723 359.851C4.0083 359.883 3.97356 359.906 3.93594 359.929C3.89544 359.951 3.85493 359.969 3.81442 359.98C3.77388 359.991 3.72472 359.997 3.67263 359.997C3.58292 359.997 3.50768 359.986 3.44113 359.96C3.37747 359.934 3.3225 359.903 3.28199 359.86C3.23857 359.817 3.20964 359.768 3.18648 359.711C3.16538 359.652 3.15463 359.589 3.15466 359.526C3.15466 359.466 3.16624 359.406 3.18937 359.351C3.21252 359.297 3.24437 359.245 3.28488 359.203C3.32538 359.16 3.37747 359.125 3.44113 359.1C3.50726 359.073 3.57804 359.059 3.64947 359.06C3.73341 359.06 3.80287 359.071 3.85782 359.091C3.91282 359.111 3.95621 359.14 3.99095 359.174C4.02565 359.208 4.04881 359.248 4.06619 359.294C4.08065 359.34 4.08931 359.388 4.08931 359.44V359.497H3.47875C3.47875 359.62 3.50191 359.711 3.55108 359.774C3.59739 359.837 3.67552 359.868 3.7768 359.868C3.83469 359.868 3.88386 359.854 3.93017 359.823C3.9764 359.792 4.01578 359.752 4.04592 359.706L4.11247 359.754V359.754ZM3.76814 359.414C3.76814 359.38 3.76525 359.343 3.76237 359.305C3.75945 359.268 3.75367 359.237 3.7421 359.214C3.73052 359.185 3.71897 359.165 3.6987 359.151C3.68135 359.137 3.65817 359.131 3.63215 359.131C3.58584 359.131 3.54822 359.154 3.52221 359.2C3.49325 359.245 3.47875 359.32 3.4759 359.42L3.76814 359.414V359.414Z" fill="#231F20"/>
<path d="M5.38854 359.966H4.84453V359.9C4.85611 359.9 4.87057 359.897 4.88507 359.894C4.90242 359.891 4.91397 359.888 4.92269 359.886C4.93424 359.88 4.94293 359.868 4.9487 359.857C4.9545 359.846 4.95739 359.826 4.95739 359.803V359.386C4.95739 359.326 4.94581 359.28 4.92269 359.248C4.8995 359.217 4.86769 359.203 4.82137 359.203C4.79822 359.203 4.77509 359.206 4.75482 359.214C4.73456 359.22 4.71429 359.231 4.69405 359.245C4.6767 359.257 4.66223 359.268 4.65065 359.283C4.63908 359.294 4.63038 359.306 4.62461 359.317V359.794C4.62461 359.814 4.62753 359.831 4.6333 359.846C4.63908 359.86 4.65065 359.871 4.66223 359.877C4.67092 359.883 4.68247 359.889 4.69694 359.891L4.74036 359.9V359.966H4.19055V359.9C4.20501 359.9 4.21948 359.897 4.23686 359.894C4.25132 359.891 4.26579 359.889 4.27736 359.886C4.29763 359.88 4.30918 359.868 4.3179 359.854C4.32368 359.84 4.32945 359.823 4.32945 359.8V359.28C4.32945 359.263 4.32368 359.243 4.31499 359.225C4.30629 359.208 4.29183 359.194 4.27736 359.183C4.26579 359.177 4.25421 359.168 4.23683 359.165C4.21912 359.16 4.20055 359.157 4.18188 359.157V359.091L4.61303 359.068L4.6275 359.083V359.211H4.63041C4.65152 359.194 4.67179 359.176 4.69116 359.157C4.71247 359.139 4.73468 359.122 4.75771 359.105C4.78087 359.091 4.8098 359.08 4.84453 359.068C4.87923 359.057 4.91977 359.054 4.96028 359.054C5.05867 359.054 5.131 359.083 5.1802 359.137C5.2294 359.191 5.25252 359.266 5.25252 359.357V359.794C5.25252 359.817 5.25544 359.834 5.26121 359.846C5.26702 359.86 5.28148 359.868 5.29883 359.877C5.30752 359.88 5.3191 359.886 5.33357 359.889C5.34803 359.891 5.3625 359.894 5.38277 359.897V359.966H5.38854V359.966Z" fill="#231F20"/>
<path d="M6.63284 359.966H6.20746C6.1626 359.886 6.11433 359.809 6.06278 359.734C6.01936 359.671 5.97885 359.611 5.94123 359.56L5.88915 359.606V359.8C5.88915 359.82 5.89206 359.84 5.89784 359.851C5.90361 359.866 5.91519 359.874 5.93546 359.883C5.94704 359.888 5.95861 359.891 5.97308 359.894C5.98754 359.897 6.00201 359.9 6.01647 359.9V359.966H5.45508V359.9C5.46958 359.9 5.48404 359.897 5.50139 359.894C5.51586 359.891 5.53032 359.888 5.54193 359.886C5.56217 359.88 5.57372 359.868 5.58241 359.854C5.58821 359.84 5.59399 359.823 5.59399 359.8V358.805C5.59399 358.785 5.58821 358.765 5.57952 358.745C5.57083 358.725 5.55928 358.708 5.5419 358.697C5.53032 358.691 5.51297 358.682 5.48982 358.68C5.46666 358.674 5.44642 358.671 5.42615 358.671V358.605L5.87468 358.582L5.88915 358.597V359.517C5.93257 359.477 5.98466 359.431 6.03963 359.38C6.0946 359.328 6.14091 359.285 6.17273 359.251C6.193 359.231 6.20458 359.217 6.20458 359.205C6.20746 359.194 6.20746 359.188 6.20746 359.185C6.20746 359.174 6.19877 359.165 6.17853 359.16C6.15826 359.154 6.13222 359.145 6.09171 359.14V359.077H6.5489V359.14C6.48816 359.157 6.44188 359.171 6.41003 359.185C6.37818 359.2 6.34345 359.22 6.30586 359.243C6.28125 359.259 6.25712 359.276 6.23351 359.294C6.21035 359.311 6.18431 359.334 6.15249 359.36C6.21035 359.446 6.26535 359.523 6.31452 359.594C6.36372 359.666 6.4158 359.743 6.47078 359.823C6.48816 359.851 6.51131 359.868 6.54024 359.88C6.56917 359.888 6.59522 359.894 6.62415 359.897V359.966H6.63284V359.966Z" fill="#231F20"/>
<path d="M7.21161 359.966H6.64156V359.9C6.65602 359.9 6.67337 359.897 6.68784 359.894C6.7023 359.891 6.71677 359.889 6.72546 359.886C6.74573 359.88 6.75731 359.869 6.766 359.854C6.77466 359.84 6.77755 359.823 6.77755 359.8V359.28C6.77755 359.26 6.77177 359.24 6.76308 359.226C6.7555 359.21 6.74342 359.197 6.72838 359.188C6.71677 359.183 6.7023 359.174 6.67918 359.168C6.65602 359.163 6.63575 359.157 6.6184 359.157V359.091L7.06113 359.068L7.07559 359.083V359.791C7.07559 359.811 7.0814 359.829 7.09006 359.846C7.09875 359.86 7.11321 359.871 7.12768 359.877C7.13926 359.883 7.15372 359.889 7.16822 359.891C7.18268 359.894 7.19715 359.897 7.2145 359.9V359.966H7.21158L7.21161 359.966ZM7.0814 358.751C7.0814 358.797 7.06402 358.834 7.02931 358.865C6.99458 358.897 6.95115 358.914 6.90487 358.914C6.85567 358.914 6.81517 358.897 6.77755 358.865C6.74284 358.834 6.72546 358.794 6.72546 358.751C6.72546 358.705 6.74281 358.668 6.77755 358.634C6.81225 358.603 6.8557 358.585 6.90487 358.585C6.95407 358.585 6.99458 358.603 7.02931 358.634C7.06402 358.665 7.0814 358.705 7.0814 358.751V358.751Z" fill="#231F20"/>
<path d="M8.48781 359.966H7.9438V359.9C7.95538 359.9 7.96984 359.897 7.98431 359.894C8.00166 359.891 8.01324 359.888 8.02193 359.886C8.03351 359.88 8.04217 359.868 8.04797 359.857C8.05375 359.846 8.05666 359.826 8.05666 359.803V359.386C8.05666 359.326 8.04509 359.28 8.02193 359.248C7.99877 359.217 7.96696 359.203 7.92065 359.203C7.89749 359.203 7.87434 359.206 7.8541 359.214C7.83383 359.223 7.81356 359.231 7.79332 359.245C7.77597 359.257 7.7615 359.268 7.74993 359.283C7.73835 359.294 7.72966 359.306 7.72388 359.317V359.794C7.72388 359.814 7.72677 359.831 7.73254 359.846C7.73835 359.86 7.74993 359.871 7.7615 359.877C7.77016 359.883 7.78174 359.889 7.79621 359.891L7.83963 359.9V359.966H7.28982V359.9C7.30428 359.9 7.31875 359.897 7.33613 359.894C7.35059 359.891 7.36506 359.889 7.37664 359.886C7.39688 359.88 7.40845 359.868 7.41714 359.854C7.42292 359.84 7.42872 359.823 7.42872 359.8V359.28C7.42872 359.263 7.42292 359.243 7.41426 359.225C7.40557 359.208 7.3911 359.194 7.37664 359.183C7.36506 359.177 7.35348 359.168 7.3361 359.165C7.31839 359.16 7.29981 359.157 7.28113 359.157V359.091L7.71231 359.068L7.72677 359.083V359.211H7.72969C7.75079 359.194 7.77106 359.176 7.79043 359.157C7.81175 359.139 7.83396 359.122 7.85698 359.105C7.88014 359.091 7.90907 359.08 7.9438 359.068C7.97851 359.057 8.01904 359.054 8.05955 359.054C8.15792 359.054 8.23027 359.083 8.27944 359.137C8.32867 359.191 8.35179 359.266 8.35179 359.357V359.794C8.35179 359.817 8.35471 359.834 8.36048 359.846C8.36629 359.86 8.38075 359.868 8.39811 359.877C8.4068 359.88 8.41837 359.886 8.43281 359.889C8.4473 359.891 8.46177 359.894 8.48204 359.897V359.966H8.48781V359.966Z" fill="#231F20"/>
<path d="M8.98832 359.997C8.93046 359.997 8.8726 359.989 8.81763 359.971C8.76263 359.954 8.71923 359.937 8.68741 359.917L8.66137 359.977H8.59191L8.58033 359.646H8.64688C8.65557 359.671 8.67003 359.703 8.69319 359.737C8.71346 359.771 8.7395 359.8 8.76551 359.828C8.79538 359.855 8.82842 359.878 8.86391 359.897C8.90153 359.914 8.93915 359.926 8.97969 359.926C9.03466 359.926 9.07517 359.914 9.10121 359.894C9.12725 359.874 9.14172 359.84 9.14172 359.797C9.14172 359.774 9.13592 359.754 9.12434 359.737C9.11279 359.723 9.09541 359.708 9.07517 359.697C9.05201 359.686 9.02597 359.674 8.99701 359.666C8.96808 359.657 8.93338 359.648 8.89287 359.634C8.85233 359.623 8.81763 359.611 8.78867 359.597C8.75974 359.586 8.72792 359.566 8.69896 359.54C8.67292 359.517 8.64979 359.488 8.63533 359.457C8.61795 359.426 8.61217 359.386 8.61217 359.34C8.61217 359.257 8.64688 359.188 8.71923 359.137C8.79156 359.085 8.88418 359.06 8.99993 359.06C9.0549 359.06 9.1041 359.065 9.15041 359.077C9.19669 359.088 9.23431 359.1 9.26616 359.114L9.2864 359.063H9.35583L9.37033 359.366H9.30667C9.2864 359.303 9.24878 359.251 9.19958 359.205C9.14749 359.16 9.09252 359.137 9.03466 359.137C8.98835 359.137 8.95073 359.145 8.92469 359.165C8.89864 359.185 8.88415 359.211 8.88415 359.245C8.88415 359.291 8.90442 359.323 8.94204 359.343C8.97966 359.363 9.03466 359.383 9.1041 359.4C9.21116 359.428 9.28928 359.466 9.34137 359.511C9.39057 359.56 9.41661 359.62 9.41661 359.691C9.41661 359.788 9.37899 359.866 9.30086 359.917C9.21404 359.969 9.11276 359.997 8.98835 359.997H8.98832Z" fill="#231F20"/>
<path d="M6 369.313C9.31371 369.313 12 367.9 12 366.156C12 364.413 9.31371 363 6 363C2.68629 363 0 364.413 0 366.156C0 367.9 2.68629 369.313 6 369.313Z" fill="url(#paint0_radial)"/>
<path d="M5.99994 369.078C9.18418 369.078 11.7655 367.77 11.7655 366.156C11.7655 364.543 9.18418 363.234 5.99994 363.234C2.81571 363.234 0.234375 364.543 0.234375 366.156C0.234375 367.77 2.81571 369.078 5.99994 369.078Z" fill="#6280B6"/>
<path d="M7.16788 367.099L7.45374 365.628C7.49446 365.502 7.50117 365.367 7.47317 365.238C7.44517 365.109 7.38347 364.989 7.29431 364.891C7.04545 364.714 6.74073 364.634 6.43717 364.666H5.94302L6.08488 363.937C6.08747 363.924 6.08703 363.91 6.08359 363.897C6.08016 363.883 6.07381 363.871 6.06501 363.86C6.05621 363.849 6.04517 363.841 6.03268 363.835C6.02019 363.829 6.00655 363.826 5.99274 363.826H5.30702C5.28525 363.826 5.26415 363.834 5.24734 363.847C5.23053 363.861 5.21906 363.881 5.21488 363.902L4.91102 365.464C4.88764 365.297 4.81667 365.141 4.7066 365.013C4.58404 364.89 4.43618 364.795 4.27334 364.736C4.1105 364.676 3.93659 364.653 3.76374 364.667H2.44288C2.42111 364.667 2.40001 364.674 2.3832 364.688C2.36639 364.702 2.35491 364.721 2.35074 364.743L1.73617 367.906C1.73358 367.919 1.73402 367.933 1.73746 367.947C1.74089 367.96 1.74723 367.972 1.75603 367.983C1.76484 367.994 1.77588 368.002 1.78837 368.008C1.80086 368.014 1.8145 368.017 1.82831 368.017H2.51531C2.53708 368.017 2.55818 368.009 2.57499 367.996C2.5918 367.982 2.60328 367.963 2.60745 367.941L2.75617 367.176H3.27045C3.49752 367.182 3.72418 367.153 3.94245 367.09C4.1265 367.03 4.2948 366.929 4.43531 366.795C4.55045 366.69 4.64875 366.568 4.72674 366.433L4.60374 367.066C4.60115 367.079 4.60159 367.093 4.60503 367.107C4.60846 367.12 4.61481 367.132 4.62361 367.143C4.63241 367.154 4.64345 367.162 4.65594 367.168C4.66843 367.174 4.68207 367.177 4.69588 367.177H5.3816C5.40337 367.177 5.42447 367.169 5.44128 367.156C5.45809 367.142 5.46956 367.123 5.47374 367.101L5.81102 365.365H6.27988C6.4796 365.365 6.53702 365.405 6.55417 365.422C6.57131 365.439 6.59702 365.493 6.56488 365.666L6.29274 367.065C6.29015 367.079 6.29059 367.093 6.29403 367.106C6.29746 367.119 6.30381 367.132 6.31261 367.143C6.32141 367.153 6.33245 367.162 6.34494 367.168C6.35743 367.174 6.37107 367.177 6.38488 367.177H7.07917C7.10053 367.176 7.12097 367.168 7.1371 367.154C7.15323 367.14 7.16409 367.121 7.16788 367.099V367.099ZM3.9986 365.885C3.97763 366.065 3.89223 366.231 3.75817 366.353C3.58977 366.458 3.39231 366.506 3.1946 366.49H2.88945L3.11017 365.354H3.50488C3.79502 365.354 3.9116 365.416 3.95874 365.468C3.9947 365.531 4.01686 365.6 4.02374 365.672C4.03061 365.744 4.02204 365.817 3.9986 365.885V365.885Z" fill="white"/>
<path d="M10.091 365.013C9.96845 364.89 9.8206 364.796 9.65775 364.736C9.49491 364.676 9.321 364.653 9.14815 364.667H7.82344C7.80166 364.667 7.78056 364.675 7.76375 364.689C7.74694 364.702 7.73547 364.722 7.73129 364.743L7.11672 367.906C7.11414 367.92 7.11458 367.933 7.11801 367.947C7.12144 367.96 7.12779 367.973 7.13659 367.983C7.14539 367.994 7.15643 368.003 7.16892 368.008C7.18142 368.014 7.19505 368.017 7.20886 368.017H7.89801C7.91978 368.017 7.94088 368.01 7.95769 367.996C7.9745 367.982 7.98597 367.963 7.99015 367.942L8.13886 367.177H8.65315C8.88022 367.183 9.10687 367.154 9.32515 367.091C9.50919 367.03 9.6775 366.929 9.81801 366.796C10.0586 366.579 10.2208 366.288 10.2791 365.97C10.3253 365.807 10.3323 365.635 10.2996 365.469C10.2669 365.303 10.1954 365.146 10.091 365.013V365.013ZM9.37658 365.885C9.35562 366.065 9.27021 366.231 9.13615 366.353C8.96734 366.458 8.76939 366.506 8.57129 366.49H8.26701L8.48772 365.354H8.88244C9.17258 365.354 9.28915 365.416 9.33629 365.468C9.37239 365.53 9.39466 365.6 9.4016 365.672C9.40855 365.744 9.40002 365.816 9.37658 365.885V365.885Z" fill="white"/>
<path d="M3.50506 365.26C3.59753 365.248 3.69139 365.255 3.78121 365.28C3.87103 365.305 3.95502 365.347 4.02834 365.405C4.07565 365.478 4.10583 365.56 4.11659 365.646C4.12735 365.733 4.11843 365.82 4.09049 365.902C4.06599 366.105 3.9681 366.291 3.81534 366.426C3.63111 366.545 3.41334 366.601 3.19477 366.585H2.77563L3.03277 365.261L3.50506 365.26ZM1.82634 367.924H2.51549L2.67877 367.083H3.26891C3.48613 367.089 3.70297 367.061 3.91177 367.001C4.08314 366.945 4.23977 366.851 4.37034 366.726C4.59635 366.523 4.74858 366.25 4.8032 365.951C4.84645 365.802 4.85405 365.646 4.82538 365.493C4.79671 365.341 4.73259 365.198 4.6382 365.075C4.52439 364.963 4.38739 364.876 4.23676 364.822C4.08613 364.768 3.9255 364.747 3.76606 364.761H2.44306L1.82634 367.924Z" fill="#000004"/>
<path d="M5.30866 363.92H5.99437L5.82852 364.761H6.43752C6.71722 364.732 6.99823 364.803 7.23037 364.961C7.30721 365.049 7.35973 365.155 7.38267 365.269C7.40561 365.383 7.39817 365.501 7.36109 365.611L7.07523 367.083H6.38137L6.65352 365.684C6.67247 365.63 6.67923 365.573 6.6733 365.517C6.66736 365.461 6.64889 365.406 6.61923 365.358C6.51999 365.287 6.3974 365.256 6.27637 365.272H5.72994L5.37766 367.084H4.69194L5.30866 363.92Z" fill="#000004"/>
<path d="M8.88295 365.26C8.97542 365.248 9.06928 365.255 9.1591 365.28C9.24892 365.305 9.33292 365.347 9.40624 365.405C9.45355 365.478 9.48372 365.56 9.49448 365.646C9.50525 365.733 9.49632 365.82 9.46838 365.902C9.44388 366.105 9.34599 366.291 9.19324 366.426C9.00865 366.545 8.79038 366.601 8.57138 366.585H8.15223L8.40938 365.261L8.88295 365.26ZM7.20423 367.924H7.89338L8.05666 367.083H8.64681C8.86403 367.089 9.08086 367.061 9.28966 367.001C9.46103 366.945 9.61767 366.851 9.74824 366.726C9.97424 366.523 10.1265 366.25 10.1811 365.951C10.2243 365.802 10.2319 365.646 10.2033 365.493C10.1746 365.341 10.1105 365.198 10.0161 365.075C9.90228 364.963 9.76529 364.876 9.61466 364.822C9.46403 364.768 9.30339 364.747 9.14395 364.761H7.81881L7.20423 367.924Z" fill="#000004"/>
<path d="M11.5899 377.466L6.43227 372.226C6.36164 372.155 6.27778 372.098 6.18548 372.059C6.09318 372.02 5.99426 372 5.89435 372C5.79444 372 5.69552 372.02 5.60322 372.059C5.51092 372.098 5.42706 372.155 5.35643 372.226L4.28546 373.314L5.64404 374.695C5.80374 374.639 5.97545 374.631 6.13973 374.67C6.30401 374.708 6.45428 374.793 6.57353 374.915C6.69342 375.036 6.77713 375.19 6.81509 375.358C6.85305 375.526 6.84373 375.702 6.78819 375.864L8.09733 377.195C8.4141 377.084 8.77967 377.156 9.03258 377.413C9.11667 377.498 9.18337 377.6 9.22888 377.711C9.27439 377.823 9.29781 377.942 9.29781 378.063C9.29781 378.184 9.27439 378.303 9.22888 378.415C9.18337 378.527 9.11667 378.628 9.03258 378.713C8.88464 378.864 8.68996 378.957 8.48167 378.978C8.27339 378.999 8.06437 378.947 7.89019 378.829C7.71601 378.711 7.58745 378.535 7.52638 378.332C7.46531 378.128 7.47551 377.91 7.55524 377.713L6.33426 376.473L6.33415 379.737C6.42266 379.781 6.5035 379.84 6.57353 379.911C6.65761 379.996 6.72431 380.098 6.76981 380.209C6.81532 380.321 6.83874 380.44 6.83874 380.561C6.83874 380.682 6.81532 380.802 6.76981 380.913C6.72431 381.025 6.65761 381.126 6.57353 381.212C6.21983 381.571 5.64659 381.571 5.29345 381.212C5.18794 381.104 5.11013 380.972 5.06691 380.827C5.0237 380.682 5.01643 380.529 5.04574 380.38C5.07506 380.232 5.14006 380.093 5.23496 379.976C5.32986 379.859 5.45173 379.768 5.58971 379.71V376.416C5.47871 376.37 5.37796 376.301 5.29345 376.215C5.02557 375.943 4.96115 375.544 5.09841 375.21L3.75923 373.849L0.222892 377.441C0.152227 377.513 0.096172 377.598 0.057928 377.692C0.019684 377.786 0 377.886 0 377.988C0 378.089 0.019684 378.19 0.057928 378.284C0.096172 378.377 0.152227 378.463 0.222892 378.534L5.38049 383.774C5.52317 383.919 5.71666 384 5.91841 384C6.12016 384 6.31365 383.919 6.45633 383.774L11.5899 378.559C11.7325 378.414 11.8127 378.217 11.8127 378.012C11.8127 377.807 11.7325 377.611 11.5899 377.466" fill="#DE4C36"/>
<path d="M8.20301 386.826C8.1445 386.826 8.1055 386.834 8.06613 386.844V386.85H8.07213C8.0995 386.9 8.1445 386.94 8.17938 386.987C8.20676 387.04 8.23001 387.094 8.25551 387.147L8.26338 387.139C8.31026 387.106 8.33389 387.053 8.33389 386.973C8.31439 386.949 8.31026 386.924 8.29301 386.902C8.27351 386.869 8.23038 386.852 8.20301 386.826ZM2.88459 393.424H2.42183C2.40781 392.687 2.3629 391.951 2.2872 391.219H2.28345L1.57842 393.424H1.22479L0.525391 391.219H0.519391C0.465039 391.953 0.432524 392.688 0.421888 393.424H0C0.0228443 392.499 0.0913047 391.576 0.205131 390.658H0.779274L1.44717 392.689H1.45092L2.12482 390.658H2.67158C2.79271 391.666 2.86509 392.588 2.88647 393.424H2.88459ZM4.8924 391.383C4.7049 392.406 4.45476 393.151 4.14838 393.613C3.90612 393.971 3.64249 394.15 3.35523 394.15C3.2791 394.15 3.18535 394.127 3.0721 394.08V393.834C3.12872 393.842 3.19322 393.847 3.2656 393.847C3.40023 393.847 3.50786 393.808 3.58999 393.736C3.68749 393.646 3.73662 393.545 3.73662 393.433C3.73662 393.355 3.69949 393.199 3.62149 392.961L3.1156 391.383H3.57086L3.93425 392.563C4.01638 392.832 4.05163 393.018 4.03588 393.125C4.23688 392.594 4.37564 392.012 4.45401 391.383H4.8924ZM11.0565 393.424H9.74018V390.658H10.1834V393.084H11.0565V393.424ZM9.39629 393.49L8.88853 393.24C8.93353 393.203 8.97628 393.162 9.01566 393.115C9.23241 392.863 9.34004 392.487 9.34004 391.99C9.34004 391.074 8.98078 390.617 8.26188 390.617C7.91012 390.617 7.63486 390.733 7.43761 390.965C7.22273 391.219 7.11322 391.594 7.11322 392.088C7.11322 392.575 7.20885 392.93 7.40048 393.159C7.57636 393.362 7.84 393.465 8.19363 393.465C8.32451 393.465 8.44564 393.45 8.55514 393.417L9.21741 393.803L9.39892 393.491L9.39629 393.49ZM7.74999 392.869C7.63674 392.689 7.58199 392.4 7.58199 392.002C7.58199 391.305 7.79312 390.957 8.21688 390.957C8.43776 390.957 8.60164 391.041 8.70515 391.207C8.81653 391.389 8.87315 391.674 8.87315 392.068C8.87315 392.77 8.66015 393.123 8.23826 393.123C8.0155 393.123 7.8535 393.039 7.74812 392.873L7.74999 392.869ZM6.92159 392.658C6.92159 392.893 6.83571 393.086 6.66171 393.234C6.48995 393.385 6.2612 393.461 5.97019 393.461C5.69868 393.461 5.43879 393.375 5.18304 393.203L5.30229 392.965C5.52092 393.074 5.71818 393.129 5.89818 393.129C6.06431 393.129 6.19519 393.092 6.28895 393.019C6.3827 392.945 6.43933 392.842 6.43933 392.711C6.43933 392.547 6.3242 392.406 6.11494 392.289C5.92143 392.182 5.53292 391.961 5.53292 391.961C5.32179 391.807 5.21829 391.642 5.21829 391.371C5.21829 391.146 5.29629 390.967 5.45267 390.83C5.61093 390.689 5.81193 390.621 6.06206 390.621C6.31092 390.619 6.55487 390.69 6.76334 390.826L6.65608 391.064C6.48852 390.99 6.30777 390.951 6.12469 390.949C5.98219 390.949 5.87268 390.984 5.79656 391.053C5.72043 391.121 5.67355 391.207 5.67355 391.314C5.67355 391.479 5.79093 391.619 6.00544 391.74C6.20269 391.847 6.59908 392.074 6.59908 392.074C6.81584 392.226 6.92347 392.391 6.92347 392.658L6.92159 392.658ZM11.6115 389.731C11.3437 389.725 11.1367 389.752 10.9631 389.826C10.9143 389.846 10.8341 389.846 10.8262 389.908C10.8536 389.936 10.8573 389.979 10.881 390.016C10.9218 390.082 10.9905 390.172 11.055 390.219C11.1255 390.274 11.1956 390.328 11.268 390.375C11.3989 390.455 11.5455 390.502 11.6741 390.582C11.7465 390.629 11.8207 390.69 11.8927 390.739C11.9299 390.764 11.9531 390.809 12 390.825V390.815C11.9764 390.786 11.9707 390.742 11.9471 390.708C11.9137 390.674 11.8807 390.645 11.8474 390.612C11.7496 390.482 11.6323 390.368 11.4997 390.274C11.3925 390.202 11.1581 390.1 11.115 389.977L11.109 389.969C11.1813 389.963 11.2672 389.936 11.3374 389.916C11.4506 389.887 11.556 389.893 11.6734 389.863C11.7272 389.849 11.7806 389.834 11.8335 389.816V389.787C11.7731 389.727 11.7281 389.645 11.6655 389.588C11.4929 389.437 11.3087 389.3 11.1146 389.178C11.0092 389.11 10.8765 389.066 10.7651 389.01C10.7261 388.99 10.6578 388.981 10.6361 388.947C10.5757 388.873 10.5405 388.777 10.4973 388.689C10.3992 388.499 10.308 388.304 10.2239 388.107C10.1636 387.976 10.1283 387.847 10.0541 387.726C9.71018 387.158 9.33517 386.814 8.76102 386.476C8.63802 386.406 8.48952 386.376 8.33314 386.339C8.24913 386.336 8.16701 386.33 8.083 386.326C8.02825 386.302 7.97575 386.24 7.92887 386.208C7.73762 386.087 7.24523 385.827 7.10647 386.171C7.01647 386.39 7.23923 386.603 7.3176 386.713C7.37423 386.791 7.44661 386.877 7.48748 386.963C7.51111 387.021 7.51673 387.082 7.54036 387.142C7.59324 387.289 7.64386 387.453 7.71437 387.59C7.75149 387.66 7.79049 387.734 7.83737 387.797C7.86475 387.834 7.91162 387.85 7.92137 387.91C7.8745 387.978 7.87075 388.078 7.84525 388.16C7.72412 388.539 7.77099 389.006 7.94087 389.285C7.99563 389.369 8.12238 389.553 8.29263 389.482C8.44301 389.422 8.41001 389.232 8.45276 389.064C8.46251 389.023 8.45651 388.998 8.47639 388.97V388.978C8.52514 389.072 8.57202 389.162 8.61514 389.256C8.71677 389.42 8.89828 389.59 9.04866 389.703C9.12891 389.764 9.19116 389.867 9.29092 389.904V389.894H9.28304C9.26166 389.865 9.23429 389.851 9.20691 389.828C9.14358 389.765 9.08481 389.698 9.03103 389.627C8.89228 389.44 8.7674 389.233 8.6579 389.02C8.60514 388.914 8.55697 388.807 8.51352 388.697C8.49402 388.658 8.49402 388.598 8.46064 388.578C8.41001 388.651 8.33576 388.713 8.30051 388.805C8.23601 388.947 8.23001 389.125 8.20488 389.309C8.19326 389.312 8.19888 389.309 8.19326 389.317C8.086 389.289 8.04888 389.18 8.0095 389.086C7.90787 388.848 7.89212 388.467 7.97837 388.193C8.002 388.123 8.10138 387.902 8.06238 387.836C8.041 387.772 7.97462 387.734 7.93937 387.684C7.89437 387.621 7.84937 387.541 7.81824 387.471C7.73799 387.283 7.69899 387.076 7.61124 386.889C7.57224 386.803 7.50173 386.713 7.44511 386.633C7.38061 386.543 7.31048 386.479 7.26135 386.373C7.24373 386.336 7.22048 386.276 7.24785 386.236C7.25385 386.209 7.26735 386.199 7.29473 386.191C7.33785 386.154 7.46273 386.201 7.50586 386.222C7.62886 386.271 7.73237 386.318 7.83587 386.388C7.88275 386.422 7.93337 386.484 7.99413 386.502H8.06463C8.17188 386.525 8.29113 386.508 8.39089 386.539C8.56864 386.595 8.72877 386.678 8.87315 386.767C9.31468 387.051 9.67375 387.445 9.91418 387.912C9.95506 387.988 9.97269 388.058 10.0098 388.138C10.0781 388.304 10.1662 388.47 10.2363 388.628C10.3064 388.787 10.3732 388.947 10.4745 389.078C10.5251 389.148 10.7246 389.185 10.8161 389.22C10.8825 389.251 10.986 389.279 11.0445 389.314C11.1596 389.384 11.2729 389.464 11.3805 389.542C11.4352 389.579 11.6014 389.663 11.6111 389.73L11.6115 389.731Z" fill="#563D7C"/>
<path d="M11.4987 396H5.72015C5.72015 396.692 5.99498 397.355 6.48417 397.845C6.97337 398.334 7.63686 398.609 8.32869 398.609H9.39317V399.636C9.39411 401.076 10.5607 402.242 12 402.243V396.501C12 396.225 11.7756 396 11.4987 396Z" fill="#2684FF"/>
<path d="M8.63944 398.879H2.86091C2.8618 400.319 4.02836 401.485 5.46776 401.486H6.53224V402.517C6.53407 403.957 7.70143 405.122 9.14078 405.122V399.381C9.14078 399.104 8.91631 398.879 8.63944 398.879V398.879Z" fill="url(#paint1_linear)"/>
<path d="M5.77858 401.757H0C0 403.197 1.16793 404.365 2.60854 404.365H3.67636V405.393C3.6773 406.831 4.84184 407.997 6.27992 408V402.258C6.27992 401.981 6.05545 401.757 5.77858 401.757Z" fill="url(#paint2_linear)"/>
<path d="M9.86639 412.46C9.73868 412.417 9.60989 412.376 9.48014 412.339C9.50194 412.25 9.522 412.162 9.53981 412.075C9.83222 410.656 9.64106 409.512 8.98814 409.136C8.36212 408.775 7.33833 409.151 6.30436 410.051C6.20246 410.14 6.10282 410.231 6.00553 410.325C5.9404 410.263 5.87413 410.202 5.80673 410.142C4.72308 409.179 3.63689 408.774 2.98467 409.152C2.35922 409.514 2.17402 410.589 2.43727 411.934C2.46346 412.067 2.49303 412.2 2.52595 412.331C2.3722 412.375 2.22384 412.421 2.08186 412.471C0.811359 412.914 0 413.608 0 414.328C0 415.072 0.871031 415.818 2.19431 416.27C2.30159 416.307 2.40977 416.34 2.51873 416.372C2.48334 416.513 2.45193 416.656 2.42452 416.8C2.17355 418.122 2.36953 419.171 2.9933 419.531C3.63755 419.903 4.71886 419.521 5.77172 418.6C5.85709 418.526 5.94059 418.449 6.02213 418.37C6.12748 418.471 6.23565 418.57 6.3465 418.666C7.36641 419.543 8.37366 419.898 8.99681 419.537C9.64045 419.164 9.84966 418.037 9.57806 416.665C9.55667 416.557 9.53268 416.45 9.50611 416.344C9.58205 416.322 9.65658 416.299 9.72923 416.274C11.1049 415.819 12 415.082 12 414.328C12 413.606 11.1624 412.907 9.86639 412.46V412.46ZM9.56803 415.788C9.50241 415.81 9.43509 415.831 9.36647 415.851C9.21459 415.37 9.00966 414.859 8.75883 414.331C8.99817 413.815 9.19523 413.31 9.34284 412.833C9.46561 412.868 9.58472 412.906 9.69956 412.945C10.81 413.327 11.4874 413.893 11.4874 414.328C11.4874 414.792 10.7558 415.394 9.56803 415.788V415.788ZM9.07519 416.764C9.19528 417.371 9.21239 417.919 9.13284 418.348C9.06141 418.733 8.91769 418.99 8.73994 419.093C8.3618 419.312 7.55306 419.028 6.68086 418.277C6.57775 418.188 6.47713 418.096 6.37912 418.002C6.71728 417.632 7.0552 417.202 7.38502 416.725C7.96514 416.673 8.5132 416.589 9.01022 416.474C9.03469 416.573 9.05644 416.67 9.07519 416.764V416.764ZM4.09106 419.055C3.72159 419.186 3.42731 419.19 3.24942 419.087C2.87091 418.869 2.71355 418.026 2.92819 416.896C2.9537 416.762 2.98292 416.629 3.0158 416.497C3.50733 416.606 4.05141 416.684 4.63289 416.731C4.96495 417.198 5.31262 417.628 5.66302 418.004C5.58855 418.076 5.51233 418.146 5.43441 418.214C4.9688 418.621 4.50225 418.91 4.09106 419.055V419.055ZM2.36016 415.785C1.77502 415.585 1.29178 415.325 0.960563 415.041C0.662906 414.787 0.512672 414.533 0.512672 414.328C0.512672 413.891 1.16409 413.334 2.25061 412.955C2.38247 412.909 2.52047 412.866 2.66367 412.825C2.81386 413.314 3.01083 413.824 3.24853 414.341C3.00773 414.865 2.80795 415.384 2.65631 415.878C2.55685 415.849 2.4581 415.818 2.36016 415.785V415.785ZM2.94038 411.835C2.71486 410.683 2.86462 409.813 3.24155 409.595C3.64298 409.363 4.5307 409.694 5.46637 410.525C5.52739 410.579 5.58741 410.635 5.64642 410.691C5.29777 411.066 4.95328 411.492 4.62417 411.956C4.0598 412.009 3.51956 412.093 3.02287 412.205C2.99227 412.083 2.96476 411.959 2.94038 411.835V411.835ZM8.11664 413.114C7.99932 412.911 7.87765 412.711 7.75172 412.513C8.13459 412.562 8.50144 412.626 8.84592 412.705C8.74252 413.036 8.61361 413.383 8.46188 413.738C8.35097 413.528 8.23586 413.319 8.11664 413.114V413.114ZM6.00577 411.058C6.2422 411.314 6.47902 411.6 6.71194 411.91C6.23944 411.888 5.76615 411.888 5.29364 411.91C5.5268 411.602 5.76563 411.317 6.00577 411.058ZM3.88134 413.117C3.76361 413.321 3.65066 413.528 3.54258 413.738C3.39333 413.384 3.26559 413.035 3.1613 412.699C3.50367 412.623 3.86878 412.56 4.24922 412.512C4.12188 412.711 3.99922 412.913 3.88134 413.117V413.117ZM4.26014 416.18C3.86709 416.137 3.4965 416.077 3.15422 416.003C3.26016 415.66 3.3907 415.305 3.54319 414.943C3.6517 415.153 3.76512 415.36 3.88336 415.564C4.00495 415.774 4.13086 415.98 4.26014 416.18ZM6.01992 417.635C5.77692 417.373 5.53458 417.083 5.29791 416.771C5.52769 416.78 5.76192 416.784 6 416.784C6.24459 416.784 6.48638 416.779 6.72436 416.768C6.49069 417.086 6.25477 417.376 6.01992 417.635ZM8.4667 414.925C8.62711 415.29 8.7623 415.644 8.86964 415.98C8.52173 416.06 8.14608 416.124 7.75027 416.171C7.8771 415.97 7.99992 415.767 8.11866 415.561C8.23938 415.351 8.35542 415.139 8.4667 414.925V414.925ZM7.67461 415.304C7.49284 415.62 7.30084 415.93 7.09894 416.233C6.7332 416.259 6.36665 416.272 6 416.272C5.62655 416.272 5.26331 416.26 4.91353 416.238C4.70635 415.935 4.5107 415.625 4.32698 415.307H4.32703C4.14418 414.992 3.97339 414.669 3.81502 414.34C3.97298 414.012 4.14326 413.689 4.32548 413.373L4.32544 413.373C4.50759 413.057 4.70169 412.748 4.9073 412.447C5.26416 412.42 5.63011 412.406 5.99995 412.406H6C6.37153 412.406 6.73795 412.42 7.09472 412.447C7.29825 412.748 7.49111 413.056 7.67292 413.37C7.85575 413.686 8.02828 414.007 8.19023 414.333C8.02995 414.663 7.85796 414.987 7.67461 415.304V415.304ZM8.73211 409.58C9.13392 409.812 9.2902 410.746 9.03773 411.972C9.02161 412.05 9.00352 412.13 8.98383 412.21C8.48592 412.095 7.94531 412.01 7.3793 411.957C7.04958 411.487 6.70791 411.06 6.36492 410.691C6.45481 410.604 6.54684 410.52 6.64092 410.438C7.52686 409.667 8.35486 409.362 8.73211 409.58V409.58ZM6 413.257C6.5918 413.257 7.07156 413.736 7.07156 414.328C7.07156 414.92 6.5918 415.4 6 415.4C5.4082 415.4 4.92844 414.92 4.92844 414.328C4.92844 413.736 5.4082 413.257 6 413.257V413.257Z" fill="#00D8FF"/>
<path d="M9.6 421H12L6 431.35L0 421H4.59L6 423.4L7.38 421H9.6Z" fill="#41B883"/>
<path d="M0 421L6 431.35L12 421H9.6L6 427.21L2.37 421H0Z" fill="#41B883"/>
<path d="M2.36998 421L5.99998 427.24L9.59998 421H7.37998L5.99998 423.4L4.58998 421H2.36998Z" fill="#35495E"/>
<defs>
<radialGradient id="paint0_radial" cx="0" cy="0" r="1" gradientUnits="userSpaceOnUse" gradientTransform="translate(3.60257 364.11) scale(7.87886)">
<stop stop-color="white"/>
<stop offset="0.5" stop-color="#4C6B96"/>
<stop offset="1" stop-color="#231F20"/>
</radialGradient>
<linearGradient id="paint1_linear" x1="9.01713" y1="398.889" x2="6.57395" y2="401.439" gradientUnits="userSpaceOnUse">
<stop offset="0.18" stop-color="#0052CC"/>
<stop offset="1" stop-color="#2684FF"/>
</linearGradient>
<linearGradient id="paint2_linear" x1="6.32168" y1="401.785" x2="3.49554" y2="404.566" gradientUnits="userSpaceOnUse">
<stop offset="0.18" stop-color="#0052CC"/>
<stop offset="1" stop-color="#2684FF"/>
</linearGradient>
</defs>
</svg>
