<svg width="802" height="235" viewBox="0 0 802 235" fill="none" xmlns="http://www.w3.org/2000/svg">
<path d="M73.4609 26.6875V84.4609C73.4609 93.4844 70.8438 100.535 65.6094 105.613C60.375 110.652 53.2852 113.172 44.3398 113.172C35.3945 113.172 28.3047 110.652 23.0703 105.613C17.8359 100.535 15.1992 93.5625 15.1602 84.6953V26.6875H18.3242V84.3438C18.3242 92.2344 20.6875 98.4844 25.4141 103.094C30.1797 107.703 36.4883 110.008 44.3398 110.008C52.1914 110.008 58.4805 107.703 63.207 103.094C67.9336 98.4844 70.2969 92.2148 70.2969 84.2852V26.6875H73.4609ZM101.586 112H98.4219V26.6875H101.586V112ZM121.566 119.324H118.109L153.734 26.6875H157.191L121.566 119.324ZM230.609 26.6875V84.4609C230.609 93.4844 227.992 100.535 222.758 105.613C217.523 110.652 210.434 113.172 201.488 113.172C192.543 113.172 185.453 110.652 180.219 105.613C174.984 100.535 172.348 93.5625 172.309 84.6953V26.6875H175.473V84.3438C175.473 92.2344 177.836 98.4844 182.562 103.094C187.328 107.703 193.637 110.008 201.488 110.008C209.34 110.008 215.629 107.703 220.355 103.094C225.082 98.4844 227.445 92.2148 227.445 84.2852V26.6875H230.609ZM277.309 66.0039L304.848 26.6875H308.832L279.301 68.4648L309.945 112H306.02L277.309 70.9258L248.48 112H244.672L275.316 68.4648L245.785 26.6875H249.77L277.309 66.0039ZM353.656 112V26.6875H377.27C383.871 26.6875 389.848 28.25 395.199 31.375C400.551 34.5 404.75 38.8945 407.797 44.5586C410.844 50.1836 412.406 56.4922 412.484 63.4844V74.5586C412.484 81.668 410.98 88.0742 407.973 93.7773C405.004 99.4805 400.844 103.934 395.492 107.137C390.141 110.34 384.164 111.961 377.562 112H353.656ZM356.82 29.8516V108.836H377.27C383.246 108.836 388.676 107.391 393.559 104.5C398.48 101.57 402.328 97.5078 405.102 92.3125C407.875 87.0781 409.281 81.2773 409.32 74.9102V63.9531C409.32 57.5859 407.953 51.8047 405.219 46.6094C402.523 41.4141 398.734 37.3516 393.852 34.4219C389.008 31.4531 383.637 29.9297 377.738 29.8516H356.82ZM453.324 113.172C448.207 113.172 443.5 111.805 439.203 109.07C434.945 106.297 431.605 102.508 429.184 97.7031C426.762 92.8984 425.551 87.5664 425.551 81.707V79.0703C425.551 73.2109 426.723 67.8398 429.066 62.957C431.41 58.0742 434.633 54.2656 438.734 51.5312C442.836 48.7969 447.309 47.4297 452.152 47.4297C459.223 47.4297 465.004 49.9492 469.496 54.9883C473.988 60.0273 476.234 66.6484 476.234 74.8516V78.1914H428.715V81.6484C428.715 86.8047 429.789 91.5898 431.938 96.0039C434.125 100.379 437.113 103.816 440.902 106.316C444.73 108.816 448.871 110.066 453.324 110.066C457.582 110.066 461.195 109.363 464.164 107.957C467.172 106.512 469.828 104.305 472.133 101.336L474.359 102.918C469.633 109.754 462.621 113.172 453.324 113.172ZM452.152 50.5938C445.98 50.5938 440.746 52.8984 436.449 57.5078C432.152 62.0781 429.633 67.918 428.891 75.0273H473.07V74.2656C473.07 69.9688 472.152 65.9844 470.316 62.3125C468.52 58.6016 466.02 55.7305 462.816 53.6992C459.652 51.6289 456.098 50.5938 452.152 50.5938ZM530.082 96.4727C530.082 88.7773 523.52 83.543 510.395 80.7695C502.504 79.0898 497.016 76.9414 493.93 74.3242C490.844 71.668 489.301 68.0352 489.301 63.4258C489.301 58.7773 491.254 54.9492 495.16 51.9414C499.105 48.9336 504.223 47.4297 510.512 47.4297C517.348 47.4297 522.836 49.0703 526.977 52.3516C531.117 55.5938 533.188 59.9883 533.188 65.5352H529.965C529.965 61.2773 528.168 57.7227 524.574 54.8711C520.98 52.0195 516.293 50.5938 510.512 50.5938C504.965 50.5938 500.57 51.8047 497.328 54.2266C494.086 56.6484 492.465 59.6758 492.465 63.3086C492.465 66.1602 493.07 68.4062 494.281 70.0469C495.492 71.6484 497.465 73.1133 500.199 74.4414C502.934 75.7305 506.918 76.9805 512.152 78.1914C517.387 79.4023 521.527 80.8281 524.574 82.4688C527.621 84.1094 529.828 86.0625 531.195 88.3281C532.562 90.5547 533.246 93.2891 533.246 96.5312C533.246 101.531 531.195 105.555 527.094 108.602C522.992 111.648 517.621 113.172 510.98 113.172C503.871 113.172 498.129 111.57 493.754 108.367C489.418 105.125 487.25 100.965 487.25 95.8867H490.414C490.727 100.34 492.68 103.816 496.273 106.316C499.906 108.777 504.809 110.008 510.98 110.008C516.645 110.008 521.234 108.699 524.75 106.082C528.305 103.426 530.082 100.223 530.082 96.4727ZM554.691 112H551.527V48.6016H554.691V112ZM549.887 28.7969C549.887 27.8984 550.199 27.1367 550.824 26.5117C551.449 25.8477 552.211 25.5156 553.109 25.5156C554.008 25.5156 554.77 25.8477 555.395 26.5117C556.059 27.1367 556.391 27.8984 556.391 28.7969C556.391 29.6953 556.059 30.457 555.395 31.082C554.77 31.707 554.008 32.0195 553.109 32.0195C552.211 32.0195 551.449 31.707 550.824 31.082C550.199 30.457 549.887 29.6953 549.887 28.7969ZM572.504 79.6562C572.504 69.5391 574.633 61.6484 578.891 55.9844C583.148 50.2813 588.988 47.4297 596.41 47.4297C601.137 47.4297 605.336 48.5234 609.008 50.7109C612.68 52.8594 615.629 56.0234 617.855 60.2031V48.6016H621.078V110.887C621.078 119.246 618.93 125.77 614.633 130.457C610.336 135.184 604.496 137.547 597.113 137.547C592.855 137.547 588.949 136.629 585.395 134.793C581.879 132.957 578.871 130.32 576.371 126.883L578.598 124.773C581.059 127.898 583.754 130.281 586.684 131.922C589.613 133.602 593.051 134.441 596.996 134.441C603.52 134.441 608.598 132.449 612.23 128.465C615.863 124.52 617.738 118.934 617.855 111.707V101.98C615.668 105.574 612.699 108.348 608.949 110.301C605.238 112.215 601.02 113.172 596.293 113.172C588.949 113.172 583.148 110.262 578.891 104.441C574.633 98.6211 572.504 90.6328 572.504 80.4766V79.6562ZM575.727 80.8867C575.727 89.9492 577.523 97.0781 581.117 102.273C584.711 107.43 589.75 110.008 596.234 110.008C601.586 110.008 606.137 108.777 609.887 106.316C613.637 103.816 616.293 100.32 617.855 95.8281V67.0586C614.418 56.082 607.25 50.5938 596.352 50.5938C589.828 50.5938 584.75 53.1523 581.117 58.2695C577.523 63.3867 575.727 70.9258 575.727 80.8867ZM644.516 63.3672C646.586 58.4453 649.633 54.5586 653.656 51.707C657.68 48.8555 662.133 47.4297 667.016 47.4297C673.812 47.4297 678.852 49.3633 682.133 53.2305C685.453 57.0586 687.133 62.8594 687.172 70.6328V112H684.008V70.5156C683.969 63.7188 682.582 58.6992 679.848 55.457C677.113 52.1758 672.777 50.5352 666.84 50.5352C661.371 50.5352 656.625 52.4883 652.602 56.3945C648.617 60.2617 645.922 65.2617 644.516 71.3945V112H641.352V48.6016H644.516V63.3672ZM729.887 113.172C724.77 113.172 720.062 111.805 715.766 109.07C711.508 106.297 708.168 102.508 705.746 97.7031C703.324 92.8984 702.113 87.5664 702.113 81.707V79.0703C702.113 73.2109 703.285 67.8398 705.629 62.957C707.973 58.0742 711.195 54.2656 715.297 51.5312C719.398 48.7969 723.871 47.4297 728.715 47.4297C735.785 47.4297 741.566 49.9492 746.059 54.9883C750.551 60.0273 752.797 66.6484 752.797 74.8516V78.1914H705.277V81.6484C705.277 86.8047 706.352 91.5898 708.5 96.0039C710.688 100.379 713.676 103.816 717.465 106.316C721.293 108.816 725.434 110.066 729.887 110.066C734.145 110.066 737.758 109.363 740.727 107.957C743.734 106.512 746.391 104.305 748.695 101.336L750.922 102.918C746.195 109.754 739.184 113.172 729.887 113.172ZM728.715 50.5938C722.543 50.5938 717.309 52.8984 713.012 57.5078C708.715 62.0781 706.195 67.918 705.453 75.0273H749.633V74.2656C749.633 69.9688 748.715 65.9844 746.879 62.3125C745.082 58.6016 742.582 55.7305 739.379 53.6992C736.215 51.6289 732.66 50.5938 728.715 50.5938ZM795.512 50.8867L791.41 50.5352C786.02 50.5352 781.508 52.293 777.875 55.8086C774.242 59.2852 771.859 64.168 770.727 70.457V112H767.562V48.6016H770.727V61.7852C772.445 57.3711 775.023 53.875 778.461 51.2969C781.898 48.7188 786.215 47.4297 791.41 47.4297C793.246 47.4297 794.73 47.6445 795.863 48.0742L795.512 50.8867Z" fill="#DCD9D8"/>
<path d="M45.1289 179.836H11.6172V212H9.19141V146.594H49.7109V149.02H11.6172V177.32H45.1289V179.836ZM80.8418 165.146L77.6973 164.877C73.5645 164.877 70.1055 166.225 67.3203 168.92C64.5352 171.585 62.7083 175.329 61.8398 180.15V212H59.4141V163.395H61.8398V173.502C63.1576 170.118 65.1341 167.438 67.7695 165.461C70.4049 163.484 73.7142 162.496 77.6973 162.496C79.1048 162.496 80.2428 162.661 81.1113 162.99L80.8418 165.146ZM85.6484 186.754C85.6484 182.112 86.5319 177.949 88.2988 174.266C90.0957 170.552 92.6113 167.662 95.8457 165.596C99.11 163.529 102.794 162.496 106.896 162.496C110.969 162.496 114.623 163.499 117.857 165.506C121.092 167.512 123.607 170.357 125.404 174.041C127.231 177.725 128.16 181.872 128.189 186.484V188.641C128.189 193.312 127.306 197.49 125.539 201.174C123.772 204.857 121.257 207.732 117.992 209.799C114.758 211.865 111.089 212.898 106.986 212.898C102.883 212.898 99.1999 211.88 95.9355 209.844C92.7012 207.807 90.1855 204.962 88.3887 201.309C86.5918 197.625 85.6784 193.492 85.6484 188.91V186.754ZM88.0742 188.641C88.0742 192.684 88.8678 196.397 90.4551 199.781C92.0723 203.135 94.3034 205.756 97.1484 207.643C100.023 209.529 103.303 210.473 106.986 210.473C112.527 210.473 117.034 208.391 120.508 204.229C124.012 200.066 125.764 194.705 125.764 188.146V186.754C125.764 182.771 124.955 179.087 123.338 175.703C121.721 172.319 119.475 169.684 116.6 167.797C113.755 165.88 110.52 164.922 106.896 164.922C101.356 164.922 96.834 167.033 93.3301 171.256C89.8262 175.479 88.0742 180.794 88.0742 187.203V188.641ZM142.43 174.715C144.017 170.941 146.353 167.962 149.438 165.775C152.522 163.589 155.936 162.496 159.68 162.496C164.891 162.496 168.754 163.979 171.27 166.943C173.815 169.878 175.103 174.326 175.133 180.285V212H172.707V180.195C172.677 174.984 171.614 171.136 169.518 168.65C167.421 166.135 164.097 164.877 159.545 164.877C155.352 164.877 151.714 166.374 148.629 169.369C145.574 172.334 143.508 176.167 142.43 180.869V212H140.004V163.395H142.43V174.715ZM195.842 150.277V163.395H206.893V165.865H195.842V200.365C195.842 203.809 196.396 206.355 197.504 208.002C198.642 209.649 200.529 210.473 203.164 210.473C204.482 210.473 206.084 210.338 207.971 210.068L208.375 212.359C207.387 212.719 205.695 212.898 203.299 212.898C199.765 212.898 197.234 211.925 195.707 209.979C194.18 208.002 193.401 204.902 193.371 200.68V165.865H184.387V163.395H193.371V150.277H195.842ZM278.004 179.566H245.211V209.574H282.586V212H242.785V146.594H282.586V149.02H245.211V177.141H278.004V179.566ZM296.332 174.715C297.919 170.941 300.255 167.962 303.34 165.775C306.424 163.589 309.839 162.496 313.582 162.496C318.793 162.496 322.656 163.979 325.172 166.943C327.717 169.878 329.005 174.326 329.035 180.285V212H326.609V180.195C326.579 174.984 325.516 171.136 323.42 168.65C321.324 166.135 317.999 164.877 313.447 164.877C309.255 164.877 305.616 166.374 302.531 169.369C299.477 172.334 297.41 176.167 296.332 180.869V212H293.906V163.395H296.332V174.715ZM342.062 187.203C342.062 179.447 343.695 173.397 346.959 169.055C350.223 164.682 354.701 162.496 360.391 162.496C364.044 162.496 367.264 163.32 370.049 164.967C372.864 166.614 375.14 169.07 376.877 172.334V143H379.303V212H376.877V204.229C375.23 206.984 372.969 209.125 370.094 210.652C367.219 212.15 363.954 212.898 360.301 212.898C354.671 212.898 350.223 210.667 346.959 206.205C343.695 201.743 342.062 195.618 342.062 187.832V187.203ZM344.578 188.146C344.578 195.035 345.941 200.485 348.666 204.498C351.391 208.481 355.255 210.473 360.256 210.473C364.269 210.473 367.698 209.589 370.543 207.822C373.388 206.025 375.499 203.405 376.877 199.961V177.186C374.092 169.01 368.581 164.922 360.346 164.922C355.374 164.922 351.496 166.883 348.711 170.807C345.956 174.73 344.578 180.51 344.578 188.146ZM417.98 212V146.594H436.084C441.145 146.594 445.727 147.792 449.83 150.188C453.933 152.583 457.152 155.952 459.488 160.295C461.824 164.607 463.022 169.444 463.082 174.805V183.295C463.082 188.745 461.929 193.657 459.623 198.029C457.347 202.402 454.158 205.816 450.055 208.271C445.952 210.727 441.37 211.97 436.309 212H417.98ZM420.406 149.02V209.574H436.084C440.666 209.574 444.829 208.466 448.572 206.25C452.346 204.004 455.296 200.889 457.422 196.906C459.548 192.893 460.626 188.446 460.656 183.564V175.164C460.656 170.283 459.608 165.85 457.512 161.867C455.445 157.884 452.54 154.77 448.797 152.523C445.083 150.247 440.965 149.079 436.443 149.02H420.406ZM494.393 212.898C490.469 212.898 486.861 211.85 483.566 209.754C480.302 207.628 477.742 204.723 475.885 201.039C474.028 197.355 473.1 193.268 473.1 188.775V186.754C473.1 182.262 473.998 178.144 475.795 174.4C477.592 170.657 480.062 167.737 483.207 165.641C486.352 163.544 489.781 162.496 493.494 162.496C498.915 162.496 503.347 164.428 506.791 168.291C510.235 172.154 511.957 177.23 511.957 183.52V186.08H475.525V188.73C475.525 192.684 476.349 196.352 477.996 199.736C479.673 203.09 481.964 205.726 484.869 207.643C487.804 209.559 490.979 210.518 494.393 210.518C497.657 210.518 500.427 209.979 502.703 208.9C505.009 207.792 507.046 206.1 508.812 203.824L510.52 205.037C506.896 210.278 501.52 212.898 494.393 212.898ZM493.494 164.922C488.762 164.922 484.749 166.689 481.455 170.223C478.161 173.727 476.229 178.204 475.66 183.654H509.531V183.07C509.531 179.776 508.827 176.721 507.42 173.906C506.042 171.061 504.126 168.86 501.67 167.303C499.244 165.715 496.519 164.922 493.494 164.922ZM536.934 208.137L554.408 163.395H557.014L538.102 212H535.721L516.854 163.395H519.459L536.934 208.137ZM583.428 212.898C579.505 212.898 575.896 211.85 572.602 209.754C569.337 207.628 566.777 204.723 564.92 201.039C563.063 197.355 562.135 193.268 562.135 188.775V186.754C562.135 182.262 563.033 178.144 564.83 174.4C566.627 170.657 569.098 167.737 572.242 165.641C575.387 163.544 578.816 162.496 582.529 162.496C587.95 162.496 592.382 164.428 595.826 168.291C599.27 172.154 600.992 177.23 600.992 183.52V186.08H564.561V188.73C564.561 192.684 565.384 196.352 567.031 199.736C568.708 203.09 570.999 205.726 573.904 207.643C576.839 209.559 580.014 210.518 583.428 210.518C586.692 210.518 589.462 209.979 591.738 208.9C594.044 207.792 596.081 206.1 597.848 203.824L599.555 205.037C595.931 210.278 590.555 212.898 583.428 212.898ZM582.529 164.922C577.798 164.922 573.785 166.689 570.49 170.223C567.196 173.727 565.264 178.204 564.695 183.654H598.566V183.07C598.566 179.776 597.863 176.721 596.455 173.906C595.077 171.061 593.161 168.86 590.705 167.303C588.279 165.715 585.554 164.922 582.529 164.922ZM615.322 212H612.896V143H615.322V212ZM627.586 186.754C627.586 182.112 628.469 177.949 630.236 174.266C632.033 170.552 634.549 167.662 637.783 165.596C641.048 163.529 644.731 162.496 648.834 162.496C652.907 162.496 656.561 163.499 659.795 165.506C663.029 167.512 665.545 170.357 667.342 174.041C669.169 177.725 670.097 181.872 670.127 186.484V188.641C670.127 193.312 669.243 197.49 667.477 201.174C665.71 204.857 663.194 207.732 659.93 209.799C656.695 211.865 653.027 212.898 648.924 212.898C644.821 212.898 641.137 211.88 637.873 209.844C634.639 207.807 632.123 204.962 630.326 201.309C628.529 197.625 627.616 193.492 627.586 188.91V186.754ZM630.012 188.641C630.012 192.684 630.805 196.397 632.393 199.781C634.01 203.135 636.241 205.756 639.086 207.643C641.961 209.529 645.24 210.473 648.924 210.473C654.464 210.473 658.971 208.391 662.445 204.229C665.949 200.066 667.701 194.705 667.701 188.146V186.754C667.701 182.771 666.893 179.087 665.275 175.703C663.658 172.319 661.412 169.684 658.537 167.797C655.692 165.88 652.458 164.922 648.834 164.922C643.294 164.922 638.771 167.033 635.268 171.256C631.764 175.479 630.012 180.794 630.012 187.203V188.641ZM719.092 188.146C719.092 195.723 717.46 201.743 714.195 206.205C710.931 210.667 706.484 212.898 700.854 212.898C697.17 212.898 693.891 212.15 691.016 210.652C688.141 209.155 685.895 207.089 684.277 204.453V230.688H681.852V163.395H684.277V172.064C685.954 168.98 688.215 166.614 691.061 164.967C693.906 163.32 697.14 162.496 700.764 162.496C706.454 162.496 710.931 164.682 714.195 169.055C717.46 173.397 719.092 179.507 719.092 187.383V188.146ZM716.621 187.203C716.621 180.225 715.229 174.775 712.443 170.852C709.688 166.898 705.81 164.922 700.809 164.922C696.736 164.922 693.277 165.985 690.432 168.111C687.587 170.208 685.535 173.232 684.277 177.186V199.916C685.535 203.27 687.587 205.876 690.432 207.732C693.307 209.559 696.796 210.473 700.898 210.473C705.87 210.473 709.733 208.496 712.488 204.543C715.243 200.59 716.621 194.81 716.621 187.203ZM749.818 212.898C745.895 212.898 742.286 211.85 738.992 209.754C735.728 207.628 733.167 204.723 731.311 201.039C729.454 197.355 728.525 193.268 728.525 188.775V186.754C728.525 182.262 729.424 178.144 731.221 174.4C733.018 170.657 735.488 167.737 738.633 165.641C741.777 163.544 745.206 162.496 748.92 162.496C754.34 162.496 758.773 164.428 762.217 168.291C765.661 172.154 767.383 177.23 767.383 183.52V186.08H730.951V188.73C730.951 192.684 731.775 196.352 733.422 199.736C735.099 203.09 737.39 205.726 740.295 207.643C743.23 209.559 746.404 210.518 749.818 210.518C753.083 210.518 755.853 209.979 758.129 208.9C760.435 207.792 762.471 206.1 764.238 203.824L765.945 205.037C762.322 210.278 756.946 212.898 749.818 212.898ZM748.92 164.922C744.188 164.922 740.175 166.689 736.881 170.223C733.587 173.727 731.655 178.204 731.086 183.654H764.957V183.07C764.957 179.776 764.253 176.721 762.846 173.906C761.468 171.061 759.551 168.86 757.096 167.303C754.67 165.715 751.945 164.922 748.92 164.922ZM800.131 165.146L796.986 164.877C792.854 164.877 789.395 166.225 786.609 168.92C783.824 171.585 781.997 175.329 781.129 180.15V212H778.703V163.395H781.129V173.502C782.447 170.118 784.423 167.438 787.059 165.461C789.694 163.484 793.003 162.496 796.986 162.496C798.394 162.496 799.532 162.661 800.4 162.99L800.131 165.146Z" fill="#DCD9D8"/>
</svg>
