<svg width="392" height="90" viewBox="0 0 392 90" fill="none" xmlns="http://www.w3.org/2000/svg">
<path fill-rule="evenodd" clip-rule="evenodd" d="M38.0209 15.9948C25.7813 15.9948 15.842 26.0062 15.842 38.3671C15.842 50.7135 25.7813 60.7394 38.0209 60.7394C50.2605 60.7394 60.1997 50.7281 60.1997 38.3671C60.1997 26.0062 50.2605 15.9948 38.0209 15.9948ZM76.0562 38.3671V37.6374C75.6656 16.7829 58.7963 0 38.0353 0C17.0284 0 0 17.1769 0 38.3671C0 59.5427 17.0284 76.7196 38.0209 76.7342C45.9636 76.7342 53.3421 74.2679 59.4474 70.0649C63.1656 85.0673 76.0562 90 76.0562 90V38.3671ZM51.2007 38.3672C51.2007 45.7017 45.3063 51.6476 38.0352 51.6476C30.7641 51.6476 24.8697 45.7017 24.8697 38.3672C24.8697 31.0327 30.7641 25.0868 38.0352 25.0868C45.3063 25.0868 51.2007 31.0327 51.2007 38.3672Z" fill="#FF8C00"/>
<path d="M127.547 14.25V29.7812C127.536 31.3125 127.198 32.6458 126.531 33.7812C125.865 34.9167 124.922 35.7917 123.703 36.4062C122.495 37.0104 121.104 37.3125 119.531 37.3125C117.135 37.3125 115.214 36.6615 113.766 35.3594C112.328 34.0469 111.583 32.2344 111.531 29.9219V14.25H113.438V29.6406C113.438 31.5573 113.984 33.0469 115.078 34.1094C116.172 35.1615 117.656 35.6875 119.531 35.6875C121.406 35.6875 122.885 35.1562 123.969 34.0938C125.062 33.0312 125.609 31.5521 125.609 29.6562V14.25H127.547ZM135.25 37H133.328V14.25H135.25V37ZM140.734 38.9531H139.031L148.531 14.25H150.219L140.734 38.9531ZM169.828 14.25V29.7812C169.818 31.3125 169.479 32.6458 168.812 33.7812C168.146 34.9167 167.203 35.7917 165.984 36.4062C164.776 37.0104 163.385 37.3125 161.812 37.3125C159.417 37.3125 157.495 36.6615 156.047 35.3594C154.609 34.0469 153.865 32.2344 153.812 29.9219V14.25H155.719V29.6406C155.719 31.5573 156.266 33.0469 157.359 34.1094C158.453 35.1615 159.938 35.6875 161.812 35.6875C163.688 35.6875 165.167 35.1562 166.25 34.0938C167.344 33.0312 167.891 31.5521 167.891 29.6562V14.25H169.828ZM182.109 23.875L188.516 14.25H190.812L183.281 25.4688L191.047 37H188.734L182.109 27.0625L175.453 37H173.172L180.953 25.4688L173.406 14.25H175.703L182.109 23.875ZM202.562 37V14.25H208.922C210.786 14.25 212.458 14.6771 213.938 15.5312C215.417 16.375 216.568 17.5885 217.391 19.1719C218.224 20.7552 218.641 22.5573 218.641 24.5781V26.6719C218.641 28.7031 218.229 30.5052 217.406 32.0781C216.583 33.651 215.422 34.8646 213.922 35.7188C212.432 36.5729 210.719 37 208.781 37H202.562ZM204.484 15.8906V35.375H208.797C211.193 35.375 213.115 34.5833 214.562 33C216.01 31.4062 216.734 29.2552 216.734 26.5469V24.5469C216.734 21.9323 216.021 19.8385 214.594 18.2656C213.167 16.6927 211.286 15.901 208.953 15.8906H204.484ZM229.641 37.3125C228.203 37.3125 226.901 36.9583 225.734 36.25C224.578 35.5417 223.677 34.5573 223.031 33.2969C222.385 32.026 222.062 30.6042 222.062 29.0312V28.3594C222.062 26.7344 222.375 25.2708 223 23.9688C223.635 22.6667 224.516 21.6458 225.641 20.9062C226.766 20.1562 227.984 19.7812 229.297 19.7812C231.349 19.7812 232.974 20.4844 234.172 21.8906C235.38 23.2865 235.984 25.1979 235.984 27.625V28.6719H223.922V29.0312C223.922 30.9479 224.469 32.5469 225.562 33.8281C226.667 35.099 228.052 35.7344 229.719 35.7344C230.719 35.7344 231.599 35.5521 232.359 35.1875C233.13 34.8229 233.828 34.2396 234.453 33.4375L235.625 34.3281C234.25 36.3177 232.255 37.3125 229.641 37.3125ZM229.297 21.375C227.891 21.375 226.703 21.8906 225.734 22.9219C224.776 23.9531 224.193 25.3385 223.984 27.0781H234.125V26.875C234.073 25.25 233.609 23.9271 232.734 22.9062C231.859 21.8854 230.714 21.375 229.297 21.375ZM249.75 32.7031C249.75 31.776 249.375 31.0312 248.625 30.4688C247.885 29.9062 246.766 29.4688 245.266 29.1562C243.766 28.8333 242.599 28.4688 241.766 28.0625C240.943 27.6458 240.328 27.1406 239.922 26.5469C239.526 25.9531 239.328 25.2344 239.328 24.3906C239.328 23.0573 239.885 21.9583 241 21.0938C242.115 20.2188 243.542 19.7812 245.281 19.7812C247.167 19.7812 248.677 20.25 249.812 21.1875C250.958 22.1146 251.531 23.3281 251.531 24.8281H249.656C249.656 23.8385 249.24 23.0156 248.406 22.3594C247.583 21.7031 246.542 21.375 245.281 21.375C244.052 21.375 243.062 21.651 242.312 22.2031C241.573 22.7448 241.203 23.4531 241.203 24.3281C241.203 25.1719 241.51 25.8281 242.125 26.2969C242.75 26.7552 243.88 27.1771 245.516 27.5625C247.161 27.9479 248.391 28.3594 249.203 28.7969C250.026 29.2344 250.635 29.7604 251.031 30.375C251.427 30.9896 251.625 31.7344 251.625 32.6094C251.625 34.0365 251.047 35.1771 249.891 36.0312C248.745 36.8854 247.245 37.3125 245.391 37.3125C243.422 37.3125 241.823 36.8385 240.594 35.8906C239.375 34.9323 238.766 33.724 238.766 32.2656H240.641C240.714 33.3594 241.172 34.2135 242.016 34.8281C242.87 35.4323 243.995 35.7344 245.391 35.7344C246.693 35.7344 247.745 35.4479 248.547 34.875C249.349 34.3021 249.75 33.5781 249.75 32.7031ZM257.938 37H256.062V20.0938H257.938V37ZM255.734 15.2031C255.734 14.849 255.849 14.5521 256.078 14.3125C256.307 14.0625 256.62 13.9375 257.016 13.9375C257.411 13.9375 257.724 14.0625 257.953 14.3125C258.193 14.5521 258.312 14.849 258.312 15.2031C258.312 15.5573 258.193 15.8542 257.953 16.0938C257.724 16.3333 257.411 16.4531 257.016 16.4531C256.62 16.4531 256.307 16.3333 256.078 16.0938C255.849 15.8542 255.734 15.5573 255.734 15.2031ZM262.281 28.3906C262.281 25.7448 262.865 23.651 264.031 22.1094C265.208 20.5573 266.802 19.7812 268.812 19.7812C271.115 19.7812 272.865 20.6979 274.062 22.5312L274.156 20.0938H275.906V36.6562C275.906 38.8333 275.297 40.5573 274.078 41.8281C272.859 43.099 271.208 43.7344 269.125 43.7344C267.948 43.7344 266.823 43.4688 265.75 42.9375C264.688 42.4167 263.849 41.7188 263.234 40.8438L264.281 39.7188C265.604 41.3438 267.177 42.1562 269 42.1562C270.562 42.1562 271.781 41.6927 272.656 40.7656C273.531 39.849 273.984 38.5729 274.016 36.9375V34.8125C272.818 36.4792 271.073 37.3125 268.781 37.3125C266.823 37.3125 265.25 36.5312 264.062 34.9688C262.875 33.4062 262.281 31.2969 262.281 28.6406V28.3906ZM264.172 28.7188C264.172 30.875 264.604 32.5781 265.469 33.8281C266.333 35.0677 267.552 35.6875 269.125 35.6875C271.427 35.6875 273.057 34.6562 274.016 32.5938V24.7344C273.578 23.651 272.948 22.8281 272.125 22.2656C271.302 21.6927 270.312 21.4062 269.156 21.4062C267.583 21.4062 266.359 22.026 265.484 23.2656C264.609 24.4948 264.172 26.3125 264.172 28.7188ZM282.562 20.0938L282.625 22.9844C283.26 21.9427 284.052 21.151 285 20.6094C285.948 20.0573 286.995 19.7812 288.141 19.7812C289.953 19.7812 291.302 20.2917 292.188 21.3125C293.073 22.3333 293.521 23.8646 293.531 25.9062V37H291.672V25.8906C291.661 24.3802 291.339 23.2552 290.703 22.5156C290.078 21.776 289.073 21.4062 287.688 21.4062C286.531 21.4062 285.505 21.7708 284.609 22.5C283.724 23.2188 283.068 24.1927 282.641 25.4219V37H280.781V20.0938H282.562ZM304.922 37.3125C303.484 37.3125 302.182 36.9583 301.016 36.25C299.859 35.5417 298.958 34.5573 298.312 33.2969C297.667 32.026 297.344 30.6042 297.344 29.0312V28.3594C297.344 26.7344 297.656 25.2708 298.281 23.9688C298.917 22.6667 299.797 21.6458 300.922 20.9062C302.047 20.1562 303.266 19.7812 304.578 19.7812C306.63 19.7812 308.255 20.4844 309.453 21.8906C310.661 23.2865 311.266 25.1979 311.266 27.625V28.6719H299.203V29.0312C299.203 30.9479 299.75 32.5469 300.844 33.8281C301.948 35.099 303.333 35.7344 305 35.7344C306 35.7344 306.88 35.5521 307.641 35.1875C308.411 34.8229 309.109 34.2396 309.734 33.4375L310.906 34.3281C309.531 36.3177 307.536 37.3125 304.922 37.3125ZM304.578 21.375C303.172 21.375 301.984 21.8906 301.016 22.9219C300.057 23.9531 299.474 25.3385 299.266 27.0781H309.406V26.875C309.354 25.25 308.891 23.9271 308.016 22.9062C307.141 21.8854 305.995 21.375 304.578 21.375ZM322.719 21.6875C322.323 21.6146 321.901 21.5781 321.453 21.5781C320.286 21.5781 319.297 21.9062 318.484 22.5625C317.682 23.2083 317.109 24.151 316.766 25.3906V37H314.906V20.0938H316.734L316.766 22.7812C317.755 20.7812 319.344 19.7812 321.531 19.7812C322.052 19.7812 322.464 19.849 322.766 19.9844L322.719 21.6875ZM337.344 24.5938C336.438 23.5 335.776 22.526 335.359 21.6719C334.953 20.8073 334.75 19.9531 334.75 19.1094C334.75 17.5156 335.224 16.2552 336.172 15.3281C337.12 14.401 338.391 13.9375 339.984 13.9375C341.432 13.9375 342.604 14.3594 343.5 15.2031C344.396 16.0365 344.844 17.099 344.844 18.3906C344.844 19.8906 343.979 21.3646 342.25 22.8125L339.75 24.75L346 32.0312C346.948 30.5 347.422 28.7656 347.422 26.8281H349.156C349.156 29.4115 348.49 31.5938 347.156 33.375L350.266 37H348.016L346.047 34.7188C345.224 35.5312 344.271 36.1667 343.188 36.625C342.115 37.0833 340.979 37.3125 339.781 37.3125C337.615 37.3125 335.896 36.7604 334.625 35.6562C333.354 34.5417 332.719 33.0573 332.719 31.2031C332.719 30.099 333.042 29.0573 333.688 28.0781C334.344 27.0885 335.49 25.9792 337.125 24.75L337.344 24.5938ZM339.781 35.7344C340.729 35.7344 341.646 35.5365 342.531 35.1406C343.427 34.7344 344.229 34.1615 344.938 33.4219L338.578 26.0469L338.359 25.8125L337.641 26.3594C335.599 28.026 334.578 29.6406 334.578 31.2031C334.578 32.5677 335.047 33.6667 335.984 34.5C336.922 35.3229 338.188 35.7344 339.781 35.7344ZM336.625 19.0469C336.625 20.3177 337.328 21.8177 338.734 23.5469L340.781 21.9844C341.448 21.5052 341.995 20.9792 342.422 20.4062C342.849 19.8333 343.062 19.1615 343.062 18.3906C343.062 17.5781 342.781 16.901 342.219 16.3594C341.656 15.8073 340.906 15.5312 339.969 15.5312C338.948 15.5312 338.135 15.8594 337.531 16.5156C336.927 17.1719 336.625 18.0156 336.625 19.0469ZM124.406 64.375H113.797V75H111.875V52.25H125.969V53.8906H113.797V62.7344H124.406V64.375ZM136.844 59.6875C136.448 59.6146 136.026 59.5781 135.578 59.5781C134.411 59.5781 133.422 59.9062 132.609 60.5625C131.807 61.2083 131.234 62.151 130.891 63.3906V75H129.031V58.0938H130.859L130.891 60.7812C131.88 58.7812 133.469 57.7812 135.656 57.7812C136.177 57.7812 136.589 57.849 136.891 57.9844L136.844 59.6875ZM138.469 66.2969C138.469 64.6719 138.781 63.2083 139.406 61.9062C140.042 60.6042 140.932 59.5938 142.078 58.875C143.234 58.1458 144.542 57.7812 146 57.7812C148.25 57.7812 150.073 58.5729 151.469 60.1562C152.865 61.7292 153.562 63.8177 153.562 66.4219V66.8125C153.562 68.4479 153.245 69.9219 152.609 71.2344C151.984 72.5365 151.099 73.5417 149.953 74.25C148.807 74.9583 147.5 75.3125 146.031 75.3125C143.792 75.3125 141.969 74.526 140.562 72.9531C139.167 71.3698 138.469 69.276 138.469 66.6719V66.2969ZM140.344 66.8125C140.344 68.8333 140.865 70.4948 141.906 71.7969C142.958 73.0885 144.333 73.7344 146.031 73.7344C147.719 73.7344 149.083 73.0885 150.125 71.7969C151.177 70.4948 151.703 68.7812 151.703 66.6562V66.2969C151.703 65.0052 151.464 63.8229 150.984 62.75C150.505 61.6771 149.833 60.849 148.969 60.2656C148.104 59.6719 147.115 59.375 146 59.375C144.333 59.375 142.974 60.0312 141.922 61.3438C140.87 62.6458 140.344 64.3542 140.344 66.4688V66.8125ZM159.219 58.0938L159.281 60.9844C159.917 59.9427 160.708 59.151 161.656 58.6094C162.604 58.0573 163.651 57.7812 164.797 57.7812C166.609 57.7812 167.958 58.2917 168.844 59.3125C169.729 60.3333 170.177 61.8646 170.188 63.9062V75H168.328V63.8906C168.318 62.3802 167.995 61.2552 167.359 60.5156C166.734 59.776 165.729 59.4062 164.344 59.4062C163.188 59.4062 162.161 59.7708 161.266 60.5C160.38 61.2188 159.724 62.1927 159.297 63.4219V75H157.438V58.0938H159.219ZM177.938 53.7656V58.0938H181.438V59.625H177.938V70.8906C177.938 71.8281 178.104 72.526 178.438 72.9844C178.781 73.4427 179.349 73.6719 180.141 73.6719C180.453 73.6719 180.958 73.6198 181.656 73.5156L181.734 75.0469C181.245 75.224 180.578 75.3125 179.734 75.3125C178.453 75.3125 177.521 74.9427 176.938 74.2031C176.354 73.4531 176.062 72.3542 176.062 70.9062V59.625H172.953V58.0938H176.062V53.7656H177.938ZM206.094 64.0938H195.453V73.375H207.688V75H193.531V52.25H207.609V53.8906H195.453V62.4688H206.094V64.0938ZM213.094 58.0938L213.156 60.9844C213.792 59.9427 214.583 59.151 215.531 58.6094C216.479 58.0573 217.526 57.7812 218.672 57.7812C220.484 57.7812 221.833 58.2917 222.719 59.3125C223.604 60.3333 224.052 61.8646 224.062 63.9062V75H222.203V63.8906C222.193 62.3802 221.87 61.2552 221.234 60.5156C220.609 59.776 219.604 59.4062 218.219 59.4062C217.062 59.4062 216.036 59.7708 215.141 60.5C214.255 61.2188 213.599 62.1927 213.172 63.4219V75H211.312V58.0938H213.094ZM228.156 66.3906C228.156 63.7656 228.74 61.6771 229.906 60.125C231.083 58.5625 232.677 57.7812 234.688 57.7812C236.969 57.7812 238.708 58.6823 239.906 60.4844V51H241.766V75H240.016L239.938 72.75C238.74 74.4583 236.979 75.3125 234.656 75.3125C232.708 75.3125 231.135 74.5312 229.938 72.9688C228.75 71.3958 228.156 69.276 228.156 66.6094V66.3906ZM230.047 66.7188C230.047 68.875 230.479 70.5781 231.344 71.8281C232.208 73.0677 233.427 73.6875 235 73.6875C237.302 73.6875 238.938 72.6719 239.906 70.6406V62.7031C238.938 60.5052 237.312 59.4062 235.031 59.4062C233.458 59.4062 232.234 60.026 231.359 61.2656C230.484 62.4948 230.047 64.3125 230.047 66.7188ZM254.906 75V52.25H261.266C263.13 52.25 264.802 52.6771 266.281 53.5312C267.76 54.375 268.911 55.5885 269.734 57.1719C270.568 58.7552 270.984 60.5573 270.984 62.5781V64.6719C270.984 66.7031 270.573 68.5052 269.75 70.0781C268.927 71.651 267.766 72.8646 266.266 73.7188C264.776 74.5729 263.062 75 261.125 75H254.906ZM256.828 53.8906V73.375H261.141C263.536 73.375 265.458 72.5833 266.906 71C268.354 69.4062 269.078 67.2552 269.078 64.5469V62.5469C269.078 59.9323 268.365 57.8385 266.938 56.2656C265.51 54.6927 263.63 53.901 261.297 53.8906H256.828ZM281.984 75.3125C280.547 75.3125 279.245 74.9583 278.078 74.25C276.922 73.5417 276.021 72.5573 275.375 71.2969C274.729 70.026 274.406 68.6042 274.406 67.0312V66.3594C274.406 64.7344 274.719 63.2708 275.344 61.9688C275.979 60.6667 276.859 59.6458 277.984 58.9062C279.109 58.1562 280.328 57.7812 281.641 57.7812C283.693 57.7812 285.318 58.4844 286.516 59.8906C287.724 61.2865 288.328 63.1979 288.328 65.625V66.6719H276.266V67.0312C276.266 68.9479 276.812 70.5469 277.906 71.8281C279.01 73.099 280.396 73.7344 282.062 73.7344C283.062 73.7344 283.943 73.5521 284.703 73.1875C285.474 72.8229 286.172 72.2396 286.797 71.4375L287.969 72.3281C286.594 74.3177 284.599 75.3125 281.984 75.3125ZM281.641 59.375C280.234 59.375 279.047 59.8906 278.078 60.9219C277.12 61.9531 276.536 63.3385 276.328 65.0781H286.469V64.875C286.417 63.25 285.953 61.9271 285.078 60.9062C284.203 59.8854 283.057 59.375 281.641 59.375ZM297.016 72.4219L302.156 58.0938H304.078L297.766 75H296.25L289.906 58.0938H291.828L297.016 72.4219ZM313.484 75.3125C312.047 75.3125 310.745 74.9583 309.578 74.25C308.422 73.5417 307.521 72.5573 306.875 71.2969C306.229 70.026 305.906 68.6042 305.906 67.0312V66.3594C305.906 64.7344 306.219 63.2708 306.844 61.9688C307.479 60.6667 308.359 59.6458 309.484 58.9062C310.609 58.1562 311.828 57.7812 313.141 57.7812C315.193 57.7812 316.818 58.4844 318.016 59.8906C319.224 61.2865 319.828 63.1979 319.828 65.625V66.6719H307.766V67.0312C307.766 68.9479 308.312 70.5469 309.406 71.8281C310.51 73.099 311.896 73.7344 313.562 73.7344C314.562 73.7344 315.443 73.5521 316.203 73.1875C316.974 72.8229 317.672 72.2396 318.297 71.4375L319.469 72.3281C318.094 74.3177 316.099 75.3125 313.484 75.3125ZM313.141 59.375C311.734 59.375 310.547 59.8906 309.578 60.9219C308.62 61.9531 308.036 63.3385 307.828 65.0781H317.969V64.875C317.917 63.25 317.453 61.9271 316.578 60.9062C315.703 59.8854 314.557 59.375 313.141 59.375ZM325.562 75H323.688V51H325.562V75ZM329.625 66.2969C329.625 64.6719 329.938 63.2083 330.562 61.9062C331.198 60.6042 332.089 59.5938 333.234 58.875C334.391 58.1458 335.698 57.7812 337.156 57.7812C339.406 57.7812 341.229 58.5729 342.625 60.1562C344.021 61.7292 344.719 63.8177 344.719 66.4219V66.8125C344.719 68.4479 344.401 69.9219 343.766 71.2344C343.141 72.5365 342.255 73.5417 341.109 74.25C339.964 74.9583 338.656 75.3125 337.188 75.3125C334.948 75.3125 333.125 74.526 331.719 72.9531C330.323 71.3698 329.625 69.276 329.625 66.6719V66.2969ZM331.5 66.8125C331.5 68.8333 332.021 70.4948 333.062 71.7969C334.115 73.0885 335.49 73.7344 337.188 73.7344C338.875 73.7344 340.24 73.0885 341.281 71.7969C342.333 70.4948 342.859 68.7812 342.859 66.6562V66.2969C342.859 65.0052 342.62 63.8229 342.141 62.75C341.661 61.6771 340.99 60.849 340.125 60.2656C339.26 59.6719 338.271 59.375 337.156 59.375C335.49 59.375 334.13 60.0312 333.078 61.3438C332.026 62.6458 331.5 64.3542 331.5 66.4688V66.8125ZM362.188 66.7188C362.188 69.3542 361.604 71.4479 360.438 73C359.271 74.5417 357.708 75.3125 355.75 75.3125C353.438 75.3125 351.667 74.5 350.438 72.875V81.5H348.578V58.0938H350.312L350.406 60.4844C351.625 58.6823 353.391 57.7812 355.703 57.7812C357.724 57.7812 359.307 58.5469 360.453 60.0781C361.609 61.6094 362.188 63.7344 362.188 66.4531V66.7188ZM360.312 66.3906C360.312 64.2344 359.87 62.5312 358.984 61.2812C358.099 60.0312 356.865 59.4062 355.281 59.4062C354.135 59.4062 353.151 59.6823 352.328 60.2344C351.505 60.7865 350.875 61.5885 350.438 62.6406V70.75C350.885 71.7188 351.526 72.4583 352.359 72.9688C353.193 73.4792 354.177 73.7344 355.312 73.7344C356.885 73.7344 358.109 73.1094 358.984 71.8594C359.87 70.599 360.312 68.776 360.312 66.3906ZM372.891 75.3125C371.453 75.3125 370.151 74.9583 368.984 74.25C367.828 73.5417 366.927 72.5573 366.281 71.2969C365.635 70.026 365.312 68.6042 365.312 67.0312V66.3594C365.312 64.7344 365.625 63.2708 366.25 61.9688C366.885 60.6667 367.766 59.6458 368.891 58.9062C370.016 58.1562 371.234 57.7812 372.547 57.7812C374.599 57.7812 376.224 58.4844 377.422 59.8906C378.63 61.2865 379.234 63.1979 379.234 65.625V66.6719H367.172V67.0312C367.172 68.9479 367.719 70.5469 368.812 71.8281C369.917 73.099 371.302 73.7344 372.969 73.7344C373.969 73.7344 374.849 73.5521 375.609 73.1875C376.38 72.8229 377.078 72.2396 377.703 71.4375L378.875 72.3281C377.5 74.3177 375.505 75.3125 372.891 75.3125ZM372.547 59.375C371.141 59.375 369.953 59.8906 368.984 60.9219C368.026 61.9531 367.443 63.3385 367.234 65.0781H377.375V64.875C377.323 63.25 376.859 61.9271 375.984 60.9062C375.109 59.8854 373.964 59.375 372.547 59.375ZM390.688 59.6875C390.292 59.6146 389.87 59.5781 389.422 59.5781C388.255 59.5781 387.266 59.9062 386.453 60.5625C385.651 61.2083 385.078 62.151 384.734 63.3906V75H382.875V58.0938H384.703L384.734 60.7812C385.724 58.7812 387.312 57.7812 389.5 57.7812C390.021 57.7812 390.432 57.849 390.734 57.9844L390.688 59.6875Z" fill="#9A9FAB"/>
</svg>
