<svg width="392" height="386" viewBox="0 0 392 386" fill="none" xmlns="http://www.w3.org/2000/svg">
<g clip-path="url(#clip0_504_108)">
<path d="M330.212 0H135.913V193.989H330.212V0Z" fill="#F4F4F4"/>
<path d="M332.439 0H330.212V193.989H332.439V0Z" fill="#F4F4F4"/>
<path opacity="0.05" d="M332.439 0H330.212V193.989H332.439V0Z" fill="#292A2E"/>
<path opacity="0.05" d="M283.142 133.674V82.9202H241.501V112.407H176.998V164.617H149.584V193.989H176.998H182.28H320.866V133.674H283.142Z" fill="#292A2E"/>
<path opacity="0.34" d="M277.17 88.4308H246.846V93.9415H277.17V88.4308Z" fill="#FFFFFA"/>
<path opacity="0.34" d="M277.17 99.8504H246.846V105.361H277.17V99.8504Z" fill="#FFFFFA"/>
<path opacity="0.34" d="M277.17 111.27H246.846V116.781H277.17V111.27Z" fill="#FFFFFA"/>
<path opacity="0.34" d="M315.488 139.023H309.899V144.534H315.488V139.023Z" fill="#FFFFFA"/>
<path opacity="0.34" d="M315.488 150.443H309.899V155.953H315.488V150.443Z" fill="#FFFFFA"/>
<path opacity="0.34" d="M315.488 161.862H309.899V167.373H315.488V161.862Z" fill="#FFFFFA"/>
<path opacity="0.34" d="M305.148 139.023H299.559V144.534H305.148V139.023Z" fill="#FFFFFA"/>
<path opacity="0.34" d="M305.148 150.443H299.559V155.953H305.148V150.443Z" fill="#FFFFFA"/>
<path opacity="0.34" d="M305.148 161.862H299.559V167.373H305.148V161.862Z" fill="#FFFFFA"/>
<path opacity="0.34" d="M295.088 139.023H289.499V144.534H295.088V139.023Z" fill="#FFFFFA"/>
<path opacity="0.34" d="M295.088 150.443H289.499V155.953H295.088V150.443Z" fill="#FFFFFA"/>
<path opacity="0.34" d="M295.088 161.862H289.499V167.373H295.088V161.862Z" fill="#FFFFFA"/>
<path d="M330.212 95.9061H291.116V0H287.882V95.9061H182.28V0H179.046V95.9061H135.913V99.1342H179.046V193.989H182.28V99.1342H287.882V193.989H291.116V99.1342H330.212V95.9061Z" fill="white"/>
<path d="M337.952 193.755H128.173V200.206H337.952V193.755Z" fill="#F4F4F4"/>
<path opacity="0.1" d="M337.952 193.755H128.173V200.206H337.952V193.755Z" fill="#292A2E"/>
<path opacity="0.1" d="M340.981 193.755H337.952V200.206H340.981V193.755Z" fill="#292A2E"/>
<path opacity="0.1" d="M340.981 193.755H337.952V200.206H340.981V193.755Z" fill="#292A2E"/>
<path d="M332.439 3.46283H135.913V8.25954H332.439V3.46283Z" fill="white"/>
<path d="M332.439 12.422H135.913V17.2187H332.439V12.422Z" fill="white"/>
<path d="M332.439 21.3807H135.913V26.1774H332.439V21.3807Z" fill="white"/>
<path d="M332.439 30.3399H135.913V35.1366H332.439V30.3399Z" fill="white"/>
<path d="M332.439 39.2991H135.913V44.0958H332.439V39.2991Z" fill="white"/>
<path d="M311.565 0H308.62V49.5053H311.565V0Z" fill="white"/>
<path d="M310.342 56.615C312.577 56.615 314.389 54.8063 314.389 52.5753C314.389 50.3442 312.577 48.5355 310.342 48.5355C308.108 48.5355 306.296 50.3442 306.296 52.5753C306.296 54.8063 308.108 56.615 310.342 56.615Z" fill="white"/>
<path d="M386.326 386H0.314042C0.272801 386 0.231964 385.992 0.193863 385.976C0.155762 385.96 0.121142 385.937 0.0919807 385.908C0.0628192 385.879 0.0396871 385.845 0.023905 385.806C0.00812293 385.768 0 385.728 0 385.686C0 385.645 0.00812293 385.605 0.023905 385.567C0.0396871 385.528 0.0628192 385.494 0.0919807 385.465C0.121142 385.436 0.155762 385.413 0.193863 385.397C0.231964 385.381 0.272801 385.373 0.314042 385.373H386.325C386.408 385.373 386.488 385.406 386.547 385.465C386.606 385.524 386.639 385.603 386.639 385.686C386.639 385.77 386.606 385.849 386.547 385.908C386.488 385.967 386.408 386 386.325 386H386.326Z" fill="#292A2E"/>
<g opacity="0.65">
<path opacity="0.65" d="M386.326 386H0.314042C0.272801 386 0.231964 385.992 0.193863 385.976C0.155762 385.96 0.121142 385.937 0.0919807 385.908C0.0628192 385.879 0.0396871 385.845 0.023905 385.806C0.00812293 385.768 0 385.728 0 385.686C0 385.645 0.00812293 385.605 0.023905 385.567C0.0396871 385.528 0.0628192 385.494 0.0919807 385.465C0.121142 385.436 0.155762 385.413 0.193863 385.397C0.231964 385.381 0.272801 385.373 0.314042 385.373H386.325C386.408 385.373 386.488 385.406 386.547 385.465C386.606 385.524 386.639 385.603 386.639 385.686C386.639 385.77 386.606 385.849 386.547 385.908C386.488 385.967 386.408 386 386.325 386H386.326Z" fill="#292A2E"/>
</g>
<path d="M27.1884 385.449L26.3073 385.279L40.0784 248.651L40.9595 248.82L27.1884 385.449Z" fill="#494949"/>
<path d="M78.466 385.449L77.5848 385.279L91.356 248.651L92.2366 248.82L78.466 385.449Z" fill="#494949"/>
<path d="M191.812 385.449L192.693 385.279L178.922 248.651L178.041 248.82L191.812 385.449Z" fill="#494949"/>
<path d="M140.534 385.449L141.415 385.279L127.644 248.651L126.763 248.82L140.534 385.449Z" fill="#494949"/>
<path d="M122.271 188.521L121.382 188.64L129.427 248.796L130.316 248.678L122.271 188.521Z" fill="#494949"/>
<path d="M29.9321 188.52L29.0427 188.639L37.0875 248.796L37.9769 248.677L29.9321 188.52Z" fill="#494949"/>
<path d="M130.239 244.331H39.9209C37.4841 244.331 35.5087 246.303 35.5087 248.736V248.736C35.5087 251.169 37.4841 253.141 39.9209 253.141H130.239C132.676 253.141 134.652 251.169 134.652 248.736V248.736C134.652 246.303 132.676 244.331 130.239 244.331Z" fill="#292A2E"/>
<path opacity="0.8" d="M130.239 244.331H39.9209C37.4841 244.331 35.5087 246.303 35.5087 248.736V248.736C35.5087 251.169 37.4841 253.141 39.9209 253.141H130.239C132.676 253.141 134.652 251.169 134.652 248.736V248.736C134.652 246.303 132.676 244.331 130.239 244.331Z" fill="white"/>
<path d="M130.237 253.589H39.921C38.6398 253.577 37.4153 253.06 36.5137 252.151C35.6121 251.243 35.1063 250.015 35.1063 248.736C35.1063 247.457 35.6121 246.229 36.5137 245.321C37.4153 244.412 38.6398 243.895 39.921 243.883H130.237C131.519 243.895 132.743 244.412 133.645 245.321C134.546 246.229 135.052 247.457 135.052 248.736C135.052 250.015 134.546 251.243 133.645 252.151C132.743 253.06 131.519 253.577 130.237 253.589V253.589ZM39.921 244.778C38.877 244.79 37.8795 245.211 37.1452 245.952C36.4109 246.693 35.999 247.694 35.999 248.736C35.999 249.778 36.4109 250.779 37.1452 251.52C37.8795 252.261 38.877 252.682 39.921 252.694H130.237C131.281 252.682 132.279 252.261 133.013 251.52C133.748 250.779 134.159 249.778 134.159 248.736C134.159 247.694 133.748 246.693 133.013 245.952C132.279 245.211 131.281 244.79 130.237 244.778H39.921Z" fill="#292A2E"/>
<path d="M179.811 244.331H89.4924C87.0556 244.331 85.0801 246.303 85.0801 248.736V248.736C85.0801 251.169 87.0556 253.141 89.4924 253.141H179.811C182.248 253.141 184.223 251.169 184.223 248.736V248.736C184.223 246.303 182.248 244.331 179.811 244.331Z" fill="white"/>
<path d="M179.811 253.589H89.4928C88.8505 253.596 88.2134 253.475 87.6182 253.233C87.023 252.992 86.4816 252.636 86.0252 252.184C85.5688 251.733 85.2065 251.196 84.9593 250.604C84.7121 250.012 84.5848 249.377 84.5848 248.736C84.5848 248.095 84.7121 247.46 84.9593 246.868C85.2065 246.276 85.5688 245.739 86.0252 245.288C86.4816 244.836 87.023 244.48 87.6182 244.239C88.2134 243.997 88.8505 243.876 89.4928 243.883H179.811C180.453 243.876 181.091 243.997 181.686 244.239C182.281 244.48 182.822 244.836 183.279 245.288C183.735 245.739 184.097 246.276 184.345 246.868C184.592 247.46 184.719 248.095 184.719 248.736C184.719 249.377 184.592 250.012 184.345 250.604C184.097 251.196 183.735 251.733 183.279 252.184C182.822 252.636 182.281 252.992 181.686 253.233C181.091 253.475 180.453 253.596 179.811 253.589V253.589ZM89.4928 244.778C88.9687 244.773 88.4488 244.871 87.9629 245.068C87.4771 245.264 87.0352 245.555 86.6626 245.923C86.29 246.291 85.9942 246.729 85.7924 247.212C85.5905 247.695 85.4866 248.213 85.4866 248.736C85.4866 249.259 85.5905 249.777 85.7924 250.26C85.9942 250.743 86.29 251.181 86.6626 251.549C87.0352 251.917 87.4771 252.208 87.9629 252.404C88.4488 252.601 88.9687 252.699 89.4928 252.694H179.811C180.335 252.699 180.855 252.601 181.341 252.404C181.827 252.208 182.269 251.917 182.641 251.549C183.014 251.181 183.31 250.743 183.512 250.26C183.714 249.777 183.817 249.259 183.817 248.736C183.817 248.213 183.714 247.695 183.512 247.212C183.31 246.729 183.014 246.291 182.641 245.923C182.269 245.555 181.827 245.264 181.341 245.068C180.855 244.871 180.335 244.773 179.811 244.778H89.4928Z" fill="#292A2E"/>
<path d="M117.324 188.579H29.7299C28.2978 188.579 26.9147 188.059 25.8387 187.115C24.7627 186.172 24.0673 184.87 23.8824 183.452L18.0884 139.028C17.98 138.197 18.0503 137.353 18.2946 136.552C18.5389 135.751 18.9516 135.011 19.5051 134.382C20.0586 133.753 20.7401 133.249 21.5043 132.904C22.2684 132.558 23.0975 132.38 23.9363 132.38H111.53C112.962 132.38 114.345 132.9 115.421 133.844C116.497 134.787 117.192 136.089 117.377 137.507L123.171 181.931C123.279 182.762 123.209 183.605 122.965 184.406C122.72 185.207 122.308 185.947 121.754 186.576C121.201 187.206 120.519 187.71 119.755 188.055C118.991 188.4 118.162 188.579 117.324 188.579Z" fill="#292A2E"/>
<path opacity="0.8" d="M117.324 188.579H29.7299C28.2978 188.579 26.9147 188.059 25.8387 187.115C24.7627 186.172 24.0673 184.87 23.8824 183.452L18.0884 139.028C17.98 138.197 18.0503 137.353 18.2946 136.552C18.5389 135.751 18.9516 135.011 19.5051 134.382C20.0586 133.753 20.7401 133.249 21.5043 132.904C22.2684 132.558 23.0975 132.38 23.9363 132.38H111.53C112.962 132.38 114.345 132.9 115.421 133.844C116.497 134.787 117.192 136.089 117.377 137.507L123.171 181.931C123.279 182.762 123.209 183.605 122.965 184.406C122.72 185.207 122.308 185.947 121.754 186.576C121.201 187.206 120.519 187.71 119.755 188.055C118.991 188.4 118.162 188.579 117.324 188.579Z" fill="white"/>
<path d="M117.324 189.027H29.7299C28.1899 189.024 26.7035 188.463 25.5464 187.448C24.3892 186.434 23.6399 185.035 23.4374 183.511L17.6433 139.086C17.5267 138.193 17.6024 137.285 17.8653 136.423C18.1282 135.561 18.5722 134.765 19.1678 134.088C19.7633 133.41 20.4967 132.868 21.3189 132.496C22.1411 132.125 23.0333 131.933 23.9358 131.933H111.53C113.07 131.936 114.556 132.497 115.714 133.512C116.871 134.527 117.62 135.926 117.823 137.451L123.617 181.874C123.733 182.768 123.657 183.676 123.394 184.538C123.131 185.4 122.687 186.196 122.092 186.873C121.496 187.55 120.763 188.092 119.941 188.464C119.118 188.836 118.226 189.028 117.324 189.028V189.027ZM23.9358 132.828C23.1609 132.828 22.3949 132.993 21.689 133.312C20.9831 133.631 20.3534 134.097 19.8421 134.678C19.3308 135.259 18.9496 135.943 18.7239 136.683C18.4982 137.423 18.4333 138.203 18.5334 138.97L24.327 183.394C24.5009 184.703 25.1442 185.904 26.1378 186.775C27.1313 187.646 28.4076 188.128 29.7299 188.131H117.324C118.099 188.131 118.865 187.966 119.571 187.647C120.277 187.328 120.907 186.862 121.418 186.28C121.929 185.699 122.311 185.015 122.536 184.275C122.762 183.535 122.827 182.755 122.727 181.988L116.932 137.564C116.759 136.255 116.115 135.054 115.122 134.183C114.128 133.312 112.852 132.831 111.53 132.828H23.9358Z" fill="#292A2E"/>
<path d="M122.277 188.579H34.6832C33.2511 188.579 31.8679 188.059 30.7918 187.115C29.7157 186.172 29.0203 184.87 28.8353 183.452L23.0412 139.028C22.933 138.197 23.0035 137.353 23.2478 136.552C23.4922 135.751 23.9049 135.012 24.4583 134.382C25.0118 133.753 25.6933 133.249 26.4573 132.904C27.2214 132.559 28.0504 132.38 28.8891 132.38H116.483C117.915 132.38 119.298 132.9 120.374 133.844C121.45 134.787 122.146 136.089 122.331 137.507L128.125 181.931C128.233 182.762 128.163 183.605 127.918 184.406C127.674 185.207 127.261 185.947 126.708 186.576C126.154 187.206 125.473 187.71 124.709 188.055C123.945 188.4 123.116 188.579 122.277 188.579V188.579Z" fill="white"/>
<path d="M122.277 189.027H34.6832C33.1433 189.024 31.6568 188.463 30.4996 187.448C29.3425 186.434 28.5931 185.035 28.3907 183.511L22.5966 139.086C22.4801 138.193 22.5557 137.285 22.8186 136.423C23.0815 135.561 23.5256 134.765 24.1211 134.088C24.7167 133.41 25.45 132.868 26.2722 132.496C27.0945 132.125 27.9866 131.933 28.8891 131.933H116.483C118.023 131.936 119.51 132.497 120.667 133.512C121.824 134.527 122.573 135.926 122.775 137.451L128.569 181.874C128.686 182.768 128.61 183.676 128.348 184.538C128.085 185.4 127.641 186.196 127.045 186.873C126.449 187.55 125.716 188.093 124.894 188.464C124.072 188.836 123.18 189.028 122.277 189.028V189.027ZM28.8891 132.828C28.1142 132.828 27.3482 132.993 26.6423 133.312C25.9363 133.631 25.3067 134.097 24.7953 134.678C24.284 135.259 23.9027 135.943 23.677 136.683C23.4513 137.423 23.3862 138.203 23.4863 138.97L29.2803 183.394C29.454 184.703 30.0973 185.904 31.0909 186.775C32.0845 187.647 33.3609 188.128 34.6832 188.131H122.277C123.052 188.131 123.818 187.966 124.524 187.647C125.23 187.328 125.86 186.862 126.372 186.281C126.883 185.699 127.264 185.015 127.49 184.275C127.716 183.535 127.781 182.755 127.68 181.988L121.886 137.564C121.713 136.255 121.069 135.054 120.076 134.182C119.082 133.311 117.806 132.829 116.483 132.826L28.8891 132.828Z" fill="#292A2E"/>
<path d="M245.814 362.598C245.814 362.598 248.22 375.047 259.894 375.74C271.568 376.434 269.037 385.72 269.037 385.72H224.423V363.466L245.814 362.598Z" fill="#FF8C00"/>
<path d="M160.939 354.738C160.939 354.738 157.593 366.968 167.762 372.736C177.931 378.504 171.554 385.72 171.554 385.72L131.522 366.057L141.361 346.088L160.939 354.738Z" fill="#FF8C00"/>
<path d="M125.015 64.6564C125.015 64.6564 130.835 60.27 132.278 50.1731C133.394 42.3552 126.172 47.4198 126.172 47.4198C126.172 47.4198 126.921 41.7832 122.807 42.3422C118.693 42.9012 116.391 48.8235 116.391 48.8235" fill="#0C0C0C"/>
<path d="M101.547 43.002C101.547 43.002 81.1362 45.1869 88.5144 72.8L90.3206 72.9205L93.9868 73.1659" fill="#0C0C0C"/>
<path d="M121.596 101.638C121.507 101.626 120.511 118.121 101.316 116.684C88.0272 115.69 83.2892 101.614 82.9846 101.614C84.4175 101.31 86.1878 100.849 86.8917 100.69C88.4252 100.335 89.814 99.5216 90.8733 98.3589C91.9326 97.1961 92.6122 95.7389 92.8217 94.1811C93.2106 91.843 92.5525 79.8801 92.7539 77.5142L113.152 82.0601C112.867 87.0566 110.872 98.6401 117.862 100.69C119.028 101.029 120.281 101.341 121.596 101.638Z" fill="#FAA896"/>
<path opacity="0.52" d="M113.438 95.9562C113.119 94.9282 112.913 93.8684 112.825 92.7957C112.601 90.3476 112.646 87.8824 112.959 85.4441C108.813 84.8854 104.908 83.1768 101.686 80.5126C101.307 81.9092 99.2241 88.0116 99.8015 89.3392C100.889 91.8479 106.011 95.9562 113.438 95.9562Z" fill="#0C0C0C"/>
<path d="M109.229 92.6914C101.181 91.9707 91.5493 86.8945 91.4107 75.9882L91.2851 66.148C91.1465 55.2417 96.7709 46.3278 107.056 46.1974C117.341 46.0666 125.141 54.8104 125.28 65.7162L125.336 70.0726C125.329 71.5688 125.219 73.0628 125.009 74.5441C124.481 78.4634 123.663 84.422 120.999 88.4532C118.483 92.2582 114.369 93.1518 109.229 92.6914Z" fill="#FAA896"/>
<path d="M112.962 82.7226C114.623 82.7977 116.278 82.4821 117.794 81.8012C117.825 81.7879 117.854 81.7685 117.877 81.7442C117.901 81.7199 117.92 81.6911 117.933 81.6595C117.945 81.628 117.952 81.5942 117.951 81.5602C117.951 81.5262 117.944 81.4925 117.931 81.4613C117.917 81.43 117.898 81.4016 117.873 81.3778C117.849 81.354 117.82 81.3352 117.789 81.3225C117.757 81.3099 117.723 81.3035 117.689 81.3039C117.655 81.3042 117.621 81.3113 117.59 81.3246C114.324 82.7154 111.358 82.5116 109.014 80.7356C108.966 80.6983 108.917 80.6635 108.866 80.6313C108.807 80.604 108.74 80.5998 108.678 80.6194C108.616 80.639 108.564 80.6811 108.532 80.7373C108.499 80.7935 108.489 80.8598 108.503 80.9231C108.517 80.9864 108.555 81.0421 108.608 81.0792C108.627 81.0908 108.657 81.1146 108.698 81.1473C109.93 82.0846 111.415 82.6331 112.962 82.7226Z" fill="#0C0C0C"/>
<path d="M112.884 85.1794C113.184 85.1981 113.486 85.1909 113.784 85.1579C113.853 85.1507 113.916 85.1166 113.959 85.0631C114.002 85.0097 114.022 84.9413 114.015 84.873C114.008 84.8047 113.974 84.7421 113.92 84.6989C113.867 84.6557 113.798 84.6355 113.73 84.6428C111.932 84.8336 111.074 84.0112 111.038 83.9758C110.989 83.9295 110.923 83.904 110.856 83.9049C110.788 83.9058 110.724 83.933 110.676 83.9808C110.628 84.0285 110.601 84.0929 110.6 84.1604C110.599 84.2279 110.624 84.2931 110.67 84.3422C111.29 84.868 112.072 85.1638 112.884 85.1794V85.1794Z" fill="#0C0C0C"/>
<path d="M121.883 72.1697C122.583 72.1697 123.15 71.6034 123.15 70.9048C123.15 70.2062 122.583 69.6399 121.883 69.6399C121.184 69.6399 120.617 70.2062 120.617 70.9048C120.617 71.6034 121.184 72.1697 121.883 72.1697Z" fill="#0C0C0C"/>
<path d="M109.507 71.3944C110.206 71.3944 110.774 70.8281 110.774 70.1295C110.774 69.4309 110.206 68.8646 109.507 68.8646C108.807 68.8646 108.24 69.4309 108.24 70.1295C108.24 70.8281 108.807 71.3944 109.507 71.3944Z" fill="#0C0C0C"/>
<path d="M92.0917 79.3028C88.9661 79.3426 86.3901 76.0361 86.3493 72.9155C86.3085 69.7949 88.8212 68.0422 91.9468 68.0023L93.5839 70.0726L94.7782 79.2687L92.0917 79.3028Z" fill="#FAA896"/>
<path d="M95.1994 74.2883C95.1994 74.2883 96.2551 58.8563 100.942 57.9036C104.063 57.2689 111.633 61.6894 118.644 60.3542C121.712 59.7719 124.624 60.5284 124.92 61.9747C125.037 62.5476 126.949 54.3154 122.145 48.0697C118.321 43.0978 105.805 41.6914 100.111 43.3218C84.3444 47.8377 91.3017 68.6818 91.3017 68.6818L92.0047 74.0017L95.1994 74.2883Z" fill="#0C0C0C"/>
<path d="M114.849 79.0806C114.856 79.081 114.863 79.081 114.87 79.0806C115.877 79.0703 117.565 78.9413 117.558 78.1888C117.552 77.5653 115.775 70.8542 115.572 70.0909C115.549 70.0315 115.506 69.9824 115.449 69.9533C115.392 69.9242 115.327 69.9172 115.265 69.9336C115.204 69.9499 115.151 69.9885 115.116 70.0418C115.082 70.0952 115.068 70.1595 115.078 70.2222C115.867 73.1945 117.043 77.7704 117.048 78.1951C116.95 78.3742 115.91 78.5583 114.867 78.5691C114.801 78.5705 114.738 78.597 114.692 78.6433C114.645 78.6895 114.618 78.7519 114.616 78.8176C114.614 78.8832 114.637 78.9471 114.681 78.9961C114.725 79.045 114.786 79.0753 114.852 79.0806H114.849Z" fill="#0C0C0C"/>
<path d="M118.288 64.0463C119.346 63.7554 120.464 63.7554 121.522 64.0463C122.042 64.1858 122.538 64.4026 122.994 64.6895C123.444 64.9703 123.857 65.3068 124.223 65.691C124.293 65.7588 124.334 65.8513 124.336 65.9487C124.339 66.0461 124.303 66.1406 124.237 66.2121C124.17 66.2835 124.079 66.3262 123.981 66.3309C123.884 66.3357 123.788 66.3021 123.715 66.2375L123.692 66.2178C123.354 65.9048 122.977 65.6356 122.571 65.4165C122.172 65.1986 121.743 65.0423 121.298 64.9529C120.422 64.7689 119.512 64.8196 118.661 65.0998L118.626 65.1123C118.485 65.1619 118.331 65.1537 118.197 65.0897C118.062 65.0256 117.959 64.9109 117.909 64.7708C117.86 64.6307 117.868 64.4766 117.932 64.3425C117.996 64.2084 118.111 64.1052 118.251 64.0557L118.288 64.0463Z" fill="#0C0C0C"/>
<path d="M110.792 64.681C109.987 64.2902 109.092 64.1189 108.199 64.1843C107.746 64.2137 107.299 64.3116 106.876 64.4745C106.445 64.6379 106.036 64.8546 105.659 65.1195L105.635 65.1357C105.554 65.1874 105.456 65.2061 105.362 65.1878C105.267 65.1694 105.184 65.1155 105.128 65.0372C105.072 64.9589 105.049 64.8622 105.063 64.7673C105.077 64.6723 105.127 64.5864 105.203 64.5274C105.617 64.1953 106.071 63.9166 106.555 63.6979C107.045 63.4745 107.565 63.3257 108.099 63.2562C108.634 63.1812 109.176 63.1798 109.711 63.2522C110.261 63.3204 110.797 63.4662 111.305 63.6853C111.442 63.7447 111.55 63.8559 111.604 63.9945C111.659 64.1331 111.656 64.2878 111.597 64.4244C111.537 64.561 111.426 64.6684 111.287 64.723C111.148 64.7776 110.993 64.7749 110.857 64.7155C110.846 64.711 110.836 64.7061 110.826 64.7007L110.792 64.681Z" fill="#0C0C0C"/>
<path d="M116.782 53.4227C119.095 52.9401 120.394 49.7928 119.682 46.3931C118.971 42.9933 116.519 40.6285 114.205 41.1111C111.892 41.5937 110.593 44.741 111.304 48.1407C112.016 51.5405 114.468 53.9053 116.782 53.4227Z" fill="#0C0C0C"/>
<path d="M136.144 351.283L169.903 244.953H108.71C96.4175 244.953 91.2932 234.545 91.2932 222.273C91.2932 210.001 103.378 199.243 115.669 199.243H198.258C205.755 199.243 214.161 203.821 218.276 210.079C222.391 216.336 221.278 226.032 218.297 232.9L164.237 363.99" fill="#262626"/>
<path opacity="0.8" d="M136.144 351.283L169.903 244.953H108.71C96.4175 244.953 91.2932 234.545 91.2932 222.273C91.2932 210.001 103.378 199.243 115.669 199.243H198.258C205.755 199.243 214.161 203.821 218.276 210.079C222.391 216.336 221.278 226.032 218.297 232.9L164.237 363.99" fill="#0A0A0A"/>
<path d="M221.858 374.159L165.41 244.953L91.2923 244.948C73.9254 243.588 65.9716 234.086 66.2246 221.817C66.4741 209.703 72.6176 197.738 84.6961 197.738H184.594C193.53 197.921 200.561 207.781 203.877 216.068L250.803 366.249" fill="#262626"/>
<path d="M61.1695 197.886C61.1695 197.886 57.8779 219.317 63.0954 231.232C69.6091 246.107 94.0272 244.948 94.0272 244.948L92.6512 197.738L61.1695 197.886Z" fill="#262626"/>
<path d="M206 197.464L153.645 186.633C151.464 186.182 149.431 185.188 147.736 183.745C146.041 182.301 144.738 180.454 143.948 178.374L123.355 124.198C122.728 122.572 122.429 120.838 122.475 119.096C122.521 117.355 122.912 115.639 123.624 114.049C124.336 112.458 125.355 111.023 126.624 109.827C127.893 108.631 129.386 107.698 131.018 107.079C132.65 106.461 134.387 106.171 136.132 106.225C137.876 106.28 139.592 106.677 141.182 107.396C142.772 108.115 144.204 109.14 145.395 110.412C146.587 111.685 147.515 113.18 148.127 114.812L166.14 162.201L211.378 171.56C211.378 171.56 206.908 197.652 206 197.464Z" fill="#FF8C00"/>
<path d="M145.446 137.958C144.842 145.049 140.556 189.293 139.973 198.028H61.204C60.7513 190.15 58.7191 155.7 57.003 140.292C55.3646 125.591 53.0681 118.901 54.955 114.332C58.283 106.275 68.8761 102.676 76.0497 101.707C80.4296 101.115 87.0178 100.69 87.0178 100.69C87.0178 100.69 87.5759 111.957 100.877 112.584C118.983 113.435 117.774 100.69 117.864 100.69C120.797 100.69 136.764 102.82 140.756 105.418C146.395 109.088 148.062 114.088 148.128 118.683C148.203 123.973 146.132 129.913 145.446 137.958Z" fill="#FF8C00"/>
<path d="M142.351 174.107H142.332C142.302 174.105 142.274 174.097 142.247 174.083C142.221 174.07 142.198 174.051 142.179 174.029C142.16 174.006 142.145 173.98 142.137 173.952C142.128 173.924 142.124 173.895 142.127 173.866L144.172 149.34C144.173 149.311 144.181 149.282 144.194 149.255C144.207 149.229 144.226 149.205 144.248 149.186C144.271 149.167 144.297 149.153 144.326 149.144C144.354 149.135 144.384 149.133 144.413 149.136C144.443 149.138 144.471 149.146 144.498 149.16C144.524 149.173 144.547 149.192 144.566 149.214C144.585 149.237 144.599 149.263 144.608 149.291C144.617 149.319 144.621 149.348 144.618 149.378L142.573 173.903C142.569 173.959 142.543 174.01 142.502 174.048C142.461 174.086 142.407 174.107 142.351 174.107Z" fill="#0C0C0C"/>
<path d="M155.014 193.164L172.297 140.121C172.601 139.189 173.192 138.377 173.987 137.801C174.781 137.225 175.737 136.914 176.719 136.914H247.133C247.867 136.914 248.59 137.088 249.244 137.421C249.898 137.753 250.464 138.236 250.895 138.829C251.327 139.422 251.611 140.108 251.726 140.832C251.841 141.556 251.782 142.297 251.555 142.994L234.272 196.037C233.968 196.969 233.377 197.781 232.582 198.357C231.788 198.933 230.831 199.243 229.85 199.244H159.436C158.702 199.244 157.979 199.07 157.325 198.737C156.671 198.405 156.105 197.922 155.673 197.329C155.242 196.736 154.957 196.05 154.843 195.326C154.728 194.602 154.787 193.861 155.014 193.164V193.164Z" fill="#292A2E"/>
<path opacity="0.2" d="M155.014 193.164L172.297 140.121C172.601 139.189 173.192 138.377 173.987 137.801C174.781 137.225 175.737 136.914 176.719 136.914H247.133C247.867 136.914 248.59 137.088 249.244 137.421C249.898 137.753 250.464 138.236 250.895 138.829C251.327 139.422 251.611 140.108 251.726 140.832C251.841 141.556 251.782 142.297 251.555 142.994L234.272 196.037C233.968 196.969 233.377 197.781 232.582 198.357C231.788 198.933 230.831 199.243 229.85 199.244H159.436C158.702 199.244 157.979 199.07 157.325 198.737C156.671 198.405 156.105 197.922 155.673 197.329C155.242 196.736 154.957 196.05 154.843 195.326C154.728 194.602 154.787 193.861 155.014 193.164V193.164Z" fill="white"/>
<path d="M169.113 194.943H121.978C120.803 194.943 119.851 195.893 119.851 197.066V197.12C119.851 198.293 120.803 199.244 121.978 199.244H169.113C170.287 199.244 171.239 198.293 171.239 197.12V197.066C171.239 195.893 170.287 194.943 169.113 194.943Z" fill="#292A2E"/>
<path opacity="0.2" d="M169.113 194.943H121.978C120.803 194.943 119.851 195.893 119.851 197.066V197.12C119.851 198.293 120.803 199.244 121.978 199.244H169.113C170.287 199.244 171.239 198.293 171.239 197.12V197.066C171.239 195.893 170.287 194.943 169.113 194.943Z" fill="white"/>
<path d="M203.284 178.04C207.363 178.04 210.669 174.739 210.669 170.667C210.669 166.594 207.363 163.293 203.284 163.293C199.206 163.293 195.9 166.594 195.9 170.667C195.9 174.739 199.206 178.04 203.284 178.04Z" fill="white"/>
<path d="M146.16 128.07H127.436V150.996H146.16V128.07Z" fill="white"/>
<path d="M127.436 147.188C125.92 147.188 124.437 146.739 123.176 145.898C121.915 145.057 120.933 143.861 120.352 142.462C119.772 141.064 119.62 139.524 119.916 138.039C120.212 136.554 120.942 135.19 122.014 134.12C123.087 133.049 124.453 132.32 125.94 132.025C127.428 131.729 128.969 131.881 130.37 132.46C131.772 133.04 132.969 134.021 133.812 135.28C134.654 136.539 135.104 138.019 135.104 139.533C135.102 141.562 134.293 143.508 132.856 144.944C131.418 146.379 129.469 147.186 127.436 147.188V147.188ZM127.436 135.013C126.541 135.013 125.666 135.279 124.921 135.775C124.177 136.272 123.596 136.978 123.254 137.804C122.911 138.63 122.821 139.538 122.996 140.415C123.171 141.292 123.602 142.097 124.235 142.73C124.868 143.362 125.675 143.792 126.553 143.966C127.432 144.141 128.342 144.051 129.169 143.709C129.996 143.367 130.703 142.787 131.201 142.044C131.698 141.301 131.963 140.427 131.963 139.533C131.962 138.335 131.485 137.186 130.636 136.338C129.787 135.491 128.637 135.014 127.436 135.013Z" fill="white"/>
<path d="M128.516 142.929C128.345 142.487 128.024 142.118 127.609 141.888C127.193 141.658 126.709 141.581 126.243 141.671C126.252 141.65 126.256 141.627 126.257 141.604L126.885 141.323C127.325 141.136 127.687 140.804 127.909 140.381C128.132 139.958 128.201 139.472 128.106 139.004C128.04 138.712 127.91 138.438 127.725 138.203C127.54 137.967 127.305 137.775 127.037 137.641C126.769 137.506 126.475 137.433 126.175 137.426C125.875 137.42 125.577 137.479 125.303 137.601L123.822 138.263C123.822 138.257 123.822 138.251 123.819 138.245C123.813 138.233 123.806 138.222 123.797 138.212C124.162 137.937 124.423 137.547 124.538 137.106C124.652 136.664 124.613 136.196 124.428 135.779C124.016 134.668 122.558 134.579 121.594 135.009L117.721 136.569L118.89 135.385C119.256 134.999 119.462 134.489 119.466 133.957C119.47 133.425 119.271 132.912 118.91 132.521C118.717 132.325 118.486 132.171 118.231 132.068C117.976 131.965 117.703 131.915 117.427 131.921C117.152 131.926 116.881 131.988 116.631 132.102C116.381 132.216 116.156 132.379 115.971 132.583L102.198 147.6L106.909 152.13C108.371 153.536 110.222 154.475 112.222 154.825C114.223 155.175 116.282 154.921 118.137 154.095L126.532 150.337C126.972 150.15 127.334 149.817 127.556 149.395C127.779 148.972 127.848 148.486 127.753 148.018C127.657 147.598 127.43 147.22 127.104 146.938C126.778 146.656 126.371 146.485 125.941 146.45C125.946 146.427 125.946 146.403 125.941 146.38C125.937 146.357 125.927 146.335 125.914 146.315C125.901 146.295 125.884 146.278 125.864 146.265C125.844 146.252 125.822 146.243 125.799 146.239L127.349 145.548C127.84 145.341 128.233 144.955 128.45 144.469C128.666 143.982 128.69 143.432 128.516 142.929V142.929Z" fill="#FAA896"/>
<path opacity="0.2" d="M121.021 139.533C120.977 139.534 120.934 139.518 120.9 139.49C120.865 139.462 120.842 139.423 120.834 139.379C120.825 139.335 120.833 139.29 120.854 139.251C120.876 139.213 120.91 139.183 120.951 139.166L123.571 138.136C123.595 138.127 123.619 138.123 123.644 138.123C123.669 138.124 123.694 138.129 123.717 138.139C123.74 138.149 123.761 138.163 123.778 138.181C123.795 138.199 123.809 138.22 123.818 138.243C123.827 138.267 123.832 138.291 123.831 138.316C123.831 138.341 123.825 138.366 123.816 138.389C123.806 138.412 123.791 138.432 123.773 138.45C123.755 138.467 123.734 138.481 123.711 138.49L121.091 139.52C121.069 139.529 121.045 139.533 121.021 139.533V139.533Z" fill="#0C0C0C"/>
<path opacity="0.2" d="M122.483 143.232C122.439 143.232 122.397 143.217 122.363 143.189C122.329 143.161 122.306 143.122 122.297 143.078C122.289 143.035 122.296 142.99 122.317 142.952C122.338 142.913 122.372 142.883 122.412 142.866L125.996 141.427C126.042 141.411 126.093 141.413 126.138 141.433C126.182 141.454 126.217 141.49 126.236 141.535C126.254 141.581 126.254 141.631 126.236 141.677C126.218 141.722 126.182 141.759 126.138 141.779L122.555 143.219C122.532 143.228 122.508 143.232 122.483 143.232V143.232Z" fill="#0C0C0C"/>
<path opacity="0.2" d="M124.046 147.248C124.002 147.248 123.959 147.233 123.924 147.204C123.89 147.176 123.867 147.136 123.859 147.092C123.851 147.048 123.859 147.003 123.881 146.965C123.903 146.926 123.938 146.896 123.98 146.88L125.688 146.24C125.735 146.223 125.788 146.224 125.834 146.245C125.88 146.266 125.916 146.304 125.933 146.351C125.951 146.398 125.95 146.451 125.929 146.496C125.908 146.542 125.87 146.578 125.823 146.596L124.114 147.236C124.092 147.244 124.07 147.248 124.046 147.248V147.248Z" fill="#0C0C0C"/>
<path d="M132.5 113.488C132.417 113.488 132.336 113.465 132.266 113.422C132.195 113.379 132.138 113.317 132.1 113.244C131.079 111.256 129.808 108.78 129.951 106.186C130.065 104.122 131.034 102.289 131.97 100.518C132.575 99.448 133.09 98.3298 133.511 97.175C134.025 95.5815 134.154 93.8896 133.889 92.2367C133.624 90.5839 132.972 89.0168 131.986 87.6631C131.949 87.616 131.922 87.5619 131.906 87.5041C131.89 87.4463 131.887 87.386 131.895 87.3267C131.903 87.2674 131.923 87.2103 131.953 87.1588C131.984 87.1073 132.024 87.0625 132.073 87.0269C132.121 86.9914 132.176 86.9658 132.234 86.9518C132.292 86.9377 132.353 86.9355 132.412 86.9452C132.471 86.9549 132.528 86.9763 132.578 87.0082C132.629 87.0402 132.673 87.0819 132.707 87.131C133.778 88.6 134.487 90.3008 134.775 92.095C135.064 93.8891 134.924 95.7259 134.367 97.4558C133.931 98.6583 133.396 99.8226 132.767 100.937C131.834 102.701 130.953 104.367 130.85 106.235C130.72 108.587 131.879 110.844 132.901 112.835C132.936 112.904 132.953 112.98 132.95 113.056C132.948 113.133 132.925 113.208 132.885 113.273C132.845 113.339 132.789 113.393 132.722 113.43C132.655 113.468 132.579 113.488 132.503 113.488H132.5Z" fill="white"/>
<path d="M139.704 120.479C139.604 120.479 139.508 120.446 139.429 120.385C139.35 120.324 139.294 120.239 139.269 120.143C139.244 120.047 139.252 119.945 139.292 119.854C139.331 119.762 139.399 119.687 139.486 119.639C141.149 118.723 141.335 116.175 140.554 114.241C140.167 113.351 139.713 112.492 139.198 111.67C138.509 110.606 137.949 109.463 137.529 108.266C137.101 106.807 137.074 105.26 137.451 103.787C137.829 102.315 138.597 100.971 139.674 99.8965C139.76 99.8151 139.874 99.7706 139.993 99.7729C140.111 99.7752 140.224 99.824 140.306 99.9088C140.388 99.9935 140.434 100.107 140.433 100.225C140.431 100.343 140.384 100.456 140.299 100.539C139.338 101.497 138.654 102.696 138.317 104.009C137.98 105.322 138.004 106.702 138.386 108.003C138.785 109.132 139.317 110.21 139.97 111.214C140.509 112.074 140.983 112.973 141.386 113.905C142.301 116.17 142.097 119.224 139.919 120.423C139.853 120.459 139.779 120.478 139.704 120.479Z" fill="white"/>
<path d="M117.99 159.522L51.929 186.818C49.5472 187.792 46.933 188.051 44.4058 187.566C41.8786 187.08 39.5479 185.87 37.6984 184.083C35.8489 182.296 34.5607 180.01 33.9912 177.504C33.4217 174.999 33.5956 172.381 34.4916 169.973L54.1946 116.244C56.7419 109.396 63.9178 105.458 70.7769 108.002C74.0705 109.223 76.7432 111.701 78.2071 114.89C79.671 118.079 79.8063 121.717 78.5831 125.006L69.5961 150.436L108.313 135.534" fill="#FF8C00"/>
<path d="M117.829 159.766C117.794 159.766 117.759 159.755 117.73 159.736C117.701 159.716 117.678 159.688 117.665 159.656L108.053 135.827L69.4655 150.695C69.4336 150.707 69.3987 150.71 69.3652 150.703C69.3317 150.696 69.301 150.679 69.2768 150.655C69.2527 150.631 69.2361 150.6 69.2291 150.567C69.2222 150.533 69.2251 150.498 69.2376 150.466L75.2044 135.176C75.2214 135.133 75.2551 135.098 75.2979 135.079C75.3408 135.06 75.3894 135.059 75.433 135.076C75.4766 135.093 75.5117 135.127 75.5305 135.17C75.5493 135.213 75.5503 135.261 75.5333 135.305L69.7118 150.221L108.088 135.434C108.131 135.418 108.18 135.419 108.222 135.437C108.265 135.456 108.298 135.49 108.316 135.533L117.993 159.524C118.009 159.567 118.009 159.616 117.99 159.658C117.972 159.701 117.938 159.735 117.895 159.754C117.874 159.762 117.851 159.766 117.829 159.766V159.766Z" fill="#0C0C0C"/>
<path d="M57.3467 155.426C57.3054 155.427 57.2652 155.412 57.2333 155.386C57.2013 155.36 57.1796 155.324 57.1719 155.283C57.1642 155.242 57.171 155.2 57.1912 155.164C57.2113 155.128 57.2435 155.101 57.2821 155.086L69.3678 150.338C69.3894 150.329 69.4126 150.325 69.4361 150.325C69.4595 150.325 69.4827 150.33 69.5042 150.339C69.5258 150.348 69.5453 150.361 69.5617 150.378C69.578 150.395 69.5908 150.415 69.5994 150.436C69.608 150.458 69.6122 150.481 69.6117 150.505C69.6112 150.528 69.6061 150.551 69.5966 150.573C69.5871 150.594 69.5734 150.613 69.5564 150.629C69.5394 150.645 69.5193 150.658 69.4974 150.666L57.4113 155.414C57.3907 155.422 57.3688 155.426 57.3467 155.426V155.426Z" fill="#0C0C0C"/>
<path d="M60.1614 183.631C60.1204 183.631 60.0807 183.617 60.049 183.591C60.0173 183.565 59.9956 183.529 59.9876 183.489C59.9797 183.449 59.9859 183.407 60.0054 183.371C60.0248 183.335 60.0562 183.307 60.0941 183.292L117.763 159.427C117.785 159.418 117.808 159.414 117.831 159.414C117.854 159.414 117.877 159.418 117.898 159.427C117.92 159.436 117.939 159.449 117.956 159.465C117.972 159.482 117.985 159.501 117.994 159.523C118.003 159.544 118.007 159.567 118.007 159.59C118.007 159.613 118.002 159.636 117.994 159.657C117.985 159.679 117.972 159.698 117.955 159.715C117.939 159.731 117.919 159.744 117.898 159.753L60.2287 183.618C60.2074 183.626 60.1845 183.631 60.1614 183.631Z" fill="#0C0C0C"/>
<path d="M352.943 327.26C352.824 327.26 352.71 327.213 352.625 327.129C351.993 326.498 350.963 314.919 348.188 280.446C347.052 266.34 345.979 253.017 345.197 244.92C345.141 244.341 344.917 244.274 344.843 244.252C343.771 243.929 340.512 246.494 338.693 248.741C338.618 248.833 338.51 248.892 338.392 248.905C338.273 248.917 338.155 248.882 338.062 248.808C337.97 248.733 337.911 248.625 337.898 248.507C337.885 248.388 337.92 248.27 337.995 248.178C339.198 246.692 343.119 242.798 345.101 243.394C345.5 243.514 345.998 243.86 346.09 244.833C346.874 252.937 347.946 266.264 349.082 280.374C350.769 301.323 352.679 325.056 353.307 326.551C353.355 326.618 353.384 326.696 353.39 326.779C353.396 326.861 353.38 326.943 353.342 327.017C353.304 327.09 353.247 327.151 353.177 327.194C353.106 327.237 353.025 327.26 352.943 327.26V327.26Z" fill="#494949"/>
<path d="M344.044 259.777C351.489 253.819 353.956 244.546 349.556 239.065C345.155 233.583 335.552 233.969 328.108 239.927C320.663 245.885 318.196 255.158 322.597 260.64C326.997 266.121 336.6 265.735 344.044 259.777Z" fill="#6B6B6B"/>
<path opacity="0.2" d="M344.044 259.777C351.489 253.819 353.956 244.546 349.556 239.065C345.155 233.583 335.552 233.969 328.108 239.927C320.663 245.885 318.196 255.158 322.597 260.64C326.997 266.121 336.6 265.735 344.044 259.777Z" fill="white"/>
<path d="M324.683 262.034C324.641 262.034 324.599 262.022 324.563 261.999C324.527 261.977 324.498 261.944 324.48 261.905C324.462 261.867 324.456 261.824 324.461 261.782C324.466 261.74 324.484 261.7 324.511 261.667L345.727 236.123C345.746 236.1 345.769 236.08 345.795 236.066C345.821 236.052 345.85 236.043 345.88 236.04C345.909 236.037 345.939 236.04 345.968 236.049C345.996 236.057 346.023 236.072 346.046 236.091C346.069 236.11 346.088 236.133 346.101 236.16C346.115 236.186 346.123 236.215 346.126 236.244C346.128 236.274 346.125 236.304 346.116 236.332C346.107 236.36 346.092 236.387 346.072 236.409L324.856 261.953C324.835 261.979 324.809 261.999 324.779 262.013C324.749 262.027 324.716 262.034 324.683 262.034Z" fill="white"/>
<path d="M357.57 321.784C357.499 321.784 357.428 321.767 357.364 321.734C357.301 321.701 357.246 321.654 357.204 321.596C357.163 321.537 357.136 321.47 357.126 321.399C357.116 321.328 357.123 321.256 357.146 321.189L365.116 298.306C365.35 297.634 365.75 297.031 366.279 296.553C366.807 296.075 367.447 295.737 368.141 295.57C368.834 295.403 369.558 295.412 370.247 295.597C370.935 295.781 371.567 296.136 372.083 296.627L376.296 300.646C376.382 300.728 376.432 300.841 376.434 300.96C376.437 301.078 376.392 301.193 376.31 301.279C376.228 301.365 376.115 301.415 375.996 301.418C375.877 301.42 375.762 301.376 375.676 301.294L371.463 297.275C371.055 296.888 370.557 296.608 370.013 296.462C369.47 296.316 368.898 296.309 368.351 296.441C367.804 296.573 367.299 296.839 366.881 297.217C366.464 297.594 366.149 298.07 365.963 298.6L357.994 321.483C357.963 321.571 357.906 321.647 357.83 321.701C357.754 321.755 357.663 321.784 357.57 321.784Z" fill="#494949"/>
<path d="M388.068 313.315C393.585 308.955 393.257 299.366 387.335 291.897C381.414 284.428 372.141 281.907 366.624 286.267C361.107 290.627 361.435 300.217 367.356 307.686C373.278 315.155 382.55 317.675 388.068 313.315Z" fill="#6B6B6B"/>
<path d="M349.322 325.801C349.221 325.801 349.124 325.767 349.044 325.704C348.965 325.642 348.91 325.555 348.886 325.457L335.512 269.627C335.421 269.246 335.226 268.898 334.95 268.621C334.673 268.344 334.325 268.148 333.944 268.056C333.563 267.963 333.164 267.977 332.791 268.096C332.418 268.216 332.084 268.435 331.828 268.731L327.705 273.488C327.667 273.532 327.62 273.569 327.567 273.595C327.514 273.621 327.457 273.637 327.398 273.641C327.34 273.646 327.281 273.638 327.225 273.62C327.169 273.601 327.117 273.572 327.072 273.533C327.028 273.495 326.991 273.448 326.965 273.395C326.938 273.343 326.923 273.285 326.918 273.227C326.914 273.168 326.921 273.109 326.94 273.053C326.959 272.997 326.988 272.946 327.027 272.901L331.15 268.145C331.514 267.725 331.988 267.413 332.518 267.245C333.049 267.076 333.615 267.056 334.156 267.188C334.697 267.32 335.191 267.598 335.584 267.992C335.977 268.386 336.253 268.88 336.383 269.42L349.757 325.25C349.785 325.366 349.765 325.488 349.703 325.589C349.641 325.69 349.541 325.762 349.425 325.79C349.391 325.798 349.357 325.801 349.322 325.801V325.801Z" fill="#494949"/>
<path d="M344.39 285.89C346.015 276.504 341.713 267.924 334.779 266.727C327.846 265.53 320.908 272.169 319.282 281.555C317.656 290.941 321.959 299.521 328.892 300.718C335.825 301.915 342.764 295.276 344.39 285.89Z" fill="#6B6B6B"/>
<path d="M352.944 327.26C352.925 327.26 352.906 327.259 352.888 327.257C352.77 327.242 352.662 327.181 352.589 327.088C352.516 326.994 352.483 326.875 352.497 326.758L361.038 257.529C361.131 256.774 361.44 256.063 361.928 255.48C362.416 254.896 363.063 254.467 363.79 254.242C364.518 254.017 365.295 254.007 366.028 254.212C366.761 254.418 367.418 254.831 367.922 255.401L377.683 266.439C377.762 266.528 377.802 266.645 377.795 266.763C377.787 266.882 377.733 266.993 377.644 267.071C377.555 267.15 377.438 267.19 377.319 267.182C377.2 267.175 377.089 267.121 377.01 267.032L367.249 255.993C366.86 255.553 366.351 255.234 365.784 255.075C365.218 254.916 364.617 254.924 364.055 255.098C363.493 255.272 362.993 255.605 362.616 256.056C362.238 256.507 362 257.057 361.928 257.64L353.386 326.867C353.373 326.975 353.321 327.075 353.239 327.147C353.158 327.219 353.053 327.26 352.944 327.26Z" fill="#494949"/>
<path d="M387.693 272.572C391.099 266.425 387.091 257.704 378.743 253.093C370.394 248.482 360.865 249.728 357.459 255.875C354.053 262.022 358.061 270.744 366.409 275.354C374.758 279.965 384.287 278.719 387.693 272.572Z" fill="#6B6B6B"/>
<path opacity="0.2" d="M388.068 313.315C393.585 308.955 393.257 299.366 387.335 291.897C381.414 284.428 372.141 281.907 366.624 286.267C361.107 290.627 361.435 300.217 367.356 307.686C373.278 315.155 382.55 317.675 388.068 313.315Z" fill="white"/>
<path opacity="0.5" d="M344.39 285.89C346.015 276.504 341.713 267.924 334.779 266.727C327.846 265.53 320.908 272.169 319.282 281.555C317.656 290.941 321.959 299.521 328.892 300.718C335.825 301.915 342.764 295.276 344.39 285.89Z" fill="white"/>
<path opacity="0.5" d="M387.693 272.572C391.099 266.425 387.091 257.704 378.743 253.093C370.394 248.482 360.865 249.728 357.459 255.875C354.053 262.022 358.061 270.744 366.409 275.354C374.758 279.965 384.287 278.719 387.693 272.572Z" fill="white"/>
<path d="M363.866 386H342.019L338.399 316.213H367.486L363.866 386Z" fill="#292A2E"/>
<path opacity="0.3" d="M363.866 386H342.019L338.399 316.213H367.486L363.866 386Z" fill="white"/>
<path d="M388.068 313.536C388.034 313.537 388 313.529 387.97 313.514C387.939 313.5 387.912 313.478 387.891 313.452L366.447 286.404C366.41 286.357 366.393 286.298 366.4 286.239C366.407 286.18 366.437 286.126 366.483 286.089C366.53 286.052 366.59 286.035 366.649 286.042C366.708 286.049 366.762 286.079 366.799 286.125L388.243 313.173C388.269 313.206 388.286 313.246 388.29 313.288C388.295 313.33 388.288 313.372 388.27 313.41C388.251 313.448 388.223 313.48 388.187 313.502C388.151 313.525 388.11 313.536 388.068 313.536Z" fill="white"/>
<path d="M386.267 274.739C386.219 274.739 386.173 274.723 386.135 274.695L358.694 254.691C358.67 254.674 358.65 254.652 358.634 254.627C358.619 254.602 358.609 254.574 358.604 254.545C358.6 254.516 358.601 254.486 358.608 254.457C358.615 254.429 358.627 254.402 358.645 254.378C358.662 254.354 358.684 254.334 358.709 254.319C358.734 254.304 358.762 254.293 358.791 254.289C358.821 254.284 358.85 254.286 358.879 254.293C358.908 254.3 358.935 254.312 358.958 254.329L386.399 274.335C386.437 274.363 386.465 274.402 386.479 274.446C386.493 274.491 386.492 274.539 386.478 274.583C386.463 274.628 386.435 274.667 386.397 274.694C386.359 274.722 386.314 274.737 386.267 274.738V274.739Z" fill="white"/>
<path d="M327.777 300.426C327.757 300.427 327.738 300.424 327.719 300.419C327.661 300.404 327.612 300.366 327.583 300.315C327.553 300.263 327.545 300.202 327.56 300.145L336.296 267.468C336.303 267.439 336.316 267.412 336.334 267.388C336.351 267.364 336.374 267.344 336.399 267.329C336.425 267.314 336.454 267.304 336.483 267.3C336.513 267.296 336.543 267.298 336.571 267.306C336.6 267.314 336.627 267.327 336.651 267.345C336.674 267.363 336.694 267.386 336.709 267.412C336.723 267.438 336.733 267.466 336.736 267.496C336.74 267.525 336.737 267.555 336.729 267.584L327.994 300.26C327.981 300.308 327.953 300.35 327.914 300.38C327.874 300.41 327.826 300.427 327.777 300.426Z" fill="white"/>
</g>
<defs>
<clipPath id="clip0_504_108">
<rect width="392" height="386" fill="white"/>
</clipPath>
</defs>
</svg>
