<svg width="214" height="150" viewBox="0 0 214 150" fill="none" xmlns="http://www.w3.org/2000/svg">
<path d="M37.7961 132.611L198.944 132.611C202.902 132.611 206.11 129.403 206.11 125.446L206.11 7.46077C206.11 3.5034 202.902 0.295334 198.944 0.295334L37.7961 0.295334C33.8387 0.295334 30.6306 3.5034 30.6306 7.46077L30.6306 125.446C30.6306 129.403 33.8387 132.611 37.7961 132.611Z" fill="white"/>
<path d="M198.944 132.906H37.7955C35.8175 132.904 33.9211 132.117 32.5224 130.719C31.1237 129.32 30.3369 127.424 30.3347 125.446V7.46081C30.3368 5.48265 31.1237 3.58614 32.5225 2.18743C33.9213 0.788713 35.8179 0.00203265 37.7961 0L198.945 0C200.923 0.00218898 202.819 0.788939 204.218 2.18764C205.617 3.58634 206.403 5.48275 206.406 7.46081V125.446C206.403 127.424 205.616 129.32 204.218 130.719C202.819 132.118 200.922 132.904 198.944 132.906V132.906ZM37.7961 0.590721C35.9744 0.592519 34.2279 1.31687 32.9397 2.60484C31.6515 3.8928 30.9269 5.63919 30.9248 7.46081V125.446C30.9269 127.267 31.6514 129.013 32.9393 130.301C34.2273 131.589 35.9735 132.314 37.7949 132.316H198.944C200.765 132.314 202.511 131.589 203.799 130.301C205.087 129.013 205.812 127.267 205.814 125.446V7.46081C205.812 5.6395 205.087 3.89338 203.799 2.60546C202.511 1.31755 200.765 0.592988 198.944 0.590721H37.7961Z" fill="#292A2E"/>
<g opacity="0.14">
<path opacity="0.14" d="M83.596 24.7677C82.5147 21.4836 80.502 18.5845 77.803 16.4234C75.104 14.2622 71.835 12.9322 68.3939 12.5952C64.9527 12.2582 61.4878 12.9286 58.4208 14.525C55.3537 16.1214 52.8169 18.5749 51.1189 21.5868C49.4208 24.5988 48.6349 28.0393 48.8568 31.4898C49.0786 34.9403 50.2986 38.252 52.3683 41.0217C54.438 43.7914 57.2681 45.8999 60.5143 47.0904C63.7605 48.2809 67.2828 48.5022 70.6525 47.7273C69.8756 45.3713 69.599 42.8792 69.8402 40.4103C70.0815 37.9413 70.8354 35.5499 72.0536 33.3889C73.2719 31.228 74.9277 29.345 76.9152 27.8605C78.9027 26.376 81.1782 25.3226 83.596 24.7677V24.7677Z" fill="#FF8C00"/>
<path opacity="0.14" d="M87.5855 24.3141C86.2429 24.3149 84.9046 24.4671 83.596 24.7678C84.373 27.1237 84.6498 29.6159 84.4086 32.0849C84.1674 34.5538 83.4135 36.9453 82.1952 39.1063C80.977 41.2673 79.3211 43.1503 77.3335 44.6348C75.3459 46.1192 73.0704 47.1725 70.6525 47.7273C71.6812 50.847 73.5517 53.6218 76.0576 55.7457C78.5636 57.8695 81.6076 59.2598 84.8537 59.763C88.0998 60.2663 91.4219 59.863 94.4533 58.5977C97.4847 57.3324 100.108 55.2542 102.033 52.5925C103.958 49.9307 105.11 46.7889 105.362 43.5137C105.615 40.2386 104.957 36.9573 103.463 34.0321C101.969 31.1068 99.695 28.6513 96.8932 26.9364C94.0914 25.2216 90.8704 24.3141 87.5855 24.3141V24.3141Z" fill="#FF8C00"/>
</g>
<g opacity="0.22">
<path opacity="0.22" d="M66.6634 48.476C63.0786 48.4761 59.5742 47.4131 56.5935 45.4215C53.6128 43.4299 51.2897 40.5992 49.9178 37.2872C48.5459 33.9753 48.1869 30.3309 48.8863 26.815C49.5856 23.299 51.3119 20.0694 53.8467 17.5346C56.3816 14.9997 59.6112 13.2734 63.1272 12.5741C66.6431 11.8747 70.2875 12.2337 73.5994 13.6056C76.9114 14.9775 79.7421 17.3007 81.7337 20.2814C83.7253 23.2621 84.7883 26.7664 84.7882 30.3512C84.7828 35.1566 82.8715 39.7635 79.4736 43.1614C76.0757 46.5593 71.4688 48.4706 66.6634 48.476ZM66.6634 12.8169C63.1954 12.8168 59.8053 13.8451 56.9218 15.7718C54.0382 17.6984 51.7907 20.4369 50.4636 23.6409C49.1364 26.8449 48.7891 30.3705 49.4656 33.7718C50.1422 37.1732 51.8121 40.2975 54.2643 42.7498C56.7166 45.202 59.8409 46.8721 63.2422 47.5487C66.6436 48.2252 70.1692 47.878 73.3732 46.5509C76.5772 45.2238 79.3157 42.9763 81.2424 40.0928C83.1691 37.2093 84.1975 33.8192 84.1975 30.3512C84.1922 25.7025 82.3431 21.2457 79.056 17.9585C75.7689 14.6714 71.3121 12.8222 66.6634 12.8169V12.8169Z" fill="#FF8C00"/>
<path opacity="0.22" d="M87.5852 60.2689C84.0004 60.269 80.4961 59.206 77.5154 57.2144C74.5347 55.2229 72.2115 52.3921 70.8396 49.0802C69.4677 45.7683 69.1088 42.1239 69.8081 38.608C70.5074 35.092 72.2336 31.8624 74.7685 29.3276C77.3033 26.7927 80.5329 25.0664 84.0488 24.367C87.5647 23.6677 91.2091 24.0266 94.521 25.3984C97.833 26.7702 100.664 29.0934 102.655 32.074C104.647 35.0547 105.71 38.559 105.71 42.1438C105.705 46.9492 103.793 51.5563 100.396 54.9542C96.9976 58.3522 92.3906 60.2635 87.5852 60.2689V60.2689ZM87.5852 24.6095C84.1172 24.6094 80.7271 25.6377 77.8436 27.5644C74.96 29.4911 72.7126 32.2295 71.3854 35.4335C70.0582 38.6375 69.7109 42.1631 70.3874 45.5644C71.064 48.9658 72.7339 52.0901 75.1862 54.5424C77.6384 56.9947 80.7627 58.6647 84.164 59.3413C87.5654 60.0179 91.091 59.6706 94.295 58.3435C97.499 57.0164 100.237 54.769 102.164 51.8854C104.091 49.0019 105.119 45.6118 105.119 42.1438C105.114 37.4951 103.265 33.0382 99.978 29.751C96.6909 26.4638 92.234 24.6147 87.5852 24.6095V24.6095Z" fill="#FF8C00"/>
</g>
<path d="M213.016 150H8.02107C7.94273 150 7.86761 149.969 7.81222 149.914C7.75683 149.858 7.72571 149.783 7.72571 149.705C7.72571 149.626 7.75683 149.551 7.81222 149.496C7.86761 149.44 7.94273 149.409 8.02107 149.409H213.016C213.095 149.409 213.17 149.44 213.225 149.496C213.281 149.551 213.312 149.626 213.312 149.705C213.312 149.783 213.281 149.858 213.225 149.914C213.17 149.969 213.095 150 213.016 150Z" fill="#292A2E"/>
<path d="M114.039 67.4603L113.744 62.2422C113.757 61.8713 113.628 61.5094 113.384 61.2297C113.14 60.95 112.799 60.7735 112.429 60.7358C112.238 60.723 112.047 60.7492 111.866 60.8129C111.685 60.8766 111.519 60.9765 111.379 61.1064C111.238 61.2363 111.125 61.3935 111.047 61.5685C110.969 61.7435 110.927 61.9325 110.925 62.124L110.689 76.6936" fill="#E98862"/>
<path d="M121.326 57.0719L122.025 59.6129L108.715 63.4582L108.015 60.9169L121.326 57.0719Z" fill="#6B6B6B"/>
<path opacity="0.5" d="M121.326 57.0719L122.025 59.6129L108.715 63.4582L108.015 60.9169L121.326 57.0719Z" fill="white"/>
<path d="M105.911 61.5032L106.61 64.0445L108.715 63.4582L108.015 60.9169L105.911 61.5032Z" fill="#262626"/>
<path d="M121.326 57.0719C121.326 57.0719 122.102 57.2606 122.797 57.4319C123.348 57.5678 123.848 57.6927 123.868 57.7037C123.629 57.9945 123.373 58.2706 123.1 58.5307C122.595 59.0467 122.027 59.6141 122.027 59.6141L121.326 57.0719Z" fill="#FF8C00"/>
<path opacity="0.9" d="M121.326 57.0719C121.326 57.0719 122.102 57.2606 122.797 57.4319C123.348 57.5678 123.848 57.6927 123.868 57.7037C123.629 57.9945 123.373 58.2706 123.1 58.5307C122.595 59.0467 122.027 59.6141 122.027 59.6141L121.326 57.0719Z" fill="white"/>
<path d="M122.797 57.4319C123.348 57.5678 123.848 57.6927 123.868 57.7037C123.629 57.9945 123.372 58.2706 123.1 58.5307L122.797 57.4319Z" fill="#6B6B6B"/>
<path d="M110.687 76.693L115.238 76.8838C116.651 76.943 118.05 76.5788 119.255 75.8378C120.46 75.0968 121.416 74.0129 122.001 72.7248L124.641 66.8859C124.783 66.5851 124.818 66.2442 124.739 65.9209C124.659 65.5975 124.47 65.3115 124.204 65.1113C123.96 64.9357 123.666 64.8426 123.366 64.8458C123.065 64.8489 122.773 64.9481 122.533 65.1288C122.522 65.1088 122.505 65.0921 122.485 65.0803C122.466 65.0705 122.445 65.0657 122.423 65.0661C122.402 65.0666 122.381 65.0724 122.362 65.083L122.851 64.0067C123.011 63.6721 123.038 63.2892 122.927 62.9354C122.815 62.5815 122.574 62.2831 122.251 62.1004C121.957 61.9474 121.618 61.903 121.294 61.975C120.97 62.0471 120.682 62.231 120.481 62.4944C120.475 62.4806 120.467 62.4678 120.457 62.4566L120.658 62.0136C120.801 61.7128 120.836 61.3719 120.756 61.0484C120.677 60.725 120.488 60.439 120.222 60.2388C119.926 60.0255 119.559 59.9353 119.197 59.9869C118.836 60.0386 118.509 60.2281 118.284 60.5158C118.275 60.5122 118.266 60.5096 118.256 60.5081L113.824 63.7415" fill="#E98862"/>
<path d="M120.678 57.4772C120.596 57.8099 120.401 58.1037 120.126 58.3077C119.372 58.9673 118.708 59.7227 118.151 60.5548C117.301 61.7398 116.608 63.6561 116.412 64.2956C116.309 64.6327 116.077 64.9151 115.765 65.0806C115.454 65.2461 115.09 65.2812 114.753 65.1781C114.416 65.0751 114.133 64.8423 113.968 64.5311C113.802 64.2198 113.767 63.8556 113.87 63.5185C113.904 63.4074 114.715 60.7834 115.992 59.0045C116.592 58.1689 118.066 56.496 118.626 56.1126C118.845 55.9633 119.103 55.8827 119.368 55.8811C119.633 55.8795 119.892 55.957 120.112 56.1035C120.332 56.2501 120.504 56.4592 120.605 56.7039C120.706 56.9486 120.731 57.2179 120.678 57.4772V57.4772Z" fill="#E98862"/>
<path opacity="0.2" d="M118.369 60.6546C118.367 60.6699 118.362 60.6848 118.356 60.6986L116.802 63.7482C116.794 63.7637 116.783 63.7775 116.77 63.7888C116.756 63.8002 116.741 63.8087 116.724 63.8141C116.708 63.8195 116.69 63.8216 116.673 63.8202C116.656 63.8188 116.639 63.814 116.623 63.8061C116.608 63.7982 116.594 63.7873 116.583 63.7741C116.571 63.7608 116.563 63.7455 116.557 63.7289C116.552 63.7123 116.55 63.6949 116.551 63.6775C116.553 63.6602 116.557 63.6432 116.565 63.6277L118.119 60.5784C118.134 60.5508 118.157 60.5291 118.186 60.517C118.214 60.5049 118.246 60.5033 118.276 60.5124C118.306 60.5214 118.331 60.5406 118.348 60.5666C118.365 60.5926 118.372 60.6238 118.369 60.6546H118.369Z" fill="#0A0A0A"/>
<path opacity="0.2" d="M120.491 62.5544C120.49 62.5693 120.485 62.5838 120.478 62.5972L119.276 65.0038C119.259 65.033 119.231 65.0547 119.199 65.0644C119.167 65.0741 119.132 65.0712 119.102 65.0561C119.072 65.041 119.048 65.0149 119.037 64.9833C119.025 64.9516 119.026 64.9167 119.039 64.8857L120.242 62.4794C120.256 62.4513 120.279 62.4291 120.308 62.4166C120.337 62.4042 120.369 62.4023 120.399 62.4113C120.429 62.4204 120.455 62.4397 120.472 62.466C120.489 62.4922 120.496 62.5236 120.492 62.5547L120.491 62.5544Z" fill="#0A0A0A"/>
<path opacity="0.2" d="M122.555 65.2138C122.553 65.2298 122.548 65.2453 122.54 65.2596L121.946 66.382C121.928 66.4117 121.9 66.4335 121.867 66.443C121.835 66.4524 121.799 66.4488 121.769 66.4327C121.739 66.4166 121.716 66.3895 121.705 66.3569C121.694 66.3243 121.697 66.2888 121.711 66.2579L122.306 65.1356C122.321 65.1082 122.344 65.0869 122.373 65.0752C122.402 65.0635 122.433 65.0621 122.463 65.0714C122.492 65.0807 122.518 65.1 122.534 65.126C122.551 65.152 122.558 65.1831 122.555 65.2138V65.2138Z" fill="#0A0A0A"/>
<path d="M108.421 67.2536L97.2896 99.1821L79.1982 75.5237L62.2705 89.6694L93.5445 123.065C94.6568 124.335 96.0857 125.289 97.686 125.828C99.2863 126.367 101.001 126.473 102.655 126.134C104.31 125.796 105.845 125.025 107.105 123.901C108.365 122.777 109.304 121.339 109.828 119.733L125.072 72.7178L108.421 67.2536Z" fill="#FF8C00"/>
<path d="M9.62929 135.798C8.07778 135.798 6.54922 135.423 5.17376 134.705C3.7983 133.987 2.61668 132.948 1.7295 131.675C0.842322 130.402 0.27586 128.934 0.078345 127.395C-0.11917 125.856 0.0581119 124.292 0.595097 122.836C1.14004 121.359 13.9675 86.5701 16.3995 80.302L34.3554 87.2681C32.9882 90.7926 28.0347 104.151 24.0532 114.914L30.6657 114.195L32.7474 133.342L10.6713 135.742C10.3252 135.779 9.97738 135.798 9.62929 135.798V135.798Z" fill="#FF8C00"/>
<path d="M21.1696 134.814L18.2332 149.43H75.2679L71.9829 134.536L21.1696 134.814Z" fill="#262626"/>
<path d="M33.5015 69.4939C28.7362 69.8483 23.8772 71.396 20.2989 74.5632C14.9024 79.3403 15.3826 82.3261 18.0766 95.5547C20.3946 106.937 19.4748 111.911 21.0255 132.915C21.0713 133.534 21.169 134.814 21.169 134.814L72.1441 134.73C72.1441 134.73 76.9201 106.863 79.5577 94.0094C81.5632 84.238 86.8303 72.3757 64.6213 69.9851C64.5628 69.9789 46.7505 68.5109 33.5015 69.4939Z" fill="#FF8C00"/>
<path d="M64.6213 69.986C64.5623 69.9783 62.9443 76.0672 50.3176 75.1193C41.575 74.4645 39.4448 68.5145 39.2446 68.5145C40.1871 68.3142 41.7173 68.1063 42.1361 67.8827C43.5125 67.1443 44.5153 66.2429 45.0198 64.3109C45.4147 62.7999 45.6158 56.9827 45.6158 54.0646L59.0668 57.087C58.8792 60.3791 57.567 68.0112 62.1663 69.3619C62.9316 69.5869 63.7559 69.7907 64.6213 69.986Z" fill="#E98862"/>
<path d="M58.6001 63.5595C53.2975 63.9777 46.4856 61.7389 45.1907 54.6641L44.0231 48.2805C42.7295 41.2057 45.3963 34.7908 52.057 33.5716C58.7182 32.3532 64.7462 37.1779 66.0402 44.2527L66.5571 47.0787C67.0559 49.7945 68.0625 62.8128 58.6001 63.5595Z" fill="#E98862"/>
<path d="M63.5181 57.0636C62.5661 52.2809 62.1299 49.0889 62.1804 45.7239C63.521 43.3722 63.1687 40.6732 62.8639 39.5068C64.1779 40.2237 64.7273 40.3019 65.9651 40.3019C65.9651 40.3019 63.7479 31.4036 56.2117 29.0091C54.8262 28.4698 51.2881 27.7884 46.5901 28.4329C42.5942 28.9808 32.7445 31.9686 31.3374 43.0574V43.0636C31.2907 43.4313 30.345 53.6481 28.4597 58.5502C25.9249 65.14 22.3664 67.1874 22.4568 74.7906C22.5728 84.5706 40.5523 85.8722 51.3968 85.1406C62.2412 84.409 68.2949 80.8434 68.3735 73.7952C68.4595 65.8991 65.4229 66.6333 63.5181 57.0636Z" fill="#0A0A0A"/>
<path d="M63.5211 53.0547C61.497 53.4251 59.4599 51.5596 59.0907 49.5352C58.7215 47.5108 60.1572 46.0942 62.1816 45.725L63.5211 53.0547Z" fill="#E98862"/>
<path d="M77.1992 106.866C77.1912 106.866 77.1832 106.865 77.1753 106.863C77.1587 106.86 77.1429 106.854 77.1288 106.844C77.1146 106.835 77.1025 106.823 77.0929 106.809C77.0834 106.795 77.0767 106.78 77.0733 106.763C77.0698 106.747 77.0697 106.73 77.0728 106.713L79.2103 93.3239C79.2179 93.2917 79.2377 93.2638 79.2654 93.2458C79.2931 93.2278 79.3266 93.2212 79.3591 93.2273C79.3916 93.2334 79.4204 93.2518 79.4397 93.2787C79.4589 93.3055 79.4671 93.3387 79.4625 93.3714L77.3259 106.761C77.3204 106.791 77.3047 106.817 77.2815 106.836C77.2583 106.855 77.2292 106.866 77.1992 106.866V106.866Z" fill="#0C0C0C"/>
<path d="M21.1696 134.943C21.1364 134.943 21.1045 134.93 21.0806 134.907C21.0567 134.884 21.0427 134.852 21.0415 134.819L19.4441 93.3528C19.4434 93.3359 19.4461 93.3191 19.4519 93.3033C19.4577 93.2874 19.4666 93.2729 19.478 93.2605C19.4894 93.2481 19.5032 93.238 19.5186 93.231C19.5339 93.2239 19.5504 93.2199 19.5673 93.2193C19.6009 93.2196 19.6332 93.2324 19.6579 93.2552C19.6825 93.278 19.6977 93.3093 19.7005 93.3428L21.2981 134.809C21.2994 134.843 21.2871 134.876 21.264 134.901C21.2408 134.926 21.2087 134.941 21.1747 134.943H21.1696Z" fill="#0C0C0C"/>
<path opacity="0.21" d="M131.526 80.9917C131.483 80.9918 131.441 80.9825 131.402 80.9646C131.363 80.9467 131.329 80.9206 131.301 80.888L128.758 77.8996C128.733 77.87 128.714 77.8358 128.702 77.7988C128.69 77.7619 128.686 77.7229 128.689 77.6842C128.692 77.6455 128.702 77.6077 128.72 77.5731C128.738 77.5385 128.762 77.5077 128.792 77.4825C128.821 77.4573 128.855 77.4382 128.892 77.4262C128.929 77.4142 128.968 77.4096 129.007 77.4127C129.046 77.4158 129.083 77.4264 129.118 77.4441C129.153 77.4617 129.183 77.486 129.209 77.5156L131.389 80.0784L134.246 69.6637C134.263 69.6013 134.3 69.5462 134.352 69.507C134.403 69.4677 134.466 69.4464 134.531 69.4464H134.533L161.578 69.594C161.617 69.5941 161.655 69.6019 161.691 69.6169C161.726 69.6318 161.759 69.6537 161.786 69.6812C161.814 69.7087 161.835 69.7413 161.85 69.7772C161.865 69.8131 161.872 69.8515 161.872 69.8903C161.872 69.9291 161.864 69.9675 161.849 70.0032C161.834 70.039 161.813 70.0715 161.785 70.0989C161.758 70.1262 161.725 70.1479 161.689 70.1626C161.653 70.1773 161.615 70.1849 161.576 70.1848H161.574L134.755 70.0388L131.81 80.7743C131.793 80.8367 131.756 80.8917 131.705 80.9309C131.653 80.9701 131.59 80.9914 131.526 80.9914L131.526 80.9917Z" fill="#FF8C00"/>
<g opacity="0.2">
<path opacity="0.2" d="M137.916 76.7937C138.226 76.0536 138.612 75.3474 139.067 74.686C139.22 74.4642 139.429 74.069 139.749 74.1957C140.05 74.3724 140.316 74.6026 140.535 74.875C140.964 75.3567 141.46 75.7753 142.007 76.1185C142.567 76.4294 143.225 76.5148 143.846 76.3572C144.485 76.1509 145.096 75.8685 145.667 75.516C146.316 75.154 147.048 74.9679 147.792 74.9761C148.595 75.0219 149.391 75.1521 150.167 75.3645C150.973 75.5523 151.782 75.7168 152.601 75.8323C154.455 76.0956 156.332 76.1506 158.199 75.9962C158.615 75.9617 158.619 75.3069 158.199 75.342C156.466 75.4882 154.722 75.4514 152.997 75.2321C152.137 75.1168 151.283 74.9582 150.438 74.7569C149.635 74.5425 148.815 74.3994 147.986 74.3295C147.206 74.2832 146.425 74.4314 145.716 74.7607C145.106 75.0443 144.545 75.4451 143.903 75.6589C143.6 75.7672 143.276 75.7995 142.957 75.7532C142.639 75.7069 142.337 75.5832 142.077 75.3931C141.561 74.9809 141.075 74.5322 140.622 74.0504C140.329 73.7801 139.994 73.4874 139.569 73.5052C139.387 73.5311 139.214 73.5972 139.062 73.6987C138.91 73.8002 138.782 73.9345 138.688 74.0917C138.148 74.8244 137.698 75.6203 137.35 76.4617C137.309 76.5374 137.299 76.6258 137.321 76.7089C137.343 76.7921 137.396 76.8638 137.468 76.9095C137.544 76.9527 137.633 76.9645 137.717 76.9424C137.8 76.9203 137.872 76.866 137.916 76.7913L137.916 76.7937Z" fill="#FF8C00"/>
</g>
<path d="M172.233 149.234H205.169V139.782H172.233V149.234Z" fill="#FF8C00"/>
<path opacity="0.69" d="M172.233 149.234H205.169V139.782H172.233V149.234Z" fill="white"/>
<path opacity="0.65" d="M176.656 149.234H180.972V139.782H176.656V149.234Z" fill="white"/>
<path opacity="0.65" d="M183.016 147.179H200.96V141.578H183.016V147.179Z" fill="white"/>
<path d="M164.38 139.791H196.863V130.339H164.38V139.791Z" fill="#FF8C00"/>
<path opacity="0.6" d="M164.38 139.791H196.863V130.339H164.38V139.791Z" fill="white"/>
<path opacity="0.42" d="M168.531 137.737H186.229V132.136H168.531V137.737Z" fill="white"/>
<path opacity="0.42" d="M188.245 139.791H192.501V130.339H188.245V139.791Z" fill="white"/>
<path d="M148.519 149.233L169.917 124.195L162.732 118.055L141.334 143.093L148.519 149.233Z" fill="#FF8C00"/>
<path opacity="0.78" d="M148.519 149.233L169.917 124.195L162.732 118.055L141.334 143.093L148.519 149.233Z" fill="white"/>
<path opacity="0.2" d="M151.393 145.871L154.197 142.59L147.012 136.45L144.208 139.731L151.393 145.871Z" fill="#FF8C00"/>
<path opacity="0.2" d="M153.963 139.701L165.621 126.06L161.363 122.421L149.705 136.062L153.963 139.701Z" fill="#FF8C00"/>
<path opacity="0.21" d="M177.758 115.675L158.937 83.0763C158.927 83.0598 158.915 83.0447 158.901 83.0311C158.874 82.9991 158.84 82.9732 158.802 82.9555C158.764 82.9378 158.723 82.9286 158.681 82.9286C158.639 82.9286 158.598 82.9378 158.56 82.9555C158.522 82.9732 158.488 82.9991 158.462 83.0311C158.448 83.0447 158.435 83.0598 158.425 83.0763L139.605 115.675C139.579 115.72 139.565 115.771 139.565 115.823C139.565 115.874 139.579 115.925 139.605 115.97C139.63 116.015 139.668 116.053 139.713 116.078C139.758 116.104 139.808 116.118 139.86 116.118H177.502C177.554 116.118 177.605 116.104 177.65 116.078C177.694 116.053 177.732 116.015 177.758 115.97C177.784 115.925 177.797 115.874 177.797 115.823C177.797 115.771 177.784 115.72 177.758 115.675ZM158.386 115.527H147.356C147.504 114.307 147.19 113.075 146.475 112.074C145.76 111.074 144.696 110.377 143.493 110.122L158.386 84.3254V115.527ZM158.976 84.3263L173.844 110.078C173.814 110.072 173.782 110.071 173.751 110.075C172.5 110.284 171.378 110.968 170.618 111.983C169.858 112.999 169.518 114.268 169.67 115.527H158.976V84.3263ZM143.183 110.659C144.293 110.849 145.287 111.463 145.954 112.371C146.621 113.279 146.911 114.41 146.761 115.527H140.372L143.183 110.659ZM170.265 115.527C170.115 114.409 170.405 113.277 171.073 112.368C171.742 111.46 172.738 110.846 173.85 110.658C173.9 110.649 173.947 110.627 173.985 110.594C174.024 110.561 174.054 110.519 174.072 110.471L176.991 115.527H170.265Z" fill="#FF8C00"/>
<g opacity="0.2">
<path opacity="0.2" d="M193.421 18.7891H123.941C123.862 18.7891 123.787 18.758 123.732 18.7026C123.676 18.6472 123.645 18.5721 123.645 18.4937C123.645 18.4154 123.676 18.3403 123.732 18.2849C123.787 18.2295 123.862 18.1984 123.941 18.1984H193.421C193.499 18.1984 193.575 18.2295 193.63 18.2849C193.685 18.3403 193.717 18.4154 193.717 18.4937C193.717 18.5721 193.685 18.6472 193.63 18.7026C193.575 18.758 193.499 18.7891 193.421 18.7891Z" fill="#FF8C00"/>
</g>
<g opacity="0.2">
<path opacity="0.2" d="M120.705 58.5898C120.627 58.5898 120.552 58.5586 120.496 58.5033C120.441 58.4479 120.41 58.3727 120.41 58.2944V21.2476C120.41 21.1693 120.441 21.0942 120.496 21.0388C120.552 20.9834 120.627 20.9523 120.705 20.9523C120.783 20.9523 120.859 20.9834 120.914 21.0388C120.969 21.0942 121.001 21.1693 121.001 21.2476V58.2944C121.001 58.3727 120.969 58.4479 120.914 58.5033C120.859 58.5586 120.783 58.5898 120.705 58.5898Z" fill="#FF8C00"/>
</g>
<path d="M193.717 51.3836V44.629C193.718 44.6103 193.718 44.5915 193.717 44.5728V36.8468C193.718 36.8281 193.718 36.8093 193.717 36.7907V29.259C193.718 29.2403 193.718 29.2215 193.717 29.2029V21.3185C193.718 21.2998 193.718 21.2809 193.717 21.2621V21.2476C193.717 21.1693 193.685 21.0942 193.63 21.0388C193.575 20.9834 193.499 20.9523 193.421 20.9523H123.941C123.862 20.9523 123.787 20.9834 123.732 21.0388C123.676 21.0942 123.645 21.1693 123.645 21.2476V58.2944C123.645 58.3018 123.649 58.3077 123.649 58.3148C123.65 58.3813 123.677 58.4448 123.724 58.492C123.727 58.4949 123.728 58.4994 123.731 58.5023C123.759 58.5299 123.791 58.5518 123.827 58.5667C123.863 58.5817 123.902 58.5894 123.94 58.5895H155.935C155.977 58.6168 156.026 58.6314 156.076 58.6314C156.127 58.6314 156.176 58.6168 156.218 58.5895H164.372C164.414 58.6168 164.463 58.6314 164.514 58.6314C164.564 58.6314 164.613 58.6168 164.655 58.5895H171.946C171.988 58.6168 172.037 58.6314 172.088 58.6314C172.138 58.6314 172.187 58.6168 172.229 58.5895H179.436C179.478 58.6168 179.527 58.6314 179.577 58.6314C179.628 58.6314 179.677 58.6168 179.719 58.5895H186.447C186.489 58.6168 186.538 58.6314 186.589 58.6314C186.639 58.6314 186.688 58.6168 186.73 58.5895H193.421C193.5 58.5895 193.575 58.5583 193.63 58.503C193.686 58.4476 193.717 58.3724 193.717 58.2941V51.4417C193.719 51.4224 193.719 51.4029 193.717 51.3836V51.3836ZM180.337 57.9996L193.126 45.3166V51.2976L186.506 57.9996H180.337ZM172.838 57.9996L193.126 37.5427V44.4836L179.498 57.9984L172.838 57.9996ZM165.265 57.9996L193.126 29.9525V36.7038L172.006 57.9993L165.265 57.9996ZM156.836 57.9996L193.126 22.0043V29.1137L164.432 57.9999L156.836 57.9996ZM148.633 57.9996L185.596 21.543H192.753L155.997 57.999L148.633 57.9996ZM140.452 57.9996L177.414 21.543H184.754L147.791 57.999L140.452 57.9996ZM132.656 57.9996L169.618 21.543H176.572L139.609 57.999L132.656 57.9996ZM124.659 57.9996L161.413 21.543H168.777L131.814 57.999L124.659 57.9996ZM124.236 28.2929L130.903 21.543H137.073L124.236 34.273V28.2929ZM124.236 35.1056L137.911 21.543H144.57L124.236 42.0475V35.1056ZM124.236 42.8863L145.403 21.543H152.144L124.236 49.6377V42.8863ZM124.236 50.4771L152.977 21.5442H160.574L124.236 57.5855V50.4771ZM130.072 21.5442L124.236 27.4514V21.5442H130.072ZM187.337 57.999L193.126 52.1379V57.999H187.337Z" fill="#6B6B6B"/>
</svg>
