<svg width="300" height="300" viewBox="0 0 300 300" fill="none" xmlns="http://www.w3.org/2000/svg">
<path fill-rule="evenodd" clip-rule="evenodd" d="M149.842 53.316C108.687 53.316 75.2674 86.6872 75.2674 127.89C75.2674 169.045 108.687 202.465 149.842 202.465C190.996 202.465 224.416 169.094 224.416 127.89C224.416 86.6872 190.996 53.316 149.842 53.316ZM277.732 127.89V125.458C276.419 55.9429 219.697 0 149.89 0C79.2564 0 22 57.2564 22 127.89C22 198.476 79.2564 255.732 149.842 255.781C176.548 255.781 201.358 247.56 221.887 233.55C234.389 283.558 277.732 300 277.732 300V127.89ZM194.158 127.89C194.158 152.339 174.339 172.158 149.89 172.158C125.442 172.158 105.622 152.339 105.622 127.89C105.622 103.442 125.442 83.6226 149.89 83.6226C174.339 83.6226 194.158 103.442 194.158 127.89Z" fill="#F29559"/>
</svg>
