<svg width="84" height="100" viewBox="0 0 84 100" fill="none" xmlns="http://www.w3.org/2000/svg">
<path fill-rule="evenodd" clip-rule="evenodd" d="M41.992 17.772C28.474 17.772 17.4967 28.8957 17.4967 42.6301C17.4967 56.3483 28.474 67.4882 41.992 67.4882C55.51 67.4882 66.4873 56.3645 66.4873 42.6301C66.4873 28.8957 55.51 17.772 41.992 17.772ZM84 42.6301V41.8194C83.5686 18.6476 64.9374 0 42.008 0C18.8069 0 0 19.0855 0 42.6301C0 66.1586 18.8069 85.244 41.992 85.2603C50.7643 85.2603 58.9134 82.5199 65.6565 77.8498C69.763 94.5192 84 100 84 100V42.6301ZM56.5485 42.6302C56.5485 50.7797 50.0385 57.3862 42.0079 57.3862C33.9773 57.3862 27.4673 50.7797 27.4673 42.6302C27.4673 34.4808 33.9773 27.8743 42.0079 27.8743C50.0385 27.8743 56.5485 34.4808 56.5485 42.6302Z" fill="#FF8C00"/>
</svg>
