<?xml version="1.0" encoding="utf-8"?>
<svg width="24" height="24" viewBox="0 0 24 24" fill="none" version="1.1" xmlns="http://www.w3.org/2000/svg" xmlns:xlink="http://www.w3.org/1999/xlink" xml:space="preserve">
  <defs>
		<symbol id="link">
			<path d="M21 13v10h-21v-19h12v2h-10v15h17v-8h2zm3-12h-10.988l4.035 4-6.977 7.07 2.828 2.828 6.977-7.07 4.125 4.172v-11z"/>
		</symbol>
		<symbol id="trash">
			<path d="M19 24h-14c-1.104 0-2-.896-2-2v-16h18v16c0 1.104-.896 2-2 2m-9-14c0-.552-.448-1-1-1s-1 .448-1 1v9c0 .552.448 1 1 1s1-.448 1-1v-9zm6 0c0-.552-.448-1-1-1s-1 .448-1 1v9c0 .552.448 1 1 1s1-.448 1-1v-9zm6-5h-20v-2h6v-1.5c0-.827.673-1.5 1.5-1.5h5c.825 0 1.5.671 1.5 1.5v1.5h6v2zm-12-2h4v-1h-4v1z"/>
		</symbol>
		<symbol id="delete">
			<path d="M12 0c-6.627 0-12 5.373-12 12s5.373 12 12 12 12-5.373 12-12-5.373-12-12-12zm5.5 16.084l-1.403 1.416-4.09-4.096-4.102 4.096-1.405-1.405 4.093-4.092-4.093-4.098 1.405-1.405 4.088 4.089 4.091-4.089 1.416 1.403-4.092 4.087 4.092 4.094z"/>
		</symbol>
		<symbol id="ended">
			<path d="M2.955 18.251c-1.23-1.775-1.955-3.927-1.955-6.251 0-1.042.154-2.045.425-3h2.101c-.335.94-.526 1.947-.526 3 0 1.73.5 3.343 1.35 4.717l-1.395 1.534zm4.39-13.937c1.359-.83 2.949-1.314 4.655-1.314 1.426 0 2.771.342 3.97.935l1.394-1.534c-1.588-.889-3.415-1.401-5.364-1.401-2.131 0-4.106.624-5.79 1.673l-1.849-2.673-2.152 7h6.994l-1.858-2.686zm15.23 10.686c.271-.955.425-1.958.425-3 0-2.865-1.113-5.457-2.91-7.412l2.91-3.242-1.448-1.346-20.552 22.654 1.422 1.346 2.962-3.236c1.841 1.397 4.126 2.236 6.616 2.236 2.127 0 4.099-.621 5.78-1.667l1.853 2.667 2.152-6.989h-6.994l1.854 2.681c-1.356.826-2.943 1.308-4.645 1.308-1.969 0-3.785-.643-5.266-1.721l12.011-13.212c1.4 1.584 2.255 3.658 2.255 5.933 0 1.053-.191 2.06-.525 3h2.1z"/>
		</symbol>
		<symbol id="active">
			<path d="M11 3c-1.613 0-3.122.437-4.432 1.185l1.65 2.445-6.702-.378 2.226-6.252 1.703 2.522c1.633-.959 3.525-1.522 5.555-1.522 4.406 0 8.197 2.598 9.953 6.34l-1.642 1.215c-1.355-3.258-4.569-5.555-8.311-5.555zm13 12.486l-2.375-6.157-5.307 3.925 3.389.984c-.982 3.811-4.396 6.651-8.488 6.75l.891 1.955c4.609-.461 8.373-3.774 9.521-8.146l2.369.689zm-18.117 3.906c-2.344-1.625-3.883-4.33-3.883-7.392 0-1.314.29-2.56.799-3.687l-2.108-.12c-.439 1.188-.691 2.467-.691 3.807 0 3.831 1.965 7.192 4.936 9.158l-1.524 2.842 6.516-1.044-2.735-6.006-1.31 2.442z"/>
		</symbol>
		<symbol id="block">
			<path d="M12 0C5.376 0 0 5.376 0 12C0 18.624 5.376 24 12 24C18.624 24 24 18.624 24 12C24 5.376 18.624 0 12 0ZM2.4 12C2.4 6.696 6.696 2.4 12 2.4C14.22 2.4 16.26 3.156 17.88 4.428L4.428 17.88C3.156 16.26 2.4 14.22 2.4 12ZM12 21.6C9.78 21.6 7.74 20.844 6.12 19.572L19.572 6.12C20.844 7.74 21.6 9.78 21.6 12C21.6 17.304 17.304 21.6 12 21.6Z"/>
		</symbol>
		<symbol id="calendar">
			<path d="M20 19h-4v-4h4v4zm-6-10h-4v4h4v-4zm6 0h-4v4h4v-4zm-12 6h-4v4h4v-4zm16-14v22h-24v-22h24zm-2 6h-20v14h20v-14zm-8 8h-4v4h4v-4zm-6-6h-4v4h4v-4z"/>
		</symbol>
		<symbol id="availability">
			<path d="M24 2v22h-24v-22h3v1c0 1.103.897 2 2 2s2-.897 2-2v-1h10v1c0 1.103.897 2 2 2s2-.897 2-2v-1h3zm-2 6h-20v14h20v-14zm-2-7c0-.552-.447-1-1-1s-1 .448-1 1v2c0 .552.447 1 1 1s1-.448 1-1v-2zm-14 2c0 .552-.447 1-1 1s-1-.448-1-1v-2c0-.552.447-1 1-1s1 .448 1 1v2zm1 11.729l.855-.791c1 .484 1.635.852 2.76 1.654 2.113-2.399 3.511-3.616 6.106-5.231l.279.64c-2.141 1.869-3.709 3.949-5.967 7.999-1.393-1.64-2.322-2.686-4.033-4.271z"/>
		</symbol>
		<symbol id="marker">
			<path d="M12 10c-1.104 0-2-.896-2-2s.896-2 2-2 2 .896 2 2-.896 2-2 2m0-5c-1.657 0-3 1.343-3 3s1.343 3 3 3 3-1.343 3-3-1.343-3-3-3m-7 2.602c0-3.517 3.271-6.602 7-6.602s7 3.085 7 6.602c0 3.455-2.563 7.543-7 14.527-4.489-7.073-7-11.072-7-14.527m7-7.602c-4.198 0-8 3.403-8 7.602 0 4.198 3.469 9.21 8 16.398 4.531-7.188 8-12.2 8-16.398 0-4.199-3.801-7.602-8-7.602"/>
		</symbol>
		<symbol id="edit">
			<path d="M12 0c-6.627 0-12 5.373-12 12s5.373 12 12 12 12-5.373 12-12-5.373-12-12-12zm-5 17l1.006-4.036 3.106 3.105-4.112.931zm5.16-1.879l-3.202-3.202 5.841-5.919 3.201 3.2-5.84 5.921z"/>
		</symbol>
		<symbol id="time">
			<path d="M12 3.49091C10.0222 3.49091 8.08879 4.09233 6.4443 5.21911C4.79981 6.34589 3.51809 7.94743 2.76121 9.82121C2.00433 11.695 1.8063 13.7568 2.19215 15.746C2.578 17.7352 3.53041 19.5624 4.92894 20.9965C6.32746 22.4306 8.10929 23.4073 10.0491 23.803C11.9889 24.1986 13.9996 23.9956 15.8268 23.2194C17.6541 22.4433 19.2159 21.1289 20.3147 19.4426C21.4135 17.7562 22 15.7736 22 13.7455C21.997 11.0267 20.9425 8.42021 19.0678 6.49778C17.1931 4.57534 14.6513 3.49397 12 3.49091V3.49091ZM12 22.6909C10.2747 22.6909 8.5881 22.1663 7.15354 21.1833C5.71898 20.2004 4.60088 18.8033 3.94063 17.1687C3.28038 15.5342 3.10762 13.7355 3.44422 12.0003C3.78081 10.265 4.61164 8.67111 5.83163 7.42006C7.05161 6.16902 8.60598 5.31705 10.2982 4.97188C11.9903 4.62672 13.7443 4.80387 15.3383 5.48093C16.9323 6.15799 18.2947 7.30455 19.2532 8.77562C20.2118 10.2467 20.7234 11.9762 20.7234 13.7455C20.7208 16.1171 19.8009 18.3909 18.1655 20.0679C16.5301 21.7449 14.3128 22.6882 12 22.6909V22.6909ZM16.6638 8.96291C16.7835 9.08566 16.8508 9.25214 16.8508 9.42572C16.8508 9.59931 16.7835 9.76579 16.6638 9.88854L12.4514 14.2083C12.3317 14.3311 12.1693 14.4001 12 14.4001C11.8307 14.4001 11.6683 14.3311 11.5486 14.2083C11.4289 14.0856 11.3617 13.9191 11.3617 13.7455C11.3617 13.5718 11.4289 13.4053 11.5486 13.2826L15.7612 8.9628C15.8204 8.90201 15.8908 8.85378 15.9683 8.82088C16.0457 8.78798 16.1287 8.77105 16.2126 8.77105C16.2964 8.77105 16.3794 8.78798 16.4568 8.82088C16.5343 8.85378 16.6047 8.90201 16.6639 8.9628L16.6638 8.96291ZM8.80851 0.654545C8.80851 0.480949 8.87576 0.314463 8.99547 0.191712C9.11517 0.0689608 9.27752 0 9.44681 0H14.5532C14.7225 2.58679e-09 14.8848 0.0689608 15.0045 0.191712C15.1242 0.314463 15.1915 0.480949 15.1915 0.654545C15.1915 0.828142 15.1242 0.994628 15.0045 1.11738C14.8848 1.24013 14.7225 1.30909 14.5532 1.30909H9.44681C9.27752 1.30909 9.11517 1.24013 8.99547 1.11738C8.87576 0.994628 8.80851 0.828142 8.80851 0.654545Z"/>
		</symbol>
		<symbol id="redeem">
			<path d="M24 0.837209V6.4186C24 6.64065 23.9118 6.85359 23.7548 7.0106C23.5978 7.16761 23.3848 7.25581 23.1628 7.25581C22.9408 7.25581 22.7278 7.16761 22.5708 7.0106C22.4138 6.85359 22.3256 6.64065 22.3256 6.4186V1.67442H17.5814C17.3594 1.67442 17.1464 1.58621 16.9894 1.42921C16.8324 1.2722 16.7442 1.05925 16.7442 0.837209C16.7442 0.615168 16.8324 0.40222 16.9894 0.245213C17.1464 0.0882056 17.3594 0 17.5814 0H23.1628C23.3848 0 23.5978 0.0882056 23.7548 0.245213C23.9118 0.40222 24 0.615168 24 0.837209ZM6.4186 22.3256H1.67442V17.5814C1.67442 17.3594 1.58621 17.1464 1.42921 16.9894C1.2722 16.8324 1.05925 16.7442 0.837209 16.7442C0.615168 16.7442 0.40222 16.8324 0.245213 16.9894C0.0882056 17.1464 0 17.3594 0 17.5814V23.1628C0 23.3848 0.0882056 23.5978 0.245213 23.7548C0.40222 23.9118 0.615168 24 0.837209 24H6.4186C6.64065 24 6.85359 23.9118 7.0106 23.7548C7.16761 23.5978 7.25581 23.3848 7.25581 23.1628C7.25581 22.9408 7.16761 22.7278 7.0106 22.5708C6.85359 22.4138 6.64065 22.3256 6.4186 22.3256ZM23.1628 16.7442C22.9408 16.7442 22.7278 16.8324 22.5708 16.9894C22.4138 17.1464 22.3256 17.3594 22.3256 17.5814V22.3256H17.5814C17.3594 22.3256 17.1464 22.4138 16.9894 22.5708C16.8324 22.7278 16.7442 22.9408 16.7442 23.1628C16.7442 23.3848 16.8324 23.5978 16.9894 23.7548C17.1464 23.9118 17.3594 24 17.5814 24H23.1628C23.3848 24 23.5978 23.9118 23.7548 23.7548C23.9118 23.5978 24 23.3848 24 23.1628V17.5814C24 17.3594 23.9118 17.1464 23.7548 16.9894C23.5978 16.8324 23.3848 16.7442 23.1628 16.7442ZM6.4186 0H0.837209C0.615168 0 0.40222 0.0882056 0.245213 0.245213C0.0882056 0.40222 0 0.615168 0 0.837209V6.4186C0 6.64065 0.0882056 6.85359 0.245213 7.0106C0.40222 7.16761 0.615168 7.25581 0.837209 7.25581C1.05925 7.25581 1.2722 7.16761 1.42921 7.0106C1.58621 6.85359 1.67442 6.64065 1.67442 6.4186V1.67442H6.4186C6.64065 1.67442 6.85359 1.58621 7.0106 1.42921C7.16761 1.2722 7.25581 1.05925 7.25581 0.837209C7.25581 0.615168 7.16761 0.40222 7.0106 0.245213C6.85359 0.0882056 6.64065 0 6.4186 0Z"/>
		</symbol>
		<symbol id="secure">
			<path d="M18 10v-4c0-3.313-2.687-6-6-6s-6 2.687-6 6v4h-3v14h18v-14h-3zm-10-4c0-2.206 1.794-4 4-4 2.205 0 4 1.794 4 4v4h-8v-4zm3.408 14l-2.842-2.756 1.172-1.173 1.67 1.583 3.564-3.654 1.174 1.173-4.738 4.827z"/>
		</symbol>
		<symbol id="success">
			<path d="M22.9999 1.71735C22.9994 1.26204 22.8266 0.825529 22.5195 0.503575C22.2124 0.181621 21.7959 0.000519466 21.3616 0H2.63829C2.20394 0.000519466 1.78752 0.181621 1.48039 0.503575C1.17326 0.825529 1.0005 1.26204 1 1.71735V8.91393C1 19.7182 9.73957 23.303 11.4915 23.9121C11.8212 24.0293 12.1786 24.0293 12.5084 23.9121C14.2602 23.303 23 19.7181 23 8.91393L22.9999 1.71735ZM12.0664 22.5148C12.0236 22.5321 11.9762 22.5321 11.9335 22.5148C10.3421 21.9618 2.40425 18.7067 2.40425 8.91393V1.71735C2.40428 1.6523 2.42895 1.58991 2.47283 1.54391C2.51672 1.49791 2.57623 1.47205 2.63829 1.47202H21.3616C21.4236 1.47208 21.4831 1.49795 21.527 1.54395C21.5709 1.58994 21.5956 1.65231 21.5956 1.71735V8.91393C21.5956 18.7065 13.6578 21.9617 12.0664 22.5148ZM17.6567 7.09722C17.7204 7.16713 17.7703 7.2495 17.8036 7.33963C17.8369 7.42976 17.8529 7.52589 17.8508 7.62252C17.8486 7.71914 17.8284 7.81438 17.7911 7.9028C17.7539 7.99121 17.7004 8.07107 17.6337 8.13781L10.7684 15.0072C10.6378 15.1379 10.4642 15.2108 10.2837 15.2108C10.1031 15.2108 9.92951 15.1379 9.7989 15.0072L6.36633 11.5725C6.23394 11.4372 6.15782 11.2526 6.1545 11.0588C6.15118 10.865 6.22093 10.6776 6.34861 10.5374C6.47629 10.3972 6.65158 10.3154 6.83642 10.3099C7.02126 10.3043 7.20073 10.3754 7.33585 10.5078L10.2836 13.4573L16.6642 7.07305C16.7988 6.9383 16.9791 6.86515 17.1652 6.86968C17.3513 6.87421 17.5281 6.95606 17.6567 7.09722V7.09722Z"/>
		</symbol>
		<symbol id="check">
			<path fill-rule="evenodd" clip-rule="evenodd" d="M12 24C18.6274 24 24 18.6274 24 12C24 5.37258 18.6274 0 12 0C5.37258 0 0 5.37258 0 12C0 18.6274 5.37258 24 12 24ZM12 23C18.0751 23 23 18.0751 23 12C23 5.92487 18.0751 1 12 1C5.92487 1 1 5.92487 1 12C1 18.0751 5.92487 23 12 23Z"/>
		</symbol>
		<symbol id="checked">
			<circle cx="12" cy="12" r="6"/>
			<path fill-rule="evenodd" clip-rule="evenodd" d="M12 24C18.6274 24 24 18.6274 24 12C24 5.37258 18.6274 0 12 0C5.37258 0 0 5.37258 0 12C0 18.6274 5.37258 24 12 24ZM12 23C18.0751 23 23 18.0751 23 12C23 5.92487 18.0751 1 12 1C5.92487 1 1 5.92487 1 12C1 18.0751 5.92487 23 12 23Z"/>
		</symbol>
		<symbol id="whatsapp">
			<path d="M.057 24l1.687-6.163c-1.041-1.804-1.588-3.849-1.587-5.946.003-6.556 5.338-11.891 11.893-11.891 3.181.001 6.167 1.24 8.413 3.488 2.245 2.248 3.481 5.236 3.48 8.414-.003 6.557-5.338 11.892-11.893 11.892-1.99-.001-3.951-.5-5.688-1.448l-6.305 1.654zm6.597-3.807c1.676.995 3.276 1.591 5.392 1.592 5.448 0 9.886-4.434 9.889-9.885.002-5.462-4.415-9.89-9.881-9.892-5.452 0-9.887 4.434-9.889 9.884-.001 2.225.651 3.891 1.746 5.634l-.999 3.648 3.742-.981zm11.387-5.464c-.074-.124-.272-.198-.57-.347-.297-.149-1.758-.868-2.031-.967-.272-.099-.47-.149-.669.149-.198.297-.768.967-.941 1.165-.173.198-.347.223-.644.074-.297-.149-1.255-.462-2.39-1.475-.883-.788-1.48-1.761-1.653-2.059-.173-.297-.018-.458.13-.606.134-.133.297-.347.446-.521.151-.172.2-.296.3-.495.099-.198.05-.372-.025-.521-.075-.148-.669-1.611-.916-2.206-.242-.579-.487-.501-.669-.51l-.57-.01c-.198 0-.52.074-.792.372s-1.04 1.016-1.04 2.479 1.065 2.876 1.213 3.074c.149.198 2.095 3.2 5.076 4.487.709.306 1.263.489 1.694.626.712.226 1.36.194 1.872.118.571-.085 1.758-.719 2.006-1.413.248-.695.248-1.29.173-1.414z"/>
		</symbol>
		<symbol id="email">
			<path d="M0 3v18h24v-18h-24zm21.518 2l-9.518 7.713-9.518-7.713h19.036zm-19.518 14v-11.817l10 8.104 10-8.104v11.817h-20z"/>
		</symbol>
		<symbol id="gmail">
			<path d="M22.288 21h-20.576c-.945 0-1.712-.767-1.712-1.712v-13.576c0-.945.767-1.712 1.712-1.712h20.576c.945 0 1.712.767 1.712 1.712v13.576c0 .945-.767 1.712-1.712 1.712zm-10.288-6.086l-9.342-6.483-.02 11.569h18.684v-11.569l-9.322 6.483zm8.869-9.914h-17.789l8.92 6.229s6.252-4.406 8.869-6.229z"/>
		</symbol>
		<symbol id="copy">
			<path d="M22 6v16h-16v-16h16zm2-2h-20v20h20v-20zm-24 17v-21h21v2h-19v19h-2z"/>
		</symbol>
		<symbol id="more">
			<path d="M24 11.871l-5-4.871v3h-19v4h19v3z"/>
		</symbol>
		<symbol id="plus">
			<path fill-rule="evenodd" clip-rule="evenodd" d="M0 12C0 5.37258 5.37258 0 12 0C18.6274 0 24 5.37258 24 12C24 18.6274 18.6274 24 12 24C5.37258 24 0 18.6274 0 12ZM12 0.96C5.90278 0.96 0.96 5.90278 0.96 12C0.96 18.0972 5.90278 23.04 12 23.04C18.0972 23.04 23.04 18.0972 23.04 12C23.04 5.90278 18.0972 0.96 12 0.96ZM11.52 11.52V6.24H12.48V11.52H17.76V12.48H12.48V17.76H11.52V12.48H6.24V11.52H11.52Z"/>
		</symbol>
		<symbol id="minus">
			<path fill-rule="evenodd" clip-rule="evenodd" d="M0 12C0 5.37258 5.37258 0 12 0C18.6274 0 24 5.37258 24 12C24 18.6274 18.6274 24 12 24C5.37258 24 0 18.6274 0 12ZM12 0.96C5.90278 0.96 0.96 5.90278 0.96 12C0.96 18.0972 5.90278 23.04 12 23.04C18.0972 23.04 23.04 18.0972 23.04 12C23.04 5.90278 18.0972 0.96 12 0.96ZM17.76 12.48H6.24V11.52H17.76V12.48Z"/>
		</symbol>
		<symbol id="limited">
			<path d="M12 2.20295C13.4373 2.20295 14.8605 2.48485 16.1884 3.03255C17.5163 3.58026 18.7229 4.38304 19.7392 5.39506C20.7555 6.40708 21.5617 7.60852 22.1118 8.93079C22.6618 10.2531 22.9449 11.6703 22.9449 13.1015C22.9449 14.5327 22.6618 15.9499 22.1118 17.2722C21.5617 18.5944 20.7555 19.7959 19.7392 20.8079C18.7229 21.8199 17.5163 22.6227 16.1884 23.1704C14.8605 23.7181 13.4373 24 12 24C9.09723 24 6.31335 22.8518 4.26078 20.8079C2.20821 18.764 1.05509 15.9919 1.05509 13.1015C1.05509 10.211 2.20821 7.43893 4.26078 5.39506C6.31335 3.35119 9.09723 2.20295 12 2.20295V2.20295ZM12 3.65609C9.48427 3.65609 7.07157 4.65123 5.29268 6.42258C3.51378 8.19393 2.51441 10.5964 2.51441 13.1015C2.51441 15.6065 3.51378 18.009 5.29268 19.7804C7.07157 21.5517 9.48427 22.5469 12 22.5469C14.5157 22.5469 16.9284 21.5517 18.7073 19.7804C20.4862 18.009 21.4856 15.6065 21.4856 13.1015C21.4856 10.5964 20.4862 8.19393 18.7073 6.42258C16.9284 4.65123 14.5157 3.65609 12 3.65609V3.65609ZM11.2703 6.56236H12.7297V12.9024L17.1777 14.9673L16.5604 16.2838L11.2703 13.828V6.56236ZM17.4725 1.1131L18.4108 0L24 4.67038L23.0617 5.78348L17.4725 1.1131V1.1131ZM6.52755 1.1131L0.938344 5.78348L0 4.67038L5.5892 0L6.52755 1.1131Z"/>
		</symbol>
		<symbol id="bought">
			<path d="M1.14286 10.1536H4.57143C4.87453 10.1536 5.16522 10.2767 5.37955 10.4957C5.59388 10.7147 5.71429 11.0117 5.71429 11.3215V21.8321C5.71429 22.1419 5.59388 22.4389 5.37955 22.6579C5.16522 22.877 4.87453 23 4.57143 23H1.14286C0.839753 23 0.549062 22.877 0.334735 22.6579C0.120408 22.4389 0 22.1419 0 21.8321V11.3215C0 11.0117 0.120408 10.7147 0.334735 10.4957C0.549062 10.2767 0.839753 10.1536 1.14286 10.1536V10.1536ZM1.14286 11.3215V21.8321H4.57143V11.3215H1.14286ZM19.104 20.6935L22.5337 14.8542C22.7394 14.5039 22.8571 14.0951 22.8571 13.6572V12.4893C22.8571 11.8699 22.6163 11.2758 22.1877 10.8377C21.759 10.3997 21.1776 10.1536 20.5714 10.1536H14.16L15.8251 3.80051L15.8309 3.77949C15.8829 3.58154 15.8831 3.37308 15.8313 3.17506C15.7796 2.97703 15.6777 2.79641 15.536 2.65134L8.66857 9.66897C8.45607 9.88581 8.28762 10.1434 8.17288 10.427C8.05814 10.7106 7.99939 11.0146 8 11.3215V19.4964C8 20.1159 8.24082 20.71 8.66947 21.148C9.09813 21.5861 9.67951 21.8321 10.2857 21.8321H17.1429C17.9771 21.8321 18.7063 21.3767 19.104 20.6935ZM24 13.6572C24 14.3509 23.8034 14.9967 23.4629 15.5398L20.1417 21.1957C19.8449 21.7425 19.4103 22.1983 18.883 22.5155C18.3556 22.8328 17.7548 23.0001 17.1429 23H10.2857C9.3764 23 8.50433 22.6309 7.86135 21.9738C7.21837 21.3168 6.85714 20.4256 6.85714 19.4964V11.3215C6.85714 10.3545 7.24 9.47978 7.85943 8.84563L15.536 1L16.344 1.82567C16.6331 2.12113 16.8394 2.49045 16.9413 2.89511C17.0432 3.29977 17.0371 3.72495 16.9234 4.12634L15.6491 8.98577H20.5714C21.4807 8.98577 22.3528 9.3549 22.9958 10.0119C23.6388 10.669 24 11.5601 24 12.4893V13.6572Z"/>
		</symbol>
		<symbol id="left">
			<path d="M24 12.8462L3.24315 12.8462L12.1389 21.7308L11.0138 23L7.26778e-07 12L11.0138 0.999999L12.1389 2.26923L3.24315 11.1538L24 11.1538L24 12.8462Z"/>
		</symbol>
		<symbol id="right">
			<path d="M0 11.1538H20.7568L11.8611 2.26923L12.9862 1L24 12L12.9862 23L11.8611 21.7308L20.7568 12.8462H0V11.1538Z"/>
		</symbol>
		<symbol id="low">
			<path d="M7.56767 20.6285L12.0056 16.1906C12.1639 16.0378 12.3759 15.9532 12.5959 15.9551C12.8159 15.957 13.0264 16.0452 13.182 16.2009C13.3376 16.3565 13.4259 16.5669 13.4278 16.787C13.4297 17.007 13.3451 17.219 13.1923 17.3773L7.37129 23.1966C7.2924 23.2908 7.19379 23.3666 7.08242 23.4185C6.97105 23.4704 6.84963 23.4972 6.72675 23.4971H6.72508C6.61467 23.497 6.50536 23.4752 6.4034 23.4329C6.30144 23.3905 6.20884 23.3285 6.13089 23.2503L6.11411 23.2335L0.25621 17.3756C0.176054 17.2982 0.112119 17.2056 0.0681353 17.1032C0.0241515 17.0008 0.00100002 16.8907 3.16872e-05 16.7793C-0.000936642 16.6678 0.0202974 16.5573 0.0624951 16.4542C0.104693 16.351 0.167009 16.2573 0.245808 16.1785C0.324606 16.0997 0.418309 16.0374 0.521449 15.9952C0.624588 15.953 0.735099 15.9318 0.846533 15.9328C0.957967 15.9337 1.06809 15.9569 1.17048 16.0009C1.27287 16.0449 1.36548 16.1088 1.4429 16.1889L5.88751 20.6352V0.83924C5.88751 0.61666 5.97593 0.403196 6.13332 0.245808C6.29071 0.0884199 6.50417 0 6.72675 0C6.94933 0 7.1628 0.0884199 7.32019 0.245808C7.47757 0.403196 7.56599 0.61666 7.56599 0.83924V20.6285H7.56767ZM11.4114 1.67848C11.1888 1.67848 10.9753 1.7669 10.818 1.92429C10.6606 2.08168 10.5722 2.29514 10.5722 2.51772C10.5722 2.7403 10.6606 2.95377 10.818 3.11115C10.9753 3.26854 11.1888 3.35696 11.4114 3.35696H23.1608C23.3833 3.35696 23.5968 3.26854 23.7542 3.11115C23.9116 2.95377 24 2.7403 24 2.51772C24 2.29514 23.9116 2.08168 23.7542 1.92429C23.5968 1.7669 23.3833 1.67848 23.1608 1.67848H11.4114ZM11.4114 6.71392C11.1888 6.71392 10.9753 6.80234 10.818 6.95973C10.6606 7.11712 10.5722 7.33058 10.5722 7.55316C10.5722 7.77574 10.6606 7.98921 10.818 8.1466C10.9753 8.30398 11.1888 8.3924 11.4114 8.3924H19.8038C20.0264 8.3924 20.2398 8.30398 20.3972 8.1466C20.5546 7.98921 20.643 7.77574 20.643 7.55316C20.643 7.33058 20.5546 7.11712 20.3972 6.95973C20.2398 6.80234 20.0264 6.71392 19.8038 6.71392H11.4114ZM11.4114 11.7494C11.1888 11.7494 10.9753 11.8378 10.818 11.9952C10.6606 12.1526 10.5722 12.366 10.5722 12.5886C10.5722 12.8112 10.6606 13.0247 10.818 13.182C10.9753 13.3394 11.1888 13.4278 11.4114 13.4278H14.7684C14.9909 13.4278 15.2044 13.3394 15.3618 13.182C15.5192 13.0247 15.6076 12.8112 15.6076 12.5886C15.6076 12.366 15.5192 12.1526 15.3618 11.9952C15.2044 11.8378 14.9909 11.7494 14.7684 11.7494H11.4114Z"/>
		</symbol>
		<symbol id="high">
			<path d="M16.4323 2.86854L11.9944 7.30644C11.8361 7.45932 11.6241 7.54391 11.4041 7.542C11.1841 7.54008 10.9736 7.45182 10.818 7.29622C10.6624 7.14062 10.5741 6.93012 10.5722 6.71008C10.5703 6.49003 10.6549 6.27804 10.8077 6.11976L16.6287 0.300465C16.7076 0.206253 16.8062 0.130514 16.9176 0.0785979C17.029 0.0266823 17.1504 -0.000143903 17.2732 1.51933e-05L17.2749 1.51934e-05C17.3853 3.85922e-05 17.4946 0.0218456 17.5966 0.064185C17.6986 0.106524 17.7912 0.168566 17.8691 0.246754L17.8859 0.263539L23.7438 6.12144C23.8239 6.19885 23.8879 6.29146 23.9319 6.39385C23.9758 6.49624 23.999 6.60637 24 6.7178C24.0009 6.82923 23.9797 6.93974 23.9375 7.04288C23.8953 7.14602 23.833 7.23973 23.7542 7.31852C23.6754 7.39732 23.5817 7.45964 23.4786 7.50184C23.3754 7.54404 23.2649 7.56527 23.1535 7.5643C23.042 7.56333 22.9319 7.54018 22.8295 7.4962C22.7271 7.45221 22.6345 7.38828 22.5571 7.30812L18.1125 2.86183L18.1125 22.6578C18.1125 22.8804 18.0241 23.0939 17.8667 23.2513C17.7093 23.4086 17.4958 23.4971 17.2732 23.4971C17.0507 23.4971 16.8372 23.4086 16.6798 23.2513C16.5224 23.0939 16.434 22.8804 16.434 22.6578L16.434 2.86854L16.4323 2.86854ZM12.5886 21.8186C12.8112 21.8186 13.0247 21.7302 13.182 21.5728C13.3394 21.4154 13.4278 21.2019 13.4278 20.9793C13.4278 20.7568 13.3394 20.5433 13.182 20.3859C13.0247 20.2285 12.8112 20.1401 12.5886 20.1401L0.83924 20.1401C0.61666 20.1401 0.403195 20.2285 0.245807 20.3859C0.0884189 20.5433 -1.99992e-07 20.7568 -2.1945e-07 20.9793C-2.38909e-07 21.2019 0.0884188 21.4154 0.245807 21.5728C0.403195 21.7302 0.61666 21.8186 0.83924 21.8186L12.5886 21.8186ZM12.5886 16.7831C12.8112 16.7831 13.0247 16.6947 13.182 16.5373C13.3394 16.3799 13.4278 16.1665 13.4278 15.9439C13.4278 15.7213 13.3394 15.5079 13.182 15.3505C13.0247 15.1931 12.8112 15.1047 12.5886 15.1047L4.1962 15.1047C3.97362 15.1047 3.76016 15.1931 3.60277 15.3505C3.44538 15.5079 3.35696 15.7213 3.35696 15.9439C3.35696 16.1665 3.44538 16.3799 3.60277 16.5373C3.76016 16.6947 3.97362 16.7831 4.1962 16.7831L12.5886 16.7831ZM12.5886 11.7477C12.8112 11.7477 13.0247 11.6593 13.182 11.5019C13.3394 11.3445 13.4278 11.131 13.4278 10.9085C13.4278 10.6859 13.3394 10.4724 13.182 10.315C13.0247 10.1576 12.8112 10.0692 12.5886 10.0692L9.23165 10.0692C9.00907 10.0692 8.7956 10.1576 8.63821 10.315C8.48082 10.4724 8.3924 10.6859 8.3924 10.9085C8.3924 11.131 8.48082 11.3445 8.63821 11.5019C8.7956 11.6593 9.00906 11.7477 9.23165 11.7477L12.5886 11.7477Z"/>
		</symbol>
		<symbol id="new">
			<path d="M9.76631 0.243434L11.2027 0.809293C11.7151 1.01102 12.2849 1.01102 12.7973 0.809293L14.2337 0.243434C15.0793 -0.0891397 16.021 -0.0806574 16.8604 0.267096C17.6999 0.614849 18.3717 1.27474 18.7344 2.10787L19.3496 3.52251C19.5693 4.02737 19.9721 4.43022 20.477 4.64988L21.8916 5.26507C22.7251 5.62779 23.3853 6.29984 23.7331 7.13966C24.0808 7.97948 24.0891 8.92149 23.7561 9.76727L23.1902 11.2037C22.9889 11.7156 22.9889 12.2848 23.1902 12.7968L23.7561 14.2332C24.0887 15.0788 24.0802 16.0205 23.7324 16.8599C23.3847 17.6994 22.7248 18.3712 21.8916 18.734L20.477 19.3491C19.9721 19.5688 19.5693 19.9717 19.3496 20.4765L18.733 21.8912C18.3706 22.7245 17.6988 23.3847 16.8592 23.7325C16.0196 24.0802 15.0778 24.0885 14.2322 23.7556L12.7958 23.1897C12.2839 22.9884 11.7147 22.9884 11.2027 23.1897L9.76631 23.7556C8.9207 24.0882 7.97904 24.0797 7.13956 23.7319C6.30009 23.3842 5.62827 22.7243 5.26556 21.8912L4.65037 20.4765C4.4307 19.9717 4.02786 19.5688 3.523 19.3491L2.10835 18.734C1.27488 18.3712 0.614724 17.6992 0.266943 16.8594C-0.080838 16.0196 -0.0890911 15.0775 0.243922 14.2318L0.809781 12.7953C1.01113 12.2834 1.01113 11.7142 0.809781 11.2022L0.243922 9.76582C-0.0886523 8.92021 -0.0801701 7.97856 0.267583 7.13908C0.615336 6.2996 1.27523 5.62779 2.10835 5.26507L3.523 4.64988C4.02786 4.43022 4.4307 4.02737 4.65037 3.52251L5.26556 2.10787C5.62827 1.27474 6.30009 0.614849 7.13956 0.267096C7.97904 -0.0806574 8.9207 -0.0891397 9.76631 0.243434V0.243434ZM14.7647 1.59279L13.3283 2.15865C12.4746 2.4946 11.5254 2.4946 10.6717 2.15865L9.23527 1.59279C8.73932 1.39785 8.18708 1.40294 7.69481 1.60699C7.20254 1.81105 6.80864 2.19814 6.59605 2.68678L5.98086 4.10143C5.61476 4.94286 4.94335 5.61427 4.10192 5.98037L2.68727 6.59556C2.19854 6.80843 1.81151 7.20268 1.60771 7.69526C1.40391 8.18784 1.39926 8.74029 1.59473 9.23624L2.15914 10.6712C2.49509 11.5249 2.49509 12.4741 2.15914 13.3278L1.59328 14.7642C1.18847 15.7944 1.67163 16.9609 2.68727 17.4035L4.10192 18.0187C4.94335 18.3848 5.61476 19.0562 5.98086 19.8976L6.59605 21.3122C6.80891 21.801 7.20316 22.188 7.69575 22.3918C8.18833 22.5956 8.74078 22.6003 9.23672 22.4048L10.6717 21.8389C11.5254 21.503 12.4746 21.503 13.3283 21.8389L14.7647 22.4048C15.7949 22.811 16.9614 22.3279 17.404 21.3122L18.0191 19.8976C18.3852 19.0562 19.0567 18.3848 19.8981 18.0187L21.3127 17.4035C21.8015 17.1906 22.1885 16.7963 22.3923 16.3038C22.5961 15.8112 22.6007 15.2587 22.4053 14.7628L21.8394 13.3278C21.5035 12.4741 21.5035 11.5249 21.8394 10.6712L22.4053 9.23478C22.6003 8.73901 22.5954 8.18692 22.3916 7.69468C22.1879 7.20243 21.8011 6.80843 21.3127 6.59556L19.8981 5.98037C19.0567 5.61427 18.3852 4.94286 18.0191 4.10143L17.404 2.68678C17.1911 2.19805 16.7968 1.81102 16.3043 1.60722C15.8117 1.40342 15.2592 1.39877 14.7633 1.59424L14.7647 1.59279ZM10.5179 14.5698L15.8108 8.61524C15.9316 8.48159 16.0978 8.39766 16.2771 8.37978C16.4563 8.3619 16.6358 8.41135 16.7806 8.51851C16.9254 8.62566 17.0252 8.78286 17.0605 8.9595C17.0958 9.13615 17.0641 9.31961 16.9716 9.47419L16.8947 9.5801L11.091 16.1092C10.9739 16.2409 10.8129 16.3255 10.638 16.3471C10.4631 16.3687 10.2863 16.3259 10.1406 16.2268L10.0362 16.1397L7.13434 13.2379C7.00581 13.1099 6.92987 12.9385 6.92149 12.7573C6.9131 12.5761 6.97288 12.3984 7.08904 12.2591C7.20519 12.1198 7.36931 12.0291 7.54904 12.0048C7.72877 11.9805 7.91107 12.0245 8.06003 12.1279L8.16014 12.2121L10.5179 14.5698L15.8108 8.61524L10.5179 14.5698V14.5698Z"/>
		</symbol>
		<symbol id="popular">
			<path d="M12.9921 4L23.0862 4.004L23.2581 4.03399L23.3841 4.07399L23.5001 4.13397L23.6241 4.21796L23.7401 4.32594L23.82 4.42592L23.89 4.54189L23.954 4.69786L23.978 4.78385L24 4.95581V14.9979C23.9978 15.2459 23.9036 15.4842 23.7355 15.6666C23.5675 15.849 23.3377 15.9624 23.0907 15.9849C22.8437 16.0073 22.5971 15.9371 22.399 15.788C22.2008 15.6388 22.0652 15.4214 22.0184 15.1778L22.0024 14.9979L21.9984 7.41333L11.7144 17.7053C11.549 17.8709 11.3307 17.9733 11.0975 17.9945C10.8644 18.0157 10.6312 17.9544 10.4386 17.8213L10.3007 17.7053L7.00132 14.412L1.70835 19.7049C1.53201 19.8821 1.29572 19.9867 1.04604 19.9983C0.796357 20.0098 0.551404 19.9275 0.359452 19.7674C0.167499 19.6073 0.0424706 19.3811 0.00900506 19.1334C-0.0244605 18.8857 0.0360647 18.6345 0.178653 18.4292L0.292631 18.2892L6.29146 12.2904C6.45689 12.1248 6.67519 12.0224 6.90832 12.0012C7.14145 11.98 7.37462 12.0413 7.56721 12.1744L7.70718 12.2904L11.0065 15.5837L20.5847 5.99961H12.9921C12.7581 5.99969 12.5315 5.91768 12.3518 5.76788C12.172 5.61807 12.0505 5.40995 12.0083 5.17977L11.9923 4.9998C11.9923 4.73464 12.0977 4.48034 12.2852 4.29284C12.4727 4.10534 12.727 4 12.9921 4V4Z"/>
		</symbol>
		<symbol id="sort">
			<path d="M1.20555 8.14432L4.93674 4.41313V21.0511C4.93674 21.2382 5.01107 21.4177 5.1434 21.55C5.27572 21.6823 5.45519 21.7567 5.64233 21.7567C5.82947 21.7567 6.00894 21.6823 6.14126 21.55C6.27359 21.4177 6.34792 21.2382 6.34792 21.0511V4.40608L10.0862 8.14573C10.2187 8.27804 10.3983 8.35229 10.5855 8.35216C10.7728 8.35203 10.9523 8.27752 11.0846 8.14503C11.2169 8.01253 11.2911 7.83291 11.291 7.64567C11.2909 7.45843 11.2164 7.27891 11.0839 7.14661L6.15882 2.22156L6.14471 2.20745C6.07918 2.14171 6.00132 2.08955 5.9156 2.05395C5.82988 2.01835 5.73797 2.00002 5.64515 2H5.64233C5.53924 1.99998 5.43741 2.02259 5.34401 2.06623C5.25062 2.10988 5.16795 2.1735 5.10184 2.2526L0.206426 7.14661C0.140916 7.21221 0.0889678 7.29008 0.0535492 7.37576C0.0181305 7.46144 -6.53433e-05 7.55325 1.76313e-07 7.64596C6.56959e-05 7.73868 0.0183913 7.83047 0.053931 7.9161C0.0894708 8.00172 0.141528 8.07952 0.207132 8.14503C0.272735 8.21054 0.350599 8.26248 0.436279 8.2979C0.521958 8.33332 0.613775 8.35152 0.706486 8.35145C0.799198 8.35139 0.890989 8.33306 0.976618 8.29752C1.06225 8.26198 1.14004 8.20992 1.20555 8.14432V8.14432ZM22.7869 15.6123L19.0557 19.3435V2.70559C19.0557 2.51846 18.9814 2.33899 18.849 2.20666C18.7167 2.07434 18.5372 2 18.3501 2C18.163 2 17.9835 2.07434 17.8512 2.20666C17.7188 2.33899 17.6445 2.51846 17.6445 2.70559V19.3506L13.9048 15.6109C13.8392 15.5454 13.7614 15.4935 13.6757 15.458C13.59 15.4226 13.4982 15.4044 13.4055 15.4045C13.2183 15.4046 13.0387 15.4791 12.9064 15.6116C12.7741 15.7441 12.6999 15.9237 12.7 16.111C12.7001 16.2982 12.7746 16.4777 12.9071 16.61L17.8322 21.5351L17.8463 21.5492C17.9121 21.615 17.9902 21.6672 18.0762 21.7028C18.1621 21.7384 18.2542 21.7567 18.3473 21.7567H18.3501C18.4532 21.7566 18.555 21.7339 18.6483 21.6903C18.7417 21.6467 18.8244 21.5831 18.8906 21.5041L23.7846 16.61C23.852 16.545 23.9057 16.4671 23.9427 16.381C23.9797 16.2949 23.9992 16.2023 24 16.1087C24.0008 16.015 23.9829 15.9221 23.9475 15.8353C23.912 15.7486 23.8596 15.6698 23.7933 15.6036C23.7271 15.5373 23.6483 15.4849 23.5616 15.4495C23.4749 15.414 23.382 15.3961 23.2883 15.397C23.1946 15.3978 23.102 15.4172 23.0159 15.4542C22.9298 15.4912 22.852 15.5449 22.7869 15.6123Z"/>
		</symbol>
		<symbol id="alert">
			<path d="M12 2c5.514 0 10 4.486 10 10s-4.486 10-10 10-10-4.486-10-10 4.486-10 10-10zm0-2c-6.627 0-12 5.373-12 12s5.373 12 12 12 12-5.373 12-12-5.373-12-12-12zm-1.31 7.526c-.099-.807.528-1.526 1.348-1.526.771 0 1.377.676 1.28 1.451l-.757 6.053c-.035.283-.276.496-.561.496s-.526-.213-.562-.496l-.748-5.978zm1.31 10.724c-.69 0-1.25-.56-1.25-1.25s.56-1.25 1.25-1.25 1.25.56 1.25 1.25-.56 1.25-1.25 1.25z"/>
		</symbol>
		<symbol id="error">
			<path d="M12,4c4.41,0,8,3.59,8,8s-3.59,8-8,8s-8-3.59-8-8S7.59,4,12,4 M12,2C6.48,2,2,6.48,2,12s4.48,10,10,10s10-4.48,10-10 S17.52,2,12,2L12,2z M10,11V8c0-0.55-0.45-1-1-1h0C8.45,7,8,7.45,8,8v3c0,0.55,0.45,1,1,1h0C9.55,12,10,11.55,10,11z M16,11V8 c0-0.55-0.45-1-1-1h0c-0.55,0-1,0.45-1,1v3c0,0.55,0.45,1,1,1h0C15.55,12,16,11.55,16,11z M14,16c0-1.1-0.9-2-2-2h0 c-1.1,0-2,0.9-2,2v2h4V16z"/>
		</symbol>
		<symbol id="blog">
			<path d="M3.78947 0H20.2105C21.2156 0 22.1794 0.386309 22.8901 1.07394C23.6008 1.76158 24 2.69421 24 3.66667V14.6667C24 15.6391 23.6008 16.5718 22.8901 17.2594C22.1794 17.947 21.2156 18.3333 20.2105 18.3333H15.7895L12 22L8.21053 18.3333H3.78947C2.78444 18.3333 1.82058 17.947 1.10991 17.2594C0.399247 16.5718 0 15.6391 0 14.6667V3.66667C0 2.69421 0.399247 1.76158 1.10991 1.07394C1.82058 0.386309 2.78444 0 3.78947 0V0ZM3.78947 1.22222C3.11945 1.22222 2.47687 1.47976 2.0031 1.93818C1.52932 2.39661 1.26316 3.01836 1.26316 3.66667V14.6667C1.26316 15.315 1.52932 15.9367 2.0031 16.3951C2.47687 16.8536 3.11945 17.1111 3.78947 17.1111H8.73347L12 20.2718L15.2665 17.1111H20.2105C20.8805 17.1111 21.5231 16.8536 21.9969 16.3951C22.4707 15.9367 22.7368 15.315 22.7368 14.6667V3.66667C22.7368 3.01836 22.4707 2.39661 21.9969 1.93818C21.5231 1.47976 20.8805 1.22222 20.2105 1.22222H3.78947ZM3.78947 4.88889H20.2105V6.11111H3.78947V4.88889ZM3.78947 8.55556H18.9474V9.77778H3.78947V8.55556ZM3.78947 12.2222H13.8947V13.4444H3.78947V12.2222Z"/>
		</symbol>
		<symbol id="notification">
			<path d="M19.6145 10.2553C19.6231 8.011 18.7279 5.85495 17.1254 4.25995C15.5228 2.66495 13.3437 1.76121 11.0658 1.7469L10.9999 1.74668C8.71246 1.74969 6.51993 2.6478 4.90459 4.24347C3.28926 5.83913 2.38343 8.00164 2.38637 10.2553C2.38637 14.0495 1.58642 16.2018 0.915129 17.3394C0.777716 17.5713 0.704781 17.8347 0.703678 18.1032C0.702574 18.3717 0.77334 18.6358 0.908842 18.8687C1.04434 19.1017 1.23979 19.2954 1.47548 19.4302C1.71117 19.565 1.97876 19.6362 2.25129 19.6366H6.79266V19.8548C6.79266 20.9542 7.23593 22.0085 8.02496 22.7859C8.81399 23.5633 9.88414 24 11 24C12.1159 24 13.186 23.5633 13.975 22.7859C14.7641 22.0085 15.2073 20.9542 15.2073 19.8548V19.6366H19.7487C20.0212 19.6362 20.2888 19.565 20.5245 19.4303C20.7602 19.2955 20.9556 19.1019 21.0911 18.8689C21.2266 18.636 21.2974 18.372 21.2963 18.1035C21.2952 17.835 21.2223 17.5716 21.0849 17.3397C20.414 16.2022 19.6145 14.0497 19.6145 10.2553ZM13.8787 19.8548C13.8787 20.607 13.5754 21.3284 13.0355 21.8603C12.4957 22.3922 11.7635 22.691 11 22.691C10.2365 22.691 9.50431 22.3922 8.96445 21.8603C8.42459 21.3284 8.12129 20.607 8.12129 19.8548V19.6366H13.8787V19.8548ZM19.9371 18.22C19.9187 18.2532 19.8914 18.2807 19.8581 18.2997C19.8249 18.3186 19.7871 18.3283 19.7487 18.3276H2.25129C2.2129 18.3283 2.17504 18.3186 2.14181 18.2997C2.10857 18.2807 2.08123 18.2532 2.06273 18.22C2.04225 18.1863 2.03153 18.1478 2.03173 18.1085C2.03192 18.0692 2.04303 18.0308 2.06384 17.9973C2.81707 16.7207 3.715 14.3411 3.715 10.2553C3.71206 8.34876 4.47795 6.51915 5.84419 5.16897C7.21044 3.81878 9.06511 3.05862 11.0002 3.0557L11.0558 3.05592C12.983 3.06766 14.8268 3.83236 16.1823 5.18215C17.5378 6.53194 18.2943 8.3565 18.2858 10.2553C18.2858 14.3411 19.1833 16.7207 19.9362 17.9974C19.9569 18.0309 19.968 18.0693 19.9681 18.1085C19.9683 18.1477 19.9576 18.1864 19.9371 18.22ZM21.6293 5.83584C21.551 5.87384 21.4659 5.89628 21.3789 5.90187C21.2918 5.90746 21.2045 5.8961 21.1219 5.86844C21.0393 5.84077 20.963 5.79734 20.8974 5.74063C20.8319 5.68392 20.7783 5.61504 20.7398 5.53793C19.8517 3.7625 18.4823 2.2639 16.783 1.20813C16.634 1.11549 16.5284 0.968328 16.4895 0.799012C16.4506 0.629696 16.4816 0.452099 16.5757 0.305288C16.6697 0.158477 16.8191 0.0544788 16.9909 0.0161723C17.1628 -0.0221341 17.343 0.00838858 17.492 0.101026C19.3987 1.28573 20.9353 2.96729 21.9316 4.95945C22.0095 5.11517 22.0214 5.29498 21.9646 5.45933C21.9079 5.62368 21.7873 5.75911 21.6293 5.83584ZM0.663796 5.90325C0.550936 5.90315 0.439964 5.87472 0.341345 5.82065C0.242726 5.76658 0.159712 5.68865 0.100131 5.59422C0.0405507 5.49978 0.00636796 5.39195 0.000807122 5.28089C-0.00475372 5.16983 0.0184906 5.0592 0.0683477 4.95945C1.06471 2.96729 2.60131 1.28573 4.50797 0.101026C4.58174 0.0551494 4.66397 0.0240388 4.74995 0.00947019C4.83593 -0.00509841 4.92398 -0.0028395 5.00907 0.0161178C5.09416 0.0350751 5.17463 0.0703595 5.24588 0.119957C5.31714 0.169554 5.37777 0.232492 5.42434 0.305178C5.4709 0.377865 5.50248 0.458875 5.51727 0.543585C5.53205 0.628294 5.52976 0.715044 5.51052 0.79888C5.49128 0.882717 5.45546 0.961999 5.40512 1.0322C5.35478 1.1024 5.2909 1.16214 5.21713 1.20802C3.51779 2.26381 2.14826 3.76245 1.26024 5.53793C1.2054 5.64765 1.12045 5.74005 1.01504 5.80464C0.909615 5.86923 0.787938 5.90332 0.663796 5.90325Z"/>
		</symbol>
		<symbol id="account">
			<path d="M23.906 21.9434C22.1007 18.812 19.1539 16.5134 15.6922 15.5362C17.3261 14.7005 18.6329 13.3347 19.4018 11.6592C20.1707 9.98376 20.3568 8.09627 19.9302 6.3012C19.5036 4.50613 18.4891 2.90813 17.0503 1.76493C15.6115 0.621738 13.8324 0 11.9998 0C10.1673 0 8.38812 0.621738 6.94935 1.76493C5.51059 2.90813 4.49608 4.50613 4.06946 6.3012C3.64284 8.09627 3.82898 9.98376 4.59786 11.6592C5.36673 13.3347 6.67352 14.7005 8.30745 15.5362C4.84586 16.5134 1.8992 18.8119 0.0939761 21.9432C0.00113518 22.1048 -0.0241623 22.2969 0.0236485 22.4773C0.0714594 22.6577 0.188462 22.8116 0.348918 22.9051C0.509374 22.9986 0.700139 23.0241 0.879246 22.9759C1.05835 22.9278 1.21113 22.8099 1.30397 22.6483C2.38835 20.7577 3.94761 19.1878 5.82512 18.0963C7.70264 17.0048 9.83227 16.4302 12.0001 16.4303C14.1679 16.4303 16.2975 17.0049 18.175 18.0964C20.0525 19.188 21.6117 20.7579 22.696 22.6486C22.7889 22.8102 22.9416 22.928 23.1208 22.9762C23.2999 23.0243 23.4906 22.9989 23.6511 22.9053C23.8115 22.8118 23.9285 22.658 23.9764 22.4776C24.0242 22.2972 23.9989 22.105 23.906 21.9434V21.9434ZM5.24337 8.21695C5.24337 6.871 5.63963 5.55527 6.38205 4.43615C7.12446 3.31703 8.17969 2.44479 9.41428 1.92971C10.6489 1.41464 12.0074 1.27987 13.318 1.54245C14.6286 1.80504 15.8325 2.45317 16.7775 3.40491C17.7224 4.35664 18.3659 5.56922 18.6266 6.88931C18.8873 8.2094 18.7535 9.57771 18.2421 10.8212C17.7307 12.0647 16.8647 13.1275 15.7536 13.8753C14.6425 14.6231 13.3362 15.0222 11.9999 15.0222C10.2086 15.0202 8.49121 14.3025 7.22456 13.0267C5.9579 11.7509 5.24541 10.0212 5.24337 8.21695V8.21695Z"/>
		</symbol>
		<symbol id="cart">
			<path d="M22.6128 12.8965L23.989 5.32822C24.0068 5.23036 24.0029 5.12978 23.9775 5.0336C23.9522 4.93741 23.906 4.84798 23.8422 4.77161C23.7785 4.69524 23.6988 4.63381 23.6086 4.59165C23.5185 4.54949 23.4203 4.52763 23.3208 4.52763H4.86884L4.28208 1.30124C4.21584 0.936041 4.02343 0.6057 3.73844 0.367876C3.45344 0.130052 3.09397 -0.000148211 2.72276 1.2661e-07H0.679246C0.499099 1.2661e-07 0.32633 0.0715525 0.198947 0.198917C0.0715632 0.326281 0 0.499024 0 0.679144C0 0.859264 0.0715632 1.03201 0.198947 1.15937C0.32633 1.28674 0.499099 1.35829 0.679246 1.35829H2.72264C2.7757 1.35821 2.8271 1.37678 2.86784 1.41076C2.90859 1.44473 2.9361 1.49195 2.94555 1.54415L6.07688 18.7648C5.63411 19.1215 5.30417 19.5988 5.12691 20.1391C4.94966 20.6793 4.93268 21.2593 5.07803 21.8089C5.22337 22.3586 5.52483 22.8544 5.94596 23.2365C6.3671 23.6185 6.88988 23.8704 7.45113 23.9618C8.01238 24.0531 8.58808 23.98 9.10866 23.7512C9.62923 23.5224 10.0724 23.1478 10.3846 22.6726C10.6968 22.1974 10.8646 21.6419 10.8679 21.0734C10.8711 20.5049 10.7096 19.9475 10.4029 19.4688H17.2198C16.8681 20.0194 16.7097 20.6713 16.7696 21.3218C16.8295 21.9723 17.1042 22.5844 17.5505 23.0615C17.9968 23.5387 18.5892 23.8537 19.2343 23.957C19.8795 24.0602 20.5406 23.9458 21.1136 23.6318C21.6865 23.3178 22.1386 22.8221 22.3986 22.2227C22.6586 21.6234 22.7116 20.9546 22.5494 20.3218C22.3872 19.689 22.0189 19.1282 21.5026 18.7278C20.9864 18.3274 20.3515 18.1102 19.6981 18.1105H7.3388L6.76257 14.9412H20.1625C20.7458 14.9414 21.3107 14.7368 21.7585 14.3631C22.2063 13.9894 22.5087 13.4703 22.6128 12.8965V12.8965ZM9.50945 21.0535C9.50945 21.3669 9.41649 21.6733 9.24234 21.9339C9.06819 22.1945 8.82066 22.3976 8.53106 22.5175C8.24145 22.6374 7.92278 22.6688 7.61534 22.6077C7.3079 22.5465 7.02549 22.3956 6.80384 22.174C6.58219 21.9524 6.43124 21.67 6.37008 21.3626C6.30893 21.0552 6.34032 20.7366 6.46027 20.447C6.58023 20.1575 6.78337 19.91 7.04401 19.7359C7.30465 19.5617 7.61107 19.4688 7.92454 19.4688C8.34473 19.4693 8.74758 19.6364 9.04471 19.9335C9.34183 20.2305 9.50897 20.6333 9.50945 21.0535ZM21.283 21.0535C21.283 21.3669 21.1901 21.6733 21.0159 21.9339C20.8418 22.1945 20.5943 22.3976 20.3047 22.5175C20.0151 22.6374 19.6964 22.6688 19.3889 22.6077C19.0815 22.5465 18.7991 22.3956 18.5774 22.174C18.3558 21.9524 18.2048 21.67 18.1437 21.3626C18.0825 21.0552 18.1139 20.7366 18.2339 20.447C18.3538 20.1575 18.557 19.91 18.8176 19.7359C19.0782 19.5617 19.3847 19.4688 19.6981 19.4688C20.1183 19.4693 20.5212 19.6364 20.8183 19.9335C21.1154 20.2305 21.2826 20.6333 21.283 21.0535V21.0535ZM5.11586 5.88592H22.5068L21.2763 12.6536C21.2289 12.9144 21.0915 13.1503 20.8879 13.3202C20.6844 13.49 20.4276 13.583 20.1625 13.5829H6.51544L5.11586 5.88592Z"/>
		</symbol>
		<symbol id="search">
			<path d="M23.7974 22.8001L18.5631 17.5662C20.3728 15.4983 21.308 12.808 21.171 10.0635C21.0341 7.319 19.8357 4.73517 17.8291 2.85767C15.8225 0.980173 13.1646 -0.0439985 10.4169 0.00145045C7.66918 0.0468994 5.04667 1.15841 3.10324 3.10124C1.1598 5.04408 0.0475921 7.66613 0.00149219 10.4136C-0.0446077 13.1612 0.979012 15.819 2.85617 17.826C4.73334 19.8329 7.31708 21.0318 10.0617 21.1693C12.8064 21.3069 15.4971 20.3725 17.5656 18.5634L22.8002 23.7975C22.9328 23.928 23.1116 24.0008 23.2977 24C23.4837 23.9992 23.6619 23.925 23.7935 23.7934C23.925 23.6618 23.9993 23.4836 24 23.2976C24.0007 23.1115 23.9279 22.9327 23.7974 22.8001ZM1.43589 10.6047C1.43589 8.79141 1.97362 7.01888 2.98108 5.51122C3.98854 4.00356 5.42048 2.82849 7.09582 2.13459C8.77116 1.44069 10.6147 1.25913 12.3932 1.61288C14.1717 1.96663 15.8054 2.83979 17.0877 4.12195C18.3699 5.40411 19.2432 7.03767 19.5969 8.81608C19.9507 10.5945 19.7691 12.4378 19.0752 14.1131C18.3812 15.7883 17.2061 17.2201 15.6983 18.2275C14.1905 19.2349 12.4179 19.7726 10.6045 19.7726C8.17367 19.7699 5.84319 18.8031 4.12434 17.0843C2.40548 15.3656 1.43863 13.0353 1.43589 10.6047V10.6047Z"/>
		</symbol>
		<symbol id="close">
			<path d="M23.5073 21.081C23.8247 21.4037 24.0018 21.8387 24 22.2913C23.9981 22.7439 23.8175 23.1774 23.4975 23.4975C23.1774 23.8175 22.7439 23.9981 22.2913 24C21.8387 24.0018 21.4037 23.8247 21.081 23.5073L12 14.4264L2.91896 23.5073C2.59632 23.8247 2.16132 24.0018 1.70871 24C1.2561 23.9981 0.82256 23.8175 0.502516 23.4975C0.182472 23.1774 0.00185722 22.7439 1.42429e-05 22.2913C-0.00182873 21.8387 0.175249 21.4037 0.492676 21.081L9.57357 12L0.492676 2.91896C0.175249 2.59632 -0.00182873 2.16132 1.42429e-05 1.70871C0.00185722 1.2561 0.182472 0.82256 0.502516 0.502516C0.82256 0.182472 1.2561 0.00185722 1.70871 1.42429e-05C2.16132 -0.00182873 2.59632 0.175249 2.91896 0.492676L12 9.57357L21.081 0.492676C21.4037 0.175249 21.8387 -0.00182873 22.2913 1.42429e-05C22.7439 0.00185722 23.1774 0.182472 23.4975 0.502516C23.8175 0.82256 23.9981 1.2561 24 1.70871C24.0018 2.16132 23.8247 2.59632 23.5073 2.91896L14.4264 12L23.5073 21.081Z"/>
		</symbol>
		<symbol id="cancel">
			<path d="M12 0c-6.627 0-12 5.373-12 12s5.373 12 12 12 12-5.373 12-12-5.373-12-12-12zm5.5 16.084l-1.403 1.416-4.09-4.096-4.102 4.096-1.405-1.405 4.093-4.092-4.093-4.098 1.405-1.405 4.088 4.089 4.091-4.089 1.416 1.403-4.092 4.087 4.092 4.094z"/>
		</symbol>
		<symbol id="caret">
			<path d="M23.6805 1.84938L12.7714 12.6827C12.6701 12.7833 12.5498 12.8631 12.4175 12.9175C12.2851 12.972 12.1433 13 12 13C11.8567 13 11.7149 12.972 11.5825 12.9175C11.4502 12.8631 11.3299 12.7833 11.2286 12.6827L0.319539 1.84938C0.166965 1.69787 0.0630602 1.50484 0.0209641 1.29469C-0.021132 1.08454 0.000471587 0.86671 0.0830429 0.668752C0.165614 0.470795 0.305445 0.301599 0.48485 0.182562C0.664256 0.0635244 0.875179 -7.80695e-06 1.09095 7.19544e-10H22.9091C23.1248 -7.80695e-06 23.3357 0.0635244 23.5152 0.182562C23.6946 0.301599 23.8344 0.470795 23.917 0.668752C23.9995 0.86671 24.0211 1.08454 23.979 1.29469C23.9369 1.50484 23.833 1.69787 23.6805 1.84938Z"/>
		</symbol>
		<symbol id="next">
			<path d="M6 0L18 12L6 24V0Z"/>
		</symbol>
		<symbol id="previous">
			<path d="M18 24L6 12L18 0L18 24Z"/>
		</symbol>
		<symbol id="order">
			<path d="M16.4706 7.23793C16.4706 7.42371 16.3962 7.60187 16.2638 7.73323C16.1315 7.86459 15.9519 7.93839 15.7647 7.93839H8.23529C8.04808 7.93839 7.86854 7.86459 7.73616 7.73323C7.60378 7.60187 7.52941 7.42371 7.52941 7.23793C7.52941 7.05216 7.60378 6.874 7.73616 6.74264C7.86854 6.61127 8.04808 6.53748 8.23529 6.53748H15.7647C15.9519 6.53748 16.1315 6.61127 16.2638 6.74264C16.3962 6.874 16.4706 7.05216 16.4706 7.23793V7.23793ZM15.7647 10.2732H8.23529C8.04808 10.2732 7.86854 10.347 7.73616 10.4784C7.60378 10.6098 7.52941 10.7879 7.52941 10.9737C7.52941 11.1595 7.60378 11.3376 7.73616 11.469C7.86854 11.6004 8.04808 11.6742 8.23529 11.6742H15.7647C15.9519 11.6742 16.1315 11.6004 16.2638 11.469C16.3962 11.3376 16.4706 11.1595 16.4706 10.9737C16.4706 10.7879 16.3962 10.6098 16.2638 10.4784C16.1315 10.347 15.9519 10.2732 15.7647 10.2732ZM24 1.6344V16.5775C23.9995 17.0108 23.8258 17.4262 23.517 17.7326C23.2082 18.039 22.7895 18.2114 22.3528 18.2119H15.3564C15.3157 18.212 15.2758 18.2224 15.2405 18.2423C15.2051 18.2621 15.1755 18.2906 15.1545 18.3251L13.4121 21.2067C13.2658 21.4486 13.0588 21.6489 12.8113 21.7879C12.5638 21.9269 12.2843 22 11.9999 22C11.7155 22 11.436 21.9269 11.1885 21.7879C10.941 21.6489 10.734 21.4486 10.5876 21.2067L8.84529 18.3252C8.8243 18.2907 8.79471 18.2622 8.75938 18.2423C8.72404 18.2224 8.68415 18.2119 8.64353 18.2117H1.64706C1.21038 18.2113 0.791738 18.0389 0.482963 17.7325C0.174187 17.4261 0.000498203 17.0107 0 16.5774V1.6344C0.000498203 1.20108 0.174187 0.785652 0.482963 0.47925C0.791738 0.172848 1.21038 0.000494373 1.64706 0H22.3529C22.7896 0.000494373 23.2083 0.172848 23.517 0.47925C23.8258 0.785652 23.9995 1.20108 24 1.6344V1.6344ZM22.5882 1.6344C22.5881 1.5725 22.5633 1.51317 22.5192 1.4694C22.4751 1.42563 22.4153 1.40101 22.3529 1.40091H1.64706C1.58468 1.40101 1.52489 1.42563 1.48078 1.4694C1.43668 1.51317 1.41186 1.5725 1.41176 1.6344V16.5774C1.41186 16.6392 1.43668 16.6986 1.48078 16.7423C1.52489 16.7861 1.58468 16.8107 1.64706 16.8108H8.64353C8.92781 16.8116 9.20709 16.8851 9.45446 17.0241C9.70183 17.1631 9.90896 17.363 10.0559 17.6045L11.7982 20.4859C11.8191 20.5205 11.8487 20.5491 11.8841 20.569C11.9194 20.5888 11.9594 20.5993 12 20.5993C12.0406 20.5993 12.0806 20.5888 12.1159 20.569C12.1513 20.5491 12.1809 20.5205 12.2018 20.4859L13.9441 17.6045C14.091 17.363 14.2981 17.1632 14.5455 17.0242C14.7928 16.8852 15.072 16.8118 15.3562 16.811H22.3529C22.4153 16.8109 22.4752 16.7863 22.5193 16.7425C22.5634 16.6987 22.5883 16.6394 22.5884 16.5775L22.5882 1.6344Z"/>
		</symbol>
		<symbol id="credit">
			<path d="M23.3208 18.6667H22.1887V0.666667C22.1887 0.489856 22.1171 0.320286 21.9897 0.195262C21.8624 0.0702378 21.6896 0 21.5094 0H15.1698C14.9897 0 14.8169 0.0702378 14.6895 0.195262C14.5621 0.320286 14.4906 0.489856 14.4906 0.666667V5.33333H8.83019C8.65004 5.33333 8.47727 5.40357 8.34989 5.5286C8.22251 5.65362 8.15094 5.82319 8.15094 6V10.6667H2.49057C2.31042 10.6667 2.13765 10.7369 2.01027 10.8619C1.88288 10.987 1.81132 11.1565 1.81132 11.3333V18.6667H0.679245C0.499098 18.6667 0.326329 18.7369 0.198946 18.8619C0.0715631 18.987 0 19.1565 0 19.3333C0 19.5101 0.0715631 19.6797 0.198946 19.8047C0.326329 19.9298 0.499098 20 0.679245 20H23.3208C23.5009 20 23.6737 19.9298 23.8011 19.8047C23.9284 19.6797 24 19.5101 24 19.3333C24 19.1565 23.9284 18.987 23.8011 18.8619C23.6737 18.7369 23.5009 18.6667 23.3208 18.6667ZM9.50943 6.66667H14.4906V18.6667H9.50943V6.66667ZM3.16981 12H8.15094V18.6667H3.16981V12ZM15.8491 18.6667V1.33333H20.8302V18.6667H15.8491Z"/>
		</symbol>
		<symbol id="setting">
			<path d="M11.9999 5.91003C10.7954 5.91003 9.61798 6.2672 8.61649 6.93637C7.61501 7.60553 6.83445 8.55665 6.37351 9.66944C5.91258 10.7822 5.79198 12.0067 6.02696 13.188C6.26194 14.3694 6.84195 15.4545 7.69365 16.3062C8.54534 17.1579 9.63046 17.7379 10.8118 17.9728C11.9931 18.2078 13.2176 18.0872 14.3304 17.6263C15.4432 17.1654 16.3943 16.3848 17.0635 15.3833C17.7327 14.3818 18.0898 13.2044 18.0898 11.9999C18.088 10.3853 17.4458 8.83739 16.3041 7.6957C15.1624 6.55401 13.6145 5.91182 11.9999 5.91003ZM11.9999 16.7365C11.0631 16.7365 10.1473 16.4587 9.36836 15.9383C8.58943 15.4178 7.98232 14.6781 7.62382 13.8126C7.26531 12.9471 7.17151 11.9947 7.35428 11.0759C7.53704 10.1571 7.98816 9.31309 8.65059 8.65066C9.31301 7.98824 10.157 7.53712 11.0758 7.35436C11.9946 7.17159 12.947 7.2654 13.8125 7.6239C14.678 7.9824 15.4178 8.5895 15.9382 9.36843C16.4587 10.1474 16.7365 11.0631 16.7365 11.9999C16.7351 13.2557 16.2356 14.4597 15.3476 15.3476C14.4596 16.2356 13.2557 16.7351 11.9999 16.7365ZM23.8647 14.6621L22.1404 12.3634C22.1452 12.1182 22.1415 11.8354 22.1377 11.64L23.8639 9.33854C23.9255 9.25634 23.9677 9.16118 23.9871 9.06027C24.0065 8.95937 24.0026 8.85537 23.9759 8.75616C23.6993 7.73122 23.2916 6.74623 22.7631 5.82556C22.7118 5.73647 22.641 5.6602 22.5559 5.60256C22.4709 5.54492 22.3738 5.50741 22.272 5.49287L19.432 5.08722C19.2651 4.90794 19.0918 4.73468 18.9125 4.56777L18.5071 1.72908C18.4926 1.62735 18.4551 1.53026 18.3974 1.44518C18.3398 1.3601 18.2635 1.28927 18.1744 1.23805C17.2541 0.708909 16.2694 0.300674 15.2447 0.0234547C15.1455 -0.00337464 15.0414 -0.00724383 14.9405 0.0121407C14.8395 0.0315252 14.7443 0.0736539 14.6621 0.135329L12.3671 1.85674C12.1223 1.84793 11.8773 1.84793 11.6325 1.85674L9.33858 0.136118C9.25636 0.0744604 9.16117 0.0323412 9.06024 0.012957C8.95932 -0.00642721 8.8553 -0.00256719 8.75609 0.0242441C7.73113 0.30077 6.74613 0.708361 5.82547 1.23693C5.73637 1.28813 5.66011 1.35897 5.60246 1.44405C5.54482 1.52912 5.50731 1.62622 5.49278 1.72795L5.08713 4.56799C4.90796 4.73468 4.73477 4.90783 4.56756 5.08744L1.72909 5.49287C1.62737 5.5074 1.53029 5.5449 1.44521 5.60252C1.36013 5.66014 1.28929 5.73638 1.23806 5.82545C0.708869 6.74579 0.300631 7.73056 0.0234533 8.75537C-0.00337497 8.85458 -0.00724362 8.9586 0.0121412 9.05953C0.031526 9.16046 0.0736547 9.25565 0.135328 9.33786L1.85957 11.6366C1.85483 11.8819 1.85844 12.1646 1.86228 12.36L0.136005 14.6615C0.0743519 14.7437 0.0322266 14.8388 0.0128233 14.9397C-0.00658 15.0406 -0.00275188 15.1446 0.0240173 15.2438C0.300569 16.2687 0.708161 17.2537 1.2367 18.1743C1.28791 18.2635 1.35875 18.3398 1.44385 18.3975C1.52895 18.4552 1.62607 18.4927 1.72785 18.5072L4.5679 18.9128C4.73459 19.0919 4.90773 19.265 5.08735 19.4322L5.49278 22.2709C5.5073 22.3727 5.54481 22.4698 5.60245 22.5548C5.6601 22.6399 5.73637 22.7107 5.82547 22.7619C6.74576 23.2911 7.73045 23.6993 8.75519 23.9765C8.85442 24.0034 8.95845 24.0072 9.0594 23.9879C9.16035 23.9685 9.25556 23.9263 9.33779 23.8647L11.6328 22.1433C11.8776 22.1521 12.1226 22.1521 12.3674 22.1433L14.6613 23.8639C14.7435 23.9256 14.8387 23.9677 14.9396 23.9871C15.0406 24.0065 15.1446 24.0026 15.2438 23.9758C16.2687 23.6992 17.2537 23.2917 18.1743 22.7631C18.2634 22.7119 18.3397 22.6411 18.3974 22.556C18.455 22.4709 18.4926 22.3738 18.5071 22.272L18.9134 19.4273C19.0864 19.2592 19.2562 19.0881 19.423 18.9139L22.2709 18.5071C22.3726 18.4926 22.4697 18.4551 22.5548 18.3975C22.6399 18.3399 22.7107 18.2636 22.7619 18.1746C23.2911 17.2542 23.6993 16.2694 23.9765 15.2446C24.0034 15.1454 24.0072 15.0414 23.9879 14.9405C23.9685 14.8395 23.9263 14.7443 23.8647 14.6621ZM21.7471 17.2149L18.9993 17.6074C18.8474 17.6292 18.7074 17.7018 18.6022 17.8136C18.461 17.9635 18.0467 18.3954 17.8287 18.5883C17.7085 18.6947 17.6301 18.8405 17.6075 18.9994L17.215 21.7479C16.5741 22.0909 15.9006 22.3696 15.2047 22.5797L12.9843 20.9143C12.856 20.818 12.6976 20.7704 12.5374 20.7802C12.1795 20.8018 11.8206 20.8018 11.4627 20.7802C11.3025 20.7705 11.144 20.8181 11.0157 20.9144L8.79466 22.5803C8.09886 22.3696 7.42567 22.0905 6.78498 21.747L6.39251 18.9995C6.36983 18.8406 6.29141 18.695 6.17125 18.5886C5.90291 18.3508 5.64919 18.0971 5.41147 17.8288C5.30506 17.7086 5.1594 17.6302 5.00051 17.6075L2.25203 17.2151C1.90896 16.5741 1.63032 15.9007 1.42019 15.2047L3.08556 12.9844C3.17764 12.8616 3.22525 12.7111 3.22056 12.5577C3.21436 12.3516 3.20195 11.7531 3.21954 11.4628C3.2293 11.3026 3.18177 11.1441 3.08545 11.0157L1.41952 8.79485C1.63017 8.09904 1.90935 7.42585 2.25294 6.78517L5.00029 6.39271C5.15923 6.37001 5.30493 6.29154 5.41136 6.17133C5.64906 5.90299 5.90279 5.64927 6.17113 5.41156C6.29132 5.30517 6.36975 5.15951 6.3924 5.0006L6.78486 2.25214C7.42583 1.90907 8.09925 1.63043 8.79522 1.4203L11.0155 3.08567C11.1439 3.18192 11.3023 3.22944 11.4625 3.21976C11.8204 3.19817 12.1793 3.19817 12.5372 3.21976C12.6973 3.22948 12.8558 3.18191 12.9841 3.08555L15.2052 1.41974C15.901 1.63035 16.5742 1.90949 17.2149 2.25304L17.6074 5.00049C17.63 5.15938 17.7085 5.30504 17.8286 5.41145C18.097 5.64915 18.3507 5.90287 18.5884 6.17122C18.6948 6.29137 18.8405 6.3698 18.9994 6.39249L21.7477 6.78495C22.0908 7.42591 22.3695 8.09932 22.5796 8.7953L20.9143 11.0156C20.8222 11.1384 20.7746 11.2889 20.7793 11.4423C20.7855 11.6484 20.7979 12.2469 20.7802 12.5371C20.7705 12.6974 20.818 12.8559 20.9144 12.9843L22.5802 15.2052C22.3697 15.901 22.0906 16.5741 21.7471 17.2148V17.2149Z"/>
		</symbol>
		<symbol id="merchant">
			<path d="M21.9991 6.57979C21.9989 6.5702 21.9984 6.56063 21.9977 6.55106C21.9967 6.53653 21.9952 6.52213 21.9932 6.50787C21.9897 6.48303 21.9848 6.45841 21.9783 6.43415C21.977 6.42957 21.9765 6.42489 21.9751 6.42032L20.4285 1.08021C20.3374 0.769534 20.1467 0.496344 19.885 0.301594C19.6233 0.106844 19.3046 0.0010251 18.9767 0H3.02327C2.69543 0.0010251 2.37675 0.106844 2.11501 0.301594C1.85327 0.496344 1.66257 0.769534 1.57149 1.08021L0.0248039 6.42043C0.0235098 6.42489 0.0229706 6.42957 0.0217843 6.43415C0.0153123 6.45841 0.0103067 6.48303 0.00679409 6.50787C0.00345823 6.53168 0.00147797 6.55565 0.000862683 6.57968C0.000646996 6.585 0 6.59032 0 6.59574V8.29787C0.000247468 8.94278 0.157023 9.57825 0.457214 10.1511C0.757406 10.724 1.19229 11.2177 1.72549 11.5909V18.5106C1.72595 18.9055 1.88516 19.2841 2.16821 19.5633C2.45125 19.8425 2.83501 19.9995 3.23529 20H18.7647C19.165 19.9995 19.5488 19.8425 19.8318 19.5633C20.1148 19.2841 20.2741 18.9055 20.2745 18.5106V11.5909C20.8077 11.2177 21.2426 10.724 21.5428 10.1511C21.843 9.57825 21.9998 8.94278 22 8.29787V6.59574C22 6.59043 21.9994 6.58511 21.9991 6.57979ZM2.816 1.43085C2.82899 1.3865 2.85619 1.3475 2.89354 1.31969C2.93089 1.29188 2.97637 1.27676 3.02317 1.2766H18.9766C19.0234 1.27671 19.069 1.29181 19.1064 1.31963C19.1438 1.34744 19.171 1.38647 19.184 1.43085L20.4952 5.95745H1.50484L2.816 1.43085ZM8.19608 7.23404H13.8039V8.29787C13.8039 9.03145 13.5085 9.73498 12.9827 10.2537C12.4568 10.7724 11.7436 11.0638 11 11.0638C10.2564 11.0638 9.54317 10.7724 9.01733 10.2537C8.49149 9.73498 8.19608 9.03145 8.19608 8.29787V7.23404ZM1.29412 7.23404H6.90196V8.29787C6.90222 8.77502 6.77727 9.24412 6.53928 9.65952C6.30128 10.0749 5.95835 10.4225 5.54383 10.6684C5.12931 10.9143 4.65733 11.0502 4.1738 11.0628C3.69027 11.0755 3.21165 10.9644 2.78451 10.7405C2.73097 10.6972 2.67071 10.6626 2.60603 10.6381C2.20462 10.3892 1.87374 10.044 1.6443 9.63478C1.41487 9.22552 1.29439 8.76555 1.29412 8.29787V7.23404ZM18.9804 18.5106C18.9803 18.5671 18.9576 18.6211 18.9172 18.661C18.8767 18.7009 18.8219 18.7233 18.7647 18.7234H3.23529C3.17811 18.7233 3.12328 18.7009 3.08284 18.661C3.04241 18.6211 3.01966 18.5671 3.01961 18.5106V12.1973C3.86219 12.4248 4.75645 12.3802 5.57147 12.07C6.3865 11.7599 7.07949 11.2006 7.54902 10.4739C7.91891 11.0461 8.42899 11.517 9.03216 11.8432C9.63533 12.1695 10.3121 12.3405 11 12.3405C11.6879 12.3405 12.3647 12.1695 12.9678 11.8432C13.571 11.517 14.0811 11.0461 14.451 10.4739C14.9205 11.2006 15.6135 11.7599 16.4285 12.07C17.2436 12.3802 18.1378 12.4248 18.9804 12.1973V18.5106ZM19.3934 10.6384C19.3292 10.6628 19.2693 10.6972 19.216 10.7403C18.7889 10.9643 18.3102 11.0755 17.8266 11.0629C17.3431 11.0503 16.871 10.9145 16.4564 10.6686C16.0418 10.4227 15.6988 10.0751 15.4608 9.65967C15.2227 9.24423 15.0978 8.77508 15.098 8.29787V7.23404H20.7059V8.29787C20.7056 8.76565 20.5851 9.22572 20.3555 9.63505C20.126 10.0444 19.795 10.3896 19.3934 10.6384Z"/>
		</symbol>
		<symbol id="logout">
			<path d="M20.3617 0H1.6383C1.20395 0.000495553 0.787527 0.173261 0.480394 0.480394C0.173261 0.787527 0.000495553 1.20395 0 1.6383V20.3617C0.000495553 20.7961 0.173261 21.2125 0.480394 21.5196C0.787527 21.8267 1.20395 21.9995 1.6383 22H20.3617C20.7961 21.9995 21.2125 21.8267 21.5196 21.5196C21.8267 21.2125 21.9995 20.7961 22 20.3617V1.6383C21.9995 1.20395 21.8267 0.787527 21.5196 0.480394C21.2125 0.173261 20.7961 0.000495553 20.3617 0ZM20.5957 20.3617C20.5957 20.4238 20.571 20.4832 20.5271 20.5271C20.4832 20.571 20.4238 20.5957 20.3617 20.5957H1.6383C1.57624 20.5957 1.51675 20.571 1.47287 20.5271C1.429 20.4832 1.40432 20.4238 1.40426 20.3617V1.6383C1.40432 1.57624 1.429 1.51675 1.47287 1.47287C1.51675 1.429 1.57624 1.40432 1.6383 1.40426H20.3617C20.4238 1.40432 20.4832 1.429 20.5271 1.47287C20.571 1.51675 20.5957 1.57624 20.5957 1.6383V20.3617ZM14.9787 7.7234V13.3404C14.9787 13.5266 14.9048 13.7052 14.7731 13.8369C14.6414 13.9686 14.4628 14.0426 14.2766 14.0426C14.0904 14.0426 13.9118 13.9686 13.7801 13.8369C13.6484 13.7052 13.5745 13.5266 13.5745 13.3404V9.41846L8.21993 14.773C8.0879 14.9029 7.90989 14.9754 7.72467 14.9747C7.53945 14.9739 7.36202 14.9 7.23103 14.7691C7.10004 14.6381 7.0261 14.4607 7.02533 14.2755C7.02455 14.0903 7.097 13.9122 7.22688 13.7802L12.5815 8.42553H8.65957C8.47336 8.42553 8.29477 8.35156 8.1631 8.21988C8.03142 8.08821 7.95745 7.90962 7.95745 7.7234C7.95745 7.53719 8.03142 7.3586 8.1631 7.22693C8.29477 7.09525 8.47336 7.02128 8.65957 7.02128H14.2766C14.4628 7.02128 14.6414 7.09525 14.7731 7.22693C14.9048 7.3586 14.9787 7.53719 14.9787 7.7234V7.7234Z"/>
		</symbol>
		<symbol id="trash">
			<path d="M17 24H3C1.896 24 1 23.104 1 22V6H19V22C19 23.104 18.104 24 17 24ZM20 5H0V3H6V1.5C6 0.673 6.673 0 7.5 0H12.5C13.325 0 14 0.671 14 1.5V3H20V5ZM8 3H12V2H8V3Z"/>
		</symbol>
		<symbol id="empty">
			<path d="M12 0C14.3734 0 16.6934 0.703788 18.6668 2.02236C20.6402 3.34094 22.1783 5.21508 23.0865 7.4078C23.9948 9.60051 24.2324 12.0133 23.7694 14.3411C23.3064 16.6689 22.1635 18.807 20.4853 20.4853C18.807 22.1635 16.6689 23.3064 14.3411 23.7694C12.0133 24.2324 9.60051 23.9948 7.4078 23.0865C5.21508 22.1783 3.34094 20.6402 2.02236 18.6668C0.703788 16.6934 0 14.3734 0 12C0.00362976 8.81851 1.26908 5.76838 3.51873 3.51873C5.76838 1.26908 8.81851 0.00362976 12 0V0ZM1.71429 12C1.71429 14.4309 2.57829 16.7829 4.15371 18.6343L18.6343 4.15371C17.1386 2.88484 15.311 2.07063 13.3673 1.8073C11.4237 1.54396 9.44527 1.84251 7.66589 2.66766C5.8865 3.49282 4.38051 4.81008 3.32586 6.46381C2.27121 8.11753 1.71199 10.0386 1.71429 12V12ZM22.2857 12C22.2857 9.56914 21.4217 7.21714 19.8463 5.36571L5.36571 19.8463C6.86139 21.1152 8.68903 21.9294 10.6327 22.1927C12.5763 22.456 14.5547 22.1575 16.3341 21.3323C18.1135 20.5072 19.6195 19.1899 20.6741 17.5362C21.7288 15.8825 22.288 13.9614 22.2857 12Z"/>
		</symbol>
		<symbol id="menu">
			<path d="M24 11.9362C24 12.1393 23.9193 12.3341 23.7757 12.4778C23.632 12.6214 23.4372 12.7021 23.234 12.7021H0.765957C0.562813 12.7021 0.367989 12.6214 0.224344 12.4778C0.0806988 12.3341 0 12.1393 0 11.9362C0 11.733 0.0806988 11.5382 0.224344 11.3946C0.367989 11.2509 0.562813 11.1702 0.765957 11.1702H23.234C23.4372 11.1702 23.632 11.2509 23.7757 11.3946C23.9193 11.5382 24 11.733 24 11.9362ZM0.765957 4.53191H23.234C23.4372 4.53191 23.632 4.45122 23.7757 4.30757C23.9193 4.16393 24 3.9691 24 3.76596C24 3.56281 23.9193 3.36799 23.7757 3.22434C23.632 3.0807 23.4372 3 23.234 3H0.765957C0.562813 3 0.367989 3.0807 0.224344 3.22434C0.0806988 3.36799 0 3.56281 0 3.76596C0 3.9691 0.0806988 4.16393 0.224344 4.30757C0.367989 4.45122 0.562813 4.53191 0.765957 4.53191ZM23.234 19.3404H0.765957C0.562813 19.3404 0.367989 19.4211 0.224344 19.5648C0.0806988 19.7084 0 19.9032 0 20.1064C0 20.3095 0.0806988 20.5044 0.224344 20.648C0.367989 20.7916 0.562813 20.8723 0.765957 20.8723H23.234C23.4372 20.8723 23.632 20.7916 23.7757 20.648C23.9193 20.5044 24 20.3095 24 20.1064C24 19.9032 23.9193 19.7084 23.7757 19.5648C23.632 19.4211 23.4372 19.3404 23.234 19.3404Z"/>
		</symbol>
		<symbol id="back">
			<path d="M22 12C22 12.3034 21.8799 12.5943 21.6661 12.8088C21.4523 13.0233 21.1623 13.1438 20.86 13.1438H6.89211L11.786 18.054C11.997 18.2691 12.1146 18.5591 12.1134 18.8609C12.1122 19.1626 11.9922 19.4516 11.7795 19.665C11.5669 19.8784 11.2788 19.9988 10.978 20C10.6773 20.0012 10.3883 19.8832 10.1739 19.6715L3.33387 12.8088C3.1201 12.5943 3 12.3033 3 12C3 11.6967 3.1201 11.4057 3.33387 11.1912L10.1739 4.32845C10.3883 4.11683 10.6773 3.99878 10.978 4.00001C11.2788 4.00124 11.5669 4.12165 11.7795 4.33501C11.9922 4.54837 12.1122 4.8374 12.1134 5.13914C12.1146 5.44088 11.997 5.73088 11.786 5.94597L6.8922 10.8562H20.86C21.1623 10.8562 21.4523 10.9767 21.6661 11.1912C21.8799 11.4057 22 11.6966 22 12Z"/>
		</symbol>
		<symbol id="slider-next">
			<path d="M12.293 5.29279C12.4805 5.10532 12.7348 5 13 5C13.2652 5 13.5195 5.10532 13.707 5.29279L19.707 11.2928C19.8945 11.4803 19.9998 11.7346 19.9998 11.9998C19.9998 12.265 19.8945 12.5193 19.707 12.7068L13.707 18.7068C13.5184 18.8889 13.2658 18.9897 13.0036 18.9875C12.7414 18.9852 12.4906 18.88 12.3052 18.6946C12.1198 18.5092 12.0146 18.2584 12.0123 17.9962C12.01 17.734 12.1108 17.4814 12.293 17.2928L16.586 12.9998H5C4.73478 12.9998 4.48043 12.8944 4.29289 12.7069C4.10536 12.5194 4 12.265 4 11.9998C4 11.7346 4.10536 11.4802 4.29289 11.2927C4.48043 11.1051 4.73478 10.9998 5 10.9998H16.586L12.293 6.70679C12.1055 6.51926 12.0002 6.26495 12.0002 5.99979C12.0002 5.73462 12.1055 5.48031 12.293 5.29279V5.29279Z"/>
		</symbol>
		<symbol id="slider-prev">
			<path d="M11.7068 18.6947C11.5193 18.8822 11.265 18.9875 10.9998 18.9875C10.7346 18.9875 10.4803 18.8822 10.2928 18.6947L4.29279 12.6947C4.10532 12.5072 4 12.2529 4 11.9877C4 11.7225 4.10532 11.4682 4.29279 11.2807L10.2928 5.2807C10.4814 5.09854 10.734 4.99775 10.9962 5.00003C11.2584 5.0023 11.5092 5.10747 11.6946 5.29288C11.88 5.47829 11.9852 5.7291 11.9875 5.9913C11.9897 6.2535 11.8889 6.5061 11.7068 6.6947L7.41379 10.9877L18.9998 10.9877C19.265 10.9877 19.5194 11.0931 19.7069 11.2806C19.8944 11.4681 19.9998 11.7225 19.9998 11.9877C19.9998 12.2529 19.8944 12.5073 19.7069 12.6948C19.5194 12.8823 19.265 12.9877 18.9998 12.9877L7.41379 12.9877L11.7068 17.2807C11.8943 17.4682 11.9996 17.7225 11.9996 17.9877C11.9996 18.2529 11.8943 18.5072 11.7068 18.6947V18.6947Z"/>
		</symbol>
		<symbol id="trending">
			<path d="M23.9999 4.64286V11.5C23.9999 11.6705 23.9309 11.834 23.8082 11.9546C23.6854 12.0751 23.5189 12.1428 23.3453 12.1428C23.1718 12.1428 23.0053 12.0751 22.8825 11.9546C22.7598 11.834 22.6908 11.6705 22.6908 11.5V6.19482L13.3355 15.3832C13.2128 15.5037 13.0463 15.5714 12.8727 15.5714C12.6991 15.5714 12.5326 15.5037 12.4099 15.3832L8.50903 11.552L1.11738 18.8117C1.05659 18.8714 0.984431 18.9188 0.905014 18.9511C0.825597 18.9834 0.74048 19 0.654522 19C0.568564 19 0.483448 18.9834 0.404035 18.9511C0.324622 18.9187 0.252467 18.8714 0.191689 18.8117C0.130911 18.752 0.0827006 18.6811 0.0498106 18.6031C0.0169205 18.5251 -5.06386e-06 18.4415 1.13644e-09 18.3571C5.06614e-06 18.2727 0.0169407 18.1891 0.0498401 18.1111C0.0827395 18.0331 0.130958 17.9622 0.191744 17.9025L8.04627 10.1882C8.16902 10.0677 8.33549 9.99997 8.50908 9.99997C8.68267 9.99997 8.84915 10.0677 8.9719 10.1882L12.8727 14.0195L21.7653 5.28571H16.3635C16.19 5.28571 16.0235 5.21798 15.9007 5.09742C15.778 4.97687 15.709 4.81335 15.709 4.64286C15.709 4.47236 15.778 4.30885 15.9007 4.18829C16.0235 4.06773 16.19 4 16.3635 4H23.3453C23.3859 4.00011 23.4263 4.00391 23.4661 4.01136C23.4681 4.01179 23.4701 4.01189 23.4721 4.01232C23.511 4.01992 23.5491 4.031 23.586 4.04543C23.5887 4.0465 23.5915 4.04725 23.5942 4.04843C23.6312 4.06347 23.6667 4.08184 23.7003 4.10329C23.7027 4.10479 23.7052 4.10596 23.7075 4.10757C23.7801 4.15493 23.8423 4.21597 23.8906 4.28714C23.8921 4.28929 23.8933 4.29164 23.8948 4.29389C23.9167 4.32694 23.9355 4.36191 23.9508 4.39836L23.9539 4.4065C23.9685 4.44262 23.9798 4.47999 23.9876 4.51814C23.988 4.52028 23.9881 4.52243 23.9884 4.52446C23.996 4.56346 23.9999 4.60305 24 4.64275L23.9999 4.64286Z"/>
		</symbol>
		<symbol id="home">
			<path d="M23.3898 20.7579H21.5593V10.98C21.5591 10.7781 21.5176 10.5785 21.4374 10.3939C21.3571 10.2092 21.24 10.0436 21.0934 9.90766L12.9572 2.37894C12.6957 2.1352 12.354 2 11.9994 2C11.6448 2 11.3031 2.1352 11.0416 2.37894L2.90664 9.90776C2.76001 10.0437 2.64283 10.2093 2.5626 10.3939C2.48237 10.5785 2.44084 10.7782 2.44068 10.98V20.7579H0.610169C0.448342 20.7579 0.293143 20.8233 0.178715 20.9398C0.0642855 21.0562 0 21.2142 0 21.3789C0 21.5436 0.0642855 21.7016 0.178715 21.8181C0.293143 21.9346 0.448342 22 0.610169 22H23.3898C23.5517 22 23.7069 21.9346 23.8213 21.8181C23.9357 21.7016 24 21.5436 24 21.3789C24 21.2142 23.9357 21.0562 23.8213 20.9398C23.7069 20.8233 23.5517 20.7579 23.3898 20.7579ZM3.66102 10.98C3.66104 10.9512 3.66698 10.9227 3.67845 10.8963C3.68992 10.8699 3.70667 10.8463 3.72763 10.8268L11.8626 3.29792C11.9 3.26311 11.9488 3.24381 11.9994 3.24381C12.0501 3.24381 12.0989 3.26311 12.1363 3.29792L20.2724 10.8267C20.2933 10.8462 20.31 10.8698 20.3215 10.8962C20.333 10.9226 20.3389 10.9511 20.339 10.9799V20.7579H15.0502V15.5814C15.0498 15.1972 14.8997 14.8289 14.6328 14.5572C14.3659 14.2855 14.004 14.1327 13.6265 14.1323H10.3723C9.99481 14.1327 9.63293 14.2855 9.36602 14.5572C9.09911 14.8289 8.94897 15.1972 8.94854 15.5814V20.7579H3.66102V10.98ZM13.8299 20.7579H10.1689V15.5814C10.1689 15.5266 10.1904 15.4739 10.2285 15.4351C10.2666 15.3963 10.3183 15.3745 10.3723 15.3744H13.6265C13.6804 15.3745 13.7321 15.3963 13.7703 15.4351C13.8084 15.4739 13.8298 15.5266 13.8299 15.5814V20.7579Z"/>
		</symbol>
		<symbol id="marker">
			<path d="M12 0c-4.198 0-8 3.403-8 7.602 0 4.198 3.469 9.21 8 16.398 4.531-7.188 8-12.2 8-16.398 0-4.199-3.801-7.602-8-7.602zm0 11c-1.657 0-3-1.343-3-3s1.343-3 3-3 3 1.343 3 3-1.343 3-3 3z"/>
		</symbol>
		<symbol id="sold">
			<path d="M0 12.1007L2.054 10.4531C4.38538 11.4119 6.60325 12.5661 8.676 13.8993C12.8172 9.57313 17.7734 5.88779 23.334 3L24 4.33333C18.862 8.22743 15.098 12.5642 9.678 21C6.69006 17.8451 3.45648 14.8717 0 12.1007H0Z"/>
		</symbol>
		<symbol id="contact">
			<path d="M24 21h-24v-18h24v18zm-23-16.477v15.477h22v-15.477l-10.999 10-11.001-10zm21.089-.523h-20.176l10.088 9.171 10.088-9.171z"/>
		</symbol>
		<symbol id="facebook">
			<path d="M12 0c-6.627 0-12 5.373-12 12s5.373 12 12 12 12-5.373 12-12-5.373-12-12-12zm3 8h-1.35c-.538 0-.65.221-.65.778v1.222h2l-.209 2h-1.791v7h-3v-7h-2v-2h2v-2.308c0-1.769.931-2.692 3.029-2.692h1.971v3z"/>
		</symbol>
		<symbol id="instagram">
			<path d="M12 2.163c3.204 0 3.584.012 4.85.07 3.252.148 4.771 1.691 4.919 4.919.058 1.265.069 1.645.069 4.849 0 3.205-.012 3.584-.069 4.849-.149 3.225-1.664 4.771-4.919 4.919-1.266.058-1.644.07-4.85.07-3.204 0-3.584-.012-4.849-.07-3.26-.149-4.771-1.699-4.919-4.92-.058-1.265-.07-1.644-.07-4.849 0-3.204.013-3.583.07-4.849.149-3.227 1.664-4.771 4.919-4.919 1.266-.057 1.645-.069 4.849-.069zm0-2.163c-3.259 0-3.667.014-4.947.072-4.358.2-6.78 2.618-6.98 6.98-.059 1.281-.073 1.689-.073 4.948 0 3.259.014 3.668.072 4.948.2 4.358 2.618 6.78 6.98 6.98 1.281.058 1.689.072 4.948.072 3.259 0 3.668-.014 4.948-.072 4.354-.2 6.782-2.618 6.979-6.98.059-1.28.073-1.689.073-4.948 0-3.259-.014-3.667-.072-4.947-.196-4.354-2.617-6.78-6.979-6.98-1.281-.059-1.69-.073-4.949-.073zm0 5.838c-3.403 0-6.162 2.759-6.162 6.162s2.759 6.163 6.162 6.163 6.162-2.759 6.162-6.163c0-3.403-2.759-6.162-6.162-6.162zm0 10.162c-2.209 0-4-1.79-4-4 0-2.209 1.791-4 4-4s4 1.791 4 4c0 2.21-1.791 4-4 4zm6.406-11.845c-.796 0-1.441.645-1.441 1.44s.645 1.44 1.441 1.44c.795 0 1.439-.645 1.439-1.44s-.644-1.44-1.439-1.44z"/>
		</symbol>
	</defs>
</svg>
