<svg width="238" height="153" viewBox="0 0 238 153" fill="none" xmlns="http://www.w3.org/2000/svg">
<path d="M237.458 143.675H0C2.60195 137.04 7.40607 131.411 14.1806 129.741C24.0892 127.302 34.5753 134.01 44.4619 131.487C50.0789 130.056 54.5009 125.884 59.1476 122.42C76.6778 109.351 100.701 105.488 121.444 112.406C132.287 116.02 142.167 122.34 153.275 125.027C167.637 128.504 182.658 125.621 197.428 125.146C211.814 124.684 232.425 130.545 237.458 143.675Z" fill="#F3F5FD"/>
<path d="M180.637 6.38484C181.815 6.38484 182.77 5.42972 182.77 4.25151C182.77 3.0733 181.815 2.11818 180.637 2.11818C179.459 2.11818 178.503 3.0733 178.503 4.25151C178.503 5.42972 179.459 6.38484 180.637 6.38484Z" fill="white"/>
<path d="M189.885 94.9254C189.885 94.9254 188.145 101.158 187.168 104.392C187.122 104.546 187.112 104.707 187.14 104.865C187.167 105.023 187.231 105.172 187.327 105.3C187.422 105.429 187.547 105.533 187.69 105.605C187.833 105.677 187.991 105.714 188.151 105.714H194.255C194.519 105.714 194.772 105.612 194.963 105.43C195.154 105.248 195.267 105 195.28 104.737L195.691 96.0602L189.885 94.9254Z" fill="#0F1011"/>
<path d="M199.24 108.79C199.24 108.79 197.465 107.85 197.857 103.018L194.19 102.341C194.19 102.341 194.606 106.673 192.752 108.051L199.24 108.79Z" fill="#E98862"/>
<path opacity="0.15" d="M193.502 107.144L196.546 104.811L194.154 104.788C194.085 105.607 193.864 106.406 193.502 107.144V107.144Z" fill="black"/>
<path d="M199.935 101.142C199.683 102.609 198.884 103.998 197.591 104.472C196.182 105.033 194.657 105.241 193.149 105.077C189.135 104.751 189.921 95.6242 191.825 93.8498C193.729 92.0754 199.323 93.193 200.006 96.1573C200.359 97.6905 200.176 99.7479 199.935 101.142Z" fill="#E98862"/>
<path d="M194.192 100.018C194.376 100.018 194.525 99.8693 194.525 99.6857C194.525 99.502 194.376 99.3531 194.192 99.3531C194.009 99.3531 193.86 99.502 193.86 99.6857C193.86 99.8693 194.009 100.018 194.192 100.018Z" fill="#0F1011"/>
<path d="M191.569 99.8054C191.753 99.8054 191.901 99.6566 191.901 99.4729C191.901 99.2893 191.753 99.1404 191.569 99.1404C191.385 99.1404 191.236 99.2893 191.236 99.4729C191.236 99.6566 191.385 99.8054 191.569 99.8054Z" fill="#0F1011"/>
<path d="M191.873 98.5967L190.992 98.6087" stroke="#0F1011" stroke-width="1.362" stroke-miterlimit="10" stroke-linecap="round"/>
<path d="M194.909 98.9263L194.041 98.7181" stroke="#0F1011" stroke-width="1.362" stroke-miterlimit="10" stroke-linecap="round"/>
<path d="M194.041 102.305C194.041 102.305 192.814 102.435 191.953 102.135C191.953 102.135 191.96 102.944 192.932 103.023C193.903 103.102 194.041 102.305 194.041 102.305Z" fill="white"/>
<g opacity="0.15">
<path opacity="0.15" d="M192.718 101.531C192.745 101.532 192.772 101.522 192.793 101.504C192.814 101.486 192.828 101.461 192.832 101.434C192.836 101.406 192.83 101.379 192.815 101.355C192.801 101.332 192.778 101.315 192.752 101.307L192.075 101.1L192.547 100.046C192.554 100.032 192.558 100.017 192.559 100.002C192.56 99.9863 192.558 99.9709 192.553 99.9563C192.547 99.9417 192.539 99.9283 192.529 99.917C192.518 99.9056 192.506 99.8965 192.491 99.8902C192.477 99.8839 192.462 99.8805 192.447 99.8802C192.431 99.8799 192.416 99.8828 192.401 99.8886C192.387 99.8944 192.374 99.9031 192.363 99.9141C192.352 99.9251 192.344 99.9382 192.338 99.9526L191.76 101.244L192.684 101.527C192.695 101.53 192.706 101.532 192.718 101.531V101.531Z" fill="black"/>
</g>
<path d="M189.676 95.6726C189.676 95.6726 190.263 90.9192 197.88 92.0866C199.779 92.3776 202.47 93.8601 202.906 98.7189C203.105 100.948 203.873 103.049 204.459 104.379C204.529 104.535 204.558 104.706 204.544 104.877C204.531 105.047 204.475 105.211 204.382 105.355C204.289 105.498 204.162 105.616 204.011 105.697C203.861 105.779 203.693 105.822 203.522 105.822L198.168 105.824C198.034 105.824 197.901 105.798 197.776 105.746C197.652 105.695 197.539 105.62 197.443 105.525C197.348 105.43 197.272 105.317 197.221 105.193C197.169 105.069 197.142 104.936 197.142 104.801C197.142 104.786 197.142 104.771 197.142 104.755C197.181 103.844 197.211 102.301 197.159 99.9427C196.881 98.5968 197.622 97.6478 196.546 97.9572C192.55 99.1039 189.976 95.7495 189.676 95.6726Z" fill="#0F1011"/>
<path d="M195.873 101.117C195.843 101.49 195.962 101.86 196.204 102.144C196.446 102.429 196.791 102.606 197.164 102.637C197.537 102.667 197.906 102.548 198.191 102.306C198.476 102.063 198.653 101.718 198.683 101.345C198.719 100.98 198.608 100.614 198.374 100.33C198.141 100.046 197.805 99.8667 197.439 99.8307C197.423 99.8294 197.408 99.828 197.393 99.8271C196.387 99.7938 195.936 100.341 195.873 101.117Z" fill="#E98862"/>
<path d="M185.48 141.973C185.044 141.9 180.133 141.06 180.133 141.06" stroke="#E98862" stroke-width="21" stroke-miterlimit="10"/>
<path d="M176.921 148.906C176.9 149.034 176.906 149.165 176.938 149.29C176.97 149.416 177.028 149.534 177.107 149.636C177.187 149.738 177.286 149.823 177.4 149.885C177.514 149.947 177.639 149.985 177.768 149.996C177.947 150.012 178.127 149.977 178.286 149.894C178.446 149.811 178.578 149.684 178.668 149.528L181.447 144.306C181.501 144.205 181.532 144.094 181.538 143.979C181.544 143.865 181.526 143.751 181.484 143.644C181.084 142.795 180.966 141.84 181.149 140.92C181.321 140.208 181.689 139.558 182.212 139.046C182.263 139.001 182.3 138.944 182.319 138.879C182.339 138.814 182.339 138.746 182.321 138.681C182.302 138.616 182.266 138.558 182.215 138.513C182.165 138.468 182.103 138.439 182.036 138.428L179.331 137.975C179.251 137.961 179.17 137.964 179.091 137.982C179.012 138.001 178.938 138.034 178.872 138.081C178.806 138.128 178.75 138.188 178.708 138.257C178.665 138.326 178.636 138.402 178.623 138.482L176.921 148.906Z" fill="#C1D8ED"/>
<path d="M200.31 131.501C202.353 131.586 204.431 131.645 206.51 131.697L209.634 131.765L212.755 131.821L213.066 131.827C214.355 131.852 215.587 132.364 216.514 133.26C217.44 134.157 217.992 135.372 218.058 136.659C218.125 137.947 217.7 139.212 216.871 140.199C216.041 141.186 214.868 141.822 213.589 141.978L182.745 145.723L181.489 136.608L212.194 131.868L213.028 142.024L209.859 142.229L206.692 142.42C204.577 142.542 202.462 142.657 200.308 142.745L200.31 131.501Z" fill="#262626"/>
<path d="M203.895 139.255C204.321 139.37 208.438 139.969 208.438 139.969" stroke="#E98862" stroke-width="21" stroke-miterlimit="10"/>
<path d="M213.41 146.495C213.454 146.617 213.474 146.747 213.466 146.876C213.458 147.005 213.424 147.132 213.365 147.247C213.307 147.363 213.225 147.465 213.125 147.548C213.025 147.63 212.909 147.691 212.785 147.727V147.727C212.612 147.776 212.429 147.776 212.256 147.724C212.084 147.673 211.93 147.574 211.813 147.438L208.092 142.839C208.021 142.75 207.97 142.646 207.942 142.535C207.914 142.424 207.911 142.309 207.932 142.196C208.164 141.287 208.098 140.327 207.744 139.458C207.44 138.791 206.955 138.223 206.344 137.819C206.285 137.785 206.238 137.736 206.207 137.676C206.176 137.616 206.163 137.549 206.169 137.482C206.175 137.415 206.199 137.351 206.24 137.297C206.281 137.244 206.336 137.203 206.399 137.18L208.97 136.221C209.046 136.193 209.126 136.18 209.207 136.183C209.288 136.186 209.367 136.205 209.441 136.239C209.514 136.272 209.58 136.32 209.635 136.38C209.69 136.439 209.733 136.509 209.761 136.585L213.41 146.495Z" fill="#C1D8ED"/>
<path d="M193.462 141.919C192.169 141.809 190.877 141.73 189.586 141.656C188.294 141.587 187.002 141.518 185.711 141.472L183.774 141.397L181.838 141.341C180.547 141.298 179.256 141.281 177.965 141.256L178.413 131.983C180.829 132.321 183.248 132.631 185.667 132.949C188.086 133.268 190.507 133.56 192.928 133.858L196.562 134.286L200.198 134.694C202.623 134.954 205.049 135.213 207.48 135.427L206.413 144.567C203.998 144.215 201.578 143.908 199.158 143.603L195.526 143.163L191.891 142.742C189.467 142.474 187.043 142.202 184.617 141.954C182.19 141.706 179.764 141.452 177.334 141.224C176.17 141.115 175.089 140.57 174.309 139.698C173.529 138.826 173.106 137.691 173.127 136.521C173.147 135.352 173.608 134.232 174.418 133.388C175.228 132.544 176.327 132.036 177.495 131.967L177.782 131.951C179.071 131.875 180.36 131.807 181.649 131.713L183.581 131.581L185.514 131.429C186.802 131.332 188.09 131.212 189.378 131.093C190.666 130.967 191.954 130.837 193.241 130.676L193.462 141.919Z" fill="#262626"/>
<path d="M205 130.093L205.679 141.5L186.06 141.269L187.541 131.17L205 130.093Z" fill="#262626"/>
<path d="M174.607 108.76C174.607 108.76 174.572 106.003 172.602 106.147C171.359 106.237 165.453 105.963 165.365 106.501C165.148 107.832 170.55 108.157 171.04 109.398L174.607 108.76Z" fill="#E98862"/>
<path d="M211.895 127.855L206.33 111.307C206.104 110.501 205.665 109.772 205.058 109.195C204.009 108.147 202.199 107.47 199.991 107.467C199.826 108.755 192.009 108.759 191.95 107.497C191.651 107.502 191.42 107.506 191.275 107.513C189.116 107.606 187.839 108.204 187.118 109.157L179.751 116.325L174.838 107.148L170.59 109.424L177.015 121.421C177.192 121.75 177.442 122.034 177.747 122.25C178.051 122.465 178.402 122.608 178.771 122.665C179.14 122.722 179.517 122.692 179.873 122.579C180.228 122.465 180.553 122.271 180.82 122.01L186.665 116.322C186.895 117.808 187.033 119.305 187.08 120.807C187.17 128.257 185.157 129.661 186.149 131.938C187.11 134.148 206.004 135.066 206.256 131.178C206.259 131.137 206.259 131.097 206.261 131.056L209.448 131.153C209.474 131.153 209.499 131.153 209.525 131.153C209.922 131.153 210.313 131.059 210.667 130.877C211.02 130.696 211.325 130.434 211.557 130.111C211.788 129.789 211.94 129.416 211.999 129.023C212.058 128.631 212.023 128.23 211.896 127.853L211.895 127.855ZM206.007 126.043L204.866 126.008C204.445 124.619 204.233 123.175 204.236 121.724C204.236 121.448 204.253 121.176 204.279 120.905L206.007 126.043Z" fill="#FF8C00"/>
<path d="M191.95 107.498C192.009 108.76 192.695 110.617 194.814 110.757C197.636 110.943 199.826 108.756 199.991 107.468H199.984C197.205 107.468 193.57 107.473 191.95 107.498Z" fill="#E98862"/>
<path d="M198.473 113.804L199.284 125.893C199.294 126.035 199.274 126.178 199.226 126.313C199.178 126.447 199.103 126.571 199.005 126.675C198.908 126.779 198.79 126.862 198.659 126.919C198.528 126.976 198.386 127.005 198.243 127.005H181.358C181.1 127.005 180.851 126.91 180.66 126.737C180.468 126.564 180.347 126.326 180.321 126.07L179.071 113.981C179.056 113.835 179.072 113.689 179.117 113.55C179.163 113.411 179.237 113.283 179.334 113.175C179.432 113.066 179.552 112.98 179.685 112.92C179.819 112.861 179.963 112.83 180.109 112.83H197.433C197.697 112.83 197.952 112.931 198.145 113.112C198.338 113.292 198.455 113.54 198.473 113.804V113.804Z" fill="#9EBCEA"/>
<path d="M182.769 127.006H200.51C200.912 127.006 201.238 126.68 201.238 126.278C201.238 125.876 200.912 125.55 200.51 125.55H182.769C182.367 125.55 182.041 125.876 182.041 126.278C182.041 126.68 182.367 127.006 182.769 127.006Z" fill="#9EBCEA"/>
<path d="M188.731 121.525C189.618 121.525 190.337 120.806 190.337 119.918C190.337 119.031 189.618 118.312 188.731 118.312C187.843 118.312 187.124 119.031 187.124 119.918C187.124 120.806 187.843 121.525 188.731 121.525Z" fill="white"/>
<path d="M191.045 128.541C192.075 129.177 193.67 129.478 195.061 129.588L195.139 127.054C194.485 127.036 193.48 126.967 192.495 127.006C192.051 126.643 191.795 126.535 191.338 126.079C190.852 125.593 189.576 125.301 189.335 126.079C189.094 126.857 190.141 127.981 191.045 128.541Z" fill="#E98862"/>
<path d="M33.7565 93.4235L31.3914 92.8643L28.4263 105.406L30.7914 105.965L33.7565 93.4235Z" fill="#F0F6FF"/>
<path d="M28.7905 91.8907L27.4775 92.1329L29.5082 103.141L30.8212 102.899L28.7905 91.8907Z" fill="#C1D8ED"/>
<path d="M28.7901 91.8867L27.4785 92.1363L27.7095 93.3506L29.0212 93.101L28.7901 91.8867Z" fill="#DEE8F5"/>
<path d="M32.8546 94.6899L28.5997 105.49L29.3288 105.778L33.5837 94.9771L32.8546 94.6899Z" fill="#6B6B6B"/>
<path d="M33.7863 99.4147H27.3725V107.612H33.7863V99.4147Z" fill="#262626"/>
<path d="M40.6237 140.885H37.9783V143.801H40.6237V140.885Z" fill="#C1D8ED"/>
<path d="M15.4558 140.885H12.8105V143.801H15.4558V140.885Z" fill="#C1D8ED"/>
<path d="M10.5331 141.223H21.6321L21.6321 107.637H10.5331L10.5331 141.223Z" fill="#C1D8ED"/>
<path d="M40.6574 140.885H52.0233L52.0233 108.38H40.6574V140.885Z" fill="#C1D8ED"/>
<path d="M20.8846 107.637H52.771V141.223H20.8846V107.637ZM51.2759 109.132H22.3798V139.728H51.2759V109.132Z" fill="#DEE8F5"/>
<path d="M20.8846 122.706H52.771V141.223H20.8846V122.706ZM51.2759 124.201H22.3798V139.728H51.2759V124.201Z" fill="#DEE8F5"/>
<path d="M38.3159 111.796V113.935V122.693H24.7706V113.935V111.796H38.3159Z" fill="#C1D8ED"/>
<path d="M42.7556 113.935H29.2103V122.693H42.7556V113.935Z" fill="#DEE8F5"/>
<path d="M42.7556 113.935H29.2103V114.591H42.7556V113.935Z" fill="#C1D8ED"/>
<path d="M29.2103 113.935H42.7556V111.796H29.2103V113.935Z" fill="#DEE8F5"/>
<path d="M34.4816 117.009H37.484C37.6564 117.009 37.7961 116.869 37.7961 116.697V116.006C37.7961 115.833 37.6564 115.694 37.484 115.694H34.4816C34.3093 115.694 34.1695 115.833 34.1695 116.006V116.697C34.1695 116.869 34.3093 117.009 34.4816 117.009Z" fill="white"/>
<path d="M50.7342 140.885H48.0889V143.801H50.7342V140.885Z" fill="#DEE8F5"/>
<path d="M25.5664 140.885H22.9211V143.801H25.5664V140.885Z" fill="#DEE8F5"/>
<path d="M25.9304 139.728H40.6565V136.393H25.9304V139.728Z" fill="#C1D8ED"/>
<path d="M25.6775 133.066H40.4036V129.732H25.6775V133.066Z" fill="#C1D8ED"/>
<path d="M30.9556 139.728H46.5285V136.393H30.9556V139.728Z" fill="#DEE8F5"/>
<path opacity="0.62" d="M32.2267 139.728H32.9827V136.393H32.2267V139.728Z" fill="#C1D8ED"/>
<path opacity="0.62" d="M33.7383 139.728H34.4943V136.393H33.7383V139.728Z" fill="#C1D8ED"/>
<path d="M44.7433 139.136C45.3372 139.136 45.8187 138.654 45.8187 138.06C45.8187 137.466 45.3372 136.985 44.7433 136.985C44.1494 136.985 43.6679 137.466 43.6679 138.06C43.6679 138.654 44.1494 139.136 44.7433 139.136Z" fill="#F3F5FD"/>
<path d="M30.7027 133.066H46.2756V129.732H30.7027V133.066Z" fill="#DEE8F5"/>
<path d="M34.4055 132.315H45.2727V130.482H34.4055V132.315Z" fill="#F3F5FD"/>
<path opacity="0.62" d="M31.9736 133.066H33.4041V129.732H31.9736V133.066Z" fill="#C1D8ED"/>
<path d="M39.4553 133.062H24.7292V136.397H39.4553V133.062Z" fill="#C1D8ED"/>
<path d="M45.3274 133.062H29.7545V136.397H45.3274V133.062Z" fill="#F3F5FD"/>
<path d="M44.0565 133.062H43.3005V136.397H44.0565V133.062Z" fill="#DEE8F5"/>
<path d="M42.5445 133.062H41.7886V136.397H42.5445V133.062Z" fill="#DEE8F5"/>
<path d="M31.5399 135.805C32.1338 135.805 32.6153 135.323 32.6153 134.73C32.6153 134.136 32.1338 133.654 31.5399 133.654C30.9459 133.654 30.4645 134.136 30.4645 134.73C30.4645 135.323 30.9459 135.805 31.5399 135.805Z" fill="#DEE8F5"/>
<path d="M33.7494 135.547H40.6238V133.912H33.7494V135.547Z" fill="#DEE8F5"/>
<path d="M185.411 0H42.878V103.221H185.411V0Z" fill="#DEE8F5"/>
<path d="M75.0122 71.6079H48.0891V98.5311H75.0122V71.6079Z" fill="white"/>
<path d="M110.011 71.6079H83.0877V98.5311H110.011V71.6079Z" fill="white"/>
<path d="M145.01 71.6079H118.086V98.5311H145.01V71.6079Z" fill="white"/>
<path d="M180.008 71.6079H153.085V98.5311H180.008V71.6079Z" fill="white"/>
<path d="M180.008 13.5828H48.0891V66.4667H180.008V13.5828Z" fill="white"/>
<path d="M185.411 0H42.878V8.5028H185.411V0Z" fill="#C1D8ED"/>
<path d="M90.6317 40.2949C90.6317 43.0662 89.8099 45.7753 88.2702 48.0796C86.7306 50.3839 84.5422 52.1798 81.9818 53.2404C79.4214 54.3009 76.604 54.5784 73.8859 54.0378C71.1678 53.4971 68.6711 52.1626 66.7115 50.2029C64.7519 48.2433 63.4173 45.7466 62.8767 43.0285C62.336 40.3104 62.6135 37.493 63.674 34.9326C64.7346 32.3723 66.5306 30.1839 68.8348 28.6442C71.1391 27.1045 73.8482 26.2827 76.6196 26.2827C78.4612 26.2772 80.2858 26.6358 81.9883 27.338C83.6909 28.0402 85.2378 29.0722 86.54 30.3744C87.8423 31.6767 88.8742 33.2236 89.5764 34.9261C90.2786 36.6286 90.6373 38.4532 90.6317 40.2949V40.2949Z" fill="#C1D8ED"/>
<path d="M76.6196 41.7388C79.6832 41.7388 82.1668 39.2552 82.1668 36.1916C82.1668 33.1279 79.6832 30.6443 76.6196 30.6443C73.556 30.6443 71.0724 33.1279 71.0724 36.1916C71.0724 39.2552 73.556 41.7388 76.6196 41.7388Z" fill="#DEE8F5"/>
<path d="M86.7171 50.0111C85.4096 51.3696 83.8413 52.4503 82.1063 53.1885C80.3713 53.9267 78.5051 54.3071 76.6196 54.3071C74.7341 54.3071 72.8679 53.9267 71.1329 53.1885C69.3979 52.4503 67.8297 51.3696 66.5221 50.0111C68.4115 45.7885 72.2256 42.903 76.6196 42.903C81.0136 42.903 84.8277 45.7888 86.7171 50.0111Z" fill="#DEE8F5"/>
<path d="M124.631 26.3697H96.3414V34.9186H124.631V26.3697Z" fill="#DEE8F5"/>
<path d="M165.49 40.2067H96.3414V43.317H165.49V40.2067Z" fill="#DEE8F5"/>
<path d="M165.49 48.6051H96.3414V51.7154H165.49V48.6051Z" fill="#DEE8F5"/>
<path d="M58.1606 90.2122C61.9629 90.2122 65.0453 87.1298 65.0453 83.3275C65.0453 79.5252 61.9629 76.4428 58.1606 76.4428C54.3583 76.4428 51.2759 79.5252 51.2759 83.3275C51.2759 87.1298 54.3583 90.2122 58.1606 90.2122Z" fill="#C1D8ED"/>
<path d="M70.4716 84.0724H59.6188V94.9252H70.4716V84.0724Z" fill="#DEE8F5"/>
<path d="M104.739 83.3275V94.1802H93.8861" fill="#DEE8F5"/>
<path d="M92.9066 76.4428H88.7159V91.9021H92.9066V76.4428Z" fill="#DEE8F5"/>
<path d="M99.3124 83.3272C100.503 83.3272 101.467 82.3624 101.467 81.1721C101.467 79.9819 100.503 79.017 99.3124 79.017C98.1221 79.017 97.1572 79.9819 97.1572 81.1721C97.1572 82.3624 98.1221 83.3272 99.3124 83.3272Z" fill="#C1D8ED"/>
<path d="M138.5 82.5851V78.3944H123.04V82.5851H138.5Z" fill="#DEE8F5"/>
<path d="M134.368 93.1216C137.509 93.1216 140.056 90.5753 140.056 87.4342C140.056 84.2931 137.509 81.7468 134.368 81.7468C131.227 81.7468 128.681 84.2931 128.681 87.4342C128.681 90.5753 131.227 93.1216 134.368 93.1216Z" fill="#C1D8ED"/>
<path d="M174.276 82.7189V78.5282H158.817V82.7189H174.276Z" fill="#C1D8ED"/>
<path d="M169.983 92.5153C171.173 92.5153 172.138 91.5505 172.138 90.3602C172.138 89.17 171.173 88.2051 169.983 88.2051C168.792 88.2051 167.827 89.17 167.827 90.3602C167.827 91.5505 168.792 92.5153 169.983 92.5153Z" fill="#C1D8ED"/>
<path d="M165.359 93.4527L157.685 85.7788L165.359 78.1047" fill="#DEE8F5"/>
</svg>
