<svg width="44" height="44" viewBox="0 0 44 44" fill="none" xmlns="http://www.w3.org/2000/svg">
<path d="M22 44C9.8516 44 0 34.1484 0 22C0 9.8516 9.8516 0 22 0C34.1484 0 44 9.8516 44 22C44 34.1484 34.1484 44 22 44Z" fill="#25D366"/>
<path fill-rule="evenodd" clip-rule="evenodd" d="M32.2916 11.7567C29.5636 9.02434 25.9292 7.51954 22.0616 7.51514C14.0932 7.51514 7.60317 14.0007 7.60317 21.9735C7.60317 24.5211 8.26757 27.0115 9.53477 29.2027L7.48438 36.6959L15.1492 34.6851C17.2612 35.8379 19.6372 36.4451 22.0572 36.4451H22.0616C30.03 36.4451 36.5156 29.9595 36.52 21.9867C36.5244 18.1235 35.024 14.4891 32.2916 11.7567ZM22.066 34.0031H22.0616C19.9056 34.0031 17.7892 33.4223 15.9456 32.3267L15.5056 32.0671L10.956 33.2595L12.1704 28.8243L11.8844 28.3711C10.6832 26.4571 10.0452 24.2483 10.0452 21.9735C10.0496 15.3471 15.4396 9.95714 22.0704 9.95714C25.2824 9.95714 28.2964 11.2111 30.5668 13.4815C32.8372 15.7519 34.0868 18.7747 34.0824 21.9823C34.0824 28.6131 28.688 34.0031 22.066 34.0031ZM28.6572 25.0007C28.2964 24.8203 26.5188 23.9447 26.1888 23.8259C25.8588 23.7071 25.6168 23.6455 25.3748 24.0063C25.1328 24.3671 24.442 25.1811 24.2308 25.4231C24.0196 25.6651 23.8084 25.6959 23.4476 25.5155C23.0868 25.3351 21.9208 24.9523 20.5436 23.7203C19.47 22.7611 18.744 21.5775 18.5328 21.2167C18.3216 20.8559 18.5108 20.6579 18.6912 20.4775C18.854 20.3147 19.052 20.0551 19.2324 19.8439C19.4128 19.6327 19.4744 19.4831 19.5932 19.2411C19.712 18.9991 19.6548 18.7879 19.5624 18.6075C19.47 18.4271 18.7484 16.6495 18.4492 15.9235C18.1544 15.2195 17.8596 15.3163 17.6352 15.3031C17.424 15.2943 17.182 15.2899 16.9444 15.2899C16.7024 15.2899 16.3108 15.3823 15.9808 15.7431C15.6508 16.1039 14.718 16.9795 14.718 18.7571C14.718 20.5347 16.0116 22.2551 16.192 22.4927C16.3724 22.7347 18.7396 26.3823 22.3652 27.9487C23.2276 28.3227 23.9008 28.5427 24.4244 28.7099C25.2912 28.9871 26.0788 28.9475 26.6992 28.8551C27.3944 28.7495 28.8376 27.9795 29.1368 27.1391C29.436 26.2943 29.436 25.5727 29.348 25.4231C29.26 25.2735 29.018 25.1855 28.6572 25.0007Z" fill="white"/>
</svg>
