<svg width="100" height="100" viewBox="0 0 100 100" fill="none" xmlns="http://www.w3.org/2000/svg">
<g clip-path="url(#clip0_702_12)">
<path d="M21.4289 25.0019H7.14297C5.24854 25.0019 3.43169 25.7544 2.09213 27.094C0.75256 28.4336 0 30.2504 0 32.1449V75.0027H7.14297V57.1452H21.4289V75.0027H28.5719V32.1449C28.5719 30.2504 27.8193 28.4336 26.4798 27.094C25.1402 25.7544 23.3233 25.0019 21.4289 25.0019ZM7.14297 50.0023V32.1449H21.4289V50.0023H7.14297Z" fill="black"/>
<path d="M71.4282 32.143H82.1427V67.8578H71.4282V75.0008H100V67.8578H89.2856V32.143H100V25H71.4282V32.143Z" fill="black"/>
<path d="M42.8584 75.0008H35.7155V25H57.1444C59.0388 25 60.8556 25.7526 62.1952 27.0922C63.5348 28.4317 64.2873 30.2486 64.2873 32.143V50.0004C64.2873 51.8949 63.5348 53.7117 62.1952 55.0513C60.8556 56.3908 59.0388 57.1434 57.1444 57.1434H42.8584V75.0008ZM42.8584 50.0004H57.1444V32.143H42.8584V50.0004Z" fill="black"/>
</g>
<defs>
<clipPath id="clip0_702_12">
<rect width="100" height="100" fill="white"/>
</clipPath>
</defs>
</svg>
