<svg width="45" height="45" viewBox="0 0 45 45" fill="none" xmlns="http://www.w3.org/2000/svg">
<g clip-path="url(#clip0_888_14)">
<path d="M0 22.5011C0 34.9175 10.0825 45 22.5011 45C34.9197 45 45 34.9175 45 22.5011C45 10.0825 34.9197 0 22.5011 0C10.0825 0 0 10.0825 0 22.5011ZM13.9782 19.0713C13.9782 19.0713 17.3653 15.6932 21.3128 11.7479C21.6414 11.4171 22.0735 11.2528 22.5056 11.2528C22.9377 11.2528 23.3698 11.4171 23.6984 11.7479C27.6459 15.6909 31.0308 19.0713 31.0308 19.0713C31.3571 19.3976 31.5191 19.8252 31.5191 20.2551C31.5191 20.6872 31.3526 21.1193 31.0218 21.4479C30.3646 22.1073 29.2978 22.1118 28.6429 21.4569L24.1935 17.0075V32.0705C24.1935 33.0022 23.4374 33.7584 22.5056 33.7584C21.5739 33.7584 20.8177 33.0022 20.8177 32.0705V17.0075L16.3638 21.4591C15.7134 22.1095 14.6512 22.105 13.9917 21.4456C13.6609 21.1148 13.4944 20.6827 13.4921 20.2528C13.4921 19.823 13.6519 19.3976 13.9782 19.0713Z" fill="#F2F5F6"/>
</g>
<defs>
<clipPath id="clip0_888_14">
<rect width="45" height="45" fill="white"/>
</clipPath>
</defs>
</svg>
