<svg width="100" height="100" viewBox="0 0 100 100" fill="none" xmlns="http://www.w3.org/2000/svg">
<g clip-path="url(#clip0_702_12)">
<path d="M0 87.1059C0 94.2277 5.77305 100 12.8941 100H87.1055C94.2277 100 100 94.227 100 87.1059V12.8945C100 5.77227 94.227 0 87.1059 0H12.8945C5.77227 0 0 5.77305 0 12.8941V87.1055V87.1059Z" fill="#563D7C"/>
<path d="M41.4671 44.2339V30.0725H53.9324C55.1199 30.0725 56.2644 30.1714 57.3667 30.3694C58.4691 30.5671 59.4445 30.9202 60.2925 31.4292C61.1402 31.9382 61.8187 32.6448 62.3277 33.5491C62.8363 34.4538 63.0909 35.6128 63.0909 37.0257C63.0909 39.5698 62.3277 41.4073 60.8011 42.5378C59.2749 43.6686 57.3245 44.2339 54.9499 44.2339H41.4671V44.2339ZM28.1534 19.7268V80.2737H57.4941C60.2077 80.2737 62.8507 79.9347 65.423 79.2561C67.9952 78.5776 70.2847 77.5319 72.2917 76.1186C74.2984 74.7054 75.8956 72.8819 77.0827 70.6491C78.2702 68.4159 78.8636 65.7729 78.8636 62.7202C78.8636 58.9323 77.9449 55.696 76.1077 53.0108C74.2702 50.3253 71.4859 48.4456 67.7546 47.3714C70.4683 46.0714 72.5179 44.4034 73.9031 42.3682C75.2878 40.3331 75.9804 37.7893 75.9804 34.7362C75.9804 31.9097 75.514 29.5354 74.5812 27.6132C73.6484 25.6913 72.3339 24.1507 70.6378 22.9917C68.9421 21.8327 66.907 20.9987 64.5324 20.4901C62.1581 19.9811 59.5292 19.7268 56.646 19.7268H28.1534V19.7268ZM41.4671 69.928V53.3073H55.9675C58.8507 53.3073 61.1687 53.9714 62.9214 55.3003C64.6738 56.6288 65.5503 58.8475 65.5503 61.9569C65.5503 63.5401 65.2816 64.8401 64.7445 65.8577C64.2074 66.8753 63.4867 67.6811 62.582 68.2745C61.6777 68.8682 60.6316 69.2921 59.4445 69.5468C58.257 69.8007 57.0136 69.928 55.7132 69.928H41.4671V69.928Z" fill="white"/>
</g>
<defs>
<clipPath id="clip0_702_12">
<rect width="100" height="100" fill="white"/>
</clipPath>
</defs>
</svg>
