<svg width="120" height="120" viewBox="0 0 120 120" fill="none" xmlns="http://www.w3.org/2000/svg">
<path d="M80.2857 62.3077C80.2857 62.9197 80.0424 63.5067 79.6093 63.9395C79.1762 64.3723 78.5887 64.6154 77.9762 64.6154H41.0238C40.4113 64.6154 39.8238 64.3723 39.3907 63.9395C38.9576 63.5067 38.7143 62.9197 38.7143 62.3077C38.7143 61.6957 38.9576 61.1087 39.3907 60.6759C39.8238 60.2431 40.4113 60 41.0238 60H77.9762C78.5887 60 79.1762 60.2431 79.6093 60.6759C80.0424 61.1087 80.2857 61.6957 80.2857 62.3077ZM77.9762 78.4615H41.0238C40.4113 78.4615 39.8238 78.7047 39.3907 79.1374C38.9576 79.5702 38.7143 80.1572 38.7143 80.7692C38.7143 81.3813 38.9576 81.9682 39.3907 82.401C39.8238 82.8338 40.4113 83.0769 41.0238 83.0769H77.9762C78.5887 83.0769 79.1762 82.8338 79.6093 82.401C80.0424 81.9682 80.2857 81.3813 80.2857 80.7692C80.2857 80.1572 80.0424 79.5702 79.6093 79.1374C79.1762 78.7047 78.5887 78.4615 77.9762 78.4615ZM108 16.1538V103.846C108 108.13 106.297 112.239 103.265 115.269C100.233 118.298 96.121 120 91.8333 120H27.1667C22.879 120 18.7669 118.298 15.7351 115.269C12.7033 112.239 11 108.13 11 103.846V16.1538C11 14.3177 11.73 12.5568 13.0293 11.2585C14.3287 9.96016 16.091 9.23077 17.9286 9.23077H29.4762V2.30769C29.4762 1.69565 29.7195 1.10868 30.1526 0.675908C30.5858 0.243132 31.1732 0 31.7857 0C32.3982 0 32.9857 0.243132 33.4188 0.675908C33.8519 1.10868 34.0952 1.69565 34.0952 2.30769V9.23077H57.1905V2.30769C57.1905 1.69565 57.4338 1.10868 57.8669 0.675908C58.3 0.243132 58.8875 0 59.5 0C60.1125 0 60.7 0.243132 61.1331 0.675908C61.5662 1.10868 61.8095 1.69565 61.8095 2.30769V9.23077H84.9048V2.30769C84.9048 1.69565 85.1481 1.10868 85.5812 0.675908C86.0143 0.243132 86.6018 0 87.2143 0C87.8268 0 88.4142 0.243132 88.8474 0.675908C89.2805 1.10868 89.5238 1.69565 89.5238 2.30769V9.23077H101.071C102.909 9.23077 104.671 9.96016 105.971 11.2585C107.27 12.5568 108 14.3177 108 16.1538ZM103.381 16.1538C103.381 15.5418 103.138 14.9548 102.705 14.5221C102.271 14.0893 101.684 13.8462 101.071 13.8462H89.5238V20.7692C89.5238 21.3813 89.2805 21.9682 88.8474 22.401C88.4142 22.8338 87.8268 23.0769 87.2143 23.0769C86.6018 23.0769 86.0143 22.8338 85.5812 22.401C85.1481 21.9682 84.9048 21.3813 84.9048 20.7692V13.8462H61.8095V20.7692C61.8095 21.3813 61.5662 21.9682 61.1331 22.401C60.7 22.8338 60.1125 23.0769 59.5 23.0769C58.8875 23.0769 58.3 22.8338 57.8669 22.401C57.4338 21.9682 57.1905 21.3813 57.1905 20.7692V13.8462H34.0952V20.7692C34.0952 21.3813 33.8519 21.9682 33.4188 22.401C32.9857 22.8338 32.3982 23.0769 31.7857 23.0769C31.1732 23.0769 30.5858 22.8338 30.1526 22.401C29.7195 21.9682 29.4762 21.3813 29.4762 20.7692V13.8462H17.9286C17.316 13.8462 16.7286 14.0893 16.2955 14.5221C15.8624 14.9548 15.619 15.5418 15.619 16.1538V103.846C15.619 106.906 16.8357 109.841 19.0013 112.005C21.1669 114.169 24.104 115.385 27.1667 115.385H91.8333C94.896 115.385 97.8331 114.169 99.9987 112.005C102.164 109.841 103.381 106.906 103.381 103.846V16.1538Z" fill="#8197A9"/>
</svg>
