<svg width="100" height="100" viewBox="0 0 100 100" fill="none" xmlns="http://www.w3.org/2000/svg">
<path d="M49.9462 99.8014L14.0087 89.8248L6 0H94L85.983 89.811L49.9462 99.8014V99.8014Z" fill="#264DE4"/>
<path d="M79.1193 84.0917L85.97 7.34392H49.9998V92.1645L79.1193 84.0917V84.0917Z" fill="#2965F1"/>
<path d="M24.3596 40.6589L25.3469 51.6755H50V40.6589H24.3596Z" fill="#EBEBEB"/>
<path d="M22.3752 18.3609L23.3766 29.3775H49.9998V18.3609H22.3752V18.3609Z" fill="#EBEBEB"/>
<path d="M49.999 69.2712L49.9507 69.2839L37.6815 65.971L36.8971 57.1848H25.838L27.3813 74.4826L49.9483 80.7469L49.999 80.7331V69.2712Z" fill="#EBEBEB"/>
<path d="M75.5694 40.6587L77.5581 18.3609H49.9614V29.3775H65.4848L64.4824 40.6587H49.9614V51.6754H63.5272L62.2482 65.9632L49.9611 69.2795V80.7408L72.546 74.4817L72.7115 72.6203L75.3007 43.617L75.5694 40.6587V40.6587Z" fill="white"/>
</svg>
