<svg width="120" height="120" viewBox="0 0 120 120" fill="none" xmlns="http://www.w3.org/2000/svg">
<g clip-path="url(#clip0_1024_16)">
<path d="M120 59.5C120 60.5343 119.593 61.5263 118.869 62.2577C118.145 62.9891 117.162 63.4 116.138 63.4H2.8617C1.83752 63.4 0.855276 62.9891 0.131066 62.2577C-0.593144 61.5263 -1 60.5343 -1 59.5C-1 58.4657 -0.593144 57.4737 0.131066 56.7423C0.855276 56.0109 1.83752 55.6 2.8617 55.6H116.138C117.162 55.6 118.145 56.0109 118.869 56.7423C119.593 57.4737 120 58.4657 120 59.5ZM2.8617 21.8H116.138C117.162 21.8 118.145 21.3891 118.869 20.6577C119.593 19.9263 120 18.9343 120 17.9C120 16.8657 119.593 15.8737 118.869 15.1423C118.145 14.4109 117.162 14 116.138 14H2.8617C1.83752 14 0.855276 14.4109 0.131066 15.1423C-0.593144 15.8737 -1 16.8657 -1 17.9C-1 18.9343 -0.593144 19.9263 0.131066 20.6577C0.855276 21.3891 1.83752 21.8 2.8617 21.8ZM116.138 97.2H2.8617C1.83752 97.2 0.855276 97.6109 0.131066 98.3423C-0.593144 99.0737 -1 100.066 -1 101.1C-1 102.134 -0.593144 103.126 0.131066 103.858C0.855276 104.589 1.83752 105 2.8617 105H116.138C117.162 105 118.145 104.589 118.869 103.858C119.593 103.126 120 102.134 120 101.1C120 100.066 119.593 99.0737 118.869 98.3423C118.145 97.6109 117.162 97.2 116.138 97.2Z" fill="#8197A9"/>
</g>
<defs>
<clipPath id="clip0_1024_16">
<rect width="120" height="120" fill="white"/>
</clipPath>
</defs>
</svg>
