<svg width="100" height="100" viewBox="0 0 100 100" fill="none" xmlns="http://www.w3.org/2000/svg">
<g clip-path="url(#clip0_702_12)">
<path d="M66.2511 67.0001C75.5012 67.0001 82.9999 59.5013 82.9999 50.2512C82.9999 41.001 75.5012 33.5023 66.2511 33.5023C57.0009 33.5023 49.5022 41.001 49.5022 50.2512C49.5022 59.5013 57.0009 67.0001 66.2511 67.0001Z" fill="#19BCFE"/>
<path fill-rule="evenodd" clip-rule="evenodd" d="M32.7489 100.493C37.191 100.493 41.4511 98.7288 44.5921 95.5878C47.7331 92.4468 49.4977 88.1866 49.4977 83.7445V66.9957H32.7489C28.3068 66.9957 24.0467 68.7603 20.9056 71.9013C17.7646 75.0423 16 79.3025 16 83.7445C16 88.1866 17.7646 92.4468 20.9056 95.5878C24.0467 98.7288 28.3068 100.493 32.7489 100.493V100.493Z" fill="#09CF83"/>
<path fill-rule="evenodd" clip-rule="evenodd" d="M32.7489 67.0001H49.4977V33.5023H32.7489C28.3068 33.5023 24.0467 35.2669 20.9056 38.4079C17.7646 41.549 16 45.8091 16 50.2512C16 54.6933 17.7646 58.9534 20.9056 62.0944C24.0467 65.2355 28.3068 67.0001 32.7489 67.0001V67.0001Z" fill="#A259FF"/>
<path fill-rule="evenodd" clip-rule="evenodd" d="M32.7489 33.4977H49.4977V0H32.7489C28.3068 0 24.0467 1.76461 20.9056 4.90563C17.7646 8.04665 16 12.3068 16 16.7489C16 21.191 17.7646 25.4511 20.9056 28.5921C24.0467 31.7331 28.3068 33.4977 32.7489 33.4977V33.4977Z" fill="#F24E1E"/>
<path fill-rule="evenodd" clip-rule="evenodd" d="M66.2511 33.4978H49.5022V1.52588e-05H66.2511C70.6931 1.52588e-05 74.9533 1.76462 78.0943 4.90565C81.2353 8.04667 82.9999 12.3068 82.9999 16.7489C82.9999 21.191 81.2353 25.4511 78.0943 28.5921C74.9533 31.7332 70.6931 33.4978 66.2511 33.4978Z" fill="#FF7262"/>
</g>
<defs>
<clipPath id="clip0_702_12">
<rect width="100" height="100" fill="white"/>
</clipPath>
</defs>
</svg>
