<svg width="100" height="100" viewBox="0 0 100 100" fill="none" xmlns="http://www.w3.org/2000/svg">
<g clip-path="url(#clip0_702_12)">
<path d="M98.1138 45.546L54.4523 1.88668C53.8543 1.28854 53.1444 0.81406 52.3631 0.490339C51.5817 0.166619 50.7443 0 49.8985 0C49.0528 0 48.2153 0.166619 47.4339 0.490339C46.6526 0.81406 45.9427 1.28854 45.3447 1.88668L36.2785 10.954L47.7795 22.4543C49.1314 21.9946 50.5851 21.9226 51.9758 22.2466C53.3664 22.5706 54.6386 23.2776 55.6481 24.2875C56.663 25.3038 57.3716 26.5851 57.693 27.985C58.0143 29.3849 57.9354 30.8469 57.4653 32.2041L68.5478 43.2886C71.2294 42.365 74.3241 42.9629 76.4651 45.1077C77.177 45.8191 77.7416 46.6637 78.1269 47.5935C78.5122 48.5232 78.7104 49.5197 78.7104 50.526C78.7104 51.5324 78.5122 52.5289 78.1269 53.4586C77.7416 54.3883 77.177 55.233 76.4651 55.9444C75.2128 57.1979 73.5647 57.9787 71.8014 58.1539C70.0382 58.329 68.2687 57.8877 66.7942 56.905C65.3198 55.9223 64.2314 54.4589 63.7144 52.7641C63.1975 51.0692 63.2838 49.2475 63.9588 47.6092L53.6225 37.2728L53.6216 64.4748C54.3709 64.8453 55.0553 65.3348 55.6481 65.9241C56.3599 66.6357 56.9245 67.4806 57.3097 68.4104C57.6949 69.3403 57.8932 70.3369 57.8932 71.3434C57.8932 72.3499 57.6949 73.3465 57.3097 74.2763C56.9245 75.2062 56.3599 76.0511 55.6481 76.7627C52.6539 79.757 47.8011 79.757 44.8116 76.7627C43.9184 75.8702 43.2597 74.7708 42.8939 73.5623C42.528 72.3539 42.4665 71.0737 42.7147 69.8357C42.9628 68.5977 43.5131 67.4402 44.3165 66.4661C45.1199 65.4921 46.1515 64.7316 47.3196 64.2524V36.7969C46.3799 36.4131 45.527 35.8443 44.8116 35.1242C42.5438 32.8593 41.9985 29.5318 43.1605 26.7468L31.8237 15.4079L1.88689 45.3433C1.28868 45.9415 0.814142 46.6516 0.490388 47.4332C0.166634 48.2148 0 49.0525 0 49.8985C0 50.7445 0.166634 51.5823 0.490388 52.3638C0.814142 53.1454 1.28868 53.8556 1.88689 54.4538L45.5484 98.1141C46.7563 99.3216 48.3943 100 50.1022 100C51.8101 100 53.4481 99.3216 54.656 98.1141L98.1138 54.6575C99.3216 53.449 100 51.8103 100 50.1018C100 48.3932 99.3216 46.7545 98.1138 45.546" fill="#DE4C36"/>
</g>
<defs>
<clipPath id="clip0_702_12">
<rect width="100" height="100" fill="white"/>
</clipPath>
</defs>
</svg>
