<svg width="120" height="120" viewBox="0 0 120 120" fill="none" xmlns="http://www.w3.org/2000/svg">
<path d="M114.581 49.1968L64.5438 1.95088C63.1573 0.690202 61.3491 -0.00574813 59.4752 3.5764e-05C57.6013 0.00581966 55.7974 0.712919 54.4188 1.98213L4.45625 49.1655C3.6835 49.8677 3.06587 50.7236 2.64291 51.6782C2.21995 52.6329 2.00097 53.6654 2 54.7095V112.5C2 114.489 2.79018 116.397 4.1967 117.803C5.60322 119.21 7.51088 120 9.5 120H39.5C41.4891 120 43.3968 119.21 44.8033 117.803C46.2098 116.397 47 114.489 47 112.5V82.4983C47 81.8352 47.2634 81.1993 47.7322 80.7304C48.2011 80.2616 48.837 79.9982 49.5 79.9982H69.5C70.163 79.9982 70.7989 80.2616 71.2678 80.7304C71.7366 81.1993 72 81.8352 72 82.4983V112.5C72 114.489 72.7902 116.397 74.1967 117.803C75.6032 119.21 77.5109 120 79.5 120H109.5C111.489 120 113.397 119.21 114.803 117.803C116.21 116.397 117 114.489 117 112.5V54.7095C116.999 53.6734 116.784 52.6486 116.368 51.6998C115.952 50.751 115.343 49.8988 114.581 49.1968ZM112 112.5C112 113.163 111.737 113.799 111.268 114.268C110.799 114.736 110.163 115 109.5 115H79.5C78.837 115 78.2011 114.736 77.7322 114.268C77.2634 113.799 77 113.163 77 112.5V82.4983C77 80.5091 76.2098 78.6013 74.8033 77.1948C73.3968 75.7882 71.4891 74.998 69.5 74.998H49.5C47.5109 74.998 45.6032 75.7882 44.1967 77.1948C42.7902 78.6013 42 80.5091 42 82.4983V112.5C42 113.163 41.7366 113.799 41.2678 114.268C40.7989 114.736 40.163 115 39.5 115H9.5C8.83696 115 8.20107 114.736 7.73223 114.268C7.26339 113.799 7 113.163 7 112.5V54.7095C7.00396 54.3551 7.08158 54.0054 7.2279 53.6826C7.37423 53.3598 7.58608 53.071 7.85 52.8344L57.8125 5.65105C58.2707 5.24164 58.8637 5.01534 59.4781 5.01534C60.0926 5.01534 60.6855 5.24164 61.1438 5.65105L111.181 52.8907C111.442 53.1278 111.65 53.4175 111.791 53.7406C111.932 54.0638 112.003 54.4132 112 54.7658V112.5Z" fill="#8197A9"/>
</svg>
