<svg width="100" height="100" viewBox="0 0 100 100" fill="none" xmlns="http://www.w3.org/2000/svg">
<path d="M14.0087 89.8213L6 0H94L85.9806 89.807L49.9465 99.7975L14.0087 89.8213Z" fill="#E44F26"/>
<path d="M50.0001 92.1633L79.1196 84.0904L85.97 7.34616H50.0001V92.1633Z" fill="#F1662A"/>
<path d="M49.9994 40.6564H35.4218L34.4167 29.3757H49.9994V18.3588H22.3768L22.6406 21.3171L25.3458 51.6733H49.9994V40.6564V40.6564Z" fill="#EBEBEB"/>
<path d="M49.9984 69.2664L49.9485 69.2807L37.6805 65.9695L36.8964 57.1838H25.8367L27.38 74.4773L49.9485 80.7431L49.9984 80.7289V69.2664Z" fill="#EBEBEB"/>
<path d="M49.9615 40.6575V51.6744H63.5269L62.2509 65.9633L49.9615 69.278V80.7404L72.5479 74.4782L72.7118 72.6176L75.2994 43.6158L75.5703 40.6575H49.9615V40.6575Z" fill="white"/>
<path d="M49.9615 18.3588V29.3757H76.5718L76.7928 26.9022L77.2954 21.3171L77.5591 18.3588H49.9615V18.3588Z" fill="white"/>
</svg>
