<svg width="100" height="100" viewBox="0 0 100 100" fill="none" xmlns="http://www.w3.org/2000/svg">
<path d="M43.875 44.2355C43.4583 42.9504 43.0833 41.7068 42.6667 40.4218C42.25 39.1368 41.875 37.9346 41.5417 36.7325C41.2083 35.5718 40.9167 34.494 40.625 33.4991H40.5417C40.1667 35.2816 39.7083 37.0641 39.125 38.8466C38.5 40.8363 37.875 42.909 37.2083 44.9816C36.625 47.0957 36 49.044 35.375 50.785H45.9583C45.7083 49.9104 45.375 48.8782 45 47.7963C44.625 46.6812 44.25 45.4791 43.875 44.2355V44.2355ZM82.2917 1H17.7083C7.91667 1 0 8.87607 0 18.6175V80.3825C0 90.1239 7.91667 98 17.7083 98H82.2917C92.0833 98 100 90.1239 100 80.3825V18.6175C100 8.87607 92.0833 1 82.2917 1ZM61.25 69.5218H52.5375C52.25 69.5632 51.9583 69.356 51.875 69.0658L48.4583 59.2H32.9583L29.7917 68.9415C29.7083 69.3145 29.375 69.5632 29 69.5259H21.1667C20.7083 69.5259 20.5833 69.2731 20.7083 68.7798L34.125 30.3487C34.25 29.9342 34.375 29.4782 34.5417 28.9808C34.7083 28.1103 34.7917 27.1983 34.7917 26.2863C34.75 26.0791 34.9167 25.8718 35.125 25.8303H45.9167C46.25 25.8303 46.4167 25.9547 46.4583 26.162L61.6667 68.8585C61.7917 69.3104 61.6667 69.5218 61.25 69.5218V69.5218ZM75.4167 68.9C75.4167 69.356 75.2542 69.5632 74.8792 69.5632H66.7083C66.2917 69.5632 66.0833 69.3104 66.0833 68.9V36.9812C66.0833 36.5667 66.2542 36.4009 66.6292 36.4009H74.8792C75.2542 36.4009 75.4167 36.6081 75.4167 36.9812V68.9V68.9ZM74.5458 31.4679C74.0538 31.9651 73.4604 32.3518 72.8057 32.6021C72.151 32.8523 71.4501 32.9603 70.75 32.9188C69.375 32.9603 68.0417 32.4214 67.0375 31.4679C66.0829 30.4295 65.5744 29.0608 65.6208 27.6543C65.5792 26.2449 66.1208 24.9184 67.1167 23.965C68.125 23.0115 69.4583 22.5141 70.8333 22.5141C72.4625 22.5141 73.7042 23.0115 74.625 23.965C75.5417 24.9598 76.0417 26.2863 76 27.6543C76.0417 29.0637 75.5417 30.4316 74.5458 31.4679V31.4679Z" fill="#FF0066"/>
</svg>
