<svg width="100" height="100" viewBox="0 0 100 100" fill="none" xmlns="http://www.w3.org/2000/svg">
<g clip-path="url(#clip0_702_12)">
<g clip-path="url(#clip1_702_12)">
<path d="M0 0H100V100H0V0Z" fill="#FF0066"/>
<path d="M34.0283 32.1797C37.1912 32.1336 39.7225 29.5402 39.692 26.3769C39.6611 23.2133 37.0803 20.6695 33.9166 20.6847C30.7529 20.7 28.1967 23.2683 28.1963 26.432C28.1989 27.1932 28.3521 27.9464 28.6471 28.6481C28.9422 29.3498 29.3732 29.9862 29.9153 30.5205C30.4575 31.0548 31.1 31.4766 31.8059 31.7614C32.5119 32.0462 33.2672 32.1885 34.0283 32.1801V32.1797Z" fill="white"/>
<path d="M21.9361 62.9521C21.6051 64.3674 21.4321 65.815 21.4205 67.2685C21.4205 72.3282 24.1642 75.688 29.9963 75.688C34.8322 75.688 38.756 72.8161 41.5763 68.1763L39.8521 75.0962H49.4521L54.9443 53.0962C56.3162 47.52 58.972 44.6283 63.0041 44.6283C66.176 44.6283 68.1482 46.6001 68.1482 49.8603C68.1638 50.9052 68.0193 51.9466 67.7201 52.9482L64.892 63.0642C64.4875 64.4573 64.2855 65.9014 64.2924 67.3521C64.2924 72.1521 67.1205 75.6724 73.0361 75.6724C78.0963 75.6724 82.1283 72.4161 84.3564 64.6122L80.5842 63.1521C78.6963 68.3841 77.0685 69.3279 75.7842 69.3279C74.5002 69.3279 73.808 68.4724 73.808 66.756C73.8451 65.8555 73.9888 64.9625 74.2361 64.0958L76.9842 54.2365C77.6012 52.2093 77.9192 50.103 77.9283 47.9841C77.9283 40.6079 73.4681 36.7603 68.0642 36.7603C63.0041 36.7603 57.8603 41.324 55.2881 46.1282L57.172 37.504H42.5119L40.4521 45.104H47.3162L43.0924 62.0001C39.772 69.3763 33.6763 69.4962 32.9123 69.3243C31.656 69.04 30.856 68.5642 30.856 66.9239C30.8927 65.5962 31.0943 64.2782 31.456 63.0001L37.8881 37.4841H21.6002L19.5443 45.0841H26.3162L21.9361 62.9521V62.9521Z" fill="white"/>
</g>
</g>
<defs>
<clipPath id="clip0_702_12">
<rect width="100" height="100" fill="white"/>
</clipPath>
<clipPath id="clip1_702_12">
<rect width="100" height="100" fill="white"/>
</clipPath>
</defs>
</svg>
