<svg width="100" height="100" viewBox="0 0 100 100" fill="none" xmlns="http://www.w3.org/2000/svg">
<g clip-path="url(#clip0_702_12)">
<path d="M79.9112 40.6849C79.9112 57.408 66.4855 70.9777 49.9151 70.9777C33.3447 70.9777 19.9193 57.408 19.9193 40.6849C19.9193 23.9617 33.345 10.392 49.9151 10.392C66.4857 10.392 79.9114 23.9617 79.9114 40.6849" fill="#D33833"/>
<path d="M21.1529 48.187C21.1529 48.187 18.9758 16.6045 48.4638 15.6963L46.4077 12.3039L30.4178 17.6076L25.8459 22.7918L21.8545 30.3411L19.5804 39.1327L20.2579 45.0099" fill="#EF3D3A"/>
<path d="M29.3775 20.0204C24.1284 25.3478 20.8626 32.6824 20.8626 40.8049C20.8626 48.9275 24.1284 56.2617 29.3775 61.5892C34.651 66.9167 41.8841 70.1897 49.9151 70.1897C57.9464 70.1897 65.1793 66.9167 70.4528 61.5895C75.7021 56.2617 78.9677 48.9275 78.9677 40.8049C78.9677 32.6821 75.7021 25.3478 70.4528 20.0204C65.1795 14.7167 57.9464 11.4201 49.9151 11.4201C41.9083 11.4201 34.6513 14.6929 29.3775 20.0204V20.0204ZM28.0472 62.8554C22.4594 57.2174 19 49.4054 19 40.8049C19 32.2044 22.4594 24.3922 28.0472 18.7303C33.6351 13.0923 41.3761 9.58041 49.9154 9.58041C58.4545 9.58041 66.1954 13.0923 71.7834 18.7303C77.3711 24.3684 80.8305 32.1804 80.8305 40.8049C80.8305 49.4052 77.3711 57.2174 71.7834 62.8554C66.1954 68.5173 58.4545 72.0053 49.9151 72.0053C41.3761 72.0053 33.6351 68.5173 28.0472 62.8554V62.8554Z" fill="#231F20"/>
<path d="M62.5423 40.8528L57.9702 41.5216L51.8018 42.2145L47.8104 42.3101L43.9158 42.1907L40.9403 41.283L38.3034 38.4636L36.2473 32.7061L35.7877 31.4638L33.0543 30.5561L31.4575 27.9522L30.3207 24.2251L31.5787 20.9523L34.5541 19.925L36.9489 21.0479L38.0857 23.5326L39.4646 23.3174L39.9242 22.7441L39.4646 20.14L39.3437 16.867L40.021 12.3518L39.9968 9.77176L42.0771 6.47492L45.7299 3.87077L52.1163 1.17128L59.2041 2.1984L65.3725 6.59434L68.2271 11.1095L70.0653 14.3825L70.5251 22.505L69.1462 29.5049L66.6302 35.7165L64.2598 39.0371" fill="#F0D6B7"/>
<path d="M58.6726 60.371L42.3441 61.0398V63.7393L43.723 73.2239L43.0455 74.0122L31.6277 70.1659L30.8295 68.8041L29.6925 56.0468L27.0074 48.4019L26.4269 46.5863L35.5708 40.3749L38.4254 39.252L40.9411 42.3097L43.1182 44.2212L45.6341 45.0095L46.7709 45.3441L48.1498 51.2211L49.1901 52.4634L51.8267 51.5555L49.9883 55.0671L59.9062 59.7019L58.6726 60.3707" fill="#335061"/>
<path d="M31.5794 20.9993L34.5549 19.9722L36.9497 21.0949L38.0865 23.5797L39.4654 23.3646L39.8043 22.0029L39.1268 19.3987L39.804 13.1874L39.2236 9.79495L41.2797 7.42989L45.7306 3.94188L44.4727 2.24567L38.1833 5.30342L35.5467 7.3343L34.071 10.4876L31.7971 13.5456L31.1199 17.1531L31.5794 20.9993" fill="#6D6B6D"/>
<path d="M36.2713 10.3928C36.2713 10.3928 37.9885 6.21208 44.8345 4.18144C51.6802 2.1508 45.1734 2.72407 45.1734 2.72407L37.7465 5.54322L34.8924 8.36214L33.6344 10.6078L36.2713 10.3928" fill="#DCD9D8"/>
<path d="M32.8374 20.2114C32.8374 20.2114 30.4424 12.3036 39.5863 11.1809L39.2477 9.81911L32.9583 11.2765L31.1199 17.1536L31.5794 20.9997L32.8374 20.2114" fill="#DCD9D8"/>
<path d="M36.4895 30.6997L37.9891 29.2662C37.9891 29.2662 38.6666 29.3379 38.7875 30.1262C38.9084 30.9147 39.247 38.034 44.1578 41.8564C44.6173 42.2147 40.505 41.2829 40.505 41.2829L36.852 35.6448" fill="#F7E4CD"/>
<path d="M57.5108 28.5489C57.5108 28.5489 57.7767 25.1327 58.7202 25.3956C59.6637 25.6583 59.6637 26.5898 59.6637 26.5898C59.6637 26.5898 57.3898 28.0233 57.5108 28.5489" fill="#F7E4CD"/>
<path d="M66.9933 16.0305C66.9933 16.0305 65.1064 16.4126 64.9372 18.0611C64.7677 19.7094 66.9933 18.3955 67.3319 18.2761" fill="#F7E4CD"/>
<path d="M53.181 16.1501C53.181 16.1501 50.665 16.4846 50.665 18.0614C50.665 19.6379 53.5196 19.5185 54.3178 18.8496" fill="#F7E4CD"/>
<path d="M37.6513 23.485C37.6513 23.485 33.3215 20.8809 32.862 23.3656C32.4024 25.8501 31.3863 27.6416 33.5392 30.2458L32.0635 29.7919L30.6849 26.3039L30.2251 22.9115L32.862 20.212L35.8372 20.427L37.5547 21.7888L37.6515 23.485" fill="#F7E4CD"/>
<path d="M39.7067 16.365C39.7067 16.365 41.6417 6.42662 51.4631 4.5154C59.5424 2.93861 63.8 4.85007 65.3966 6.66546C65.3966 6.66546 58.1879 -1.79152 51.3419 0.788553C44.4962 3.3927 39.4646 8.12283 39.5855 11.157C39.7791 16.3648 39.7064 16.3648 39.7064 16.3648" fill="#F7E4CD"/>
<path d="M66.1955 7.78812C66.1955 7.78812 62.8817 7.6687 62.7605 10.607C62.7605 10.607 62.7605 11.0611 62.9784 11.515C62.9784 11.515 65.6151 8.57639 67.2117 10.1532" fill="#F7E4CD"/>
<path d="M51.7059 11.8259C51.7059 11.8259 51.1255 7.33465 47.255 9.93856C44.7391 11.6348 44.9809 13.9998 45.4166 14.4539C45.8761 14.9078 45.7552 15.8155 46.0938 15.1945C46.4324 14.5733 46.3357 12.5427 47.5936 11.9692C48.8272 11.3959 50.9078 10.775 51.7059 11.8259" fill="#F7E4CD"/>
<path d="M40.965 42.3102L30.224 47.0401C30.224 47.0401 34.6752 64.5278 32.4011 69.9509L30.8047 69.3776L30.6838 62.7122L27.7083 50.0984L26.4503 46.6101L37.6504 39.1564L40.9645 42.31" fill="#49728B"/>
<path d="M42.053 51.9847L43.5769 53.8244V60.5851H41.7629C41.7629 60.5851 41.5452 55.855 41.5452 55.2818C41.5452 54.7083 41.7629 52.6776 41.7629 52.6776" fill="#49728B"/>
<path d="M42.1014 61.6129L36.9489 61.8279L38.4245 62.8552L42.077 63.4287" fill="#49728B"/>
<path d="M59.688 60.4899L63.921 60.3705L64.9612 70.7386L60.6312 71.3122L59.6877 60.4896" fill="#335061"/>
<path d="M60.8254 60.4903L67.2116 60.1556C67.2116 60.1556 69.8485 53.6099 69.8485 53.2755C69.8485 52.9408 72.1223 43.7911 72.1223 43.7911L66.9698 38.4875L65.9295 37.5798L63.1961 40.2793V50.7671L60.8254 60.4903" fill="#335061"/>
<path d="M63.6791 59.702L59.6877 60.4906L60.2685 63.6441C61.7439 64.313 64.2598 62.5212 64.2598 62.5212" fill="#49728B"/>
<path d="M63.8004 39.9448L71.8076 45.8217L72.0253 43.122L65.9777 37.6036L63.8007 39.9448" fill="#49728B"/>
<path d="M46.0691 82.708L43.6985 73.2237L42.5132 66.2238L42.3196 61.0396L53.0358 60.4664H59.6881L59.0835 72.3158L60.1236 81.4657L60.0026 83.1619L51.3182 83.831L46.0691 82.708" fill="white"/>
<path d="M58.2126 60.3711C58.2126 60.3711 57.6321 72.1014 59.3497 80.4628C59.3497 80.4628 55.9146 82.6128 50.9071 83.1623L60.5108 82.8278L61.6476 82.159L60.269 63.668L59.906 59.702" fill="#DCD9D8"/>
<path d="M65.1313 69.8554L69.5823 68.6131L78.0248 68.1592L79.2828 64.3129L77.0087 57.6475L74.3721 57.3131L70.7193 58.436L67.2358 60.1322L65.3732 59.7976L63.9216 60.3711" fill="white"/>
<path d="M65.0585 67.5861C65.0585 67.5861 68.034 66.2243 68.4935 66.3437L67.2355 60.1324L68.7112 59.5589C68.7112 59.5589 69.7515 65.436 69.7515 66.1049C69.7515 66.1049 76.1376 66.4393 76.7181 66.4393C76.7181 66.4393 78.097 63.8352 77.7584 61.1357L79.0163 64.7431L79.1373 66.7737L77.2988 69.4732L75.2427 69.9273L71.8076 69.8079L70.6706 68.3505L66.6792 68.9238L65.4212 69.3779" fill="#DCD9D8"/>
<path d="M60.5588 59.5825L58.0429 53.2756L55.4062 49.5485C55.4062 49.5485 55.987 47.9719 56.7851 47.9719H59.422L61.938 48.8796L61.72 53.0606L60.5588 59.5825" fill="white"/>
<path d="M61.0674 57.4326C61.0674 57.4326 57.8742 51.3407 57.8742 50.4328C57.8742 50.4328 58.4549 49.071 59.2531 49.4057C60.0515 49.7401 61.769 50.648 61.769 50.648V48.4977L57.8742 47.7095L55.2375 48.0439L59.6885 58.46L60.6076 58.5794" fill="#DCD9D8"/>
<path d="M47.0851 42.549L43.9163 42.2144L40.9408 41.3067V42.334L42.3921 43.9108L46.9642 45.9415" fill="white"/>
<path d="M41.9811 42.8833C41.9811 42.8833 45.5127 44.3407 46.6741 44.0062L46.7948 45.368L43.6019 44.6989L41.6666 43.3371L41.9811 42.8833" fill="#DCD9D8"/>
<path d="M65.1312 48.3544C63.1959 48.3065 61.4299 48.0676 59.906 47.6376C60.0027 47.0164 59.8092 46.4193 59.9786 45.9652C60.414 45.6546 61.1154 45.6546 61.7685 45.5831C61.2122 45.3202 60.414 45.2008 59.785 45.3681C59.7607 44.9381 59.5673 44.6752 59.4462 44.3408C60.5349 43.9584 63.0992 41.4501 64.5505 42.2622C65.2521 42.6684 65.5425 44.914 65.5907 46.037C65.639 46.9447 65.4939 47.8526 65.1312 48.3544" fill="#D33833"/>
<path d="M65.1312 48.3544C63.1959 48.3065 61.4299 48.0676 59.906 47.6376C60.0027 47.0164 59.8092 46.4193 59.9786 45.9652C60.414 45.6546 61.1154 45.6546 61.7685 45.5831C61.2122 45.3202 60.414 45.2008 59.785 45.3681C59.7607 44.9381 59.5673 44.6752 59.4462 44.3408C60.5349 43.9584 63.0992 41.4501 64.5505 42.2622C65.2521 42.6684 65.5425 44.914 65.5907 46.037C65.639 46.9447 65.4939 47.8526 65.1312 48.3544V48.3544Z" fill="black" stroke="#D33833" stroke-width="2"/>
<path d="M55.8662 45.2246C55.8662 45.3681 55.8662 45.5111 55.8418 45.6546C55.2372 46.037 54.2693 46.037 53.5921 46.3714C54.5599 46.4191 55.334 46.6579 56.0112 46.9685C55.9869 47.327 55.9869 47.7093 55.963 48.0676C54.8501 48.8082 53.8342 49.9311 52.5279 50.6477C51.8989 50.9823 49.746 51.8424 49.0929 51.675C48.7299 51.5794 48.6816 51.1256 48.5366 50.6956C48.2221 49.7879 47.4963 48.3064 47.4236 46.9208C47.351 45.1769 47.1577 42.2384 49.0685 42.5966C50.6166 42.8834 52.4068 43.5763 53.5921 44.2213C54.342 44.6513 54.7533 45.129 55.8662 45.2246" fill="#D33833"/>
<path d="M55.8662 45.2246C55.8662 45.3681 55.8662 45.5111 55.8418 45.6546C55.2372 46.037 54.2693 46.037 53.5921 46.3714C54.5599 46.4191 55.334 46.6579 56.0112 46.9685C55.9869 47.327 55.9869 47.7093 55.963 48.0676C54.8501 48.8082 53.8342 49.9311 52.5279 50.6477C51.8989 50.9823 49.746 51.8424 49.0929 51.675C48.7299 51.5794 48.6816 51.1256 48.5366 50.6956C48.2221 49.7879 47.4963 48.3064 47.4236 46.9208C47.351 45.1769 47.1577 42.2384 49.0685 42.5966C50.6166 42.8834 52.4068 43.5763 53.5921 44.2213C54.342 44.6513 54.7533 45.129 55.8662 45.2246V45.2246Z" fill="black" stroke="#D33833" stroke-width="2"/>
<path d="M56.955 47.3031C56.7855 46.3473 56.592 46.0848 56.6646 45.2484C59.253 43.5522 59.7125 48.1631 56.9547 47.3031" fill="#D33833"/>
<path d="M56.955 47.3031C56.7855 46.3473 56.592 46.0848 56.6646 45.2484C59.253 43.5522 59.7125 48.1631 56.9547 47.3031H56.955Z" fill="black" stroke="#D33833" stroke-width="2"/>
<path d="M60.6795 48.0674C60.6795 48.0674 59.8813 46.9444 60.4618 46.61C61.0425 46.2756 61.5989 46.61 61.9375 46.0367C62.2764 45.4632 61.9375 45.129 62.0584 44.46C62.1793 43.7911 62.7357 43.6717 63.3164 43.5523C63.8969 43.4326 65.4935 43.2176 65.7112 43.7673L65.0339 41.7364L63.655 41.2825L59.325 43.7673L59.1073 45.0096V47.4941" fill="#EF3D3A"/>
<path d="M48.681 51.7939C48.536 50.0259 48.3909 48.282 48.2456 46.5141C48.0038 43.8863 48.8746 44.3399 51.1967 44.3399C51.5597 44.3399 53.3738 44.7464 53.495 45.0093C54.124 46.2752 52.4547 45.9885 54.2205 46.9441C55.6962 47.7326 58.333 46.4664 57.7282 44.6746C57.3893 44.2684 55.9865 44.5552 55.4785 44.2923L52.7933 42.9307C51.6565 42.3572 49.0438 41.4972 47.8343 42.3095C44.7621 44.364 48.0279 49.5244 49.1165 51.6745" fill="#EF3D3A"/>
<path d="M51.705 11.826C48.5844 11.1093 47.0363 13.1161 46.0928 15.1944C45.2462 15.0034 45.5848 13.8567 45.8027 13.2834C46.3588 11.7784 48.6088 9.74748 50.447 10.0342C51.221 10.1298 52.2854 10.8466 51.705 11.826" fill="#231F20"/>
<path d="M66.8729 15.3133H67.018C67.7196 16.7469 68.3242 18.276 69.2194 19.566C68.6148 20.9516 64.72 22.1461 64.7683 19.7093C65.615 19.351 67.0665 19.6375 67.8164 19.1598C67.381 17.9892 66.7761 16.9857 66.8729 15.3136" fill="#231F20"/>
<path d="M53.278 15.362C53.9552 16.5803 54.1727 17.8465 55.1162 18.7544C55.5518 19.1604 56.3741 19.6621 55.9631 20.8087C55.8663 21.0716 55.1647 21.6689 54.7534 21.7883C53.278 22.2184 49.8186 21.8839 50.9797 20.0442C52.2133 20.0921 53.8584 20.8327 54.7778 19.9486C54.0762 18.8498 52.8182 16.6518 53.278 15.362Z" fill="#231F20"/>
<path d="M66.3163 27.641C64.0907 29.0507 61.5989 30.6037 57.9222 30.2451C57.1482 29.5763 56.8337 28.071 57.6078 27.0918C57.9947 27.7607 57.7528 29.003 58.8657 29.194C60.946 29.5525 63.3649 27.9278 64.8647 27.3786C65.7838 25.8256 64.7923 25.2762 63.9456 24.2727C62.2281 22.242 59.9543 19.7096 60.0267 16.6757C60.7283 16.1739 60.7766 17.4401 60.8734 17.6551C61.7683 19.7096 64.0183 22.3614 65.6388 24.1294C66.0501 24.5594 66.7032 24.9894 66.7758 25.2762C66.9935 26.0883 66.2195 27.0916 66.3163 27.6412" fill="#231F20"/>
<path d="M36.8524 26.16C36.151 25.7539 35.9818 24.0338 35.1593 23.9859C33.9739 23.9144 34.1916 26.2318 34.1916 27.5933C33.3935 26.8768 33.2482 24.6309 33.8289 23.4844C33.1516 23.1497 32.861 23.8426 32.4741 24.0815C32.9822 20.6176 37.6267 22.4809 36.8526 26.16" fill="#231F20"/>
<path d="M67.7193 29.0985C66.679 31.0576 65.2034 33.2077 62.1555 33.2794C62.0828 32.6583 62.0346 31.6788 62.1555 31.2965C64.502 31.0576 65.9533 29.887 67.7193 29.0985Z" fill="#231F20"/>
<path d="M53.1079 30.3647C55.0431 31.3682 58.6232 31.4876 61.2842 31.4159C61.4293 31.9894 61.4293 32.7059 61.4293 33.3989C58.0186 33.5421 54.0029 32.7059 53.1079 30.3647Z" fill="#231F20"/>
<path d="M52.7452 32.2284C54.0997 35.5729 58.7201 35.1908 62.6147 35.0952C62.4455 35.5252 62.0825 36.0508 61.5988 36.2179C60.3408 36.7196 56.9058 37.102 55.1641 36.1941C54.0756 35.6208 53.3498 34.3067 52.7452 33.5422C52.479 33.184 51.0277 32.2522 52.7452 32.2284" fill="#231F20"/>
<path d="M66.1467 50.6477C64.5743 53.3233 63.0506 56.0707 61.188 58.412C61.9618 56.1425 62.3004 52.3201 62.4216 49.4056C64.0664 48.6409 65.4695 49.5727 66.1467 50.6479" fill="#81B0C4"/>
<path d="M74.6378 60.2518C72.872 60.6101 71.6381 62.3064 69.8965 62.1869C70.8641 60.8728 72.509 60.2995 74.6378 60.2518" fill="#231F20"/>
<path d="M75.4107 62.9747C73.9594 63.1182 72.266 63.357 70.8147 63.2376C71.5161 62.1865 74.1771 62.5685 75.4107 62.9747Z" fill="#231F20"/>
<path d="M75.9202 65.34C74.2995 65.3639 72.2916 65.34 70.7435 65.2204C71.6626 64.2409 74.88 64.8621 75.9202 65.34Z" fill="#231F20"/>
<path d="M63.099 71.79C63.3409 73.7968 64.1393 75.8277 64.0425 78.0254C63.1473 78.3119 62.6395 78.5749 61.4298 78.5749C61.3574 76.7113 61.0912 73.8447 61.1638 72.0529C61.7443 72.1006 62.6151 71.6468 63.099 71.79" fill="#DCD9D8"/>
<path d="M60.4869 42.1664C59.6644 42.6918 58.9871 43.3368 58.1887 43.9103C56.4471 44.0059 55.5036 43.7909 54.2458 42.8115C54.27 42.7397 54.3909 42.7636 54.3909 42.668C56.2535 43.4803 58.6241 42.3335 60.4869 42.1662" fill="#F0D6B7"/>
<path d="M50.7621 54.6615C51.2701 52.4873 53.278 51.3408 55.0921 50.1463C56.9547 52.4876 58.0917 55.4977 59.3497 58.4122C56.3742 57.5283 53.3504 56.1188 50.7621 54.6615" fill="#81B0C4"/>
<path d="M61.1647 72.077C61.092 73.8688 61.3339 76.7118 61.4307 78.5989C62.6404 78.5989 63.1482 78.3362 64.0434 78.0495C64.1402 75.8515 63.3418 73.8208 63.0999 71.814C62.616 71.647 61.7452 72.1008 61.1647 72.077V72.077ZM42.4897 61.9476C43.2881 69.1384 44.4249 75.1586 46.5293 81.5375C51.1982 82.9469 56.8103 83.0663 60.947 81.8001C60.1971 78.2168 60.5116 73.8449 60.0761 69.9984C59.7373 67.1078 59.9067 64.2171 59.4472 61.2785C54.4397 60.2514 47.3762 61.0397 42.4897 61.9476ZM60.6325 61.3264C60.584 64.4083 60.7775 67.466 61.0196 70.5479C62.2288 70.3808 63.0273 70.2613 64.1402 69.9984C63.7772 67.036 63.8257 63.6677 63.0758 61.0397C62.2291 61.0637 61.4789 61.0397 60.6325 61.3262V61.3264ZM66.7041 60.8247C66.1237 60.7052 65.4706 60.8247 64.9384 60.8247C65.2043 63.3332 65.8092 66.1045 66.0269 68.7563C66.8736 68.7801 67.3331 68.374 68.0348 68.2545C68.083 65.9371 67.8412 62.7359 66.7041 60.8247ZM75.9207 69.1384C77.7109 68.7084 78.8236 66.5583 78.3155 64.3365C77.9769 62.8553 77.3964 60.0364 76.7431 59.0805C76.2835 58.3878 75.0014 57.4561 73.9614 58.1011C72.2921 59.1523 69.3652 59.4629 68.1557 60.7291C68.7603 62.7359 68.9539 65.4595 69.1957 67.9916C71.2762 68.1113 73.8161 67.4186 75.558 68.1589C74.3483 68.5413 72.8002 68.5413 71.7599 69.1146C72.6308 69.5207 74.6145 69.4492 75.9207 69.1386V69.1384ZM59.3262 58.4117C58.0683 55.4972 56.9315 52.4871 55.0686 50.1459C53.2543 51.3401 51.2708 52.4871 50.7386 54.661C53.3511 56.1184 56.3751 57.5278 59.3262 58.4117ZM62.4224 49.4053C62.3015 52.3198 61.9629 56.1422 61.1888 58.4117C63.0514 56.0466 64.5756 53.3231 66.1478 50.6474C65.4706 49.5724 64.0675 48.6406 62.4227 49.405L62.4224 49.4053ZM58.915 48.187C58.2133 48.115 57.6087 48.9991 56.6894 48.6168C56.4717 48.8556 56.2781 49.0947 56.0604 49.3335C58.0924 51.7701 59.0359 55.2107 60.6083 58.0534C61.455 55.3063 61.3583 52.3198 61.5518 49.3335C60.3906 49.3812 59.7375 48.2585 58.915 48.1867V48.187ZM56.6652 45.2482C56.5926 46.0844 56.7862 46.3473 56.9554 47.3029C59.7131 48.1629 59.2536 43.552 56.6652 45.2482ZM53.593 44.2449C52.4076 43.5996 50.6177 42.9069 49.0694 42.6204C47.1585 42.2619 47.3519 45.2005 47.4245 46.9446C47.4972 48.33 48.2229 49.7874 48.5374 50.7191C48.6825 51.1492 48.7308 51.603 49.0938 51.6986C49.7469 51.8421 51.924 51.0059 52.5288 50.6712C53.8351 49.9785 54.8509 48.8558 55.9639 48.0912C55.988 47.7329 55.988 47.3506 56.0121 46.9923C55.3349 46.6576 54.585 46.4429 53.593 46.3952C54.2463 46.0605 55.2381 46.0605 55.8427 45.6784C55.8427 45.5349 55.8427 45.3917 55.8671 45.2482C54.7541 45.1287 54.3429 44.6511 53.593 44.2449ZM42.2237 42.2142C41.2319 43.2175 45.0054 44.5555 46.1909 44.6272C46.1909 44.006 46.5537 43.4089 46.481 42.9548C45.0539 42.716 43.1913 42.8831 42.2237 42.2142ZM54.4158 42.6681C54.4158 42.7637 54.2946 42.7398 54.2705 42.8116C55.5526 43.791 56.4958 44.0058 58.2133 43.9105C58.9876 43.361 59.689 42.6922 60.5116 42.1663C58.6246 42.3337 56.254 43.4804 54.4155 42.6681H54.4158ZM65.5915 46.0128C65.5432 44.9137 65.2526 42.6443 64.5512 42.2381C63.0999 41.4019 60.5357 43.9343 59.4472 44.3166C59.5681 44.6511 59.7617 44.9137 59.7858 45.3438C60.4392 45.1767 61.213 45.2961 61.7693 45.5588C61.1162 45.6305 60.4148 45.6305 59.9794 45.9411C59.8341 46.3949 60.0276 46.9923 59.9067 47.6135C61.4307 48.0435 63.1967 48.2585 65.1319 48.33C65.4947 47.8523 65.6398 46.9444 65.5915 46.0128V46.0128ZM40.5544 43.1699C40.2399 42.9549 38.1355 40.2551 37.8452 40.3745C34.0473 41.856 30.4914 44.4122 27.3223 46.8488C30.3461 53.2754 31.5799 61.1353 31.7976 68.7084C35.257 70.309 38.3047 72.6264 43.0219 72.8652C42.4655 69.0669 41.9818 65.6504 41.6673 62.0668C40.482 61.5653 38.7886 62.0909 37.676 61.9235C37.676 60.6097 39.3691 61.3503 39.5142 60.4664C39.6112 59.7973 38.5707 59.7496 38.9096 58.6984C39.7804 59.009 40.2399 59.7017 41.1593 59.9646C42.006 58.149 41.1593 54.9239 41.2802 53.3948C41.3046 53.1083 41.4253 51.818 42.0784 52.033C42.6591 52.2242 42.0542 55.4972 42.1028 56.9305C42.151 58.2684 41.9333 59.5346 42.4897 60.3708C47.0376 59.7496 51.658 59.3673 56.5926 59.224C55.5041 58.7702 54.2219 58.3402 52.8189 57.5517C52.0449 57.1216 49.6501 56.2378 49.4324 55.521C49.0694 54.3742 50.3515 53.7771 50.5692 52.7975C48.2712 54.0398 47.8358 51.6032 47.2795 49.9068C46.7955 48.3538 46.5054 47.1835 46.3845 46.2994C44.3766 45.2961 42.2478 44.3643 40.5544 43.1699V43.1699ZM63.5836 40.6851C66.7527 39.1803 67.3331 46.3473 66.0752 48.6647C66.2687 49.3574 66.9219 49.6203 67.1881 50.2412C65.422 53.371 63.4629 56.2855 61.6484 59.3673C62.979 58.5311 64.9142 59.224 66.4864 58.6029C67.0672 58.3878 67.4784 57.074 67.9139 56.0228C69.1231 53.156 70.381 49.5244 70.9376 46.8014C71.0585 46.1802 71.4213 44.8182 71.3245 44.2687C71.1795 43.2654 69.8247 42.5248 69.1231 41.9275C67.8412 40.7807 67.0428 39.8015 65.688 38.7262C65.1802 39.5148 64.019 40.0401 63.5836 40.6854V40.6851ZM33.3216 12.9486C31.8218 14.5972 32.1363 17.6552 32.3057 19.8529C35.0391 18.1569 38.6436 19.9964 38.6192 22.8632C39.9254 22.8392 39.1031 21.2626 38.8613 20.2352C38.087 16.9146 40.1675 13.331 38.9578 10.2971C36.6116 10.488 34.7005 11.4198 33.3216 12.9489V12.9486ZM44.1104 3.41663C40.6997 4.37223 36.3212 6.83289 34.9182 9.86681C36.0067 9.69971 36.7566 9.17412 37.821 9.10237C38.2323 9.07853 38.7645 9.2697 39.224 9.15028C40.1431 8.91144 40.9416 6.85672 41.643 6.09228C42.3205 5.35168 43.1428 5.01725 43.6994 4.3484C44.0621 4.18106 44.5941 4.18106 44.6185 3.65547C44.4734 3.48813 44.304 3.36895 44.1104 3.41663V3.41663ZM61.8902 4.32432C58.3345 2.3416 52.3352 0.86039 48.5616 2.7237C45.5134 4.22874 41.4014 6.71322 39.9981 9.84321C41.3043 12.8769 39.6112 15.6481 39.49 18.73C39.4418 20.3785 40.2643 21.7882 40.3367 23.58C39.8772 24.3206 38.5224 24.3921 37.5792 24.3444C37.2647 22.7674 36.7083 20.9997 35.0632 20.8085C32.7411 20.5458 31.0236 22.4571 30.9268 24.44C30.8059 26.7812 32.7411 30.6514 35.4986 30.3887C36.563 30.2931 36.8293 29.2419 37.9902 29.2419C38.6192 30.4843 37.0228 30.8664 36.8534 31.7502C36.8049 31.9893 36.9743 32.8732 37.0952 33.3032C37.6033 35.3338 38.716 37.9856 39.8045 39.5386C41.2075 41.5213 43.9412 41.8081 46.8923 41.9992C47.4245 40.8763 49.3597 40.9719 50.6175 41.2586C49.0938 40.6615 47.6907 39.228 46.5295 37.9618C45.1989 36.5044 43.8444 34.9517 43.7718 33.0405C46.3118 36.5044 48.3921 39.5386 52.9884 41.0677C56.4717 42.2142 60.5357 40.5419 63.2208 38.6786C64.3335 37.9139 64.9866 36.6718 65.7851 35.5727C68.7362 31.3681 70.1151 25.3954 69.8247 19.5902C69.7038 17.2013 69.7038 14.8122 68.8812 13.2116C68.0348 11.5392 65.1561 10.0103 63.4627 11.5392C63.1482 9.89088 64.8657 8.88736 66.8733 9.48471C65.4464 7.64524 63.9466 5.4711 61.8902 4.32432V4.32432ZM68.5185 58.3402C71.3004 56.9784 76.4771 54.6848 78.1946 58.3402C78.848 59.7017 79.5976 61.9714 79.9121 63.3809C80.3717 65.34 79.4041 69.4969 77.3479 70.1417C75.5336 70.7152 73.4292 70.6913 71.2521 70.2613C70.9859 70.0463 70.7199 69.6878 70.5022 69.3055C68.9541 69.2578 67.4784 69.3775 66.2687 70.0225C66.3897 71.169 65.6156 71.3364 64.8657 71.5754C64.3335 73.7014 65.9542 76.4727 65.5673 78.3839C65.3011 79.7695 63.5836 79.9845 62.3259 80.2234C62.2774 80.988 62.3741 81.6331 62.4709 82.2781C62.1808 83.3293 60.8985 83.9264 59.6649 84.0699C55.6252 84.5476 49.505 84.7626 45.6346 83.3769C44.5458 80.7492 43.6994 77.5718 42.8041 74.5855C39.0305 74.9915 35.9584 72.9847 33.0797 71.647C32.088 71.1931 30.7091 70.9302 30.3219 70.1419C29.9592 69.3775 30.1042 67.9201 30.0075 66.5583C29.7897 63.0465 29.572 59.654 28.6529 56.0705C28.2417 54.446 27.4918 53.0365 26.9837 51.4838C26.5 50.0503 25.6774 48.2585 25.4597 46.825C25.1452 44.699 27.1773 44.5793 28.4594 43.6475C30.4672 42.2142 32.0395 41.4257 34.2165 40.1357C34.8699 39.7536 36.8049 38.798 37.0226 38.3439C37.4583 37.4603 36.2729 36.2179 35.9584 35.525C35.4504 34.4261 35.1842 33.4943 35.1117 32.4191C33.2974 32.1326 31.8944 31.0575 31.0721 29.8631C29.693 27.8563 28.7253 24.1533 29.935 21.3582C30.0318 21.1432 30.4914 20.6891 30.564 20.3547C30.7091 19.6858 30.2978 18.8017 30.2737 18.0852C30.1528 14.4298 30.9027 11.2763 33.3942 10.1774C34.4101 6.18787 38.0385 4.874 41.4496 2.89103C42.7317 2.15043 44.1348 1.67274 45.5861 1.1469C50.7869 -0.740236 58.794 -0.381974 63.124 2.84312C64.9625 4.2049 67.8895 7.09556 68.9297 9.19795C71.7114 14.7166 71.494 23.9621 69.5587 30.6993C69.2925 31.607 68.9297 32.9208 68.3975 34.0199C68.0348 34.7844 66.8977 36.2894 67.0186 36.9583C67.1639 37.6512 69.6314 39.4907 70.1636 39.9924C71.1071 40.9001 72.9211 42.0948 73.0662 43.2416C73.2356 44.4599 72.5342 46.1323 72.1715 47.3029C71.01 51.2209 69.8491 54.8283 68.5185 58.3402V58.3402Z" fill="#231F20"/>
<path d="M50.0125 31.2013C50.1576 31.0101 50.9799 30.6998 52.1411 31.2492C52.1411 31.2492 50.7622 31.4642 50.8831 33.734L50.3026 33.6143C50.327 33.6384 49.7222 31.5837 50.0125 31.2013Z" fill="#F7E4CD"/>
<path d="M60.0264 50.6002C60.0264 50.9347 59.7363 51.2214 59.3974 51.2214C59.0588 51.2214 58.7684 50.9347 58.7684 50.6002C58.7684 50.2656 59.0588 49.979 59.3974 49.979C59.7604 49.979 60.0264 50.2656 60.0264 50.6002Z" fill="#1D1919"/>
<path d="M60.6548 53.4907C60.6548 53.8254 60.3647 54.1119 60.0258 54.1119C59.6872 54.1119 59.3969 53.8254 59.3969 53.4907C59.3969 53.156 59.6872 52.8695 60.0258 52.8695C60.3888 52.8695 60.6548 53.1324 60.6548 53.4907Z" fill="#1D1919"/>
<path d="M27.7089 90.0421C27.5154 90.0662 27.3462 90.0898 27.2009 90.1139C27.0558 90.1377 26.9108 90.1615 26.7172 90.2095C26.4995 90.2571 26.3783 90.3527 26.33 90.496C26.2818 90.6395 26.2332 90.7825 26.2332 90.9739V96.8029C26.2332 97.3154 26.1175 97.8215 25.8946 98.2843C25.6769 98.7382 25.3866 99.0964 24.9997 99.407C24.6125 99.6935 24.1771 99.9326 23.6934 100.076C23.2095 100.219 22.7014 100.315 22.1692 100.315C21.2257 100.315 20.4761 100.1 19.8954 99.6459C19.3149 99.192 19.0245 98.5947 19.0245 97.8064C19.0245 97.3525 19.1455 96.9702 19.4117 96.6596C19.6777 96.349 20.0407 96.2058 20.5002 96.2058C20.9356 96.2058 21.2743 96.3252 21.5405 96.5881C21.8065 96.8508 21.9274 97.1614 21.9274 97.5199C21.9274 97.8305 21.8065 98.1411 21.5888 98.4035C21.371 98.6664 21.1051 98.9293 20.8147 99.1443V99.2399C20.863 99.3353 20.9598 99.4309 21.1048 99.5026C21.2501 99.5744 21.4193 99.5982 21.5646 99.5982C22.1692 99.5982 22.6532 99.3832 22.9918 98.9529C23.3307 98.5232 23.4998 97.8781 23.4998 97.0181V91.0454C23.4998 90.8783 23.4755 90.711 23.4272 90.5916C23.3789 90.4721 23.2336 90.3765 23.0159 90.281C22.8709 90.2095 22.6773 90.1615 22.4596 90.1139C22.2419 90.066 22.0727 90.0421 21.9274 90.0183V89.4448H27.6363V90.0421H27.7089V90.0421Z" fill="#231F20"/>
<path d="M36.6595 98.261C36.4903 98.5475 36.2726 98.8101 36.0305 99.0731C35.7887 99.3357 35.4983 99.5269 35.1838 99.7181C34.8452 99.9093 34.5065 100.053 34.1679 100.148C33.829 100.244 33.418 100.291 32.9826 100.291C32.2327 100.291 31.6037 100.196 31.0474 99.9808C30.5152 99.7658 30.0556 99.5031 29.717 99.1448C29.354 98.7863 29.1121 98.3801 28.9186 97.9024C28.7422 97.4032 28.6523 96.8782 28.6526 96.3495C28.6526 95.848 28.7494 95.3462 28.9427 94.8924C29.1363 94.4383 29.4025 94.0083 29.7411 93.65C30.0798 93.2917 30.5152 93.0047 31.0474 92.79C31.6001 92.5669 32.1919 92.4532 32.789 92.4553C33.4907 92.4553 34.0714 92.5511 34.5307 92.7182C34.9905 92.8856 35.3532 93.1244 35.6436 93.4112C35.9337 93.6977 36.1273 94.0323 36.2726 94.4144C36.3935 94.7968 36.4659 95.203 36.4659 95.6327V96.1107H31.3619C31.3619 97.138 31.5554 97.9024 31.9665 98.428C32.3536 98.9536 33.0067 99.2163 33.8534 99.2163C34.3374 99.2163 34.7484 99.0969 35.1355 98.8342C35.522 98.5759 35.8512 98.2425 36.1032 97.8545L36.6595 98.2607V98.261ZM33.781 95.4177C33.781 95.131 33.7569 94.8204 33.7327 94.5098C33.7084 94.1992 33.6601 93.9365 33.5633 93.7453C33.4665 93.5065 33.37 93.3392 33.2005 93.2197C33.0555 93.1003 32.8617 93.0524 32.6442 93.0524C32.2571 93.0524 31.9426 93.2436 31.7251 93.6259C31.483 94.008 31.3619 94.6292 31.338 95.4654L33.781 95.4177V95.4177Z" fill="#231F20"/>
<path d="M47.3269 100.029H42.7792V99.4794C42.876 99.4794 42.9969 99.4553 43.1181 99.4315C43.2631 99.4077 43.3597 99.3838 43.4326 99.36C43.5291 99.3121 43.6018 99.2165 43.65 99.1209C43.6986 99.0253 43.7227 98.8582 43.7227 98.6671V95.1793C43.7227 94.6778 43.6259 94.2954 43.4326 94.0327C43.2388 93.7698 42.9728 93.6504 42.5856 93.6504C42.3921 93.6504 42.1987 93.6745 42.0293 93.746C41.8599 93.7937 41.6904 93.8892 41.5212 94.0087C41.3762 94.1043 41.2553 94.1998 41.1585 94.3193C41.0617 94.4148 40.989 94.5104 40.9408 94.6058V98.5955C40.9408 98.7629 40.9651 98.9061 41.0134 99.0256C41.0617 99.1452 41.1585 99.2408 41.2553 99.2885C41.3279 99.3361 41.4245 99.3841 41.5454 99.4079L41.9084 99.4796V100.029H37.3122V99.4796C37.4331 99.4796 37.554 99.4556 37.6993 99.4317C37.8202 99.4079 37.9411 99.3841 38.0379 99.3602C38.2074 99.3123 38.3039 99.2167 38.3768 99.0973C38.4251 98.9779 38.4733 98.8346 38.4733 98.6435V94.2954C38.4733 94.1522 38.4251 93.9848 38.3524 93.8416C38.2798 93.6981 38.1588 93.5787 38.0379 93.4831C37.9411 93.4354 37.8444 93.3637 37.6991 93.3398C37.551 93.2909 37.3958 93.2667 37.2397 93.2681V92.7186L40.844 92.5275L40.9649 92.6469V93.7222H40.9893C41.1657 93.5788 41.3352 93.4272 41.4971 93.2681C41.6753 93.1158 41.8609 92.9723 42.0534 92.8381C42.247 92.7186 42.4889 92.6231 42.7792 92.5275C43.0693 92.4319 43.4082 92.408 43.7468 92.408C44.5694 92.408 45.174 92.6469 45.5853 93.101C45.9965 93.5548 46.1899 94.176 46.1899 94.9404V98.5955C46.1899 98.7867 46.2143 98.9302 46.2625 99.0256C46.311 99.1452 46.432 99.2167 46.577 99.2885C46.6497 99.3125 46.7465 99.3602 46.8674 99.3841C46.9883 99.4081 47.1092 99.4317 47.2787 99.4558V100.029H47.3269V100.029Z" fill="#231F20"/>
<path d="M57.7287 100.028H54.1727C53.7977 99.366 53.3942 98.7203 52.9632 98.0927C52.6002 97.5671 52.2616 97.0653 51.9471 96.6353L51.5117 97.0176V98.6421C51.5117 98.8092 51.5361 98.9765 51.5843 99.0721C51.6326 99.1915 51.7294 99.2633 51.8988 99.3348C51.9956 99.3827 52.0924 99.4065 52.2133 99.4304C52.3342 99.4544 52.4552 99.4783 52.5761 99.4783V100.028H47.8831V99.4783C48.0042 99.4783 48.1252 99.4542 48.2702 99.4304C48.3911 99.4065 48.5121 99.3827 48.6091 99.3589C48.7783 99.311 48.8748 99.2154 48.9475 99.0959C48.996 98.9765 49.0443 98.8333 49.0443 98.6421V90.3284C49.0443 90.161 48.996 89.9937 48.9233 89.8266C48.8507 89.6593 48.7542 89.516 48.6089 89.4204C48.5121 89.3728 48.367 89.301 48.1734 89.2772C47.9799 89.2293 47.8107 89.2054 47.6412 89.2054V88.656L51.3908 88.4648L51.5117 88.5842V96.2768C51.8747 95.9424 52.3101 95.5603 52.7697 95.1303C53.2292 94.7002 53.6164 94.3417 53.8823 94.0552C54.0518 93.8879 54.1486 93.7685 54.1486 93.6729C54.1727 93.5773 54.1727 93.5296 54.1727 93.5058C54.1727 93.4102 54.1 93.3385 53.9308 93.2908C53.7614 93.2429 53.5437 93.1711 53.2051 93.1234V92.5979H57.027V93.1234C56.5192 93.2667 56.1323 93.3861 55.8661 93.5058C55.5999 93.6252 55.3095 93.7923 54.9952 93.9835C54.7895 94.1211 54.5878 94.2645 54.3904 94.4135C54.1968 94.5567 53.9791 94.7482 53.7131 94.9629C54.1968 95.6797 54.6566 96.3247 55.0677 96.922C55.4789 97.5192 55.9144 98.1644 56.3739 98.8333C56.5192 99.0721 56.7128 99.2154 56.9546 99.311C57.1965 99.3827 57.4142 99.4304 57.656 99.4545V100.027H57.7287V100.028Z" fill="#231F20"/>
<path d="M62.5671 100.028H57.8017V99.4786C57.9226 99.4786 58.0677 99.4545 58.1886 99.4307C58.3095 99.4069 58.4305 99.383 58.5031 99.3592C58.6726 99.3113 58.7693 99.2157 58.842 99.0963C58.9144 98.9768 58.9385 98.8336 58.9385 98.6424V94.2944C58.9385 94.1271 58.8903 93.9597 58.8176 93.8405C58.7542 93.7109 58.6532 93.6028 58.5275 93.53C58.4305 93.482 58.3095 93.4105 58.1162 93.3626C57.9226 93.3149 57.7532 93.267 57.6082 93.267V92.7176L61.3092 92.5264L61.4301 92.6459V98.5709C61.4301 98.7383 61.4786 98.8815 61.551 99.0248C61.6237 99.1444 61.7446 99.24 61.8655 99.2877C61.9623 99.3354 62.0832 99.3833 62.2044 99.4071C62.3253 99.4312 62.4462 99.455 62.5913 99.4789V100.028H62.5669L62.5671 100.028ZM61.4786 89.8748C61.4786 90.2569 61.3333 90.5675 61.0432 90.8302C60.7528 91.0931 60.3898 91.2364 60.0029 91.2364C59.5917 91.2364 59.253 91.0931 58.9385 90.8302C58.6484 90.5675 58.5031 90.2331 58.5031 89.8746C58.5031 89.4925 58.6482 89.1819 58.9385 88.8952C59.2286 88.6325 59.5919 88.489 60.0029 88.489C60.4142 88.489 60.7528 88.6325 61.0432 88.8952C61.3333 89.1581 61.4786 89.4923 61.4786 89.8746V89.8748Z" fill="#231F20"/>
<path d="M73.2356 100.029H68.6879V99.4794C68.7847 99.4794 68.9056 99.4553 69.0265 99.4315C69.1716 99.4077 69.2684 99.3838 69.341 99.36C69.4378 99.3121 69.5102 99.2165 69.5587 99.1209C69.607 99.0253 69.6314 98.8582 69.6314 98.6671V95.1793C69.6314 94.6778 69.5346 94.2954 69.341 94.0327C69.1475 93.7698 68.8815 93.6504 68.4943 93.6504C68.3008 93.6504 68.1072 93.6745 67.938 93.746C67.7686 93.8175 67.5991 93.8892 67.4299 94.0087C67.2849 94.1043 67.164 94.1998 67.0672 94.3193C66.9704 94.4148 66.8977 94.5104 66.8495 94.6058V98.5955C66.8495 98.7629 66.8736 98.9061 66.9219 99.0256C66.9704 99.1452 67.0672 99.2408 67.164 99.2885C67.2364 99.3361 67.3331 99.3841 67.4541 99.4079L67.8171 99.4796V100.029H63.2208V99.4796C63.3418 99.4796 63.4627 99.4556 63.608 99.4317C63.7289 99.4079 63.8498 99.3841 63.9466 99.3602C64.1158 99.3123 64.2126 99.2167 64.2852 99.0973C64.3335 98.9779 64.382 98.8346 64.382 98.6435V94.2954C64.382 94.1522 64.3335 93.9848 64.2611 93.8416C64.1885 93.6981 64.0675 93.5787 63.9466 93.4831C63.8498 93.4354 63.753 93.3637 63.6077 93.3398C63.4596 93.2909 63.3043 93.2667 63.1482 93.2681V92.7186L66.7527 92.5275L66.8736 92.6469V93.7222H66.898C67.0744 93.5788 67.2438 93.4272 67.4058 93.2681C67.584 93.1158 67.7696 92.9723 67.9621 92.8381C68.1557 92.7186 68.3975 92.6231 68.6879 92.5275C68.978 92.4319 69.3169 92.408 69.6555 92.408C70.4778 92.408 71.0827 92.6469 71.4937 93.101C71.9052 93.5548 72.0986 94.176 72.0986 94.9404V98.5955C72.0986 98.7867 72.1229 98.9302 72.1712 99.0256C72.2197 99.1452 72.3407 99.2167 72.4857 99.2885C72.5584 99.3125 72.6551 99.3602 72.7758 99.3841C72.897 99.4081 73.0179 99.4317 73.1873 99.4558V100.029H73.2356V100.029Z" fill="#231F20"/>
<path d="M77.4196 100.291C76.9359 100.291 76.4522 100.22 75.9927 100.076C75.5329 99.9331 75.1701 99.7898 74.9041 99.6225L74.6864 100.124H74.1057L74.0089 97.353H74.5652C74.6379 97.568 74.7588 97.8307 74.9524 98.1174C75.1218 98.4039 75.3395 98.643 75.557 98.8819C75.8067 99.1052 76.0829 99.2978 76.3796 99.4554C76.694 99.5986 77.0085 99.6942 77.3474 99.6942C77.807 99.6942 78.1456 99.5986 78.3633 99.4313C78.581 99.2642 78.7019 98.9775 78.7019 98.6192C78.7019 98.428 78.6534 98.2607 78.5566 98.1174C78.4601 97.998 78.3148 97.8786 78.1456 97.7828C77.952 97.6874 77.7343 97.5918 77.4922 97.5203C77.2504 97.4486 76.9603 97.3768 76.6216 97.2574C76.2828 97.1618 75.9927 97.0662 75.7506 96.9468C75.5087 96.8512 75.2427 96.6839 75.0007 96.4689C74.783 96.278 74.5896 96.0389 74.4687 95.7762C74.3234 95.5133 74.2751 95.1791 74.2751 94.7967C74.2751 94.1038 74.5652 93.5303 75.1701 93.1005C75.7747 92.6705 76.549 92.4553 77.5166 92.4553C77.9762 92.4553 78.3874 92.5034 78.7746 92.5988C79.1615 92.6944 79.476 92.7899 79.7422 92.9094L79.9114 92.4794H80.4919L80.613 95.0118H80.0808C79.9114 94.4862 79.5969 94.0559 79.1856 93.6738C78.7502 93.2917 78.2906 93.1005 77.807 93.1005C77.4198 93.1005 77.1053 93.172 76.8876 93.3394C76.6699 93.5067 76.5487 93.7217 76.5487 94.0082C76.5487 94.3906 76.7182 94.6535 77.0327 94.8206C77.3472 94.9879 77.807 95.1553 78.3874 95.2983C79.2824 95.5374 79.9355 95.8479 80.3709 96.23C80.7822 96.6362 80.9999 97.1377 80.9999 97.7351C80.9999 98.5474 80.6854 99.1925 80.0323 99.6227C79.3065 100.052 78.4598 100.291 77.4198 100.291H77.4196Z" fill="#231F20"/>
</g>
<defs>
<clipPath id="clip0_702_12">
<rect width="100" height="100" fill="white"/>
</clipPath>
</defs>
</svg>
