<svg width="100" height="100" viewBox="0 0 100 100" fill="none" xmlns="http://www.w3.org/2000/svg">
<g clip-path="url(#clip0_702_12)">
<path d="M95.8227 -0.000106812H47.6678C47.6678 5.76513 49.9581 11.2942 54.0347 15.3709C58.1114 19.4475 63.6405 21.7378 69.4057 21.7378H78.2764V30.3026C78.2842 42.2971 88.0056 52.0189 100 52.0267V4.17733C100 1.87085 98.1304 -0.000106812 95.8227 -0.000106812Z" fill="#2684FF"/>
<path d="M71.9955 23.9934H23.8411C23.8485 35.9879 33.5699 45.7097 45.5648 45.7175H54.4355V54.3097C54.4508 66.3043 64.1788 76.0194 76.1734 76.0194V28.1716C76.1734 25.8643 74.3028 23.9938 71.9955 23.9938V23.9934Z" fill="url(#paint0_linear_702_12)"/>
<path d="M48.1549 47.9735H0C0 59.979 9.73273 69.7113 21.7379 69.7113H30.6364V78.2757C30.6442 90.2593 40.3487 99.9768 52.3327 99.9995V52.1513C52.3327 49.844 50.4621 47.9735 48.1549 47.9735Z" fill="url(#paint1_linear_702_12)"/>
</g>
<defs>
<linearGradient id="paint0_linear_702_12" x1="75.1429" y1="24.0771" x2="54.7831" y2="45.3217" gradientUnits="userSpaceOnUse">
<stop offset="0.18" stop-color="#0052CC"/>
<stop offset="1" stop-color="#2684FF"/>
</linearGradient>
<linearGradient id="paint1_linear_702_12" x1="52.6807" y1="48.2102" x2="29.1295" y2="71.3815" gradientUnits="userSpaceOnUse">
<stop offset="0.18" stop-color="#0052CC"/>
<stop offset="1" stop-color="#2684FF"/>
</linearGradient>
<clipPath id="clip0_702_12">
<rect width="100" height="100" fill="white"/>
</clipPath>
</defs>
</svg>
