<svg width="100" height="100" viewBox="0 0 100 100" fill="none" xmlns="http://www.w3.org/2000/svg">
<g clip-path="url(#clip0_702_12)">
<path fill-rule="evenodd" clip-rule="evenodd" d="M97.6796 73.5398L97.232 74.7C89.6049 89.5534 76.0888 98.6659 56.8105 99.0678C47.7983 99.2538 39.2114 96.9411 33.6019 94.427C21.4965 88.9878 11.314 78.9011 5.75347 68.124C-2.22326 52.675 -3.66183 31.1843 12.9241 15.1329C13.1802 15.1329 10.9121 18.6135 11.1682 18.6135L10.7116 20.0989C-1.24009 57.5173 35.5827 89.5846 71.3778 85.9169C79.9802 85.0351 90.9499 80.3241 97.6796 73.5398Z" fill="#21609B"/>
<path fill-rule="evenodd" clip-rule="evenodd" d="M76.0173 58.0677C85.0228 58.1289 94.4292 53.9201 99.9998 48.011C95.1263 60.3814 81.0156 68.3326 62.0937 65.8039C46.2493 63.6839 31.1566 47.7405 29.6022 31.7647C28.4654 20.1381 32.5172 13.1991 39.1945 4.78149C36.8741 9.18406 36.0067 12.579 35.7907 14.7446C33.2543 39.8951 55.8817 57.9352 76.0173 58.0677" fill="#21609B"/>
<path fill-rule="evenodd" clip-rule="evenodd" d="M99.0961 26.8285C97.6965 30.0397 89.6363 36.1035 86.0766 36.8618C71.9815 39.8647 62.9548 33.1807 58.226 25.5748C57.5234 24.439 56.224 21.337 55.9913 20.5475C54.1575 14.3122 55.0003 4.88135 60.4707 0C58.8228 4.64196 58.5823 10.0333 59.4497 13.5384C59.9752 15.6573 61.5763 19.3573 63.1786 21.6844C66.0936 25.9233 67.943 26.9532 71.6875 29.2046C73.3744 30.2178 75.1838 31.0306 75.9654 31.2533C79.5162 32.2989 87.013 35.0524 99.0972 26.8285" fill="#21609B"/>
</g>
<defs>
<clipPath id="clip0_702_12">
<rect width="100" height="100" fill="white"/>
</clipPath>
</defs>
</svg>
