<svg width="100" height="100" viewBox="0 0 100 100" fill="none" xmlns="http://www.w3.org/2000/svg">
<g clip-path="url(#clip0_702_12)">
<rect width="100" height="100" fill="white"/>
<path d="M0 0H100V100H0V0Z" fill="#F7DF1E"/>
<path d="M26.2931 83.5669L33.9455 78.9356C35.422 81.5532 36.765 83.768 39.9865 83.768C43.0744 83.768 45.0216 82.5602 45.0216 77.8618V45.9094H54.4189V77.9946C54.4189 87.7278 48.7134 92.1583 40.3892 92.1583C32.8716 92.1583 28.508 88.2649 26.2927 83.5661" fill="black"/>
<path d="M59.5241 82.5601L67.1756 78.13C69.1901 81.4194 71.8081 83.8358 76.4393 83.8358C80.3335 83.8358 82.8163 81.889 82.8163 79.2038C82.8163 75.9819 80.2655 74.8405 75.9694 72.9616L73.6206 71.9538C66.8405 69.0683 62.3432 65.4433 62.3432 57.7909C62.3432 50.7425 67.7131 45.3722 76.1042 45.3722C82.0784 45.3722 86.3745 47.4534 89.462 52.8905L82.1448 57.5897C80.5335 54.7034 78.7889 53.5624 76.1038 53.5624C73.3514 53.5624 71.6061 55.3077 71.6061 57.5897C71.6061 60.4089 73.3514 61.5507 77.3788 63.296L79.728 64.3026C87.7163 67.7265 92.2135 71.2167 92.2135 79.0698C92.2135 87.5284 85.5682 92.1597 76.6405 92.1597C67.9143 92.1597 62.2756 87.9979 59.5237 82.5604" fill="black"/>
</g>
<defs>
<clipPath id="clip0_702_12">
<rect width="100" height="100" fill="white"/>
</clipPath>
</defs>
</svg>
