<svg width="100" height="100" viewBox="0 0 100 100" fill="none" xmlns="http://www.w3.org/2000/svg">
<g clip-path="url(#clip0_702_12)">
<path d="M100 33V66.3328H93.3336L86.667 46.3331V66.3328H80.0005V33H86.667L93.3336 52.9997V33H100Z" fill="#FF0066"/>
<path d="M67.7798 66.3328H58.8899C57.4171 66.3319 56.0048 65.7466 54.963 64.7055C53.9212 63.6644 53.3351 62.2524 53.3334 60.7795V38.5566C53.3343 37.0838 53.9195 35.6714 54.9607 34.6297C56.0018 33.5879 57.4138 33.0018 58.8866 33H67.7764C69.2493 33.0009 70.6616 33.5862 71.7034 34.6273C72.7452 35.6685 73.3313 37.0804 73.333 38.5533V60.7762C73.3321 62.2491 72.7469 63.6614 71.7057 64.7031C70.6646 65.7449 69.2526 66.331 67.7798 66.3328ZM59.9999 59.6662H66.6665V39.6666H59.9999V59.6662Z" fill="#FF0066"/>
<path d="M41.1135 66.3328H26.6671V59.6662H40.0002V52.9997H33.3337C31.5661 52.9979 29.8715 52.295 28.6217 51.0451C27.3718 49.7953 26.6689 48.1007 26.6671 46.3331V38.5533C26.6689 37.081 27.2545 35.6695 28.2956 34.6285C29.3366 33.5874 30.7481 33.0018 32.2203 33H46.6668V39.6666H33.3337V46.3331H40.0002C41.7677 46.3349 43.4624 47.0378 44.7122 48.2877C45.9621 49.5375 46.665 51.2321 46.6668 52.9997V60.7762C46.6659 62.2491 46.0806 63.6614 45.0395 64.7031C43.9983 65.7449 42.5864 66.331 41.1135 66.3328V66.3328Z" fill="#FF0066"/>
<path d="M14.4431 66.3327H5.55657C4.08372 66.3319 2.6714 65.7466 1.62963 64.7055C0.587861 63.6643 0.00176574 62.2523 0 60.7795V52.9996H6.66655V59.6662H13.3331V33H19.9996V60.7795C19.9979 62.2523 19.4118 63.6643 18.37 64.7055C17.3282 65.7466 15.9159 66.3319 14.4431 66.3327V66.3327Z" fill="#FF0066"/>
</g>
<defs>
<clipPath id="clip0_702_12">
<rect width="100" height="100" fill="white"/>
</clipPath>
</defs>
</svg>
