<svg width="100" height="100" viewBox="0 0 100 100" fill="none" xmlns="http://www.w3.org/2000/svg">
<path d="M68.3584 21.9938C67.8709 21.9938 67.5459 22.0605 67.2177 22.143V22.1938H67.2677C67.4959 22.6224 67.8709 22.9558 68.1615 23.3526C68.3896 23.8003 68.5834 24.2606 68.7959 24.7082L68.8615 24.6416C69.2522 24.359 69.449 23.9145 69.449 23.2351C69.2865 23.0351 69.2522 22.8224 69.1084 22.6383C68.9459 22.3557 68.5865 22.2097 68.3584 21.9938ZM24.0382 77.8473H20.1819C20.0651 71.6116 19.6908 65.3836 19.06 59.1798H19.0287L13.1535 77.8473H10.2066L4.37826 59.1798H4.32826C3.87533 65.3927 3.60437 71.618 3.51573 77.8473H0C0.190369 70.0189 0.760872 62.2048 1.70943 54.4335H6.49395L12.0598 71.6311H12.091L17.7068 54.4335H22.2632C23.2726 62.9672 23.8757 70.7708 24.0539 77.8473H24.0382ZM40.77 60.5703C39.2075 69.2342 37.123 75.5361 34.5698 79.4537C32.551 82.4793 30.3541 84 27.9602 84C27.3259 84 26.5446 83.8 25.6008 83.4031V81.3205C26.0727 81.3872 26.6102 81.4348 27.2133 81.4348C28.3353 81.4348 29.2322 81.1046 29.9166 80.4919C30.7291 79.7299 31.1385 78.8728 31.1385 77.9299C31.1385 77.2695 30.8291 75.9456 30.1791 73.9297L25.9633 60.5703H29.7572L32.7854 70.5581C33.4698 72.8407 33.7636 74.4122 33.6323 75.3202C35.3073 70.8216 36.4636 65.8944 37.1168 60.5703H40.77ZM92.1372 77.8473H81.1682V54.4335H84.862V74.971H92.1372V77.8473ZM78.3024 78.4124L74.0711 76.2949C74.4461 75.9806 74.8023 75.6345 75.1305 75.2377C76.9368 73.1042 77.8337 69.9136 77.8337 65.7134C77.8337 57.9575 74.8398 54.0906 68.849 54.0906C65.9177 54.0906 63.6239 55.0653 61.9801 57.0336C60.1894 59.1829 59.2769 62.3577 59.2769 66.542C59.2769 70.6597 60.0738 73.6693 61.6707 75.6028C63.1363 77.3235 65.3333 78.1997 68.2803 78.1997C69.3709 78.1997 70.3803 78.0664 71.2928 77.787L76.8118 81.0602L78.3243 78.4156L78.3024 78.4124ZM64.5833 73.1519C63.6395 71.6311 63.1832 69.1834 63.1832 65.8086C63.1832 59.9068 64.9427 56.9638 68.474 56.9638C70.3147 56.9638 71.6804 57.6749 72.5429 59.0813C73.471 60.6179 73.9429 63.0339 73.9429 66.3737C73.9429 72.3105 72.1679 75.3043 68.6521 75.3043C66.7958 75.3043 65.4458 74.5932 64.5676 73.1868L64.5833 73.1519ZM57.6799 71.3676C57.6799 73.3519 56.9643 74.99 55.5142 76.2441C54.0829 77.5171 52.1766 78.1616 49.7515 78.1616C47.489 78.1616 45.3233 77.4346 43.192 75.9774L44.1858 73.9614C46.0077 74.8884 47.6515 75.352 49.1515 75.352C50.536 75.352 51.6266 75.0377 52.4079 74.4249C53.1892 73.7963 53.6611 72.9201 53.6611 71.8121C53.6611 70.4216 52.7016 69.231 50.9578 68.2405C49.3453 67.3325 46.1077 65.4626 46.1077 65.4626C44.3483 64.1578 43.4857 62.7672 43.4857 60.4687C43.4857 58.567 44.1358 57.0463 45.4389 55.8875C46.7577 54.697 48.4328 54.1192 50.5172 54.1192C52.591 54.1009 54.624 54.705 56.3611 55.8558L55.4674 57.8717C54.071 57.2471 52.5647 56.9156 51.0391 56.8971C49.8516 56.8971 48.939 57.1955 48.3046 57.7733C47.6702 58.3511 47.2796 59.0782 47.2796 59.9893C47.2796 61.3799 48.2578 62.5704 50.0453 63.5927C51.6891 64.5006 54.9923 66.4214 54.9923 66.4214C56.7986 67.7103 57.6955 69.1009 57.6955 71.3645L57.6799 71.3676ZM96.7624 46.5823C94.5311 46.5315 92.806 46.7633 91.3591 47.3919C90.9528 47.557 90.2841 47.557 90.2184 48.0871C90.4466 48.3189 90.4778 48.684 90.6747 48.9951C91.0153 49.5571 91.5872 50.319 92.1247 50.7158C92.7123 51.1794 93.2967 51.6429 93.8998 52.0397C94.9905 52.7191 96.2124 53.116 97.2843 53.7922C97.8874 54.189 98.5062 54.7002 99.1062 55.1161C99.4156 55.3319 99.6094 55.7129 100 55.8431V55.7605C99.8031 55.5129 99.7562 55.1478 99.5594 54.8526C99.2812 54.57 99.0062 54.3224 98.7281 54.043C97.9131 52.9437 96.9359 51.9789 95.8311 51.1825C94.9373 50.5698 92.9842 49.7094 92.6248 48.6681L92.5748 48.6015C93.1779 48.5507 93.8936 48.3189 94.4779 48.1538C95.4217 47.9062 96.2999 47.9538 97.278 47.7062C97.7268 47.5879 98.1718 47.4555 98.6125 47.3093V47.0617C98.1093 46.5506 97.7343 45.8553 97.2124 45.3759C95.7743 44.0975 94.2393 42.9362 92.6216 41.9027C91.7435 41.3249 90.6372 40.9598 89.7091 40.4804C89.384 40.3153 88.8153 40.2328 88.634 39.9502C88.1309 39.3216 87.8371 38.5121 87.4777 37.766C86.6603 36.152 85.9004 34.5085 85.1995 32.8388C84.6964 31.7308 84.4026 30.6387 83.7839 29.6132C80.9182 24.8003 77.7931 21.8922 73.0085 19.0318C71.9835 18.4349 70.746 18.1873 69.4428 17.873C68.7428 17.8412 68.0584 17.7904 67.3584 17.7587C66.9021 17.5587 66.4646 17.0317 66.0739 16.765C64.4801 15.7395 60.3769 13.5394 59.2206 16.4507C58.4706 18.3016 60.3269 20.1048 60.98 21.0319C61.4519 21.6922 62.0551 22.4224 62.3957 23.1494C62.5926 23.6447 62.6395 24.159 62.8363 24.6701C63.277 25.9115 63.6989 27.2988 64.2864 28.4576C64.5958 29.0545 64.9208 29.6799 65.3114 30.2101C65.5395 30.5244 65.9302 30.6577 66.0114 31.1689C65.6208 31.7467 65.5895 32.5912 65.377 33.2864C64.3676 36.4929 64.7583 40.4455 66.1739 42.8107C66.6302 43.5218 67.6865 45.0775 69.1053 44.4806C70.3584 43.9695 70.0834 42.3631 70.4397 40.9408C70.521 40.5947 70.471 40.3788 70.6366 40.1471V40.2137C71.0428 41.0074 71.4335 41.7694 71.7929 42.5631C72.6398 43.9536 74.1523 45.3918 75.4055 46.3506C76.0742 46.8617 76.593 47.7411 77.4243 48.0522V47.9697H77.3587C77.1805 47.7221 76.9524 47.6046 76.7243 47.4077C76.1965 46.8766 75.7067 46.308 75.2586 45.7061C74.1023 44.1187 73.0617 42.3662 72.1491 40.563C71.7095 39.672 71.3081 38.7621 70.946 37.8359C70.7835 37.5057 70.7835 36.9914 70.5053 36.8263C70.0834 37.439 69.4647 37.966 69.1709 38.7438C68.6334 39.9502 68.5834 41.4551 68.374 43.0107C68.2771 43.0425 68.324 43.0107 68.2771 43.0774C67.3834 42.8456 67.074 41.9186 66.7458 41.1249C65.8989 39.1089 65.7677 35.8834 66.4864 33.569C66.6833 32.9721 67.5115 31.1054 67.1865 30.5434C67.0083 29.9974 66.4552 29.6831 66.1614 29.2545C65.7864 28.7243 65.4114 28.0481 65.152 27.4512C64.4833 25.8638 64.1583 24.1114 63.427 22.524C63.102 21.797 62.5145 21.035 62.0426 20.3588C61.505 19.5969 60.9207 19.054 60.5113 18.1587C60.3644 17.8444 60.1706 17.3333 60.3988 16.9999C60.4488 16.7682 60.5613 16.6856 60.7894 16.619C61.1488 16.3047 62.1894 16.7015 62.5488 16.8825C63.5739 17.2952 64.4364 17.692 65.2989 18.2889C65.6896 18.5714 66.1114 19.0984 66.6177 19.2477H67.2052C68.099 19.4477 69.0928 19.2984 69.9241 19.562C71.4054 20.0413 72.7398 20.7366 73.9429 21.4954C77.6224 23.8949 80.6146 27.2368 82.6182 31.1847C82.9588 31.8292 83.1057 32.4261 83.4151 33.1023C83.9839 34.5087 84.7183 35.912 85.3027 37.2517C85.8871 38.5914 86.4433 39.9471 87.2871 41.0551C87.709 41.6519 89.3715 41.963 90.1341 42.2615C90.6872 42.525 91.5497 42.7567 92.0372 43.0552C92.9967 43.652 93.9404 44.3282 94.8373 44.9886C95.2936 45.3029 96.678 46.014 96.7593 46.576L96.7624 46.5823Z" fill="#563D7C"/>
</svg>
