<svg width="100" height="100" viewBox="0 0 100 100" fill="none" xmlns="http://www.w3.org/2000/svg">
<path d="M91.2122 45.9358C90.9706 45.9358 90.7359 45.9857 90.5282 46.1032L83.9543 49.8996C83.5289 50.1446 83.2703 50.6076 83.2703 51.1V58.6791C83.2703 59.1713 83.5289 59.6335 83.9543 59.8793L85.6711 60.8687C86.5052 61.2799 86.8129 61.2733 87.1925 61.2733C88.4275 61.2733 89.1324 60.524 89.1324 59.2215V51.7442C89.1324 51.6385 89.0408 51.5628 88.9371 51.5628H88.1136C88.0081 51.5628 87.9182 51.6404 87.9182 51.7442V59.2254C87.9182 59.8027 87.3169 60.3835 86.3411 59.8954L84.5564 58.8487C84.4934 58.8143 84.4447 58.7517 84.4447 58.6813V51.1021C84.4447 51.0303 84.4928 50.957 84.5564 50.9207L91.1165 47.138C91.178 47.1027 91.2512 47.1027 91.3119 47.138L97.872 50.9207C97.9345 50.9582 97.9837 51.028 97.9837 51.1021V58.6813C97.9837 58.7536 97.9475 58.8277 97.886 58.8626L91.3121 62.6454C91.2539 62.679 91.1763 62.679 91.1167 62.6454L89.4279 61.6406C89.3774 61.6111 89.3089 61.6134 89.2604 61.6406C88.7943 61.9048 88.7066 61.9354 88.2696 62.0871C88.1619 62.1246 87.998 62.1829 88.3254 62.3665L90.5307 63.6662C90.7406 63.7876 90.9745 63.8476 91.2147 63.8476C91.4581 63.8476 91.6886 63.7894 91.8987 63.6662L98.4726 59.8834C98.898 59.6359 99.1566 59.1753 99.1566 58.6832V51.1041C99.1566 50.6117 98.898 50.1496 98.4726 49.9037L91.8987 46.1073C91.6927 45.9897 91.4564 45.9399 91.2147 45.9399L91.2122 45.9358ZM92.9709 51.3516C91.0989 51.3516 89.984 52.1483 89.984 53.4731C89.984 54.9086 91.0905 55.3051 92.8873 55.4828C95.0367 55.6933 95.2043 56.0089 95.2043 56.432C95.2043 57.1658 94.6192 57.4787 93.2362 57.4787C91.4989 57.4787 91.1169 57.045 90.9891 56.179C90.9739 56.0863 90.9026 56.0116 90.8077 56.0116H89.9541C89.9027 56.0127 89.8537 56.0337 89.8173 56.0701C89.7809 56.1065 89.7599 56.1555 89.7588 56.2069C89.7588 57.3132 90.3606 58.6215 93.2343 58.6215C95.3144 58.6215 96.5143 57.8068 96.5143 56.3743C96.5143 54.9582 95.5451 54.5755 93.5274 54.3084C91.4905 54.0368 91.2942 53.9068 91.2942 53.429C91.2942 53.0348 91.4591 52.5076 92.9691 52.5076C94.3179 52.5076 94.8165 52.7986 95.0209 53.708C95.0388 53.7933 95.1141 53.8632 95.2023 53.8632H96.0559C96.1082 53.8632 96.1591 53.831 96.1955 53.7933C96.2312 53.7532 96.2565 53.708 96.2514 53.6537C96.1195 52.0874 95.0751 51.3506 92.9714 51.3506L92.9709 51.3516Z" fill="#83CD29"/>
<path d="M52.5638 36.0003C52.4903 36.0004 52.4182 36.0196 52.3544 36.0561C52.291 36.0932 52.2384 36.1462 52.2017 36.2099C52.165 36.2735 52.1455 36.3456 52.1451 36.4191V47.0966C52.1451 47.2014 52.0962 47.2952 52.0055 47.3478C51.961 47.3738 51.9104 47.3874 51.8589 47.3874C51.8074 47.3874 51.7568 47.3738 51.7123 47.3478L49.9676 46.343C49.8403 46.2693 49.6959 46.2305 49.5489 46.2305C49.4019 46.2305 49.2574 46.2693 49.1302 46.343L42.1656 50.3626C41.9052 50.5127 41.7466 50.8018 41.7466 51.1023V59.1417C41.7464 59.2889 41.785 59.4334 41.8585 59.5609C41.932 59.6883 42.0379 59.794 42.1654 59.8675L49.1302 63.8873C49.2574 63.9611 49.4018 64 49.5489 64C49.696 64 49.8404 63.9611 49.9676 63.8873L56.9324 59.8675C57.0599 59.794 57.1657 59.6883 57.2393 59.5609C57.3128 59.4334 57.3514 59.2889 57.3512 59.1417V39.0988C57.3512 38.7939 57.1848 38.5078 56.9186 38.3592L52.7733 36.042C52.7081 36.0057 52.6359 35.9993 52.5638 36.0001V36.0003ZM7.76013 46.0357C7.62725 46.0411 7.50252 46.0642 7.38321 46.1334L0.418631 50.1531C0.291047 50.2264 0.185121 50.3321 0.111599 50.4596C0.0380773 50.587 -0.000423295 50.7317 3.51031e-06 50.8788L0.0141647 61.6683C0.0141647 61.8184 0.0917602 61.9577 0.223672 62.031C0.353063 62.1086 0.513492 62.1086 0.6423 62.031L4.77368 59.6581C5.03556 59.503 5.20627 59.2321 5.20627 58.9326V53.8938C5.20627 53.5931 5.36437 53.3176 5.62529 53.1683L7.38399 52.1494C7.51107 52.0755 7.65561 52.0369 7.80262 52.0377C7.9497 52.0368 8.09433 52.0754 8.22144 52.1494L9.97936 53.1677C10.2399 53.317 10.398 53.5929 10.398 53.8932V58.9319C10.398 59.2318 10.5726 59.5041 10.8306 59.6574L14.962 62.0302C15.0919 62.1078 15.252 62.1078 15.3806 62.0302C15.5086 61.9565 15.5901 61.8174 15.5901 61.6675L15.6041 50.8784C15.6049 50.7312 15.5666 50.5864 15.493 50.4589C15.4194 50.3314 15.3133 50.2257 15.1854 50.1527L8.22086 46.1333C8.10311 46.0642 7.97779 46.0409 7.84394 46.0355H7.76052L7.76013 46.0357ZM70.3455 46.1334C70.1985 46.133 70.054 46.1716 69.9267 46.2452L62.9619 50.265C62.702 50.4154 62.5429 50.6902 62.5429 50.9905V59.03C62.5429 59.3322 62.7132 59.6062 62.9755 59.7555L69.8844 63.6935C70.1395 63.839 70.4509 63.85 70.7079 63.7071L74.8952 61.3761C75.028 61.3024 75.1179 61.1647 75.1182 61.0133C75.1186 60.862 75.0401 60.7259 74.9087 60.6506L67.9019 56.6308C67.7707 56.5559 67.6788 56.4044 67.6788 56.2538V53.7399C67.6788 53.5898 67.7719 53.4521 67.9019 53.3772L70.0792 52.1209C70.2088 52.046 70.3678 52.046 70.4982 52.1209L72.6765 53.3772C72.7403 53.4138 72.7932 53.4667 72.83 53.5304C72.8668 53.5941 72.886 53.6664 72.8858 53.7399V55.7219C72.8856 55.7955 72.9049 55.8678 72.9416 55.9315C72.9784 55.9952 73.0314 56.048 73.0951 56.0847C73.2257 56.1599 73.3838 56.1603 73.5141 56.0847L77.6872 53.6565C77.9462 53.506 78.1062 53.2303 78.1062 52.931V50.9911C78.1063 50.844 78.0676 50.6995 77.994 50.5722C77.9205 50.4448 77.8148 50.339 77.6874 50.2654L70.7646 46.2456C70.6373 46.1719 70.4928 46.1333 70.3457 46.1338L70.3455 46.1334ZM49.5209 52.1355C49.5598 52.1353 49.5982 52.1448 49.6326 52.1632L52.0192 53.545C52.084 53.5824 52.131 53.6517 52.131 53.7264V56.4899C52.131 56.565 52.0844 56.6341 52.0192 56.6713L49.6326 58.0531C49.5676 58.0899 49.4883 58.0899 49.4231 58.0531L47.0364 56.6713C46.9715 56.6339 46.9247 56.5646 46.9247 56.4899V53.726C46.9247 53.6511 46.9717 53.5824 47.0364 53.5446L49.4231 52.163C49.4557 52.1442 49.4844 52.1353 49.5209 52.1353V52.1351V52.1355Z" fill="#404137"/>
<path d="M28.6827 46.0915C28.5356 46.0912 28.3911 46.1298 28.2637 46.2032L21.2989 50.2091C21.0385 50.3592 20.8803 50.6485 20.8803 50.9487V58.9882C20.8799 59.1353 20.9184 59.2799 20.9919 59.4073C21.0654 59.5348 21.1713 59.6405 21.2989 59.7137L28.2637 63.7336C28.3909 63.8074 28.5353 63.8463 28.6824 63.8463C28.8295 63.8463 28.9739 63.8074 29.1011 63.7336L36.0659 59.7137C36.1934 59.6403 36.2992 59.5346 36.3728 59.4071C36.4463 59.2797 36.4849 59.1351 36.4847 58.988V50.9486C36.4847 50.6479 36.3264 50.3588 36.0657 50.2089L29.1009 46.203C28.9736 46.1292 28.829 46.0906 28.6819 46.0913L28.6827 46.0915ZM70.332 53.2657C70.3043 53.2657 70.2735 53.2657 70.2482 53.2793L68.9084 54.0611C68.8834 54.075 68.8625 54.0952 68.8478 54.1196C68.8331 54.1441 68.8251 54.172 68.8246 54.2006V55.736C68.8246 55.7938 68.8581 55.8466 68.9084 55.8757L70.2482 56.6433C70.2713 56.6575 70.2978 56.6651 70.3249 56.6651C70.3519 56.6651 70.3785 56.6575 70.4015 56.6433L71.7414 55.8757C71.791 55.8472 71.8252 55.7938 71.8252 55.736V54.2006C71.8252 54.1428 71.7912 54.09 71.7414 54.0609L70.4015 53.2791C70.3767 53.2644 70.3596 53.2656 70.3317 53.2656L70.332 53.2657Z" fill="#83CD29"/>
</svg>
