<svg width="100" height="100" viewBox="0 0 100 100" fill="none" xmlns="http://www.w3.org/2000/svg">
<path d="M4.16748 5.17197H95.8318V94.3363H4.16748V5.17197Z" fill="#0C0824"/>
<path d="M4.16786 5.16786H95.8321V94.3322H4.16786V5.16786ZM0 98.5H100V1H0V98.5ZM67.4179 41C64.125 41 63 42.6679 63 44.0429C63 45.5429 63.75 46.5857 68.1679 48.875C74.7107 52.0429 76.7393 55.0822 76.7393 59.5429C76.7393 66.2107 71.6571 69.7929 64.7821 69.7929C61.8316 69.9022 58.899 69.2892 56.2393 68.0072C55.9464 67.8822 55.9071 67.675 55.9071 67.3393V61.2072C55.9071 60.7893 56.1143 60.6643 56.4071 60.875C58.905 62.4812 61.8125 63.3342 64.7821 63.3322C68.075 63.3322 69.45 61.9572 69.45 60.0822C69.45 58.5822 68.4929 57.25 64.2821 55.0822C58.3643 52.25 55.9071 49.3679 55.9071 44.5822C55.9071 39.2072 60.1143 34.75 67.4071 34.75C69.9457 34.641 72.4806 35.038 74.8643 35.9179C75.0016 36.007 75.1126 36.131 75.1861 36.2773C75.2595 36.4235 75.2927 36.5867 75.2821 36.75V42.4643C75.2821 42.7964 75.075 43.0072 74.6571 42.8822C72.4541 41.6139 69.9488 40.966 67.4071 41.0072L67.4179 41ZM31.5821 45.9572C32.5393 46.0393 33.2893 46.0393 34.9571 46.0393C39.8321 46.0393 44.4143 44.3322 44.4143 37.7072C44.4143 32.4143 41.1214 29.75 35.5821 29.75C33.9143 29.75 32.3321 29.8322 31.5821 29.875V45.9572ZM24.1643 23.8143C24.1643 23.5214 24.7464 23.3143 25.0821 23.3143C28.6636 23.1679 32.2477 23.0989 35.8321 23.1072C47.375 23.1072 51.875 29.4393 51.875 37.525C51.875 48.1072 44.2071 52.65 34.7929 52.65C33.2107 52.65 32.6679 52.5679 31.5429 52.5679V68.5679C31.5429 68.9 31.4179 69.0679 31.0429 69.0679H24.6679C24.3357 69.0679 24.1679 68.9429 24.1679 68.5679V23.8322L24.1643 23.8143Z" fill="#31C5F0"/>
</svg>
