<svg width="100" height="100" viewBox="0 0 100 100" fill="none" xmlns="http://www.w3.org/2000/svg">
<path d="M50 76.6071C77.6142 76.6071 100 64.8306 100 50.3036C100 35.7765 77.6142 24 50 24C22.3858 24 0 35.7765 0 50.3036C0 64.8306 22.3858 76.6071 50 76.6071Z" fill="url(#paint0_radial_702_12)"/>
<path d="M49.9995 74.653C76.5348 74.653 98.0459 63.7512 98.0459 50.303C98.0459 36.8549 76.5348 25.953 49.9995 25.953C23.4642 25.953 1.95312 36.8549 1.95312 50.303C1.95312 63.7512 23.4642 74.653 49.9995 74.653Z" fill="#6280B6"/>
<path d="M59.7326 58.1613L62.1147 45.897C62.4541 44.8474 62.5099 43.7268 62.2766 42.6486C62.0433 41.5705 61.5291 40.5732 60.7862 39.7578C58.7123 38.2852 56.173 37.6186 53.6433 37.8828H49.5254L50.7076 31.8113C50.7291 31.6983 50.7255 31.5819 50.6968 31.4704C50.6682 31.3589 50.6154 31.2552 50.542 31.1665C50.4687 31.0778 50.3767 31.0064 50.2726 30.9573C50.1685 30.9083 50.0548 30.8828 49.9397 30.8828H44.2254C44.044 30.8827 43.8682 30.9457 43.7281 31.0611C43.588 31.1764 43.4924 31.3368 43.4576 31.5149L40.9254 44.5363C40.7306 43.1441 40.1392 41.8373 39.2219 40.7721C38.2006 39.7492 36.9684 38.9615 35.6114 38.4637C34.2544 37.9659 32.8052 37.7701 31.3647 37.8899H20.3576C20.1761 37.8899 20.0003 37.9529 19.8602 38.0682C19.7202 38.1835 19.6245 38.344 19.5897 38.5221L14.4683 64.8792C14.4468 64.9922 14.4504 65.1086 14.479 65.2201C14.5077 65.3316 14.5605 65.4354 14.6339 65.524C14.7072 65.6127 14.7992 65.6841 14.9033 65.7332C15.0074 65.7822 15.1211 65.8077 15.2362 65.8078H20.9612C21.1426 65.8078 21.3184 65.7448 21.4585 65.6295C21.5986 65.5141 21.6942 65.3537 21.729 65.1756L22.9683 58.8006H27.254C29.1463 58.8511 31.035 58.6102 32.854 58.0863C34.3877 57.5789 35.7902 56.7386 36.9612 55.6256C37.9207 54.7516 38.7398 53.7349 39.3897 52.6113L38.3647 57.8792C38.3432 57.9922 38.3468 58.1086 38.3755 58.2201C38.4041 58.3316 38.4569 58.4354 38.5303 58.5241C38.6036 58.6127 38.6956 58.6842 38.7997 58.7332C38.9038 58.7822 39.0175 58.8077 39.1326 58.8078H44.8469C45.0283 58.8078 45.2041 58.7448 45.3442 58.6295C45.4843 58.5141 45.5799 58.3537 45.6147 58.1756L48.4254 43.7078H52.3326C53.9969 43.7078 54.4754 44.0399 54.6183 44.1828C54.7611 44.3256 54.9754 44.772 54.7076 46.2149L52.4397 57.8756C52.4182 57.9887 52.4218 58.1051 52.4505 58.2165C52.4791 58.328 52.5319 58.4318 52.6053 58.5205C52.6786 58.6092 52.7706 58.6806 52.8747 58.7296C52.9788 58.7787 53.0925 58.8041 53.2076 58.8042H58.9933C59.1713 58.7972 59.3416 58.7298 59.4761 58.6129C59.6105 58.496 59.701 58.3367 59.7326 58.1613V58.1613ZM33.3219 48.0399C33.1472 49.5393 32.4355 50.9247 31.3183 51.9399C29.915 52.8128 28.2695 53.2145 26.6219 53.0863H24.079L25.9183 43.6185H29.2076C31.6254 43.6185 32.5969 44.1363 32.9897 44.5685C33.2894 45.09 33.4741 45.6695 33.5314 46.2683C33.5886 46.867 33.5172 47.471 33.3219 48.0399V48.0399Z" fill="white"/>
<path d="M84.0918 40.7753C83.0705 39.7525 81.8383 38.9647 80.4813 38.4669C79.1243 37.9692 77.6751 37.7734 76.2346 37.8932H65.1953C65.0139 37.8931 64.8381 37.9561 64.698 38.0715C64.5579 38.1868 64.4623 38.3472 64.4275 38.5253L59.3061 64.8824C59.2845 64.9955 59.2882 65.1119 59.3168 65.2234C59.3454 65.3348 59.3983 65.4386 59.4716 65.5273C59.545 65.616 59.637 65.6874 59.7411 65.7364C59.8452 65.7855 59.9588 65.8109 60.0739 65.811H65.8168C65.9982 65.8111 66.174 65.748 66.3141 65.6327C66.4542 65.5174 66.5498 65.3569 66.5846 65.1789L67.8239 58.8039H72.1096C74.0019 58.8544 75.8906 58.6135 77.7096 58.0896C79.2433 57.5821 80.6459 56.7418 81.8168 55.6289C83.822 53.8217 85.1732 51.402 85.6596 48.7467C86.0439 47.3884 86.1022 45.9585 85.8297 44.5734C85.5573 43.1882 84.9618 41.887 84.0918 40.7753V40.7753ZM78.1382 48.0396C77.9635 49.539 77.2518 50.9244 76.1346 51.9396C74.7279 52.8135 73.0783 53.214 71.4275 53.0824H68.8918L70.7311 43.6146H74.0203C76.4382 43.6146 77.4096 44.1324 77.8025 44.5646C78.1033 45.0863 78.2888 45.6663 78.3468 46.2657C78.4047 46.8651 78.3335 47.47 78.1382 48.0396V48.0396Z" fill="white"/>
<path d="M29.2086 42.8324C29.9792 42.7354 30.7614 42.7922 31.5099 42.9994C32.2584 43.2066 32.9584 43.5601 33.5694 44.0396C33.9636 44.6466 34.215 45.3351 34.3047 46.0533C34.3944 46.7715 34.3201 47.5007 34.0872 48.186C33.8831 49.8734 33.0673 51.4275 31.7944 52.5539C30.2591 53.5427 28.4443 54.0064 26.6229 53.8753H23.1301L25.2729 42.8432L29.2086 42.8324ZM15.2194 65.0324H20.9622L22.3229 58.0253H27.2408C29.0509 58.0747 30.8579 57.8446 32.5979 57.3432C34.026 56.8716 35.3313 56.0884 36.4194 55.0503C38.3027 53.3561 39.5713 51.0852 40.0265 48.5932C40.3869 47.3539 40.4502 46.0471 40.2113 44.7788C39.9724 43.5105 39.438 42.3164 38.6515 41.2932C37.7031 40.3551 36.5614 39.6351 35.3062 39.1836C34.0509 38.7321 32.7123 38.5598 31.3836 38.6789H20.3586L15.2194 65.0324Z" fill="#000004"/>
<path d="M44.2391 31.667H49.9534L48.5713 38.6741H53.6463C55.9772 38.4301 58.3189 39.0225 60.2534 40.3455C60.8937 41.0733 61.3314 41.9566 61.5226 42.9069C61.7138 43.8572 61.6517 44.8411 61.3427 45.7598L58.9606 58.0241H53.1784L55.4463 46.3634C55.6042 45.9183 55.6605 45.4435 55.6111 44.9739C55.5617 44.5042 55.4077 44.0515 55.1606 43.6491C54.3335 43.0566 53.312 42.8012 52.3034 42.9348H47.7499L44.8141 58.0348H39.0999L44.2391 31.667Z" fill="#000004"/>
<path d="M74.0244 42.8324C74.795 42.7354 75.5772 42.7922 76.3257 42.9994C77.0742 43.2066 77.7742 43.5601 78.3852 44.0396C78.7794 44.6466 79.0308 45.3351 79.1205 46.0533C79.2102 46.7715 79.1359 47.5007 78.903 48.186C78.6989 49.8734 77.8831 51.4275 76.6102 52.5539C75.0719 53.545 73.253 54.0088 71.428 53.8753H67.9352L70.078 42.8432L74.0244 42.8324ZM60.0352 65.0324H65.778L67.1387 58.0253H72.0566C73.8668 58.0747 75.6737 57.8446 77.4137 57.3432C78.8418 56.8716 80.1471 56.0884 81.2352 55.0503C83.1185 53.3561 84.3871 51.0852 84.8423 48.5932C85.2027 47.3539 85.266 46.0471 85.0271 44.7788C84.7882 43.5105 84.2539 42.3164 83.4673 41.2932C82.5189 40.3551 81.3772 39.6351 80.122 39.1836C78.8667 38.7321 77.5281 38.5598 76.1994 38.6789H65.1566L60.0352 65.0324Z" fill="#000004"/>
<defs>
<radialGradient id="paint0_radial_702_12" cx="0" cy="0" r="1" gradientUnits="userSpaceOnUse" gradientTransform="translate(30.0214 33.25) scale(65.6571 65.6571)">
<stop stop-color="white"/>
<stop offset="0.5" stop-color="#4C6B96"/>
<stop offset="1" stop-color="#231F20"/>
</radialGradient>
</defs>
</svg>
