<svg width="100" height="100" viewBox="0 0 100 100" fill="none" xmlns="http://www.w3.org/2000/svg">
<g clip-path="url(#clip0_702_12)">
<path d="M50.0005 59.4757C55.1522 59.4757 59.3285 55.2994 59.3285 50.1477C59.3285 44.996 55.1522 40.8197 50.0005 40.8197C44.8488 40.8197 40.6725 44.996 40.6725 50.1477C40.6725 55.2994 44.8488 59.4757 50.0005 59.4757Z" fill="#00D8FF"/>
<path fill-rule="evenodd" clip-rule="evenodd" d="M50.0008 31.1819C62.5249 31.1819 74.1595 32.979 82.9319 35.999C93.5014 39.6378 100 45.1533 100 50.1476C100 55.3521 93.1128 61.2116 81.7625 64.9722C73.1815 67.8152 61.8894 69.2993 50.0008 69.2993C37.8118 69.2993 26.2694 67.9063 17.5917 64.9409C6.61273 61.1883 0 55.253 0 50.1476C0 45.1939 6.20478 39.7209 16.6257 36.0877C25.4309 33.0178 37.3527 31.1819 49.9992 31.1819H50.0008Z" stroke="#00D8FF" stroke-width="2.73408"/>
<path fill-rule="evenodd" clip-rule="evenodd" d="M33.4904 40.7193C39.7473 29.8701 47.116 20.6892 54.1148 14.5986C62.5471 7.26034 70.5717 4.38647 74.8979 6.88121C79.4066 9.4812 81.0417 18.3748 78.6291 30.0856C76.8069 38.9397 72.4497 49.4627 66.5104 59.7615C60.4209 70.3206 53.4482 79.6235 46.5448 85.6576C37.8094 93.2937 29.3641 96.0572 24.9415 93.5066C20.65 91.0336 19.0089 82.923 21.0677 72.0803C22.8071 62.9191 27.1724 51.6745 33.4884 40.7191L33.4904 40.7193Z" stroke="#00D8FF" stroke-width="2.73408"/>
<path fill-rule="evenodd" clip-rule="evenodd" d="M33.5062 59.7894C27.2317 48.9525 22.9597 37.9812 21.1766 28.8761C19.0301 17.9057 20.5477 9.51804 24.8701 7.01605C29.3742 4.40844 37.896 7.43329 46.8369 15.3721C53.5969 21.3742 60.5383 30.4029 66.4949 40.692C72.6019 51.2409 77.179 61.9281 78.9595 70.9223C81.2125 82.3042 79.389 91.0008 74.9706 93.5585C70.6834 96.0404 62.838 93.4128 54.4726 86.2139C47.4045 80.1319 39.8426 70.734 33.5062 59.7892V59.7894Z" stroke="#00D8FF" stroke-width="2.73408"/>
</g>
<defs>
<clipPath id="clip0_702_12">
<rect width="100" height="100" fill="white"/>
</clipPath>
</defs>
</svg>
