<svg width="100" height="100" viewBox="0 0 100 100" fill="none" xmlns="http://www.w3.org/2000/svg">
<g clip-path="url(#clip0_702_12)">
<path fill-rule="evenodd" clip-rule="evenodd" d="M50 0C59.8891 0 69.556 2.93245 77.7785 8.42652C86.0009 13.9206 92.4096 21.7295 96.194 30.8658C99.9783 40.0021 100.969 50.0555 99.0392 59.7545C97.11 69.4536 92.3479 78.3627 85.3553 85.3553C78.3627 92.3479 69.4536 97.11 59.7545 99.0392C50.0555 100.969 40.0021 99.9783 30.8658 96.194C21.7295 92.4096 13.9206 86.0009 8.42652 77.7785C2.93245 69.556 0 59.8891 0 50C0 36.7392 5.26784 24.0215 14.6447 14.6447C24.0215 5.26784 36.7392 0 50 0V0Z" fill="#CC6699"/>
<path d="M81.3638 21.3996C79.0995 12.5211 64.3745 9.61393 50.4388 14.5496C41.7113 17.4823 33.648 22.1075 26.7102 28.1604C19.0352 35.3389 17.8102 41.5889 18.3138 44.1996C20.0995 53.4139 32.7174 59.4354 37.9067 63.9032V63.9282C36.3781 64.6818 25.1781 70.3568 22.5495 76.1425C19.7852 82.2568 22.9888 86.6425 25.1138 87.2318C28.3042 87.9999 31.6551 87.7499 34.6962 86.5169C37.7374 85.2839 40.3162 83.1298 42.0709 80.3568C43.5211 78.1101 44.4284 75.5566 44.721 72.8986C45.0136 70.2405 44.6834 67.5509 43.7567 65.0425C46.2562 64.4074 48.8544 64.2582 51.4102 64.6032C60.1817 65.6282 61.9031 71.1032 61.5745 73.3961C61.42 74.2122 61.0915 74.9855 60.6114 75.6634C60.1314 76.3413 59.5109 76.9079 58.7924 77.3246C58.1781 77.7068 57.9888 77.8354 58.0424 78.1211C58.1174 78.5318 58.3995 78.5175 58.9245 78.4282C60.2426 78.0131 61.4041 77.2084 62.2558 76.1201C63.1076 75.0318 63.6097 73.711 63.6959 72.3318C63.9066 66.9746 58.7602 60.9532 49.6459 61.1068C46.9988 61.0312 44.3573 61.3932 41.8281 62.1782C41.7015 62.0336 41.5729 61.8907 41.4424 61.7496C35.8067 55.7389 25.3924 51.4854 25.8317 43.4032C25.9924 40.4639 27.0138 32.7282 45.8317 23.3425C61.2602 15.6532 73.6102 17.7711 75.7459 22.4604C78.7959 29.1604 69.1459 41.6068 53.1245 43.4032C51.3537 43.7627 49.5247 43.7189 47.7731 43.2749C46.0216 42.831 44.3925 41.9984 43.0067 40.8389C42.1638 39.9104 42.0388 39.8711 41.7245 40.0425C41.2138 40.3246 41.5388 41.1461 41.7245 41.6318C42.338 42.7374 43.1661 43.7094 44.1602 44.4907C45.1543 45.2721 46.2945 45.847 47.5138 46.1818C53.813 47.5505 60.3833 46.9007 66.2924 44.3246C76.0102 40.5782 83.5888 30.1318 81.3638 21.3996V21.3996ZM40.0638 66.6532C40.7731 69.0986 40.7371 71.6999 39.9602 74.1246C39.8769 74.377 39.7852 74.627 39.6852 74.8746C39.5852 75.1223 39.4769 75.3604 39.3602 75.5889C38.7592 76.8187 37.9806 77.9534 37.0495 78.9568C34.1459 82.1246 30.0852 83.3246 28.3459 82.3139C26.4674 81.2246 27.4067 76.7568 30.7745 73.1961C33.3623 70.6371 36.3459 68.5122 39.6102 66.9032L40.0638 66.6532Z" fill="white"/>
</g>
<defs>
<clipPath id="clip0_702_12">
<rect width="100" height="100" fill="white"/>
</clipPath>
</defs>
</svg>
