<svg width="100" height="100" viewBox="0 0 100 100" fill="none" xmlns="http://www.w3.org/2000/svg">
<g clip-path="url(#clip0_702_12)">
<path d="M21.8751 7.96133L50.1313 5L78.3874 7.96491L100.263 37.1091L50.1313 95L0 37.1091L21.8751 7.96133Z" fill="#FDB300"/>
<path d="M20.3081 37.0875L50.1326 94.9963L0.00134277 37.0875H20.3081Z" fill="#EA6C00"/>
<path d="M79.9566 37.0875L50.1321 94.9963L100.263 37.0875H79.9566Z" fill="#EA6C00"/>
<path d="M20.3075 37.0875H79.9566L50.132 94.9963L20.3075 37.0875Z" fill="#FDAD00"/>
<path d="M50.132 4.99995L21.8759 7.96128L20.3075 37.0911L50.132 4.99995Z" fill="#FDD231"/>
<path d="M50.1321 4.99995L78.3882 7.96128L79.9566 37.0911L50.1321 4.99995Z" fill="#FDD231"/>
<path d="M100.264 37.0915L78.3888 7.96161L79.9572 37.0915H100.264Z" fill="#FDAD00"/>
<path d="M0.00134277 37.0915L21.8765 7.96161L20.3081 37.0915H0.00134277Z" fill="#FDAD00"/>
<path d="M50.132 4.99995L20.3075 37.0911H79.9566L50.132 4.99995Z" fill="#FEEEB7"/>
</g>
<defs>
<clipPath id="clip0_702_12">
<rect width="100" height="100" fill="white"/>
</clipPath>
</defs>
</svg>
