<svg width="120" height="120" viewBox="0 0 120 120" fill="none" xmlns="http://www.w3.org/2000/svg">
<path d="M77.888 68.85C81.9084 66.4018 85.0191 62.7035 86.7457 58.3192C88.4722 53.9349 88.7199 49.1052 87.4509 44.5668C86.1819 40.0284 83.4658 36.0302 79.717 33.1823C75.9682 30.3343 71.3924 28.7927 66.6875 28.7927C61.9826 28.7927 57.4068 30.3343 53.658 33.1823C49.9092 36.0302 47.1931 40.0284 45.9241 44.5668C44.6551 49.1052 44.9028 53.9349 46.6293 58.3192C48.3559 62.7035 51.4666 66.4018 55.487 68.85C47.7035 71.2209 40.8819 76.0253 36.0208 82.56C35.8321 82.8121 35.6947 83.0991 35.6166 83.4044C35.5385 83.7097 35.5212 84.0274 35.5657 84.3394C35.6102 84.6514 35.7156 84.9516 35.8759 85.2228C36.0362 85.494 36.2483 85.7309 36.5 85.92C36.7517 86.1091 37.0381 86.2467 37.3429 86.3249C37.6477 86.4031 37.9649 86.4205 38.2763 86.3759C38.9054 86.2859 39.4729 85.9492 39.8542 85.44C42.9785 81.267 47.0298 77.88 51.6872 75.5473C56.3447 73.2145 61.4803 72 66.6875 72C71.8947 72 77.0303 73.2145 81.6878 75.5473C86.3452 77.88 90.3965 81.267 93.5208 85.44C93.9021 85.9492 94.4696 86.2859 95.0987 86.3759C95.7277 86.4659 96.3667 86.3019 96.875 85.92C97.3833 85.5381 97.7194 84.9695 97.8092 84.3394C97.8991 83.7093 97.7354 83.0692 97.3542 82.56C92.4919 76.0265 85.6708 71.2224 77.888 68.85ZM49.9167 50.4C49.9167 47.0773 50.9003 43.8292 52.7431 41.0664C54.5859 38.3037 57.2051 36.1504 60.2696 34.8788C63.334 33.6073 66.7061 33.2746 69.9593 33.9228C73.2125 34.571 76.2008 36.1711 78.5463 38.5206C80.8917 40.8701 82.489 43.8636 83.1361 47.1225C83.7832 50.3814 83.4511 53.7593 82.1817 56.8291C80.9124 59.8989 78.7628 62.5227 76.0049 64.3687C73.2469 66.2147 70.0045 67.2 66.6875 67.2C62.2396 67.2 57.9739 65.43 54.8287 62.2794C51.6836 59.1288 49.9167 54.8556 49.9167 50.4ZM109.812 0H23.5625C21.6563 0 19.8281 0.75857 18.4802 2.10883C17.1323 3.45909 16.375 5.29044 16.375 7.2V24H4.39583C3.76042 24 3.15103 24.2529 2.70172 24.7029C2.25242 25.153 2 25.7635 2 26.4C2 27.0365 2.25242 27.647 2.70172 28.0971C3.15103 28.5471 3.76042 28.8 4.39583 28.8H16.375V57.6H4.39583C3.76042 57.6 3.15103 57.8529 2.70172 58.3029C2.25242 58.753 2 59.3635 2 60C2 60.6365 2.25242 61.247 2.70172 61.6971C3.15103 62.1471 3.76042 62.4 4.39583 62.4H16.375V91.2H4.39583C3.76042 91.2 3.15103 91.4529 2.70172 91.9029C2.25242 92.353 2 92.9635 2 93.6C2 94.2365 2.25242 94.847 2.70172 95.2971C3.15103 95.7471 3.76042 96 4.39583 96H16.375V112.8C16.375 114.71 17.1323 116.541 18.4802 117.891C19.8281 119.241 21.6563 120 23.5625 120H109.812C111.719 120 113.547 119.241 114.895 117.891C116.243 116.541 117 114.71 117 112.8V7.2C117 5.29044 116.243 3.45909 114.895 2.10883C113.547 0.75857 111.719 0 109.812 0ZM112.208 112.8C112.208 113.437 111.956 114.047 111.507 114.497C111.057 114.947 110.448 115.2 109.812 115.2H23.5625C22.9271 115.2 22.3177 114.947 21.8684 114.497C21.4191 114.047 21.1667 113.437 21.1667 112.8V7.2C21.1667 6.56348 21.4191 5.95303 21.8684 5.50294C22.3177 5.05286 22.9271 4.8 23.5625 4.8H109.812C110.448 4.8 111.057 5.05286 111.507 5.50294C111.956 5.95303 112.208 6.56348 112.208 7.2V112.8Z" fill="#8197A9"/>
</svg>
