<svg width="120" height="120" viewBox="0 0 120 120" fill="none" xmlns="http://www.w3.org/2000/svg">
<path d="M80.1003 68.3118C83.7995 65.4705 86.5177 61.5386 87.873 57.0686C89.2283 52.5986 89.1525 47.8152 87.6562 43.3906C86.16 38.966 83.3185 35.1226 79.5311 32.4006C75.7438 29.6786 71.2009 28.2147 66.5408 28.2147C61.8808 28.2147 57.3379 29.6786 53.5505 32.4006C49.7631 35.1226 46.9217 38.966 45.4254 43.3906C43.9292 47.8152 43.8534 52.5986 45.2086 57.0686C46.5639 61.5386 49.2822 65.4705 52.9814 68.3118C46.0404 70.9107 39.9927 75.4586 35.5612 81.4118C35.001 82.1606 34.7605 83.1019 34.8925 84.0285C35.0246 84.9552 35.5184 85.7913 36.2653 86.3529C37.0122 86.9146 37.9511 87.1557 38.8754 87.0234C39.7997 86.891 40.6337 86.3959 41.1939 85.6471C44.1451 81.702 47.972 78.5 52.3714 76.2947C56.7709 74.0893 61.6221 72.9412 66.5408 72.9412C71.4596 72.9412 76.3107 74.0893 80.7102 76.2947C85.1096 78.5 88.9365 81.702 91.8878 85.6471C92.448 86.3959 93.2819 86.891 94.2062 87.0234C95.1305 87.1557 96.0694 86.9146 96.8163 86.3529C97.5633 85.7913 98.0571 84.9552 98.1891 84.0285C98.3212 83.1019 98.0806 82.1606 97.5204 81.4118C93.089 75.4586 87.0413 70.9107 80.1003 68.3118ZM51.2857 50.5882C51.2857 47.5633 52.1804 44.6064 53.8567 42.0913C55.5329 39.5762 57.9154 37.6159 60.7029 36.4583C63.4904 35.3007 66.5577 34.9979 69.5169 35.588C72.4761 36.1781 75.1943 37.6347 77.3278 39.7737C79.4613 41.9126 80.9142 44.6377 81.5028 47.6045C82.0914 50.5713 81.7893 53.6464 80.6347 56.441C79.4801 59.2357 77.5248 61.6243 75.0161 63.3048C72.5074 64.9854 69.558 65.8824 66.5408 65.8824C62.4949 65.8824 58.6147 64.271 55.7538 61.4028C52.8929 58.5346 51.2857 54.6445 51.2857 50.5882ZM108.786 0H24.2959C22.1174 0 20.028 0.867645 18.4875 2.41206C16.9471 3.95648 16.0816 6.05116 16.0816 8.23529V23.5294H5.52041C4.58674 23.5294 3.69131 23.9013 3.0311 24.5632C2.3709 25.225 2 26.1228 2 27.0588C2 27.9949 2.3709 28.8926 3.0311 29.5545C3.69131 30.2164 4.58674 30.5882 5.52041 30.5882H16.0816V56.4706H5.52041C4.58674 56.4706 3.69131 56.8424 3.0311 57.5043C2.3709 58.1662 2 59.0639 2 60C2 60.9361 2.3709 61.8338 3.0311 62.4957C3.69131 63.1576 4.58674 63.5294 5.52041 63.5294H16.0816V89.4118H5.52041C4.58674 89.4118 3.69131 89.7836 3.0311 90.4455C2.3709 91.1074 2 92.0051 2 92.9412C2 93.8772 2.3709 94.775 3.0311 95.4369C3.69131 96.0987 4.58674 96.4706 5.52041 96.4706H16.0816V111.765C16.0816 113.949 16.9471 116.044 18.4875 117.588C20.028 119.132 22.1174 120 24.2959 120H108.786C110.964 120 113.054 119.132 114.594 117.588C116.135 116.044 117 113.949 117 111.765V8.23529C117 6.05116 116.135 3.95648 114.594 2.41206C113.054 0.867645 110.964 0 108.786 0ZM109.959 111.765C109.959 112.077 109.836 112.376 109.615 112.597C109.395 112.817 109.097 112.941 108.786 112.941H24.2959C23.9847 112.941 23.6862 112.817 23.4661 112.597C23.2461 112.376 23.1224 112.077 23.1224 111.765V8.23529C23.1224 7.92328 23.2461 7.62403 23.4661 7.4034C23.6862 7.18277 23.9847 7.05882 24.2959 7.05882H108.786C109.097 7.05882 109.395 7.18277 109.615 7.4034C109.836 7.62403 109.959 7.92328 109.959 8.23529V111.765Z" fill="#8197A9"/>
</svg>
