<svg width="100" height="100" viewBox="0 0 100 100" fill="none" xmlns="http://www.w3.org/2000/svg">
<g clip-path="url(#clip0_702_12)">
<path d="M89.455 28.435C93.0701 35.0472 94.96 42.4641 94.95 50C94.9519 57.8662 92.8887 65.5951 88.9665 72.4137C85.0443 79.2324 79.4007 84.9018 72.6 88.855L86.33 49.16C88.895 42.75 89.75 37.615 89.75 33.065C89.7518 31.5169 89.6533 29.9703 89.455 28.435V28.435ZM56.2 28.87C57.9148 28.7857 59.6259 28.6389 61.33 28.43C63.755 28.115 63.47 24.555 61.05 24.685C61.05 24.685 53.735 25.245 49.05 25.245C44.615 25.245 37.175 24.62 37.175 24.62C34.74 24.5 34.425 28.185 36.87 28.31C36.87 28.31 39.115 28.57 41.56 28.685L48.555 47.875L38.68 77.37L22.31 28.75C25.015 28.62 27.45 28.335 27.45 28.335C29.885 28.02 29.6 24.46 27.175 24.6C27.175 24.6 19.9 25.175 15.2 25.175C14.365 25.175 13.375 25.14 12.325 25.11C20.465 13.125 34.31 5.06 50 5.06C61.705 5.06 72.355 9.53 80.355 16.86C80.165 16.85 79.975 16.82 79.77 16.82C75.355 16.82 72.22 20.67 72.22 24.8C72.22 28.505 74.355 31.645 76.635 35.34C78.35 38.345 80.345 42.19 80.345 47.745C80.345 51.56 78.87 56.055 76.92 62.24L72.44 77.175L56.19 28.8L56.2 28.87V28.87ZM50 94.93C45.7014 94.9342 41.4244 94.3213 37.3 93.11L50.785 53.92L64.6 91.78C64.705 92 64.81 92.205 64.925 92.4C60.1288 94.082 55.0826 94.9408 50 94.94V94.93ZM5.05 50C5.04271 43.6973 6.36838 37.4642 8.94 31.71L30.375 90.455C22.7823 86.7684 16.3805 81.0191 11.902 73.8649C7.4234 66.7107 5.04887 58.4404 5.05 50V50ZM50 0C22.435 0 0 22.435 0 50C0 77.565 22.435 100 50 100C77.565 100 100 77.565 100 50C100 22.435 77.565 0 50 0" fill="#21609B"/>
</g>
<defs>
<clipPath id="clip0_702_12">
<rect width="100" height="100" fill="white"/>
</clipPath>
</defs>
</svg>
