<svg width="100" height="100" viewBox="0 0 100 100" fill="none" xmlns="http://www.w3.org/2000/svg">
<path d="M82.2912 1.34763e-05H17.7088C15.3825 -0.00285095 13.0784 0.450941 10.9286 1.3354C8.77872 2.21986 6.82538 3.5176 5.18039 5.15431C3.5354 6.79102 2.23109 8.73454 1.34215 10.8735C0.453222 13.0126 -0.00286537 15.305 1.35445e-05 17.6197V79.3803C-0.00286537 81.695 0.453222 83.9874 1.34215 86.1265C2.23109 88.2655 3.5354 90.209 5.18039 91.8457C6.82538 93.4824 8.77872 94.7801 10.9286 95.6646C13.0784 96.5491 15.3825 97.0029 17.7088 97H82.2912C84.6175 97.0029 86.9216 96.5491 89.0715 95.6646C91.2213 94.7801 93.1746 93.4824 94.8196 91.8457C96.4646 90.209 97.7689 88.2655 98.6579 86.1265C99.5468 83.9874 100.003 81.695 100 79.3803V17.6197C100.003 15.305 99.5468 13.0126 98.6579 10.8735C97.7689 8.73454 96.4646 6.79102 94.8196 5.15431C93.1746 3.5176 91.2213 2.21986 89.0715 1.3354C86.9216 0.450941 84.6175 -0.00285095 82.2912 1.34763e-05V1.34763e-05ZM95.7845 77.7635C95.796 79.7404 95.4148 81.7 94.6626 83.5298C93.9104 85.3595 92.8022 87.0233 91.4016 88.4255C90.001 89.8277 88.3357 90.9406 86.5014 91.7004C84.6671 92.4601 82.7 92.8516 80.7131 92.8523H19.29C15.2814 92.8466 11.4385 91.2596 8.60398 88.4393C5.76942 85.619 4.17442 81.7956 4.16863 77.8071V19.1898C4.17442 15.2013 5.76942 11.3779 8.60398 8.55756C11.4385 5.73727 15.2814 4.1503 19.29 4.14454H80.6631C84.6733 4.14537 88.519 5.73075 91.3546 8.55211C94.1903 11.3735 95.7837 15.1998 95.7845 19.1898V77.7635ZM39.5363 45.3908L51.2078 67.6898C51.4203 68.0287 51.2922 68.3521 50.9609 68.3521H43.7018C43.2487 68.3521 43.0362 68.2401 42.8393 67.8173C40.1738 62.3451 37.452 56.873 34.6677 50.9936H34.5896C32.0274 56.6552 29.3845 62.2802 26.6617 67.867C26.4711 68.1904 26.2586 68.3179 25.9148 68.3179H19.0432C18.6213 68.3179 18.5901 67.979 18.8025 67.7365L30.2116 46.0997L19.1775 24.208C18.915 23.8691 19.1775 23.6235 19.4182 23.6235H26.5804C27.0023 23.6235 27.1679 23.7075 27.3304 24.0743C29.9895 29.5898 32.5885 35.1338 35.127 40.7053H35.2052C37.6301 35.2332 40.3019 29.5496 42.8705 24.1241C43.083 23.7852 43.2112 23.5738 43.6205 23.5738H50.3234C50.6641 23.5738 50.7953 23.8349 50.5859 24.1583L39.5363 45.3908ZM53.2546 52.144C53.2546 42.4931 59.7013 34.944 69.9541 34.944C70.8322 34.944 71.2884 34.944 72.1196 35.028V24.0495C72.1196 23.7883 72.329 23.6266 72.5415 23.6266H79.1163C79.4569 23.6266 79.5413 23.7541 79.5413 23.95V62.0218C79.5413 63.138 79.5413 64.5464 79.7538 66.0668C79.7538 66.328 79.6694 66.4057 79.4131 66.5394C76.0815 68.1145 72.4396 68.9333 68.751 68.9366C59.7013 68.9832 53.2546 63.4303 53.2546 52.144V52.144ZM72.1228 41.5355C71.3531 41.2428 70.5341 41.1003 69.7103 41.1157C64.4574 41.1157 60.795 45.1452 60.795 51.8206C60.795 59.4474 64.5355 62.5068 69.2572 62.5068C70.2478 62.5068 71.3415 62.3949 72.1228 62.056V41.5355Z" fill="#FF7262"/>
</svg>
