<svg width="100" height="100" viewBox="0 0 100 100" fill="none" xmlns="http://www.w3.org/2000/svg">
<path d="M78.5703 67.8572V25H71.4275V75H99.9989V67.8572H78.5703Z" fill="#21609B"/>
<path d="M57.1437 25L51.7151 42.8572L50.0008 49.9286L48.3579 42.8572L42.8579 25H35.7151V75H42.8579V46.4286L42.2865 39.2858L44.3579 46.4286L50.0008 62.9643L55.6437 46.4286L57.7151 39.2858L57.1437 46.4286V75H64.2865V25H57.1437V25Z" fill="#21609B"/>
<path d="M28.5714 25H21.4286L14.2857 46.4286L7.14286 25H0L9.82143 50L0 75H7.14286L14.2857 53.5714L21.4286 75H28.5714L18.75 50L28.5714 25Z" fill="#21609B"/>
</svg>
